<?xml version="1.0" standalone="no"?>
<!DOCTYPE svg PUBLIC "-//W3C//DTD SVG 1.1//EN" "http://www.w3.org/Graphics/SVG/1.1/DTD/svg11.dtd" >
<svg xmlns="http://www.w3.org/2000/svg">
<metadata>
This is a custom SVG webfont generated by Font Squirrel.
Copyright   : Copyright c ParaType Inc 2002 All rights reserved
Foundry     : ParaType Inc
</metadata>
<defs>
<font id="RodchenkoCondCRegular" horiz-adv-x="704" >
<font-face units-per-em="2048" ascent="1638" descent="-410" />
<missing-glyph horiz-adv-x="477" />
<glyph unicode=" "  horiz-adv-x="477" />
<glyph unicode="&#x09;" horiz-adv-x="477" />
<glyph unicode="&#xa0;" horiz-adv-x="477" />
<glyph unicode="!" horiz-adv-x="376" d="M88 0v201h201v-201h-201zM92 1434h193l-21 -1026h-151z" />
<glyph unicode="&#x22;" horiz-adv-x="524" d="M59 1434h181l-31 -527h-119zM285 1434h180l-31 -527h-119z" />
<glyph unicode="#" horiz-adv-x="882" d="M2 459v170h203l26 202h-180v170h199l53 433h146l-54 -433h174l56 433h143l-55 -433h168v-170h-187l-24 -202h164v-170h-187l-57 -459h-144l58 459h-176l-58 -459h-143l57 459h-182zM348 629h178l25 202h-174z" />
<glyph unicode="$" horiz-adv-x="774" d="M98 0v168h406v471h-406v795h207v188h164v-188h207v-168h-406v-459h406v-807h-207v-188h-164v188h-207z" />
<glyph unicode="%" horiz-adv-x="1290" d="M88 713v721h469v-721h-469zM195 -16l815 1556l102 -49l-815 -1557zM240 856h166v434h-166v-434zM733 0v721h469v-721h-469zM885 143h166v435h-166v-435z" />
<glyph unicode="&#x26;" horiz-adv-x="784" d="M115 0v594l139 123l-139 123v594h442v-164h-278v-363l108 -108h100v127h160v-127h80v-164h-76v-635h-536zM279 164h208v471h-100l-108 -109v-362z" />
<glyph unicode="'" horiz-adv-x="299" d="M59 1434h181l-31 -527h-119z" />
<glyph unicode="(" horiz-adv-x="620" d="M47 602q0 240 88 422q74 160 219 287q94 84 219 149v-164q-170 -119 -266 -299q-84 -162 -84 -395t84 -395q96 -180 266 -299v-164q-125 66 -219 150q-145 127 -219 286q-88 182 -88 422z" />
<glyph unicode=")" horiz-adv-x="620" d="M47 -92q170 119 266 299q84 162 84 395.5t-84 394.5q-96 180 -266 299v164q125 -66 219 -149q145 -127 219 -287q88 -182 88 -422t-88 -422q-74 -160 -219 -286q-94 -84 -219 -150v164z" />
<glyph unicode="*" horiz-adv-x="860" d="M-4 1100l37 119l309 -109l-14 324h127l-11 -324l306 111l36 -119l-311 -92l201 -256l-103 -74l-182 270l-182 -270l-100 74l200 258z" />
<glyph unicode="+" horiz-adv-x="901" d="M47 649v152h328v327h151v-327h328v-152h-328v-327h-151v327h-328z" />
<glyph unicode="," horiz-adv-x="360" d="M88 184h184v-184l-184 -184v368z" />
<glyph unicode="-" horiz-adv-x="548" d="M84 559v176h381v-176h-381z" />
<glyph unicode="." horiz-adv-x="360" d="M88 0v184h184v-184h-184z" />
<glyph unicode="/" horiz-adv-x="655" d="M12 -76l518 1637l113 -35l-518 -1637z" />
<glyph unicode="0" horiz-adv-x="745" d="M104 0v1434h537v-1434h-537zM268 164h209v1106h-209v-1106z" />
<glyph unicode="1" horiz-adv-x="421" d="M27 1270v164h290v-1434h-163v1270h-127z" />
<glyph unicode="2" horiz-adv-x="696" d="M80 0v164l373 741v365h-209v-144h-164v308h536v-560l-364 -710h364v-164h-536z" />
<glyph unicode="3" horiz-adv-x="690" d="M61 0v293h164v-129h209v508h-248v164l222 434h-347v164h537v-164l-244 -434h244v-836h-537z" />
<glyph unicode="4" horiz-adv-x="729" d="M88 492v942h164v-779h209v779h164v-1434h-164v492h-373z" />
<glyph unicode="5" horiz-adv-x="739" d="M104 0v293h164v-129h209v508h-373v762h537v-164h-373v-434h373v-836h-537z" />
<glyph unicode="6" horiz-adv-x="745" d="M104 0v1434h537v-308h-164v144h-209v-471h373v-799h-537zM268 164h209v471h-209v-471z" />
<glyph unicode="7" horiz-adv-x="649" d="M51 1167v267h553v-164l-297 -1270h-176l299 1270h-213v-103h-166z" />
<glyph unicode="8" horiz-adv-x="745" d="M104 0v553l123 164l-123 164v553h537v-553l-123 -164l123 -164v-553h-537zM268 164h209v336l-96 131h-16l-97 -131v-336zM268 926l97 -131h16l96 131v344h-209v-344z" />
<glyph unicode="9" horiz-adv-x="745" d="M104 0v299h164v-135h209v471h-373v799h537v-1434h-537zM268 799h209v471h-209v-471z" />
<glyph unicode=":" horiz-adv-x="360" d="M88 0v184h184v-184h-184zM88 680v184h184v-184h-184z" />
<glyph unicode=";" horiz-adv-x="360" d="M88 184h184v-184l-184 -184v368zM88 680v184h184v-184h-184z" />
<glyph unicode="&#x3c;" horiz-adv-x="843" d="M27 670v131l759 340v-156l-565 -262l565 -238v-155z" />
<glyph unicode="=" horiz-adv-x="901" d="M47 483v152h807v-152h-807zM47 815v152h807v-152h-807z" />
<glyph unicode="&#x3e;" horiz-adv-x="843" d="M57 317v156l566 250l-566 250v155l760 -340v-131z" />
<glyph unicode="?" horiz-adv-x="749" d="M74 1100v334h602v-560l-242 -325v-211h-172v264l242 334v330h-258v-166h-172zM248 0v201h201v-201h-201z" />
<glyph unicode="@" horiz-adv-x="1222" d="M115 0v1434h993v-1213h-762v631h352v197h-352v168h520v-828h113v926h-735v-1196h864v-119h-993zM514 389h184v295h-184v-295z" />
<glyph unicode="A" horiz-adv-x="727" d="M47 0l96 1434h441l96 -1434h-170l-25 408h-243l-25 -408h-170zM254 575h219l-39 691h-141z" />
<glyph unicode="B" horiz-adv-x="819" d="M109 0v1434h602v-564l-150 -153l150 -154v-563h-602zM281 168h258v330l-121 135h-137v-465zM281 801h139l119 135v330h-258v-465z" />
<glyph unicode="C" horiz-adv-x="772" d="M109 0v1434h602v-347h-172v179h-258v-1098h258v188h172v-356h-602z" />
<glyph unicode="D" horiz-adv-x="829" d="M78 0v168h72v1098h-72v168h643v-1434h-643zM322 168h227v1098h-227v-1098z" />
<glyph unicode="E" horiz-adv-x="702" d="M109 0v1434h589v-168h-417v-463h286v-168h-286v-467h417v-168h-589z" />
<glyph unicode="F" horiz-adv-x="667" d="M109 0v1434h565v-168h-393v-463h299v-168h-299v-635h-172z" />
<glyph unicode="G" horiz-adv-x="798" d="M109 0v1434h602v-168h-430v-1098h258v475h-107v168h279v-811h-602z" />
<glyph unicode="H" horiz-adv-x="819" d="M109 0v1434h172v-623h258v623h172v-1434h-172v643h-258v-643h-172z" />
<glyph unicode="I" horiz-adv-x="389" d="M109 0v1434h172v-1434h-172z" />
<glyph unicode="J" horiz-adv-x="737" d="M33 0v356h172v-188h252v1266h172v-1434h-596z" />
<glyph unicode="K" horiz-adv-x="778" d="M109 0v1434h172v-625h112l185 625h184l-219 -693l229 -741h-188l-191 641h-112v-641h-172z" />
<glyph unicode="L" horiz-adv-x="737" d="M109 0v1434h172v-1266h251v188h173v-356h-596z" />
<glyph unicode="M" horiz-adv-x="966" d="M109 0v1434h170l204 -525l205 525h170v-1434h-170v1016l-205 -516l-204 516v-1016h-170z" />
<glyph unicode="N" horiz-adv-x="856" d="M109 0v1434h192l274 -942v942h173v-1434h-193l-274 942v-942h-172z" />
<glyph unicode="O" horiz-adv-x="819" d="M109 0v1434h602v-1434h-602zM281 168h258v1098h-258v-1098z" />
<glyph unicode="P" horiz-adv-x="786" d="M109 0v1434h602v-936h-430v-498h-172zM281 666h258v600h-258v-600z" />
<glyph unicode="Q" horiz-adv-x="819" d="M109 0v1434h602v-1434h-215v-174h-172v174h-215zM281 168h258v1098h-258v-1098z" />
<glyph unicode="R" horiz-adv-x="821" d="M109 0v1434h604v-895h-146l176 -539h-184l-174 539h-104v-539h-172zM281 707h260v559h-260v-559z" />
<glyph unicode="S" horiz-adv-x="741" d="M82 0v168h405v471h-405v795h577v-168h-405v-459h405v-807h-577z" />
<glyph unicode="T" horiz-adv-x="602" d="M0 1266v168h602v-168h-215v-1266h-172v1266h-215z" />
<glyph unicode="U" horiz-adv-x="819" d="M109 0v1434h172v-1266h258v1266h172v-1434h-602z" />
<glyph unicode="V" horiz-adv-x="710" d="M45 1434h182l99 -1266h59l98 1266h183l-119 -1434h-383z" />
<glyph unicode="W" horiz-adv-x="1114" d="M109 0v1434h172v-1266h190v1266h172v-1266h191v1266h172v-1434h-897z" />
<glyph unicode="X" horiz-adv-x="733" d="M18 0l164 723l-151 711h184l125 -627h53l125 627h184l-151 -711l164 -723h-185l-137 639h-53l-137 -639h-185z" />
<glyph unicode="Y" horiz-adv-x="655" d="M-41 1434h184l185 -617l184 617h184l-282 -842v-592h-172v592z" />
<glyph unicode="Z" horiz-adv-x="684" d="M41 0v168l410 1098h-410v168h602v-168l-410 -1098h410v-168h-602z" />
<glyph unicode="[" horiz-adv-x="444" d="M115 -231v1714h305v-168h-121v-1378h121v-168h-305z" />
<glyph unicode="\" horiz-adv-x="655" d="M12 1526l113 35l518 -1637l-113 -35z" />
<glyph unicode="]" horiz-adv-x="444" d="M25 -63h120v1378h-120v168h305v-1714h-305v168z" />
<glyph unicode="^" horiz-adv-x="657" d="M-25 618l283 816h141l283 -816h-147l-207 603l-205 -603h-148z" />
<glyph unicode="_" horiz-adv-x="901" d="M37 -147h827v-103h-827v103z" />
<glyph unicode="`" horiz-adv-x="221" d="M-61 1313l55 100l252 -153l-45 -78z" />
<glyph unicode="a" horiz-adv-x="645" d="M47 0l76 1126h399l76 -1126h-160l-18 311h-195l-18 -311h-160zM236 467h174l-31 504h-113z" />
<glyph unicode="b" d="M96 0v1126h512v-444l-137 -113l137 -112v-457h-512zM256 156h193v252l-97 84h-96v-336zM256 647h96l97 84v240h-193v-324z" />
<glyph unicode="c" horiz-adv-x="669" d="M96 0v1126h512v-323h-159v168h-193v-815h193v168h159v-324h-512z" />
<glyph unicode="d" horiz-adv-x="731" d="M51 0v156h72v815h-72v155h584v-1126h-584zM283 156h192v815h-192v-815z" />
<glyph unicode="e" horiz-adv-x="598" d="M96 0v1126h482v-155h-322v-322h190v-155h-190v-338h322v-156h-482z" />
<glyph unicode="f" horiz-adv-x="567" d="M96 0v1126h471v-155h-311v-357h207v-155h-207v-459h-160z" />
<glyph unicode="g" horiz-adv-x="686" d="M96 0v1126h512v-155h-352v-815h193v403h159v-559h-512z" />
<glyph unicode="h" d="M96 0v1126h160v-477h193v477h159v-1126h-159v494h-193v-494h-160z" />
<glyph unicode="i" horiz-adv-x="352" d="M96 0v1126h160v-1126h-160z" />
<glyph unicode="j" horiz-adv-x="638" d="M31 0v272h159v-116h193v970h160v-1126h-512z" />
<glyph unicode="k" horiz-adv-x="696" d="M96 0v1126h160v-479h84l176 479h180l-223 -544l236 -582h-181l-188 492h-84v-492h-160z" />
<glyph unicode="l" horiz-adv-x="638" d="M96 0v1126h160v-970h193v116h159v-272h-512z" />
<glyph unicode="m" horiz-adv-x="823" d="M96 0v1126h160l156 -387l155 387h160v-1126h-160v791l-155 -398l-156 398v-791h-160z" />
<glyph unicode="n" horiz-adv-x="745" d="M96 0v1126h160l233 -729v729h160v-1126h-160l-233 729v-729h-160z" />
<glyph unicode="o" d="M96 0v1126h512v-1126h-512zM256 156h193v815h-193v-815z" />
<glyph unicode="p" horiz-adv-x="688" d="M96 0v1126h512v-747h-352v-379h-160zM256 535h193v436h-193v-436z" />
<glyph unicode="q" d="M96 0v1126h512v-1126h-176v-137h-160v137h-176zM256 156h193v815h-193v-815z" />
<glyph unicode="r" d="M96 0v1126h512v-747h-100l141 -379h-170l-135 379h-88v-379h-160zM256 535h193v436h-193v-436z" />
<glyph unicode="s" horiz-adv-x="667" d="M78 0v156h352v338h-352v632h512v-155h-352v-322h352v-649h-512z" />
<glyph unicode="t" horiz-adv-x="544" d="M16 971v155h512v-155h-176v-971h-159v971h-177z" />
<glyph unicode="u" d="M96 0v1126h160v-970h193v970h159v-1126h-512z" />
<glyph unicode="v" horiz-adv-x="645" d="M47 1126h160l59 -970h113l59 970h160l-76 -1126h-399z" />
<glyph unicode="w" horiz-adv-x="937" d="M96 0v1126h160v-970h133v970h160v-970h133v970h160v-1126h-746z" />
<glyph unicode="x" horiz-adv-x="604" d="M-2 0l139 567l-129 559h168l100 -481h52l100 481h168l-129 -559l139 -567h-168l-110 489h-52l-110 -489h-168z" />
<glyph unicode="y" horiz-adv-x="561" d="M-27 1126h168l140 -458l139 458h168l-228 -661v-465h-159v465z" />
<glyph unicode="z" horiz-adv-x="557" d="M41 0v156l309 815h-309v155h473v-155l-309 -815h309v-156h-473z" />
<glyph unicode="{" horiz-adv-x="565" d="M-8 717l160 137v629h364v-168h-192v-479l-127 -119l127 -119v-479h192v-168h-364v629z" />
<glyph unicode="|" horiz-adv-x="360" d="M98 0v1434h164v-1434h-164z" />
<glyph unicode="}" horiz-adv-x="565" d="M49 -49v168h193v479l127 119l-127 119v479h-193v168h365v-629l159 -137l-159 -137v-629h-365z" />
<glyph unicode="~" horiz-adv-x="823" d="M6 709l193 262l389 -201l106 141l123 -63l-190 -260l-394 200l-104 -145z" />
<glyph unicode="&#xa3;" horiz-adv-x="768" d="M18 649v154h97v631h358v-168l-186 4v-467h207v-154h-207v-481h252v188h172v-356h-596v649h-97z" />
<glyph unicode="&#xa8;" horiz-adv-x="237" d="M-86 1212v138h143v-138h-143zM180 1212v138h144v-138h-144z" />
<glyph unicode="&#xa9;" horiz-adv-x="1507" d="M16 717q0 307 215 522t522.5 215t522.5 -215t215 -522t-215 -522t-522.5 -215t-522.5 215t-215 522zM125 716.5q0 -270.5 182 -454.5t446.5 -184t446.5 184t182 454.5t-182 455t-446.5 184.5t-446.5 -184.5t-182 -455zM500 303v827h483v-243h-156v96h-172v-532h172v94 h156v-242h-483z" />
<glyph unicode="&#xab;" horiz-adv-x="702" d="M-8 625l198 379h172l-198 -379l198 -379h-172zM330 625l198 379h172l-198 -379l198 -379h-172z" />
<glyph unicode="&#xad;" horiz-adv-x="548" d="M84 559v176h381v-176h-381z" />
<glyph unicode="&#xae;" horiz-adv-x="1507" d="M16 717q0 307 215 522t522.5 215t522.5 -215t215 -522t-215 -522t-522.5 -215t-522.5 215t-215 522zM125 716.5q0 -270.5 182 -454.5t446.5 -184t446.5 184t182 454.5t-182 455t-446.5 184.5t-446.5 -184.5t-182 -455zM510 303v827h483v-552h-96l113 -275h-172l-105 275 h-67v-275h-156zM666 725h172v258h-172v-258z" />
<glyph unicode="&#xb0;" horiz-adv-x="487" d="M33 1229q0 86 62.5 148.5t148.5 62.5t148.5 -62.5t62.5 -148.5t-62.5 -148.5t-148.5 -62.5t-148.5 62.5t-62.5 148.5zM127 1229q0 -47 35 -82t82 -35t81.5 35t34.5 82t-34.5 82t-81.5 35t-82 -35t-35 -82z" />
<glyph unicode="&#xb4;" horiz-adv-x="221" d="M-25 1260l252 153l56 -100l-263 -131z" />
<glyph unicode="&#xbb;" horiz-adv-x="702" d="M2 246l199 379l-199 379h172l199 -379l-199 -379h-172zM340 246l199 379l-199 379h172l199 -379l-199 -379h-172z" />
<glyph unicode="&#x2c6;" horiz-adv-x="657" d="M-25 618l283 816h141l283 -816h-147l-207 603l-205 -603h-148z" />
<glyph unicode="&#x2da;" horiz-adv-x="477" d="M-211 334q0 86 62.5 148.5t148.5 62.5t148.5 -62.5t62.5 -148.5t-62.5 -148.5t-148.5 -62.5t-148.5 62.5t-62.5 148.5zM-117 334q0 -47 35 -82t82 -35t81.5 35t34.5 82t-34.5 82t-81.5 35t-82 -35t-35 -82z" />
<glyph unicode="&#x2dc;" horiz-adv-x="477" d="M-406 244l193 262l389 -201l106 141l123 -63l-190 -260l-394 200l-104 -145z" />
<glyph unicode="&#x400;" horiz-adv-x="702" d="M142 1688l55 100l252 -153l-45 -78zM109 0v1434h589v-168h-417v-463h286v-168h-286v-467h417v-168h-589z" />
<glyph unicode="&#x401;" horiz-adv-x="722" d="M109 0v1434h589v-168h-417v-463h286v-168h-286v-467h417v-168h-589zM164 1503v162h168v-162h-168zM449 1503v162h167v-162h-167z" />
<glyph unicode="&#x402;" horiz-adv-x="933" d="M51 1266v168h602v-168h-239v-330h417v-936h-301v168h129v600h-245v-768h-172v1266h-191z" />
<glyph unicode="&#x403;" horiz-adv-x="741" d="M109 0v1434h565v-168h-393v-1266h-172zM229 1579l273 158l57 -103l-283 -135z" />
<glyph unicode="&#x404;" horiz-adv-x="817" d="M129 0v1434h602v-312h-172v144h-258v-463h262v-172h-262v-463h258v143h172v-311h-602z" />
<glyph unicode="&#x405;" horiz-adv-x="741" d="M82 0v168h405v471h-405v795h577v-168h-405v-459h405v-807h-577z" />
<glyph unicode="&#x406;" horiz-adv-x="389" d="M109 0v1434h172v-1434h-172z" />
<glyph unicode="&#x407;" horiz-adv-x="430" d="M-12 1509v162h170v-162h-170zM129 0v1434h172v-1434h-172zM274 1509v162h168v-162h-168z" />
<glyph unicode="&#x408;" horiz-adv-x="778" d="M53 0v356h172v-188h252v1266h172v-1434h-596z" />
<glyph unicode="&#x409;" horiz-adv-x="1187" d="M4 0v168h70l92 1266h496v-594h417v-840h-590v1266h-167l-97 -1266h-221zM662 168h245v504h-245v-504z" />
<glyph unicode="&#x40a;" horiz-adv-x="1257" d="M129 0v1434h172v-594h258v594h172v-594h418v-840h-590v672h-258v-672h-172zM731 168h246v504h-246v-504z" />
<glyph unicode="&#x40b;" horiz-adv-x="933" d="M51 1266v168h602v-168h-239v-330h417v-936h-172v768h-245v-768h-172v1266h-191z" />
<glyph unicode="&#x40c;" horiz-adv-x="778" d="M109 0v1434h172v-625h112l185 625h184l-219 -693l229 -741h-188l-191 641h-112v-641h-172zM311 1579l273 158l57 -103l-283 -135z" />
<glyph unicode="&#x40d;" horiz-adv-x="856" d="M166 1688l55 100l252 -153l-45 -78zM109 0v1434h172v-973l274 973h193v-1434h-173v973l-274 -973h-192z" />
<glyph unicode="&#x40e;" horiz-adv-x="854" d="M109 0v168h423v330h-423v936h172v-768h251v768h173v-1434h-596zM211 1503v168h430v-168h-430z" />
<glyph unicode="&#x40f;" horiz-adv-x="858" d="M129 0v1434h172v-1266h256v1266h172v-1434h-213v-188h-174v188h-213z" />
<glyph unicode="&#x410;" horiz-adv-x="727" d="M47 0l96 1434h441l96 -1434h-170l-25 408h-243l-25 -408h-170zM254 575h219l-39 691h-141z" />
<glyph unicode="&#x411;" horiz-adv-x="819" d="M109 0v1434h602v-168h-430v-445h430v-821h-602zM281 168h258v485h-258v-485z" />
<glyph unicode="&#x412;" horiz-adv-x="819" d="M109 0v1434h602v-564l-150 -153l150 -154v-563h-602zM281 168h258v330l-121 135h-137v-465zM281 801h139l119 135v330h-258v-465z" />
<glyph unicode="&#x413;" horiz-adv-x="645" d="M109 0v1434h565v-168h-393v-1266h-172z" />
<glyph unicode="&#x414;" horiz-adv-x="772" d="M8 168h66l104 1266h484v-1266h75v-356h-174v188h-383v-188h-172v356zM242 168h247v1098h-155z" />
<glyph unicode="&#x415;" horiz-adv-x="702" d="M109 0v1434h589v-168h-417v-463h286v-168h-286v-467h417v-168h-589z" />
<glyph unicode="&#x416;" horiz-adv-x="1040" d="M-4 0l223 741l-211 693h185l180 -627h61v627h172v-627h62l180 627h184l-211 -693l223 -741h-184l-192 639h-62v-639h-172v639h-61l-193 -639h-184z" />
<glyph unicode="&#x417;" horiz-adv-x="686" d="M45 0v295h172v-127h234v192l-299 357l299 356v193h-234v-121h-172v289h578v-402l-269 -315l269 -316v-401h-578z" />
<glyph unicode="&#x418;" horiz-adv-x="856" d="M109 0v1434h172v-973l274 973h193v-1434h-173v973l-274 -973h-192z" />
<glyph unicode="&#x419;" horiz-adv-x="856" d="M109 0v1434h172v-973l274 973h193v-1434h-173v973l-274 -973h-192zM213 1503v168h430v-168h-430z" />
<glyph unicode="&#x41a;" horiz-adv-x="778" d="M109 0v1434h172v-625h112l185 625h184l-219 -693l229 -741h-188l-191 641h-112v-641h-172z" />
<glyph unicode="&#x41b;" horiz-adv-x="755" d="M-10 0v168h69l93 1266h495v-1434h-172v1266h-168l-96 -1266h-221z" />
<glyph unicode="&#x41c;" horiz-adv-x="966" d="M109 0v1434h170l204 -525l205 525h170v-1434h-170v1016l-205 -516l-204 516v-1016h-170z" />
<glyph unicode="&#x41d;" horiz-adv-x="819" d="M109 0v1434h172v-623h258v623h172v-1434h-172v643h-258v-643h-172z" />
<glyph unicode="&#x41e;" horiz-adv-x="819" d="M109 0v1434h602v-1434h-602zM281 168h258v1098h-258v-1098z" />
<glyph unicode="&#x41f;" horiz-adv-x="819" d="M109 0v1434h602v-1434h-172v1266h-258v-1266h-172z" />
<glyph unicode="&#x420;" horiz-adv-x="786" d="M109 0v1434h602v-936h-430v-498h-172zM281 666h258v600h-258v-600z" />
<glyph unicode="&#x421;" horiz-adv-x="772" d="M109 0v1434h602v-347h-172v179h-258v-1098h258v188h172v-356h-602z" />
<glyph unicode="&#x422;" horiz-adv-x="602" d="M0 1266v168h602v-168h-215v-1266h-172v1266h-215z" />
<glyph unicode="&#x423;" horiz-adv-x="813" d="M109 0v168h423v330h-423v936h172v-768h251v768h173v-1434h-596z" />
<glyph unicode="&#x424;" horiz-adv-x="1052" d="M96 223v1041h344v198h172v-198h344v-1041h-344v-223h-172v223h-344zM268 391h172v705h-172v-705zM612 391h172v705h-172v-705z" />
<glyph unicode="&#x425;" horiz-adv-x="733" d="M18 0l164 723l-151 711h184l125 -627h53l125 627h184l-151 -711l164 -723h-185l-137 639h-53l-137 -639h-185z" />
<glyph unicode="&#x426;" horiz-adv-x="817" d="M109 0v1434h172v-1266h258v1266h172v-1266h92v-356h-174v188h-520z" />
<glyph unicode="&#x427;" horiz-adv-x="790" d="M92 498v936h172v-768h246v768h172v-1434h-172v498h-418z" />
<glyph unicode="&#x428;" horiz-adv-x="1114" d="M109 0v1434h172v-1266h190v1266h172v-1266h191v1266h172v-1434h-897z" />
<glyph unicode="&#x429;" horiz-adv-x="1112" d="M109 0v1434h172v-1266h190v1266h172v-1266h191v1266h172v-1266h92v-356h-174v188h-815z" />
<glyph unicode="&#x42a;" horiz-adv-x="880" d="M-8 1266v168h399v-594h418v-840h-590v1266h-227zM391 168h246v504h-246v-504z" />
<glyph unicode="&#x42b;" horiz-adv-x="1153" d="M109 0v1434h172v-594h417v-840h-589zM281 168h245v504h-245v-504zM872 0v1434h172v-1434h-172z" />
<glyph unicode="&#x42c;" horiz-adv-x="786" d="M109 0v1434h172v-594h417v-840h-589zM281 168h245v504h-245v-504z" />
<glyph unicode="&#x42d;" horiz-adv-x="776" d="M66 0v311h172v-143h258v463h-263v172h263v463h-258v-144h-172v312h602v-1434h-602z" />
<glyph unicode="&#x42e;" horiz-adv-x="1196" d="M109 0v1434h172v-623h204v623h602v-1434h-602v643h-204v-643h-172zM657 168h258v1098h-258v-1098z" />
<glyph unicode="&#x42f;" horiz-adv-x="819" d="M63 0l164 539h-118v895h602v-1434h-172v539h-136l-143 -539h-197zM279 707h260v559h-260v-559z" />
<glyph unicode="&#x430;" horiz-adv-x="645" d="M47 0l76 1126h399l76 -1126h-160l-18 311h-195l-18 -311h-160zM236 467h174l-31 504h-113z" />
<glyph unicode="&#x431;" horiz-adv-x="694" d="M96 0v1126h512v-155h-352v-322h352v-649h-512zM256 156h193v338h-193v-338z" />
<glyph unicode="&#x432;" d="M96 0v1126h512v-444l-137 -113l137 -112v-457h-512zM256 156h193v252l-97 84h-96v-336zM256 647h96l97 84v240h-193v-324z" />
<glyph unicode="&#x433;" horiz-adv-x="563" d="M96 0v1126h471v-155h-311v-971h-160z" />
<glyph unicode="&#x434;" horiz-adv-x="731" d="M-6 156h82l112 970h441v-970h76v-324h-160v168h-391v-168h-160v324zM229 156h240v815h-147z" />
<glyph unicode="&#x435;" horiz-adv-x="598" d="M96 0v1126h482v-155h-322v-322h190v-155h-190v-338h322v-156h-482z" />
<glyph unicode="&#x436;" horiz-adv-x="915" d="M-10 0l203 582l-193 544h172l152 -479h57v479h154v-479h57l151 479h172l-192 -544l203 -582h-174l-160 492h-57v-492h-154v492h-57l-160 -492h-174z" />
<glyph unicode="&#x437;" horiz-adv-x="587" d="M53 0v248h160v-92h154v127l-222 280l222 281v127h-154v-88h-160v243h473v-323l-202 -240l202 -239v-324h-473z" />
<glyph unicode="&#x438;" horiz-adv-x="763" d="M96 0v1126h160v-729l252 729h160v-1126h-160v729l-252 -729h-160z" />
<glyph unicode="&#x439;" horiz-adv-x="763" d="M96 0v1126h160v-729l252 729h160v-1126h-160v729l-252 -729h-160zM201 1241v143h362v-143h-362z" />
<glyph unicode="&#x43a;" horiz-adv-x="696" d="M96 0v1126h160v-479h84l176 479h180l-223 -544l236 -582h-181l-188 492h-84v-492h-160z" />
<glyph unicode="&#x43b;" horiz-adv-x="679" d="M-6 0v156h86l104 970h400v-1126h-160v971h-109l-104 -971h-217z" />
<glyph unicode="&#x43c;" horiz-adv-x="823" d="M96 0v1126h160l156 -387l155 387h160v-1126h-160v791l-155 -398l-156 398v-791h-160z" />
<glyph unicode="&#x43d;" d="M96 0v1126h160v-477h193v477h159v-1126h-159v494h-193v-494h-160z" />
<glyph unicode="&#x43e;" d="M96 0v1126h512v-1126h-512zM256 156h193v815h-193v-815z" />
<glyph unicode="&#x43f;" d="M96 0v1126h512v-1126h-159v971h-193v-971h-160z" />
<glyph unicode="&#x440;" horiz-adv-x="688" d="M96 0v1126h512v-747h-352v-379h-160zM256 535h193v436h-193v-436z" />
<glyph unicode="&#x441;" horiz-adv-x="669" d="M96 0v1126h512v-323h-159v168h-193v-815h193v168h159v-324h-512z" />
<glyph unicode="&#x442;" horiz-adv-x="544" d="M16 971v155h512v-155h-176v-971h-159v971h-177z" />
<glyph unicode="&#x443;" d="M96 0v156h353v223h-353v747h160v-591h193v591h159v-1126h-512z" />
<glyph unicode="&#x444;" horiz-adv-x="905" d="M82 156v823h291v170h159v-170h291v-823h-291v-176h-159v176h-291zM242 311h131v512h-131v-512zM532 311h132v512h-132v-512z" />
<glyph unicode="&#x445;" horiz-adv-x="604" d="M-2 0l139 567l-129 559h168l100 -481h52l100 481h168l-129 -559l139 -567h-168l-110 489h-52l-110 -489h-168z" />
<glyph unicode="&#x446;" horiz-adv-x="710" d="M96 0v1126h160v-970h193v970h159v-970h76v-324h-160v168h-428z" />
<glyph unicode="&#x447;" horiz-adv-x="688" d="M80 365v761h160v-606h192v606h160v-1126h-160v365h-352z" />
<glyph unicode="&#x448;" horiz-adv-x="937" d="M96 0v1126h160v-970h133v970h160v-970h133v970h160v-1126h-746z" />
<glyph unicode="&#x449;" horiz-adv-x="944" d="M96 0v1126h160v-970h133v970h160v-970h133v970h160v-970h76v-324h-160v168h-662z" />
<glyph unicode="&#x44a;" horiz-adv-x="788" d="M18 971v155h342v-436h353v-690h-512v971h-183zM360 156h193v379h-193v-379z" />
<glyph unicode="&#x44b;" horiz-adv-x="999" d="M96 0v1126h160v-436h352v-690h-512zM256 156h193v379h-193v-379zM743 0v1126h160v-1126h-160z" />
<glyph unicode="&#x44c;" horiz-adv-x="684" d="M96 0v1126h160v-436h352v-690h-512zM256 156h193v379h-193v-379z" />
<glyph unicode="&#x44d;" horiz-adv-x="669" d="M61 0v287h160v-131h193v338h-191v155h191v322h-193v-140h-160v295h512v-1126h-512z" />
<glyph unicode="&#x44e;" horiz-adv-x="1028" d="M96 0v1126h160v-477h164v477h512v-1126h-512v494h-164v-494h-160zM580 156h192v815h-192v-815z" />
<glyph unicode="&#x44f;" d="M55 0l142 379h-101v747h512v-1126h-159v379h-89l-135 -379h-170zM256 535h193v436h-193v-436z" />
<glyph unicode="&#x450;" horiz-adv-x="598" d="M74 1381l55 100l252 -153l-45 -78zM96 0v1126h482v-155h-322v-322h190v-155h-190v-338h322v-156h-482z" />
<glyph unicode="&#x451;" horiz-adv-x="598" d="M96 0v1126h482v-155h-322v-322h190v-155h-190v-338h322v-156h-482zM125 1212v162h160v-162h-160zM387 1212v162h160v-162h-160z" />
<glyph unicode="&#x452;" horiz-adv-x="780" d="M31 971v155h512v-155h-201v-260h352v-711h-266v156h107v399h-193v-555h-160v971h-151z" />
<glyph unicode="&#x453;" horiz-adv-x="593" d="M96 0v1126h471v-155h-311v-971h-160zM166 1260l252 153l55 -100l-262 -131z" />
<glyph unicode="&#x454;" horiz-adv-x="669" d="M96 0v1126h512v-295h-159v140h-193v-322h190v-155h-190v-338h193v131h159v-287h-512z" />
<glyph unicode="&#x455;" horiz-adv-x="667" d="M78 0v156h352v338h-352v632h512v-155h-352v-322h352v-649h-512z" />
<glyph unicode="&#x456;" horiz-adv-x="352" d="M96 0v1126h160v-1126h-160z" />
<glyph unicode="&#x457;" horiz-adv-x="352" d="M-29 1212v138h144v-138h-144zM96 0v1126h160v-1126h-160zM238 1212v138h143v-138h-143z" />
<glyph unicode="&#x458;" horiz-adv-x="638" d="M31 0v272h159v-116h193v970h160v-1126h-512z" />
<glyph unicode="&#x459;" horiz-adv-x="1011" d="M-6 0v156h86l104 970h400v-436h352v-690h-512v971h-109l-104 -971h-217zM584 156h192v379h-192v-379z" />
<glyph unicode="&#x45a;" horiz-adv-x="1036" d="M96 0v1126h160v-436h193v436h159v-436h353v-690h-512v535h-193v-535h-160zM608 156h193v379h-193v-379z" />
<glyph unicode="&#x45b;" horiz-adv-x="780" d="M31 971v155h512v-155h-201v-260h352v-711h-159v555h-193v-555h-160v971h-151z" />
<glyph unicode="&#x45c;" horiz-adv-x="696" d="M96 0v1126h160v-479h84l176 479h180l-223 -544l236 -582h-181l-188 492h-84v-492h-160zM262 1260l252 153l55 -100l-262 -131z" />
<glyph unicode="&#x45d;" horiz-adv-x="763" d="M119 1381l55 100l252 -153l-45 -78zM96 0v1126h160v-729l252 729h160v-1126h-160v729l-252 -729h-160z" />
<glyph unicode="&#x45e;" d="M96 0v156h353v223h-353v747h160v-591h193v591h159v-1126h-512zM170 1223v127h346v-127h-346z" />
<glyph unicode="&#x45f;" d="M96 0v1126h160v-970h193v970h159v-1126h-176v-168h-160v168h-176z" />
<glyph unicode="&#x490;" horiz-adv-x="677" d="M129 0v1434h397v122h168v-290h-393v-1266h-172z" />
<glyph unicode="&#x491;" horiz-adv-x="546" d="M96 0v1126h318v103h153v-258h-311v-971h-160z" />
<glyph unicode="&#x4ae;" horiz-adv-x="655" d="M-41 1434h184l185 -617l184 617h184l-282 -842v-592h-172v592z" />
<glyph unicode="&#x4c0;" horiz-adv-x="389" d="M109 0v1434h172v-1434h-172z" />
<glyph unicode="&#x4d2;" horiz-adv-x="727" d="M137 1556v162h168v-162h-168zM422 1556v162h168v-162h-168zM47 0l96 1434h441l96 -1434h-170l-25 408h-243l-25 -408h-170zM254 575h219l-39 691h-141z" />
<glyph unicode="&#x4d3;" horiz-adv-x="645" d="M119 1249v138h143v-138h-143zM385 1249v138h144v-138h-144zM47 0l76 1126h399l76 -1126h-160l-18 311h-195l-18 -311h-160zM236 467h174l-31 504h-113z" />
<glyph unicode="&#x4dc;" horiz-adv-x="1040" d="M295 1556v162h168v-162h-168zM580 1556v162h168v-162h-168zM-4 0l223 741l-211 693h185l180 -627h61v627h172v-627h62l180 627h184l-211 -693l223 -741h-184l-192 639h-62v-639h-172v639h-61l-193 -639h-184z" />
<glyph unicode="&#x4dd;" horiz-adv-x="915" d="M254 1249v138h143v-138h-143zM520 1249v138h144v-138h-144zM-10 0l203 582l-193 544h172l152 -479h57v479h154v-479h57l151 479h172l-192 -544l203 -582h-174l-160 492h-57v-492h-154v492h-57l-160 -492h-174z" />
<glyph unicode="&#x4de;" horiz-adv-x="686" d="M107 1556v162h168v-162h-168zM392 1556v162h168v-162h-168zM45 0v295h172v-127h234v192l-299 357l299 356v193h-234v-121h-172v289h578v-402l-269 -315l269 -316v-401h-578z" />
<glyph unicode="&#x4df;" horiz-adv-x="587" d="M86 1249v138h143v-138h-143zM352 1249v138h144v-138h-144zM53 0v248h160v-92h154v127l-222 280l222 281v127h-154v-88h-160v243h473v-323l-202 -240l202 -239v-324h-473z" />
<glyph unicode="&#x4e4;" horiz-adv-x="856" d="M201 1556v162h168v-162h-168zM486 1556v162h168v-162h-168zM109 0v1434h172v-973l274 973h193v-1434h-173v973l-274 -973h-192z" />
<glyph unicode="&#x4e5;" horiz-adv-x="763" d="M176 1249v138h143v-138h-143zM442 1249v138h144v-138h-144zM96 0v1126h160v-729l252 729h160v-1126h-160v729l-252 -729h-160z" />
<glyph unicode="&#x4e6;" horiz-adv-x="819" d="M184 1556v162h168v-162h-168zM469 1556v162h168v-162h-168zM109 0v1434h602v-1434h-602zM281 168h258v1098h-258v-1098z" />
<glyph unicode="&#x4e7;" d="M147 1249v138h143v-138h-143zM413 1249v138h144v-138h-144zM96 0v1126h512v-1126h-512zM256 156h193v815h-193v-815z" />
<glyph unicode="&#x4ec;" horiz-adv-x="776" d="M139 1556v162h168v-162h-168zM424 1556v162h168v-162h-168zM66 0v311h172v-143h258v463h-263v172h263v463h-258v-144h-172v312h602v-1434h-602z" />
<glyph unicode="&#x4ed;" horiz-adv-x="669" d="M113 1249v138h143v-138h-143zM379 1249v138h144v-138h-144zM61 0v287h160v-131h193v338h-191v155h191v322h-193v-140h-160v295h512v-1126h-512z" />
<glyph unicode="&#x4f0;" horiz-adv-x="813" d="M180 1556v162h168v-162h-168zM465 1556v162h168v-162h-168zM109 0v168h423v330h-423v936h172v-768h251v768h173v-1434h-596z" />
<glyph unicode="&#x4f1;" d="M147 1249v138h143v-138h-143zM413 1249v138h144v-138h-144zM96 0v156h353v223h-353v747h160v-591h193v591h159v-1126h-512z" />
<glyph unicode="&#x4f2;" horiz-adv-x="813" d="M360 1636l273 158l57 -103l-283 -135zM109 0v168h423v330h-423v936h172v-768h251v768h173v-1434h-596z" />
<glyph unicode="&#x4f4;" horiz-adv-x="790" d="M160 1556v162h168v-162h-168zM445 1556v162h168v-162h-168zM92 498v936h172v-768h246v768h172v-1434h-172v498h-418z" />
<glyph unicode="&#x4f5;" horiz-adv-x="688" d="M131 1249v138h143v-138h-143zM397 1249v138h144v-138h-144zM80 365v761h160v-606h192v606h160v-1126h-160v365h-352z" />
<glyph unicode="&#x4f8;" horiz-adv-x="1153" d="M350 1556v162h168v-162h-168zM635 1556v162h168v-162h-168zM109 0v1434h172v-594h417v-840h-589zM281 168h245v504h-245v-504zM872 0v1434h172v-1434h-172z" />
<glyph unicode="&#x4f9;" horiz-adv-x="999" d="M295 1249v138h143v-138h-143zM561 1249v138h144v-138h-144zM96 0v1126h160v-436h352v-690h-512zM256 156h193v379h-193v-379zM743 0v1126h160v-1126h-160z" />
<glyph unicode="&#x2000;" horiz-adv-x="897" />
<glyph unicode="&#x2001;" horiz-adv-x="1794" />
<glyph unicode="&#x2002;" horiz-adv-x="897" />
<glyph unicode="&#x2003;" horiz-adv-x="1794" />
<glyph unicode="&#x2004;" horiz-adv-x="598" />
<glyph unicode="&#x2005;" horiz-adv-x="448" />
<glyph unicode="&#x2006;" horiz-adv-x="299" />
<glyph unicode="&#x2007;" horiz-adv-x="299" />
<glyph unicode="&#x2008;" horiz-adv-x="223" />
<glyph unicode="&#x2009;" horiz-adv-x="358" />
<glyph unicode="&#x200a;" horiz-adv-x="98" />
<glyph unicode="&#x2010;" horiz-adv-x="548" d="M84 559v176h381v-176h-381z" />
<glyph unicode="&#x2011;" horiz-adv-x="548" d="M84 559v176h381v-176h-381z" />
<glyph unicode="&#x2012;" horiz-adv-x="548" d="M84 559v176h381v-176h-381z" />
<glyph unicode="&#x2013;" horiz-adv-x="679" d="M84 631v157h512v-157h-512z" />
<glyph unicode="&#x2014;" horiz-adv-x="864" d="M37 631v133h790v-133h-790z" />
<glyph unicode="&#x2018;" horiz-adv-x="339" d="M78 1249v185l184 184v-369h-184z" />
<glyph unicode="&#x2019;" horiz-adv-x="339" d="M78 1065v369h184v-185z" />
<glyph unicode="&#x201c;" horiz-adv-x="622" d="M78 1249v185l184 184v-369h-184zM360 1249v185l185 184v-369h-185z" />
<glyph unicode="&#x201d;" horiz-adv-x="622" d="M78 1065v369h184v-185zM360 1065v369h185v-185z" />
<glyph unicode="&#x201e;" horiz-adv-x="622" d="M78 164h184v-184l-184 -185v369zM360 164h185v-184l-185 -185v369z" />
<glyph unicode="&#x2026;" horiz-adv-x="1179" d="M88 0v184h184v-184h-184zM498 0v184h184v-184h-184zM907 0v184h185v-184h-185z" />
<glyph unicode="&#x202f;" horiz-adv-x="358" />
<glyph unicode="&#x2039;" horiz-adv-x="843" d="M27 670v131l759 340v-156l-565 -262l565 -238v-155z" />
<glyph unicode="&#x203a;" horiz-adv-x="843" d="M57 317v156l566 250l-566 250v155l760 -340v-131z" />
<glyph unicode="&#x205f;" horiz-adv-x="448" />
<glyph unicode="&#x20ac;" horiz-adv-x="813" d="M41 522v113h88v166h-88v112h88v521h602v-347h-172v179h-258v-353h344v-112h-344v-166h344v-113h-344v-354h258v188h172v-356h-602v522h-88z" />
<glyph unicode="&#x2122;" horiz-adv-x="1370" d="M27 1290v144h491v-144h-170v-717h-151v717h-170zM668 573v861h151l156 -320l155 320h152v-861h-152v594l-155 -313l-156 313v-594h-151z" />
<glyph unicode="&#xe000;" horiz-adv-x="1125" d="M0 1125h1125v-1125h-1125v1125z" />
<glyph horiz-adv-x="231" d="M-37 1579l273 158l57 -103l-283 -135z" />
<glyph horiz-adv-x="280" d="M-86 1509v162h168v-162h-168zM199 1509v162h168v-162h-168z" />
</font>
</defs>
</svg>
