<?xml version="1.0" standalone="no"?>
<!DOCTYPE svg PUBLIC "-//W3C//DTD SVG 1.1//EN" "http://www.w3.org/Graphics/SVG/1.1/DTD/svg11.dtd" >
<svg xmlns="http://www.w3.org/2000/svg">
<metadata></metadata>
<defs>
<font id="comfortaabold" horiz-adv-x="1280" >
<font-face units-per-em="2048" ascent="1638" descent="-410" />
<missing-glyph horiz-adv-x="560" />
<glyph horiz-adv-x="2048" />
<glyph horiz-adv-x="2048" />
<glyph unicode="&#xd;" horiz-adv-x="560" />
<glyph unicode=" "  horiz-adv-x="560" />
<glyph unicode="&#x09;" horiz-adv-x="560" />
<glyph unicode="&#xa0;" horiz-adv-x="560" />
<glyph unicode="!" horiz-adv-x="400" d="M69 142q0 29 11 55t30.5 45.5t45.5 31t55 11.5t55 -11.5t45.5 -31t30.5 -45.5t11 -55q0 -30 -11.5 -56t-31 -45t-45.5 -30t-54 -11q-29 0 -54.5 11t-45 30t-31 45t-11.5 56zM107 450v1044q0 44 29.5 74.5t74.5 30.5t74.5 -30.5t29.5 -74.5v-1044q0 -21 -8.5 -40 t-22.5 -33t-33 -22t-40 -8q-22 0 -41 8.5t-33 22.5t-22 32.5t-8 39.5z" />
<glyph unicode="&#x22;" horiz-adv-x="560" d="M61 1494q0 21 8 40t22.5 33.5t33.5 22.5t40 8t40 -8t33.5 -22.5t22.5 -33.5t8 -40l-19 -286q-1 -35 -25.5 -59.5t-59.5 -24.5t-59.5 24.5t-25.5 59.5zM308 1495q0 21 8 40t22.5 33.5t33.5 22.5t40 8t40 -8t33.5 -22.5t22.5 -33.5t8 -40l-19 -286q-1 -35 -25.5 -59.5 t-59.5 -24.5t-59.5 24.5t-25.5 59.5z" />
<glyph unicode="#" d="M63 555l1 19q3 22 14 40t28 32t37.5 21.5t40.5 7.5h129l44 251h-119q-41 0 -68 26.5t-27 65.5q0 24 10.5 46t27 38.5t39 26t45.5 9.5h129l64 362q4 22 15.5 40t27.5 32t36 22t41 8q43 0 68.5 -28t25.5 -69q0 -10 -1 -15l-62 -352h172l64 362q3 22 14 40t27.5 32t36 22 t41.5 8q42 0 68 -28.5t26 -68.5q0 -10 -1 -15l-62 -352h120q18 0 35 -6.5t30 -18.5t20.5 -29t7.5 -37l-1 -19q-3 -22 -14.5 -40t-28 -32t-37 -22t-40.5 -8h-129l-45 -251h120q41 0 67.5 -26.5t26.5 -65.5q0 -24 -10 -46t-27 -38t-39 -25.5t-46 -9.5h-129l-64 -362 q-4 -22 -15 -40t-27.5 -32t-36 -22t-41.5 -8q-40 0 -67 26.5t-27 64.5q0 10 2 20l62 353h-172l-64 -362q-4 -22 -15.5 -40t-27.5 -32t-36 -22t-41 -8q-43 0 -68.5 27.5t-25.5 67.5q0 8 1 16l63 353h-119q-19 0 -36 6.5t-30.5 18.5t-20.5 29t-7 37zM528 675h170l45 251h-172z " />
<glyph unicode="$" horiz-adv-x="1060" d="M77 282q0 45 29.5 74.5t74.5 29.5q24 0 42.5 -11t36.5 -28t36 -37.5t41 -39.5t52 -34.5t68 -21.5v556q-65 17 -121 54.5t-97 90t-64 116t-23 132.5q0 70 22 134t62 116.5t96 91t125 56.5v62q0 45 29.5 74.5t74.5 29.5t74.5 -29.5t29.5 -74.5v-63q36 -9 72 -26t68 -40.5 t59.5 -53.5t46.5 -65q7 -13 11 -26t4 -30q0 -45 -29.5 -74.5t-74.5 -29.5q-29 0 -47 12t-34 30t-33 39.5t-43 39.5v-394q70 -25 129.5 -70.5t102.5 -105t67 -130t24 -145.5q0 -78 -22.5 -150t-64.5 -132.5t-101.5 -107.5t-134.5 -74v-74q0 -21 -8 -40t-22.5 -33.5 t-33.5 -22.5t-40 -8q-22 0 -41 8t-33 22.5t-22 33.5t-8 40v50q-109 11 -203.5 67t-155.5 148q-21 27 -21 64zM361 1167q0 -50 25 -98t71 -74v342q-96 -62 -96 -170zM665 261q30 24 52 47.5t35.5 50t20 58t6.5 71.5q0 63 -28 123t-86 98v-448z" />
<glyph unicode="%" horiz-adv-x="1760" d="M56 1190q0 83 32 157.5t87.5 130.5t130 88.5t158.5 32.5t158.5 -32.5t130 -88.5t87.5 -130.5t32 -157.5t-32 -157t-87.5 -130t-130 -88.5t-158.5 -32.5t-158.5 32.5t-130 88.5t-87.5 130t-32 157zM238 104q0 43 25 71l1077 1383q36 42 84 42q22 0 41 -8.5t33 -22.5 t22.5 -33t8.5 -41q0 -36 -21 -63l-1088 -1399q-30 -33 -78 -33q-22 0 -41 8t-33 22.5t-22 33.5t-8 40zM265 1190q0 -41 15.5 -77t42 -63t63 -43t78.5 -16q41 0 77.5 16t63.5 43t42.5 63t15.5 77q0 40 -16 76.5t-43 64t-63 43.5t-77 16q-42 0 -78 -16t-63 -43.5t-42.5 -64 t-15.5 -76.5zM889 408q0 83 32 157.5t87.5 130t129.5 88t159 32.5q83 0 157 -32t130 -87t88.5 -129.5t32.5 -159.5t-32.5 -159t-88 -129.5t-130 -87.5t-157.5 -32q-84 0 -158 32.5t-129.5 88t-88 129.5t-32.5 158zM1098 408q0 -41 15.5 -77.5t42.5 -63.5t63.5 -42.5 t77.5 -15.5t77.5 16t63.5 43t43 63t16 77t-16 77t-43 63t-63.5 43t-77.5 16t-77.5 -15.5t-63.5 -42.5t-42.5 -63.5t-15.5 -77.5z" />
<glyph unicode="&#x26;" horiz-adv-x="1440" d="M72 473q0 95 47.5 180.5t145.5 161.5l77 60l-84 84h1q-110 112 -110 266q0 77 30 146t82 120t120 81t144 30q78 0 146.5 -30.5t119 -82t80.5 -120t30 -144.5q0 -167 -151 -298l-91 -68l296 -299l151 162q14 15 34 22.5t41 7.5q45 0 76 -30t31 -76q0 -21 -7 -38.5 t-21 -33.5l-154 -165l228 -230q31 -31 31 -73q0 -22 -8.5 -41t-23 -34t-33.5 -23t-42 -8q-42 0 -74 28l-224 226l-114 -121q-134 -133 -321 -133q-92 0 -174.5 35t-144.5 98t-98 150t-36 190zM284 473q0 -60 19 -108.5t52 -82t77 -52t93 -18.5q99 0 170 70l115 125l-321 322 l-90 -69q-55 -46 -85 -92.5t-30 -94.5zM362 1225q0 -68 46 -115l102 -103l95 75q40 33 62 69.5t22 73.5q0 34 -13 64t-36 52.5t-52.5 35.5t-62.5 13q-34 0 -64 -13.5t-52 -36t-34.5 -52.5t-12.5 -63z" />
<glyph unicode="'" horiz-adv-x="320" d="M61 1494q0 21 8 40t22.5 33.5t33.5 22.5t40 8t40 -8t33.5 -22.5t22.5 -33.5t8 -40l-19 -286q-1 -35 -25.5 -59.5t-59.5 -24.5t-59.5 24.5t-25.5 59.5z" />
<glyph unicode="(" horiz-adv-x="560" d="M71 561q0 488 232 964q16 35 42 53.5t57 18.5q22 0 41 -8.5t33 -23.5t22 -34.5t8 -41.5q-3 -34 -15 -53q-214 -438 -214 -876q0 -217 56 -440.5t160 -440.5q6 -13 9.5 -25t3.5 -27q0 -45 -29.5 -76t-74.5 -31q-32 0 -56 16.5t-42 54.5q-233 483 -233 970z" />
<glyph unicode=")" horiz-adv-x="560" d="M71 -373q0 15 3.5 27t9.5 25q104 217 160 440.5t56 440.5q0 438 -214 876q-12 19 -15 53q0 22 8 41.5t22 34.5t33 23.5t41 8.5q32 0 57 -18.5t42 -53.5q116 -241 173.5 -480.5t58.5 -483.5q0 -246 -58.5 -486.5t-174.5 -483.5q-18 -38 -42 -54.5t-56 -16.5 q-45 0 -74.5 31t-29.5 76z" />
<glyph unicode="*" horiz-adv-x="780" d="M78 1342q0 24 9.5 43t24.5 32.5t33.5 21t36.5 7.5q17 1 34 -5.5t31 -16.5l80 -58l-29 94q-5 18 -5 34q0 44 29.5 74.5t74.5 30.5t74.5 -30.5t29.5 -74.5q0 -16 -5 -34l-29 -96l80 60q30 22 65 22q19 0 37.5 -7.5t33.5 -21.5t24.5 -33t9.5 -43q0 -19 -7 -37t-20.5 -32.5 t-32 -23.5t-41.5 -11l-104 -5l83 -58q48 -35 48 -87q0 -42 -30 -72.5t-89 -30.5q-31 3 -51 21t-33 50l-42 103l-42 -105q-11 -35 -37.5 -52.5t-62.5 -17.5q-24 0 -43.5 9t-33 23.5t-20.5 33t-7 38.5q-1 26 12 48t36 39l83 59l-103 4q-42 5 -72 33.5t-30 71.5z" />
<glyph unicode="+" horiz-adv-x="1120" d="M78 788q0 45 29.5 74.5t74.5 29.5h275v275q0 43 30.5 74t74.5 31q45 0 74.5 -30.5t29.5 -74.5v-275h275q43 0 74 -30.5t31 -74.5q0 -43 -31 -73.5t-74 -30.5h-275v-275q0 -45 -29.5 -74.5t-74.5 -29.5t-75 29.5t-30 74.5v275h-275q-45 0 -74.5 30t-29.5 75z" />
<glyph unicode="," horiz-adv-x="400" d="M69 142q0 59 41.5 100.5t100.5 41.5t100.5 -41.5t41.5 -100.5q0 -56 -10.5 -121t-31 -120.5t-50.5 -92t-69 -36.5q-36 0 -60.5 25t-24.5 61q0 31 22 55.5t22 50.5q0 36 -41 78q-41 41 -41 100z" />
<glyph unicode="-" horiz-adv-x="800" d="M74 560q0 45 29.5 74.5t74.5 29.5h456q45 0 74.5 -29.5t29.5 -74.5t-29.5 -74.5t-74.5 -29.5h-456q-45 0 -74.5 29.5t-29.5 74.5z" />
<glyph unicode="." horiz-adv-x="400" d="M59 142q0 59 41.5 100.5t100.5 41.5t100.5 -41.5t41.5 -100.5t-41.5 -100.5t-100.5 -41.5t-100.5 41.5t-41.5 100.5z" />
<glyph unicode="/" horiz-adv-x="960" d="M76 -47q0 20 9 43l617 1542q8 17 23 32q30 30 73 30t73.5 -30.5t30.5 -73.5q0 -24 -9 -44l-617 -1542q-37 -62 -96 -62q-45 0 -74.5 30t-29.5 75z" />
<glyph unicode="0" horiz-adv-x="1120" d="M78 801q0 189 33 337.5t95 251.5t153 157.5t208 54.5t208 -55.5t153.5 -159t95 -252t32.5 -334.5t-32.5 -334.5t-95 -252t-153.5 -159t-208 -55.5t-208 54.5t-153 157t-95 251.5t-33 338zM289 801q0 -128 17 -236.5t52 -186.5t87 -122t122 -44q71 0 123.5 45t86.5 123.5 t51 186.5t17 234q0 125 -17.5 233t-51.5 187t-86.5 124t-122.5 45t-122.5 -45t-87 -123t-51.5 -186.5t-17 -234.5z" />
<glyph unicode="1" horiz-adv-x="560" d="M61 1418q0 32 16.5 57t50.5 41l229 76q18 7 36 7q45 0 74.5 -30.5t29.5 -74.5v-1390q0 -43 -30.5 -73.5t-74.5 -30.5q-43 0 -73.5 30.5t-30.5 73.5v1245q-30 -10 -63 -22.5t-60 -12.5q-45 0 -74.5 29.5t-29.5 74.5z" />
<glyph unicode="2" horiz-adv-x="1120" d="M78 104q0 45 29 74l648 740q82 82 82 197q0 56 -22 106t-59.5 87.5t-87.5 59.5t-106 22q-57 0 -107 -21.5t-87.5 -58.5t-59 -87t-21.5 -108q0 -43 -30.5 -73.5t-74.5 -30.5q-43 0 -73.5 30.5t-30.5 73.5q0 100 38.5 188t104.5 154t154 104t187 38t187 -39t154 -105 t104.5 -154t38.5 -186q0 -100 -36.5 -186t-105.5 -156l-486 -564h523q44 0 74.5 -31t30.5 -74t-30.5 -73.5t-74.5 -30.5h-759q-22 0 -41 8t-33 22.5t-22 33.5t-8 40z" />
<glyph unicode="3" horiz-adv-x="1120" d="M78 492q0 46 29.5 76t74.5 30q44 0 74.5 -30t30.5 -76q0 -59 21.5 -110t58.5 -88.5t87 -59.5t108 -22q57 0 107.5 22.5t87.5 60.5t58.5 89t21.5 108t-21.5 108t-58.5 89t-87.5 60.5t-107.5 22.5q-45 0 -75 30.5t-30 75.5q0 46 30 76t75 30q40 0 76.5 16t63.5 43.5 t43 64.5t16 78q0 42 -16 79t-43.5 64.5t-63.5 44t-76 16.5q-41 0 -77.5 -16.5t-63.5 -44t-43 -64.5t-15 -79q0 -43 -30.5 -74t-74.5 -31q-43 0 -73.5 31t-30.5 74q0 87 32.5 162.5t88 132t129.5 89t158 32.5t158 -33t129.5 -90t88 -132t32.5 -161q0 -166 -123 -295 q199 -159 199 -399q0 -101 -38 -190.5t-104 -156.5t-154 -106t-188 -39t-188 38.5t-154 105.5t-104 156.5t-38 191.5z" />
<glyph unicode="4" d="M80 507q0 35 20 61l682 987q14 20 36.5 32t49.5 12q21 0 40 -8.5t33.5 -22.5t22.5 -33t8 -41v-883h123q44 0 74.5 -29.5t30.5 -74.5t-30.5 -74.5t-74.5 -29.5h-123v-299q0 -43 -30.5 -73.5t-74.5 -30.5q-43 0 -73.5 30.5t-30.5 73.5v299h-579q-45 0 -74.5 29.5 t-29.5 74.5zM384 611h379v549z" />
<glyph unicode="5" horiz-adv-x="1200" d="M79 522q0 45 29.5 74.5t74.5 29.5q44 0 74.5 -29.5t30.5 -74.5q0 -65 24.5 -122t67 -99.5t99.5 -67t122 -24.5q64 0 121 24.5t100 67.5t67.5 99.5t24.5 121.5q0 64 -25 121t-67.5 99.5t-99.5 67.5t-121 25h-342q-45 0 -74.5 30t-29.5 75v554q0 44 29.5 74.5t74.5 30.5 h683q44 0 74.5 -31t30.5 -74t-30.5 -73.5t-74.5 -30.5h-579v-346h238q105 0 199.5 -41t166.5 -111.5t114 -166t42 -203.5q0 -107 -41.5 -202t-112.5 -166t-166 -112.5t-202 -41.5t-202 41.5t-166 112.5t-112.5 166t-41.5 202z" />
<glyph unicode="6" horiz-adv-x="1120" d="M78 484q0 148 78 265l-1 -2l480 797q15 25 39 40.5t54 15.5q45 0 74.5 -30.5t29.5 -74.5q0 -25 -14 -53l-285 -474h29q100 0 188 -38.5t154 -104.5t104 -154t38 -187t-38 -187t-104 -154t-154 -104.5t-188 -38.5t-188 38t-154 104t-104 154t-38 188zM287 484 q0 -58 21.5 -108t58.5 -87t87 -58.5t108 -21.5q57 0 107.5 22t87.5 59.5t58.5 87.5t21.5 106t-21.5 106t-58.5 87.5t-87.5 59.5t-107.5 22q-58 0 -108 -21.5t-87 -58.5t-58.5 -87.5t-21.5 -107.5z" />
<glyph unicode="7" horiz-adv-x="1120" d="M77 104q0 32 19 65l682 1222h-583q-45 0 -74.5 29.5t-29.5 74.5q0 44 29.5 74.5t74.5 30.5h759q22 0 41 -8.5t33 -22.5t22.5 -33t8.5 -41q0 -27 -15 -56l-768 -1381q-8 -15 -20 -27q-31 -31 -75 -31q-43 0 -73.5 30.5t-30.5 73.5z" />
<glyph unicode="8" horiz-adv-x="1120" d="M78 491q0 239 201 397q-124 124 -124 295q0 86 33 162t89.5 132t131.5 88.5t160 32.5t160 -33t131.5 -89.5t89 -132t32.5 -160.5q0 -170 -124 -295q202 -159 202 -397q0 -101 -39 -190t-105.5 -156t-156 -106t-190.5 -39q-102 0 -191 38.5t-156 105.5t-105.5 156 t-38.5 191zM290 491q0 -59 22 -109.5t59.5 -88t88 -59.5t109.5 -22q58 0 109 22.5t88.5 60.5t59.5 88.5t22 107.5t-22 107.5t-59.5 88.5t-88.5 60.5t-109 22.5q-59 0 -109.5 -22t-88 -59.5t-59.5 -88.5t-22 -109zM366 1183q0 -41 15.5 -78t43 -64.5t64.5 -43t80 -15.5 q40 0 77 16t64.5 43.5t44 64t16.5 77.5q0 42 -16.5 79t-44.5 64.5t-64.5 43.5t-76.5 16q-42 0 -79 -16t-64.5 -43.5t-43.5 -64.5t-16 -79z" />
<glyph unicode="9" horiz-adv-x="1120" d="M78 1107q0 102 39 191t106 156t156 105.5t190 38.5q100 0 189.5 -39.5t156 -106.5t106 -156t39.5 -189q0 -149 -80 -268l-471 -782q-36 -57 -94 -57q-23 0 -42 8t-34 23t-23 34t-8 40q0 29 15 55l274 455h-28q-101 0 -190 39t-156 105.5t-106 156t-39 191.5zM290 1107 q0 -60 22.5 -111t60.5 -88.5t88.5 -59t107.5 -21.5q58 0 108.5 22.5t88.5 60.5t60 88.5t22 108.5q0 57 -22.5 107.5t-60.5 88.5t-88.5 60.5t-107.5 22.5q-58 0 -108.5 -22t-88.5 -59.5t-60 -88t-22 -109.5z" />
<glyph unicode=":" horiz-adv-x="400" d="M59 142q0 59 41.5 100.5t100.5 41.5t100.5 -41.5t41.5 -100.5t-41.5 -100.5t-100.5 -41.5t-100.5 41.5t-41.5 100.5zM59 976q0 59 41.5 100.5t100.5 41.5t100.5 -41.5t41.5 -100.5t-41.5 -100.5t-100.5 -41.5t-100.5 41.5t-41.5 100.5z" />
<glyph unicode=";" horiz-adv-x="400" d="M59 142q0 59 41.5 100.5t100.5 41.5t100.5 -41.5t41.5 -100.5q0 -56 -10.5 -121t-31 -120.5t-50.5 -92t-69 -36.5q-36 0 -60.5 25t-24.5 61q0 31 22 55.5t22 50.5q0 36 -41 78q-41 41 -41 100zM59 976q0 59 41.5 100.5t100.5 41.5t100.5 -41.5t41.5 -100.5t-41.5 -100.5 t-100.5 -41.5t-100.5 41.5t-41.5 100.5z" />
<glyph unicode="&#x3c;" horiz-adv-x="1120" d="M78 712q0 55 55 92l756 455q22 13 52 13q22 0 41 -8.5t33 -22.5t22.5 -33t8.5 -41q0 -57 -52 -91l-609 -364l609 -366q52 -34 52 -90q0 -45 -30.5 -74.5t-74.5 -29.5q-30 0 -52 13l-756 454q-55 34 -55 93z" />
<glyph unicode="=" horiz-adv-x="1040" d="M77 484q0 45 29.5 74.5t74.5 29.5h683q43 0 73.5 -30.5t30.5 -73.5q0 -44 -30.5 -74.5t-73.5 -30.5h-683q-45 0 -74.5 30t-29.5 75zM77 940q0 45 29.5 74.5t74.5 29.5h683q43 0 73.5 -30.5t30.5 -73.5q0 -44 -30.5 -74.5t-73.5 -30.5h-683q-45 0 -74.5 30t-29.5 75z" />
<glyph unicode="&#x3e;" horiz-adv-x="1120" d="M78 256q0 56 52 90l609 366l-609 364q-52 34 -52 91q0 22 8.5 41t22.5 33t33 22.5t41 8.5q30 0 52 -13l756 -455q55 -37 55 -92q0 -59 -55 -93l-756 -454q-22 -13 -52 -13q-44 0 -74.5 29.5t-30.5 74.5z" />
<glyph unicode="?" horiz-adv-x="1120" d="M78 1115q0 100 38.5 188t104.5 154t154 104t187 38t187 -39t154 -105t104.5 -154t38.5 -186q0 -198 -143 -344l-157 -145q-80 -80 -80 -175q0 -45 -29.5 -74.5t-74.5 -29.5t-75 29.5t-30 74.5q0 180 143 323l157 146q80 83 80 195q0 56 -22 106t-59.5 87.5t-87.5 59.5 t-106 22q-57 0 -107 -21.5t-87.5 -58.5t-59 -87t-21.5 -108q0 -22 -8.5 -41t-22.5 -33.5t-33 -22.5t-41 -8q-45 0 -74.5 30t-29.5 75zM420 142q0 59 41.5 100.5t100.5 41.5t100.5 -41.5t41.5 -100.5t-41.5 -100.5t-100.5 -41.5t-100.5 41.5t-41.5 100.5z" />
<glyph unicode="@" horiz-adv-x="2240" d="M82 559q0 428 304 734q305 305 735 305q428 0 733 -305q305 -306 305 -734q0 -651 -417 -651q-230 0 -258 207q-160 -129 -363 -129q-237 0 -405 168t-168 405t168 405t405 168t404 -168q169 -168 169 -405v-389q0 -48 48 -48q204 0 204 437q0 175 -60.5 319t-181.5 264 q-122 121 -266 182t-317 61q-343 0 -585 -243q-241 -240 -241 -583t241 -583q242 -243 585 -243q182 0 340 70q24 14 50 14q45 0 75.5 -31.5t30.5 -76.5q0 -33 -19.5 -61.5t-48.5 -37.5q-198 -90 -428 -90q-430 0 -735 305q-304 305 -304 734zM761 559q0 -74 28.5 -140 t77 -114t114.5 -76t140 -28t140 28.5t114 77.5t76 114t28 138t-28 138t-76 114t-114 77.5t-140 28.5t-140 -28t-114.5 -76t-77 -114t-28.5 -140z" />
<glyph unicode="A" horiz-adv-x="1440" d="M77 106q0 24 11 48l534 1374q32 72 101 72q71 0 101 -72l536 -1379q8 -20 8 -43q0 -44 -31 -75t-75 -31t-74 31q-16 16 -24 34l-185 475h-512l-186 -475q-8 -18 -24 -34q-31 -31 -75 -31t-74.5 31t-30.5 75zM549 752h348l-174 449z" />
<glyph unicode="B" horiz-adv-x="1120" d="M74 106v1388q0 22 8.5 41.5t23 33.5t33.5 22.5t41 8.5h309q85 0 160.5 -32.5t132 -89t89 -132t32.5 -160.5q0 -152 -94 -265q61 -36 107 -83t77.5 -102.5t47.5 -117t16 -126.5q0 -101 -39 -190.5t-105.5 -156.5t-156 -106t-190.5 -39h-386q-22 0 -41 8.5t-33.5 22.5 t-23 33.5t-8.5 41.5zM286 212h280q58 0 109 22t88.5 60t59.5 89t22 109q0 57 -22 108t-60 89t-89 60t-108 22h-280v-559zM286 983h203q42 0 78.5 16t64 44t43.5 64.5t16 78.5q0 41 -16 77.5t-44 64.5t-64.5 44t-77.5 16h-203v-405z" />
<glyph unicode="C" horiz-adv-x="1480" d="M78 800q0 331 234 565q235 235 566 235q284 0 513 -187q28 -27 28 -73q0 -23 -8 -42t-22.5 -33.5t-34 -22.5t-41.5 -8q-39 0 -73 30q-76 60 -167.5 92t-194.5 32q-244 0 -417 -173q-171 -171 -171 -415q0 -245 171 -416q172 -172 417 -172q209 0 368 129q26 18 62 19 q22 0 41 -8.5t33.5 -22.5t23 -33.5t8.5 -41.5q0 -42 -33 -76q-223 -178 -503 -178q-332 0 -566 234t-234 566z" />
<glyph unicode="D" horiz-adv-x="1360" d="M76 106v1388q0 22 8.5 41.5t23 33.5t34 22.5t41.5 8.5h308q330 0 565 -235q118 -118 176.5 -257.5t58.5 -307.5q0 -331 -235 -566q-234 -234 -565 -234h-308q-22 0 -41.5 8.5t-34 22.5t-23 33.5t-8.5 41.5zM289 212h202q243 0 415 172q87 87 130 189.5t43 226.5 q0 242 -173 415t-415 173h-202v-1176z" />
<glyph unicode="E" d="M76 106v1388q0 22 8 41.5t22.5 34t33.5 22.5t42 8h925q44 0 75 -31t31 -75t-31 -75t-75 -31h-819v-482h588q44 0 75 -31t31 -75t-31 -75t-75 -31h-588v-482h819q44 0 75 -31t31 -75t-31 -75t-75 -31h-925q-23 0 -42 8t-33.5 22.5t-22.5 33.5t-8 42z" />
<glyph unicode="F" d="M76 106v1388q0 22 8 41.5t22.5 34t33.5 22.5t42 8h925q44 0 75 -31t31 -75t-31 -75t-75 -31h-819v-482h588q44 0 75 -31t31 -75t-31 -75t-75 -31h-588v-588q0 -44 -31 -75t-75 -31t-75 31t-31 75z" />
<glyph unicode="G" horiz-adv-x="1500" d="M78 800q0 331 234 565q235 235 566 235q284 0 513 -187q28 -26 28 -73q0 -23 -8 -42t-22.5 -33.5t-34 -22.5t-41.5 -8q-41 0 -73 30q-76 60 -167.5 92t-194.5 32q-244 0 -417 -173q-171 -171 -171 -415q0 -245 171 -416q172 -172 417 -172q181 0 324 95v310h-276 q-45 0 -75.5 30.5t-30.5 75.5q0 22 8 41.5t22.5 34t33.5 22.5t42 8h383q21 0 40 -8.5t33.5 -23t23 -34t8.5 -40.5v-469q0 -42 -33 -76q-223 -178 -503 -178q-332 0 -566 234t-234 566z" />
<glyph unicode="H" d="M76 106v1388q0 44 31 75t75 31t75 -31t31 -75v-588h713v588q0 44 31 75t75 31t75 -31t31 -75v-1388q0 -44 -31 -75t-75 -31t-75 31t-31 75v588h-713v-588q0 -44 -31 -75t-75 -31t-75 31t-31 75z" />
<glyph unicode="I" horiz-adv-x="480" d="M146 106v1388q0 44 31 75t75 31t75 -31t31 -75v-1388q0 -44 -31 -75t-75 -31t-75 31t-31 75z" />
<glyph unicode="J" horiz-adv-x="1120" d="M74 492q0 44 31 75t75 31t75 -31t31 -75q0 -59 22 -110t59.5 -88.5t88.5 -59.5t110 -22q58 0 109 22t88.5 60t59.5 89t22 109v1002q0 44 31 75t75 31t75 -31t31 -75v-1002q0 -101 -39 -190.5t-105.5 -156.5t-156 -106t-190.5 -39q-102 0 -191.5 39t-156 106.5 t-105.5 156.5t-39 190z" />
<glyph unicode="K" horiz-adv-x="1200" d="M75 106v1388q0 44 31 75t75 31t75 -31t31 -75v-592l665 665q33 33 77 33q22 0 41.5 -8t34 -22.5t22.5 -34t8 -41.5q0 -44 -31 -75l-524 -525l535 -725q20 -28 20 -60q0 -21 -8 -41t-22 -35t-33 -24t-41 -9q-59 0 -89 45l-514 697l-141 -141v-495q0 -44 -31 -75t-75 -31 t-75 31t-31 75z" />
<glyph unicode="L" horiz-adv-x="1200" d="M75 106v1388q0 44 31 75t75 31t75 -31t31 -75v-1282h742q44 0 75 -31t31 -75t-31 -75t-75 -31h-848q-23 0 -42 8t-33.5 22.5t-22.5 33.5t-8 42z" />
<glyph unicode="M" horiz-adv-x="1760" d="M80 106v1388q0 22 8 41.5t22.5 34t33.5 22.5t42 8q62 0 94 -57l600 -1199l600 1199q36 57 94 57q22 0 41.5 -8t34 -22.5t22.5 -34t8 -41.5v-1388q0 -44 -31 -75t-75 -31t-75 31t-31 75v938l-496 -991q-31 -53 -92 -53q-66 0 -97 64l-491 980v-938q0 -44 -31 -75t-75 -31 t-75 31t-31 75z" />
<glyph unicode="N" horiz-adv-x="1440" d="M77 106v1388q0 22 8 41.5t22.5 34t33.5 22.5t42 8q47 0 82 -39l892 -1147v1080q0 44 31 75t75 31t75 -31t31 -75v-1388q0 -23 -8 -42t-22.5 -33.5t-34 -22.5t-41.5 -8q-47 0 -81 37l-893 1147v-1078q0 -44 -31 -75t-75 -31t-75 31t-31 75z" />
<glyph unicode="O" horiz-adv-x="1760" d="M80 800q0 331 234 565q235 235 566 235q330 0 565 -235q118 -118 176.5 -258t58.5 -307q0 -331 -235 -566q-234 -234 -565 -234q-332 0 -566 234t-234 566zM292 800q0 -244 172 -416t416 -172t416 172t172 416q0 243 -172 415q-173 173 -416 173q-124 0 -226.5 -43 t-189.5 -130t-129.5 -189t-42.5 -226z" />
<glyph unicode="P" horiz-adv-x="1080" d="M74 106v1388q0 22 8 41.5t22.5 34t33.5 22.5t42 8h308q72 0 139.5 -19t126.5 -54t108 -83.5t83.5 -107.5t54 -126.5t19.5 -139.5q0 -218 -157 -375q-155 -155 -374 -155h-202v-434q0 -44 -31 -75t-75 -31t-75 31t-31 75zM286 752h202q65 0 122.5 25t101 68t69 101 t25.5 124q0 67 -25.5 125t-69 101t-101.5 67.5t-122 24.5h-202v-636z" />
<glyph unicode="Q" horiz-adv-x="1760" d="M80 800q0 331 234 565q235 235 566 235q330 0 565 -235q118 -118 176.5 -257.5t58.5 -307.5q0 -140 -40 -260t-124 -226l134 -134q30 -33 30 -74q0 -23 -8 -42t-22.5 -33.5t-34 -22.5t-41.5 -8q-46 0 -76 31l-132 133q-106 -84 -226 -124t-260 -40q-332 0 -566 234 t-234 566zM292 800q0 -244 172 -416t416 -172q189 0 335 103l-141 140q-30 35 -30 75q0 22 8 41.5t22.5 34t33.5 22.5t42 8q44 0 75 -31l140 -139q103 145 103 334q0 243 -172 415q-173 173 -416 173q-124 0 -226.5 -43t-189.5 -130t-129.5 -189t-42.5 -226z" />
<glyph unicode="R" horiz-adv-x="1200" d="M75 106v1388q0 22 8 41.5t22.5 34t33.5 22.5t42 8h386q101 0 190.5 -39t156 -106t105.5 -156.5t39 -190.5q0 -66 -16.5 -128.5t-49 -118t-81 -103t-112.5 -83.5l319 -511q17 -28 17 -58q0 -23 -8 -42t-22.5 -33.5t-34 -22.5t-41.5 -8q-56 0 -91 52l-353 565h-298v-511 q0 -44 -31 -75t-75 -31t-75 31t-31 75zM287 829h280q58 0 109 22t88.5 60.5t59.5 89t22 107.5q0 58 -22 109t-60 89t-89 60t-108 22h-280v-559z" />
<glyph unicode="S" horiz-adv-x="1060" d="M74 286q0 22 8 41.5t22.5 34t33.5 22.5t42 8q59 0 89 -49q42 -65 105 -98t136 -33q57 0 107.5 22.5t88 60.5t59.5 89.5t22 109.5q0 55 -20.5 103.5t-55.5 85t-81.5 59.5t-98.5 28q-80 7 -149 42t-121 90.5t-81.5 127t-29.5 151.5q0 98 37 177.5t109 141.5h-1 q115 100 270 100q50 0 100 -12.5t96.5 -38t87 -63.5t72.5 -89q15 -26 15 -57q0 -23 -8 -42t-22.5 -33.5t-34 -22.5t-41.5 -8q-20 0 -35.5 6t-28 17t-24 25.5t-24.5 33.5q-24 35 -65.5 52.5t-89.5 17.5q-38 0 -74 -15.5t-64 -42.5t-45.5 -64t-17.5 -80q0 -39 14.5 -74 t39.5 -62.5t58.5 -45t72.5 -20.5q93 -7 175 -48t143.5 -106.5t97.5 -150.5t36 -179q0 -234 -173 -380h1q-139 -118 -316 -118q-59 0 -118 14.5t-113.5 42.5t-102 70t-82.5 95q-21 27 -21 64z" />
<glyph unicode="T" horiz-adv-x="1360" d="M77 1494q0 44 31 75t75 31h1002q44 0 75 -31t31 -75t-31 -75t-75 -31h-395v-1282q0 -44 -31 -75t-75 -31t-75 31t-31 75v1282h-395q-44 0 -75 31t-31 75z" />
<glyph unicode="U" d="M76 569v925q0 44 31 75t75 31t75 -31t31 -75v-925q0 -73 28 -138t76 -113.5t113 -77t139 -28.5t139 28t113.5 77t76.5 113.5t28 138.5v925q0 44 31 75t75 31t75 -31t31 -75v-925q0 -78 -20.5 -150t-57.5 -135.5t-89 -115.5t-115.5 -89.5t-136 -58t-150.5 -20.5 q-236 0 -401 167q-167 167 -167 402z" />
<glyph unicode="V" horiz-adv-x="1440" d="M77 1494q0 22 8 41.5t22.5 34t33.5 22.5t42 8q70 0 98 -63l442 -1137l442 1137q24 63 98 63q22 0 41.5 -8t34 -22.5t22.5 -34t8 -41.5q0 -26 -12 -54l-537 -1373q-27 -67 -97 -67t-97 67l-537 1373q-12 31 -12 54z" />
<glyph unicode="W" horiz-adv-x="1920" d="M82 1494q0 44 31 75t75 31t75 -31q17 -18 25 -40l285 -1027l284 1026q8 31 36.5 51.5t65.5 20.5q32 0 60.5 -18.5t39.5 -52.5l285 -1027l286 1027q7 22 25 40q31 31 75 31t74.5 -31t30.5 -75q-1 -20 -7 -42l-377 -1366q-14 -39 -42 -62.5t-65 -23.5q-45 0 -74 32 q-21 22 -32 52l-279 1011l-279 -1009q-14 -39 -42 -62.5t-65 -23.5q-45 0 -75 32q-20 20 -31 52l-379 1369q-6 23 -6 41z" />
<glyph unicode="X" horiz-adv-x="1440" d="M76 105q0 38 23 67l489 628l-492 632q-19 27 -19 62q0 44 31 75t75 31q48 0 75 -31l465 -596l465 596q28 31 75 31q44 0 74.5 -31t30.5 -75q0 -35 -19 -62l-491 -632l489 -628q22 -29 22 -67q0 -44 -30.5 -74.5t-74.5 -30.5q-53 0 -83 38l-458 589l-466 -596 q-31 -31 -75 -31t-75 30.5t-31 74.5z" />
<glyph unicode="Y" d="M76 1494q0 44 31 75t75 31q56 0 86 -44l376 -563l376 563q31 44 87 44q44 0 74.5 -31t30.5 -75q0 -36 -16 -60l-446 -666v-662q0 -44 -31 -75t-75 -31q-43 0 -74.5 31t-31.5 75v662l-445 666q-17 26 -17 60z" />
<glyph unicode="Z" horiz-adv-x="1440" d="M77 106q1 38 22 66l947 1216h-863q-43 0 -74.5 31t-31.5 75t31.5 75t74.5 31h1080q22 0 41.5 -8t34 -22.5t22.5 -34t8 -41.5q0 -33 -20 -62l-949 -1220h863q45 -1 75.5 -32t30.5 -75t-30.5 -74.5t-74.5 -30.5h-1081q-23 0 -42 8t-33.5 22.5t-22.5 33.5t-8 42z" />
<glyph unicode="[" horiz-adv-x="640" d="M76 -372v1866q0 45 30 76.5t77 31.5h311q46 0 76.5 -31.5t30.5 -76.5q0 -46 -30.5 -76t-76.5 -30h-205v-1654h205q46 0 76.5 -30t30.5 -76q0 -47 -30.5 -77.5t-76.5 -30.5h-311q-47 0 -77 30.5t-30 77.5z" />
<glyph unicode="\" horiz-adv-x="960" d="M60 1494q0 45 30 76t76 31q72 0 98 -63l619 -1550q9 -19 9 -43q0 -22 -8 -41.5t-22.5 -34.5t-34 -23t-41.5 -8q-28 0 -56.5 16t-41.5 47l-620 1549q-8 22 -8 44z" />
<glyph unicode="]" horiz-adv-x="640" d="M76 -372q0 46 30 76t77 30h204v1654h-204q-47 0 -77 30t-30 76q0 45 30 76.5t77 31.5h311q46 0 76.5 -31.5t30.5 -76.5v-1866q0 -47 -30.5 -77.5t-76.5 -30.5h-311q-47 0 -77 30.5t-30 77.5z" />
<glyph unicode="^" horiz-adv-x="960" d="M76 1039q0 33 14 54l308 462q29 44 86 44q53 0 85 -44l308 -462q15 -22 15 -54q0 -22 -8 -41t-22.5 -33.5t-33.5 -22.5t-40 -8q-53 0 -85 41l-219 329l-220 -329q-32 -41 -84 -41q-45 0 -74.5 30t-29.5 75z" />
<glyph unicode="_" horiz-adv-x="960" d="M-89 -105q0 44 30.5 74.5t74.5 30.5h960q43 0 73.5 -30.5t30.5 -74.5q0 -43 -30.5 -73.5t-73.5 -30.5h-960q-44 0 -74.5 30.5t-30.5 73.5z" />
<glyph unicode="`" horiz-adv-x="560" d="M71 1494q0 44 29.5 74.5t74.5 30.5q42 0 74 -31l200 -199q26 -28 26 -71q0 -45 -29.5 -74.5t-74.5 -29.5q-44 0 -72 28l-200 199q-28 28 -28 73z" />
<glyph unicode="a" d="M80 560q0 232 164 396t396 164q230 0 396 -164q164 -164 164 -396v-456q0 -43 -30.5 -73.5t-73.5 -30.5q-44 0 -74.5 30.5t-30.5 73.5v20q-75 -60 -163 -92t-188 -32q-232 0 -396 164t-164 396zM289 560q0 -72 27.5 -136t74.5 -111.5t111 -75.5t138 -28q73 0 137 28 t111.5 76t75 111.5t27.5 135.5t-27.5 135.5t-75 111.5t-111.5 76t-137 28q-74 0 -138 -28t-111 -75.5t-74.5 -111.5t-27.5 -136z" />
<glyph unicode="b" d="M80 560v936q0 45 29.5 74.5t74.5 29.5q44 0 74.5 -29.5t30.5 -74.5v-500q149 124 351 124q230 0 396 -164q82 -81 123 -180.5t41 -215.5q0 -234 -164 -396q-166 -164 -396 -164q-232 0 -396 164t-164 396zM289 560q0 -72 27.5 -136t74.5 -111.5t111 -75.5t138 -28 q73 0 137 28t111.5 76t75 111.5t27.5 135.5t-27.5 135.5t-75 111.5t-111.5 76t-137 28q-74 0 -138 -28t-111 -75.5t-74.5 -111.5t-27.5 -136z" />
<glyph unicode="c" horiz-adv-x="1120" d="M78 560q0 232 164 396t396 164q211 0 365 -136q36 -32 36 -79q0 -45 -29.5 -75t-74.5 -30q-38 0 -68 24q-51 43 -107 65t-122 22q-73 0 -137 -27.5t-112 -75t-75.5 -111.5t-27.5 -137t27.5 -137t75.5 -111.5t112 -75t137 -27.5q66 0 122 21.5t106 64.5q28 21 66 22 q45 0 74.5 -29.5t29.5 -74.5q0 -44 -33 -77q-155 -136 -365 -136q-232 0 -396 164t-164 396z" />
<glyph unicode="d" d="M80 560q0 232 164 396t396 164q199 0 351 -123v499q0 45 29.5 74.5t74.5 29.5q44 0 74.5 -29.5t30.5 -74.5v-936q0 -234 -164 -396q-166 -164 -396 -164q-232 0 -396 164t-164 396zM289 560q0 -72 27.5 -136t74.5 -111.5t111 -75.5t138 -28q73 0 137 28t111.5 76 t75 111.5t27.5 135.5t-27.5 135.5t-75 111.5t-111.5 76t-137 28q-74 0 -138 -28t-111 -75.5t-74.5 -111.5t-27.5 -136z" />
<glyph unicode="e" d="M80 560q0 232 164 396t396 164q230 0 396 -164q82 -81 123 -180.5t41 -215.5q0 -45 -30.5 -74.5t-74.5 -29.5h-792q17 -55 50 -100.5t77.5 -78t98 -50.5t111.5 -18q66 0 121 20t102 60q30 25 69 26q45 0 74.5 -29.5t29.5 -74.5q0 -44 -30 -75q-155 -136 -366 -136 q-232 0 -396 164t-164 396zM303 664h674q-17 55 -50.5 100.5t-78 78t-98 50.5t-110.5 18t-111 -18t-99 -50.5t-78 -78t-49 -100.5z" />
<glyph unicode="f" horiz-adv-x="800" d="M65 959q0 45 29.5 74.5t74.5 29.5h48v52q0 484 484 484q43 0 73.5 -30.5t30.5 -73.5q0 -44 -30.5 -74.5t-73.5 -30.5q-276 0 -276 -275v-52h201q43 0 73.5 -30.5t30.5 -73.5q0 -44 -30.5 -74.5t-73.5 -30.5h-201v-750q0 -21 -8 -40t-22 -33.5t-33 -22.5t-41 -8t-41 8 t-33 22.5t-22 33.5t-8 40v750h-48q-45 0 -74.5 30t-29.5 75z" />
<glyph unicode="g" d="M80 560q0 232 164 396t396 164q230 0 396 -164q164 -164 164 -396v-556q0 -72 -22 -136t-61 -117.5t-92 -96.5t-114.5 -72.5t-128.5 -45.5t-134 -16q-80 0 -157 20.5t-146 60.5t-126.5 99t-97.5 132q-16 23 -16 56q0 45 30 74.5t75 29.5q30 0 49.5 -14t53.5 -62t60 -73 q114 -114 275 -114q162 0 274 112q69 84 69 163v119q-150 -123 -351 -123q-232 0 -396 164t-164 396zM289 560q0 -72 27.5 -136t74.5 -111.5t111 -75.5t138 -28q73 0 137 28t111.5 76t75 111.5t27.5 135.5t-27.5 135.5t-75 111.5t-111.5 76t-137 28q-74 0 -138 -28 t-111 -75.5t-74.5 -111.5t-27.5 -136z" />
<glyph unicode="h" horiz-adv-x="1200" d="M79 105v1390q0 44 30.5 74.5t73.5 30.5t73.5 -30.5t31.5 -74.5v-480q133 103 313 103q105 0 199.5 -41t166.5 -111.5t114 -166t42 -203.5v-491q-1 -44 -31.5 -74.5t-73.5 -30.5t-73.5 30.5t-30.5 74.5v491q0 64 -25 121t-67.5 99.5t-99.5 67.5t-121 25 q-65 0 -121.5 -24.5t-99.5 -67.5t-67.5 -100t-24.5 -121v-491q0 -44 -30.5 -74.5t-74.5 -30.5q-43 0 -73.5 30.5t-30.5 74.5z" />
<glyph unicode="i" horiz-adv-x="480" d="M117 1319q0 51 36 87t87 36t87 -36t36 -87t-36 -87t-87 -36t-87 36t-36 87zM136 105v910q0 44 30.5 74.5t73.5 30.5t73.5 -30.5t31.5 -74.5v-910q-1 -44 -31.5 -74.5t-73.5 -30.5t-73.5 30.5t-30.5 74.5z" />
<glyph unicode="j" horiz-adv-x="656" d="M-5 -374q0 45 29.5 74.5t74.5 29.5q57 0 107 21.5t87.5 59t59.5 87.5t22 107v1010q0 44 30.5 74.5t73.5 30.5t73.5 -30.5t30.5 -74.5v-1010q0 -99 -38.5 -187t-104.5 -154t-154 -104.5t-187 -38.5q-45 0 -74.5 30t-29.5 75zM356 1319q0 51 36 87t87 36t87 -36t36 -87 t-36 -87t-87 -36t-87 36t-36 87z" />
<glyph unicode="k" horiz-adv-x="1120" d="M78 105v1390q0 44 30.5 74.5t74.5 30.5q43 0 73.5 -30.5t30.5 -74.5v-780l598 389q25 16 56 16q22 0 41 -8t33 -22.5t22.5 -33.5t8.5 -40q0 -56 -40 -83l-419 -272l430 -484q29 -32 29 -73q0 -21 -8.5 -40t-22.5 -33.5t-33 -22.5t-41 -8q-42 0 -70 27l-462 519l-122 -80 v-361q0 -43 -30.5 -74t-73.5 -31q-44 0 -74.5 31t-30.5 74z" />
<glyph unicode="l" horiz-adv-x="480" d="M70 104v1391q0 44 29.5 74.5t74.5 30.5t74.5 -30.5t29.5 -74.5v-1286h48q43 0 73.5 -30.5t30.5 -74.5q0 -43 -30.5 -73.5t-73.5 -30.5h-153q-43 0 -73 30.5t-30 73.5z" />
<glyph unicode="m" horiz-adv-x="1760" d="M86 105v911q0 43 30.5 73.5t73.5 30.5q35 0 62 -19.5t37 -51.5q107 71 243 71q100 0 188 -39.5t154 -119.5q139 159 341 159q91 0 172.5 -35.5t142 -96t96 -142t35.5 -172.5v-569q0 -44 -30.5 -74.5t-73.5 -30.5q-44 0 -74 30.5t-30 74.5v569q0 48 -18.5 91t-50.5 75.5 t-75.5 51.5t-93.5 19q-49 0 -92 -19t-75.5 -51t-51 -75t-18.5 -92v-569q0 -44 -30.5 -74.5t-73.5 -30.5q-44 0 -74.5 30.5t-30.5 74.5v569q0 49 -19 92t-51 75t-75 51t-92 19t-92 -18.5t-75.5 -51t-51 -75.5t-18.5 -92v-569q0 -44 -30.5 -74.5t-73.5 -30.5q-44 0 -74.5 30.5 t-30.5 74.5z" />
<glyph unicode="n" horiz-adv-x="1200" d="M79 105v910q0 43 30.5 74t74.5 31q43 0 73.5 -31t30.5 -72q133 103 313 103q105 0 199.5 -41t166.5 -111.5t114 -166t42 -203.5v-493q0 -44 -30.5 -74.5t-73.5 -30.5q-44 0 -74.5 30.5t-30.5 74.5v493q0 64 -25 121t-67.5 99.5t-99.5 67.5t-121 25q-65 0 -121.5 -24.5 t-99.5 -67.5t-67.5 -100t-24.5 -121v-493q0 -44 -30.5 -74.5t-73.5 -30.5q-44 0 -74.5 30.5t-30.5 74.5z" />
<glyph unicode="o" d="M80 560q0 232 164 396t396 164q230 0 396 -164q82 -82 122.5 -181t41.5 -215q0 -234 -164 -396q-166 -164 -396 -164q-232 0 -396 164t-164 396zM289 560q0 -72 27.5 -136t74.5 -111.5t111 -75.5t138 -28q73 0 137 28t111.5 76t75 111.5t27.5 135.5t-27.5 135.5 t-75 111.5t-111.5 76t-137 28q-74 0 -138 -28t-111 -75.5t-74.5 -111.5t-27.5 -136z" />
<glyph unicode="p" d="M80 -376v936q0 232 164 396t396 164q230 0 396 -164q82 -81 123 -180.5t41 -215.5q0 -234 -164 -396q-84 -83 -182.5 -123.5t-213.5 -40.5q-201 0 -351 123v-499q0 -45 -30.5 -74.5t-74.5 -29.5q-45 0 -74.5 29.5t-29.5 74.5zM289 560q0 -72 27.5 -136t74.5 -111.5 t111 -75.5t138 -28q73 0 137 28t111.5 76t75 111.5t27.5 135.5t-27.5 135.5t-75 111.5t-111.5 76t-137 28q-74 0 -138 -28t-111 -75.5t-74.5 -111.5t-27.5 -136z" />
<glyph unicode="q" d="M80 560q0 232 164 396t396 164q230 0 396 -164q164 -164 164 -396v-936q0 -45 -30.5 -74.5t-74.5 -29.5q-45 0 -74.5 29.5t-29.5 74.5v499q-150 -123 -351 -123q-232 0 -396 164t-164 396zM289 560q0 -72 27.5 -136t74.5 -111.5t111 -75.5t138 -28q73 0 137 28t111.5 76 t75 111.5t27.5 135.5t-27.5 135.5t-75 111.5t-111.5 76t-137 28q-74 0 -138 -28t-111 -75.5t-74.5 -111.5t-27.5 -136z" />
<glyph unicode="r" horiz-adv-x="960" d="M76 104v912q0 43 30.5 73.5t74.5 30.5q43 0 73.5 -30.5t30.5 -73.5v-20q75 60 163 92t188 32q44 0 94.5 -6t93 -21.5t70.5 -42.5t28 -70q0 -22 -8.5 -41t-22.5 -33.5t-33 -22.5t-41 -8q-19 0 -44 11q-63 25 -137 25q-73 0 -137 -27.5t-111.5 -75t-75 -111.5t-27.5 -137 v-456q0 -43 -30.5 -73.5t-73.5 -30.5q-44 0 -74.5 30.5t-30.5 73.5z" />
<glyph unicode="s" horiz-adv-x="1060" d="M77 788q0 76 40.5 137.5t105.5 104.5t146.5 66.5t163.5 23.5q250 0 429 -201q21 -26 21 -63q0 -45 -29.5 -74.5t-74.5 -29.5q-32 0 -54.5 18t-43.5 39q-102 102 -248 102q-144 0 -230 -88q-16 -16 -16 -44t26 -38l468 -154q98 -38 132 -74h-1q76 -77 76 -181 q0 -77 -40.5 -138t-105.5 -104.5t-146 -66.5t-163 -23q-252 0 -429 199q-22 29 -22 65q0 45 29.5 74.5t74.5 29.5q33 0 56 -19.5t42 -37.5q102 -102 249 -102q143 0 230 90q15 17 15 41q0 28 -27 39l-467 154q-94 36 -132 74h1q-76 77 -76 181z" />
<glyph unicode="t" horiz-adv-x="800" d="M75 1016q0 43 30.5 73.5t72.5 30.5h47v376q0 43 30.5 73.5t74.5 30.5q43 0 73.5 -30.5t30.5 -73.5v-376h125q43 0 73 -30.5t30 -73.5q0 -44 -30 -74.5t-73 -30.5h-125v-503q0 -199 200 -199q43 0 73 -30.5t30 -73.5q0 -44 -30 -74.5t-73 -30.5q-409 0 -409 408v503h-47 q-42 0 -72.5 30.5t-30.5 74.5z" />
<glyph unicode="u" horiz-adv-x="1200" d="M79 522v494q0 43 30.5 73.5t74.5 30.5q43 0 73.5 -30.5t30.5 -73.5v-494q0 -65 24.5 -122t67 -99.5t99.5 -67t122 -24.5q64 0 121 24.5t100 67.5t67.5 99.5t24.5 121.5v494q0 43 30.5 73.5t74.5 30.5q43 0 73.5 -30.5t30.5 -73.5v-912q0 -43 -30.5 -73.5t-74.5 -30.5 q-45 0 -74 30t-30 73q-69 -54 -146 -78.5t-167 -24.5q-107 0 -202 41.5t-166 112.5t-112.5 166t-41.5 202z" />
<glyph unicode="v" horiz-adv-x="1200" d="M79 1016q0 21 8 40t22 33.5t33 22.5t41 8q27 0 52 -13.5t39 -38.5l327 -713l326 712q29 53 91 53q22 0 41 -8t33 -22.5t22.5 -33.5t8.5 -40q0 -23 -9 -42l-421 -918q-28 -56 -92 -56q-66 0 -92 56l-422 918q-8 21 -8 42z" />
<glyph unicode="w" horiz-adv-x="1600" d="M84 1016q0 21 8 40t22 33.5t33 22.5t41 8q36 0 60.5 -17t33.5 -41l210 -627l203 608q26 77 101 77q74 0 100 -77l203 -609l210 628q8 26 32 42t62 16q22 0 41 -8t33 -22.5t22.5 -33.5t8.5 -40q0 -19 -8 -40l-303 -909q-9 -29 -33 -48t-65 -19q-35 0 -62 20t-35 47 l-206 618l-206 -618q-9 -29 -36 -48t-62 -19t-61.5 19t-36.5 48l-303 909q-7 22 -7 40z" />
<glyph unicode="x" horiz-adv-x="1120" d="M78 104q0 39 21 65l327 392l-324 386q-24 27 -24 69q0 21 8 40t22 33.5t33 22.5t41 8q47 0 78 -34l302 -361l302 361q30 34 77 34q22 0 41 -8t33 -22.5t22.5 -33.5t8.5 -40q0 -38 -25 -69l-324 -386l327 -392q22 -25 22 -65q0 -21 -8.5 -40t-22.5 -33.5t-33 -22.5t-41 -8 q-43 0 -75 32l-304 366l-306 -366q-30 -32 -74 -32q-22 0 -41 8t-33 22.5t-22 33.5t-8 40z" />
<glyph unicode="y" horiz-adv-x="1120" d="M78 1016q0 21 8 40t22 33.5t33 22.5t41 8q31 0 58 -17.5t41 -51.5l281 -671l281 673q12 30 34.5 48.5t63.5 18.5q22 0 41 -8t33 -22.5t22.5 -33.5t8.5 -40q0 -22 -11 -47l-575 -1379q-13 -31 -40 -50.5t-59 -19.5q-45 0 -74.5 30t-29.5 75q0 24 10 46l181 433l-360 865 q-10 23 -10 47z" />
<glyph unicode="z" horiz-adv-x="1120" d="M78 104q0 37 21 65l619 742h-536q-42 0 -72.5 30.5t-30.5 74.5q0 43 30.5 73.5t72.5 30.5h759q22 0 41 -8t33 -22.5t22.5 -33.5t8.5 -40q0 -41 -25 -69l-618 -738h538q43 0 73 -30.5t30 -73.5q0 -44 -30 -74.5t-73 -30.5h-759q-22 0 -41 8t-33 22.5t-22 33.5t-8 40z" />
<glyph unicode="{" horiz-adv-x="800" d="M74 560q0 45 29.5 74.5t74.5 29.5q123 0 123 124v478q0 333 333 333q45 0 74.5 -30.5t29.5 -74.5q0 -45 -29.5 -74.5t-74.5 -29.5q-124 0 -124 -124v-478q0 -144 -66 -228q66 -84 66 -228v-478q0 -124 124 -124q45 0 74.5 -29.5t29.5 -74.5t-29.5 -75t-74.5 -30 q-333 0 -333 333v478q0 124 -123 124q-45 0 -74.5 29.5t-29.5 74.5z" />
<glyph unicode="|" horiz-adv-x="800" d="M301 -375v1870q0 45 30 75t75 30t74.5 -30t29.5 -75v-1870q0 -45 -29.5 -75t-74.5 -30t-75 30t-30 75z" />
<glyph unicode="}" horiz-adv-x="800" d="M74 -374q0 45 29.5 74.5t74.5 29.5q124 0 124 124v478q0 144 66 228q-66 84 -66 228v478q0 124 -124 124q-45 0 -74.5 29.5t-29.5 74.5q0 44 29.5 74.5t74.5 30.5q333 0 333 -333v-478q0 -124 123 -124q45 0 74.5 -29.5t29.5 -74.5t-29.5 -74.5t-74.5 -29.5 q-123 0 -123 -124v-478q0 -333 -333 -333q-45 0 -74.5 30t-29.5 75z" />
<glyph unicode="~" horiz-adv-x="960" d="M67 747q1 47 31 75.5t73 28.5q36 0 81 -33t84 -33q43 0 73 27q87 82 219 82q37 0 83.5 -11.5t86.5 -33.5t67.5 -54t27.5 -72q0 -45 -30.5 -74.5t-74.5 -29.5q-32 0 -79.5 33t-83.5 33q-41 0 -74 -27q-90 -82 -219 -82q-38 0 -84 11t-86.5 33t-67.5 53.5t-27 73.5z" />
<glyph unicode="&#xa1;" horiz-adv-x="400" d="M69 978q0 30 11.5 56t31 45t45 30t54.5 11q28 0 54 -11t45.5 -30t31 -45t11.5 -56q0 -29 -11 -55t-30.5 -45.5t-45.5 -31t-55 -11.5t-55 11.5t-45.5 31t-30.5 45.5t-11 55zM107 -374v1044q0 21 8 39.5t22 32.5t33 22.5t41 8.5q21 0 40 -8t33 -22t22.5 -33t8.5 -40v-1044 q0 -44 -29.5 -74.5t-74.5 -30.5t-74.5 30.5t-29.5 74.5z" />
<glyph unicode="&#xa2;" horiz-adv-x="1120" d="M84 560q0 115 44.5 216.5t121 178t178 121t216.5 44.5h28l96 238q16 41 57 58q19 8 41 8t41 -8.5t33 -23t22 -33.5t8 -40q0 -15 -8 -38l-83 -210q58 -31 112.5 -71t54.5 -95q0 -22 -8.5 -41t-22.5 -33.5t-33 -22.5t-41 -8q-38 0 -69 25.5t-71 49.5l-262 -652 q54 -14 105 -14q66 0 122.5 21.5t106.5 64.5q14 11 31 16.5t35 5.5q45 0 74.5 -29.5t29.5 -74.5q0 -44 -33 -77q-157 -136 -366 -136q-99 0 -182 28l-106 -265q-12 -27 -38.5 -47t-58.5 -20q-22 0 -41 8.5t-33.5 23.5t-22.5 34t-8 40q0 19 7 38l118 295q-15 14 -30 29 q-165 163 -165 396zM293 560q0 -63 17 -114t53 -99l224 559q-65 -11 -119 -43t-93 -78.5t-60.5 -104t-21.5 -120.5z" />
<glyph unicode="&#xa3;" horiz-adv-x="1040" d="M77 722q0 46 30 75.5t75 29.5h66q-22 102 -63 201q-31 73 -31 155q0 86 33 162t89.5 132t131.5 88.5t160 32.5q107 0 191.5 -46t153.5 -138q20 -29 20 -64q0 -46 -30 -76.5t-76 -30.5q-39 0 -63.5 27.5t-52.5 56.5q-59 59 -143 59q-42 0 -79 -16t-64.5 -43.5t-43.5 -64.5 t-16 -79q0 -35 17 -75q30 -70 50 -139t32 -142h258q46 0 75.5 -29.5t29.5 -75.5t-29.5 -76.5t-75.5 -30.5h-242q-2 -98 -18.5 -198.5t-49.5 -204.5h321q31 61 58.5 107.5t83.5 46.5q22 0 41.5 -8.5t33.5 -23t22.5 -33.5t8.5 -41q0 -28 -12 -50l-74 -146q-34 -64 -96 -64 h-539q-52 0 -79 30t-27 75q0 26 7 42q104 243 108 468h-87q-45 0 -75 30.5t-30 76.5z" />
<glyph unicode="&#xa4;" horiz-adv-x="960" d="M104 465q0 42 31 74l53 49q-36 69 -36 152q0 82 34 149l-51 54q-31 27 -31 73q0 21 8 40t22.5 33.5t33.5 22.5t41 8q41 0 72 -28l50 -55q79 41 153 36q78 0 147 -34l55 51q30 30 73 30q22 0 41 -8t33 -22.5t22 -33.5t8 -40q-1 -48 -31 -76l-50 -47q34 -67 34 -153 q0 -80 -33 -147l51 -54q29 -31 29 -74q0 -45 -29.5 -74.5t-74.5 -29.5q-41 0 -72 27l-50 55q-72 -35 -153 -35q-77 0 -147 32l-53 -49q-34 -30 -75 -30q-45 0 -75 29.5t-30 74.5zM360 740q0 -24 9.5 -46.5t26 -39.5t39 -27t49.5 -10q25 0 47.5 9.5t39 26.5t26.5 39t10 48 t-10 49t-27 39.5t-39.5 26t-46.5 9.5q-26 0 -48.5 -10t-39 -27t-26.5 -39.5t-10 -47.5z" />
<glyph unicode="&#xa5;" d="M80 584q0 45 29.5 74.5t74.5 29.5h351v92l-52 79h-299q-45 0 -74.5 30t-29.5 75t29.5 74.5t74.5 29.5h160l-247 368q-17 26 -17 59q0 44 29.5 74.5t74.5 30.5q53 0 85 -44l371 -554l370 554q32 44 85 44q45 0 74.5 -30.5t29.5 -74.5q0 -33 -16 -59l-247 -368h160 q44 0 75 -29.5t31 -74.5q0 -46 -31 -75.5t-75 -29.5h-300l-52 -79v-92h351q44 0 74.5 -29.5t30.5 -74.5t-30.5 -74.5t-74.5 -29.5h-351v-374q0 -45 -30 -75.5t-75 -30.5t-74.5 30.5t-29.5 75.5v374h-351q-45 0 -74.5 29.5t-29.5 74.5z" />
<glyph unicode="&#xa6;" horiz-adv-x="480" d="M145 309q0 45 30 74.5t75 29.5t74.5 -29.5t29.5 -74.5v-683q0 -45 -29.5 -75t-74.5 -30t-75 30t-30 75v683zM145 940v683q0 45 30 74.5t75 29.5t74.5 -29.5t29.5 -74.5v-683q0 -45 -29.5 -75t-74.5 -30t-75 30t-30 75z" />
<glyph unicode="&#xa7;" horiz-adv-x="960" d="M76 -60q0 46 30.5 76.5t77.5 30.5q45 0 75 -30.5t30 -76.5q0 -42 16.5 -79.5t44 -65t65 -44t79.5 -16.5q41 0 78 16.5t65 44t44.5 65t16.5 79.5q0 41 -16.5 78t-44.5 65t-65 44.5t-78 16.5q-86 0 -162.5 32.5t-133 89.5t-89.5 133t-33 163q0 173 137 311 q-77 74 -107 149.5t-30 160.5t33 161.5t89.5 133.5t133 90.5t162.5 33.5t161.5 -33.5t132.5 -90.5t90.5 -133t33.5 -162q0 -46 -30.5 -76.5t-76.5 -30.5t-76.5 30.5t-30.5 76.5q0 42 -16.5 79.5t-44.5 65t-65 44t-78 16.5q-42 0 -79.5 -16.5t-65 -44t-44 -65t-16.5 -79.5 t16 -79.5t43.5 -65t65 -43.5t80.5 -16q86 0 162 -33t133 -90t90 -133t33 -161q0 -177 -139 -312q139 -135 139 -310q0 -86 -33.5 -162t-90.5 -133t-132.5 -90.5t-161.5 -33.5t-162.5 33.5t-133 90.5t-89.5 133t-33 162zM289 562q0 -44 16.5 -81t44 -64.5t65 -43t79.5 -15.5 q41 0 78 15.5t65 43.5t44.5 64.5t16.5 80.5q0 41 -16.5 78.5t-44.5 65.5t-65 43.5t-78 15.5q-42 0 -79.5 -15.5t-65 -43.5t-44 -65.5t-16.5 -78.5z" />
<glyph unicode="&#xa8;" horiz-adv-x="960" d="M132 1359q0 51 36 87t87 36t87 -36t36 -87t-36 -87t-87 -36t-87 36t-36 87zM587 1359q0 51 36 87t87 36t87 -36t36 -87t-36 -87t-87 -36t-87 36t-36 87z" />
<glyph unicode="&#xa9;" horiz-adv-x="1760" d="M86 800q0 330 233 564q233 235 567 235q332 0 564 -235q235 -232 235 -564q0 -333 -235 -566q-236 -234 -564 -234q-166 0 -307.5 58t-259.5 176q-118 117 -175.5 258.5t-57.5 307.5zM247 803q0 -135 45.5 -246t140.5 -205q185 -185 450 -185q132 0 244.5 45.5 t204.5 139.5q186 188 186 451q0 262 -186 448t-449 186q-264 0 -450 -186t-186 -448zM328 802q0 228 163 392q80 81 178.5 122t213.5 41q210 0 362 -135q36 -32 36 -79q0 -45 -29 -74.5t-74 -29.5q-18 0 -36 5.5t-31 18.5q-51 43 -106.5 65t-121.5 22q-72 0 -135.5 -28 t-111 -75.5t-75 -110.5t-27.5 -134q0 -72 27.5 -135t74.5 -110.5t110.5 -75t136.5 -27.5q66 0 121.5 21t105.5 64q13 12 29.5 16.5t35.5 5.5q45 0 74 -30.5t29 -73.5q0 -21 -8 -41t-25 -35q-76 -68 -166 -101.5t-196 -33.5q-230 0 -392 163q-163 163 -163 393z" />
<glyph unicode="&#xaa;" horiz-adv-x="960" d="M76 1167q0 83 32 157.5t87.5 130.5t130 88.5t158.5 32.5t158 -32.5t129.5 -88.5t88 -130t32.5 -158v-303q0 -22 -8 -41t-22.5 -33.5t-33.5 -22.5t-40 -8q-45 0 -75 32q-11 11 -18 25q-94 -57 -211 -57q-84 0 -158.5 32.5t-130 88.5t-87.5 130t-32 157zM284 1167 q0 -41 15.5 -77.5t42.5 -63.5t63.5 -42.5t78.5 -15.5q40 0 76.5 16t63.5 43t43 63t16 77t-16 77.5t-43.5 63.5t-63.5 43t-76 16q-41 0 -77.5 -16t-63.5 -43t-43 -63.5t-16 -77.5z" />
<glyph unicode="&#xab;" horiz-adv-x="960" d="M76 559q0 24 13 50l223 446q14 32 39 48t57 16q45 0 74.5 -29.5t30.5 -74.5q-1 -25 -10 -45l-205 -410l205 -412q9 -19 9 -44q0 -21 -8 -40t-22 -33.5t-33 -22.5t-41 -8q-29 0 -55 16t-41 48l-221 441q-15 29 -15 54zM458 559q0 24 13 50l223 446q14 32 39 48t57 16 q45 0 74.5 -29.5t30.5 -74.5q-1 -25 -10 -45l-205 -410l205 -412q9 -19 9 -44q0 -21 -8 -40t-22 -33.5t-33 -22.5t-41 -8q-29 0 -55 16t-41 48l-221 441q-15 29 -15 54z" />
<glyph unicode="&#xac;" horiz-adv-x="1120" d="M78 1016q0 21 8 40t22 33.5t33 22.5t41 8h759q22 0 41 -8t33 -22.5t22.5 -33.5t8.5 -40v-304q0 -22 -8.5 -41t-22.5 -33.5t-33 -22.5t-41 -8q-21 0 -40 8t-33.5 22.5t-22.5 33.5t-8 41v199h-655q-45 0 -74.5 30t-29.5 75z" />
<glyph unicode="&#xad;" horiz-adv-x="800" d="M74 560q0 45 29.5 74.5t74.5 29.5h456q45 0 74.5 -29.5t29.5 -74.5t-29.5 -74.5t-74.5 -29.5h-456q-45 0 -74.5 29.5t-29.5 74.5z" />
<glyph unicode="&#xae;" horiz-adv-x="1760" d="M86 802q0 330 234 564q233 236 568 236q332 0 564 -236q236 -232 236 -564q0 -334 -236 -567q-236 -235 -564 -235q-167 0 -308.5 58t-259.5 177q-119 117 -176.5 258.5t-57.5 308.5zM252 804q0 -134 45.5 -244t139.5 -204q184 -184 448 -184q131 0 242.5 45.5 t203.5 138.5q185 187 185 448t-185 446t-446 185q-263 0 -448 -185t-185 -446zM560 364v896q0 33 23 55.5t55 22.5h250q66 0 125.5 -26t104 -70t71 -104t26.5 -127q0 -88 -41 -160.5t-123 -123.5l199 -319q15 -22 15 -44q0 -16 -6.5 -30.5t-17 -25t-24.5 -17t-30 -6.5 q-44 0 -68 39l-224 360h-178v-320q0 -32 -23.5 -55.5t-55.5 -23.5q-16 0 -30 6.5t-24.5 17t-17 25t-6.5 30.5zM717 840h171q35 0 66 13.5t54.5 37t37 54.5t13.5 66t-13.5 66t-37 54t-54.5 36.5t-66 13.5h-171v-341z" />
<glyph unicode="&#xaf;" horiz-adv-x="1120" d="M78 1775q0 45 29.5 74.5t74.5 29.5h759q44 0 74.5 -29.5t30.5 -74.5t-30.5 -74.5t-74.5 -29.5h-759q-45 0 -74.5 29.5t-29.5 74.5z" />
<glyph unicode="&#xb0;" horiz-adv-x="960" d="M76 1167q0 83 32 157.5t87.5 130.5t130 88.5t158.5 32.5t158 -32.5t129.5 -88.5t88 -130t32.5 -158q0 -83 -32.5 -157t-88 -130t-129.5 -88.5t-158 -32.5t-158.5 32.5t-130 88.5t-87.5 130t-32 157zM284 1167q0 -41 15.5 -77.5t42.5 -63.5t63.5 -42.5t78.5 -15.5 q40 0 76.5 16t63.5 43t43 63t16 77t-16 77.5t-43.5 63.5t-63.5 43t-76 16q-41 0 -77.5 -16t-63.5 -43t-43 -63.5t-16 -77.5z" />
<glyph unicode="&#xb1;" horiz-adv-x="1120" d="M78 104q0 45 29.5 74.5t74.5 29.5h760q45 0 74.5 -29.5t29.5 -74.5t-29.5 -74.5t-74.5 -29.5h-760q-45 0 -74.5 29.5t-29.5 74.5zM78 788q0 45 29.5 74.5t74.5 29.5h275v275q0 43 30.5 74t74.5 31q45 0 74.5 -30.5t29.5 -74.5v-275h275q43 0 74 -30.5t31 -74.5 q0 -43 -31 -73.5t-74 -30.5h-275v-275q0 -45 -29.5 -74.5t-74.5 -29.5t-75 29.5t-30 74.5v275h-275q-45 0 -74.5 30t-29.5 75z" />
<glyph unicode="&#xb2;" horiz-adv-x="640" d="M72 857q0 28 17 46l321 355q37 37 37 87q0 25 -10 47.5t-26.5 39t-38.5 26.5t-46 10q-26 0 -48 -10t-39 -26.5t-26.5 -39t-9.5 -47.5q0 -26 -19.5 -45.5t-45.5 -19.5q-29 0 -47.5 19.5t-18.5 45.5q0 53 20.5 99.5t55 81t81 54.5t97.5 20t97 -20t80.5 -55t55 -81.5 t20.5 -98.5q0 -51 -19 -96t-55 -82l-218 -244h227q26 0 45.5 -20t19.5 -46q0 -29 -19.5 -47.5t-45.5 -18.5h-376q-29 0 -47.5 18.5t-18.5 47.5z" />
<glyph unicode="&#xb3;" horiz-adv-x="640" d="M72 1042q0 29 18.5 47.5t47.5 18.5q26 0 46 -18.5t20 -47.5q0 -25 9 -47.5t25.5 -39t39.5 -26.5t50 -10q26 0 48 9.5t38.5 26.5t26 39t9.5 48q0 25 -10 47.5t-26.5 39t-38.5 26.5t-47 10q-29 0 -48 18.5t-19 47.5q0 26 19 46.5t48 20.5q35 0 59.5 24.5t24.5 59.5 q0 38 -25 62t-59 24q-18 0 -33.5 -7t-27.5 -18.5t-18.5 -27t-6.5 -33.5q0 -26 -20 -45.5t-46 -19.5q-29 0 -47.5 19.5t-18.5 45.5q0 46 17.5 86t47.5 69.5t69.5 46.5t83.5 17t83.5 -18t69 -48t47 -70t17.5 -83q0 -40 -14.5 -77t-38.5 -67q46 -33 68.5 -87.5t22.5 -108.5 q0 -52 -20 -98.5t-55 -81.5t-81.5 -55.5t-98.5 -20.5q-53 0 -99.5 20t-81.5 55t-55 81.5t-20 99.5z" />
<glyph unicode="&#xb4;" horiz-adv-x="560" d="M104 1298q0 43 26 71l200 199q32 31 74 31q45 0 74.5 -30.5t29.5 -74.5q0 -45 -28 -73l-200 -199q-28 -28 -72 -28q-45 0 -74.5 29.5t-29.5 74.5z" />
<glyph unicode="&#xb5;" horiz-adv-x="1200" d="M79 -374v1390q0 21 8 40t22 33.5t33 22.5t41 8t41 -8t33 -22.5t22.5 -33.5t8.5 -40v-494q0 -65 24.5 -122t67 -99.5t99.5 -67t122 -24.5q64 0 121 24.5t100 67.5t67.5 99.5t24.5 121.5v494q0 21 8 40t22 33.5t33 22.5t41 8t41 -8t33 -22.5t22.5 -33.5t8.5 -40v-912 q0 -21 -8.5 -40t-22.5 -33.5t-33 -22.5t-41 -8q-45 0 -74 30t-30 73q-69 -54 -146 -78.5t-167 -24.5q-180 0 -313 103v-477q0 -22 -8.5 -41t-22.5 -33.5t-33 -22.5t-41 -8q-45 0 -74.5 30t-29.5 75z" />
<glyph unicode="&#xb6;" horiz-adv-x="1120" d="M78 1190q0 83 32 157.5t87.5 130.5t130 88.5t158.5 32.5h455q22 0 41 -8.5t33 -22.5t22.5 -33t8.5 -41q0 -36 -21 -63.5t-55 -36.5v-1290q0 -21 -8.5 -40t-22.5 -33.5t-33 -22.5t-41 -8q-21 0 -40 8t-33.5 22.5t-22.5 33.5t-8 40v1286h-95v-1286q0 -21 -8 -40t-22 -33.5 t-33 -22.5t-41 -8t-41 8t-33.5 22.5t-22.5 33.5t-8 40v679q-79 5 -148 39.5t-120.5 90t-81 127.5t-29.5 150z" />
<glyph unicode="&#xb7;" horiz-adv-x="400" d="M59 750q0 59 41.5 100.5t100.5 41.5t100.5 -41.5t41.5 -100.5t-41.5 -100.5t-100.5 -41.5t-100.5 41.5t-41.5 100.5z" />
<glyph unicode="&#xb8;" horiz-adv-x="640" d="M72 -308q0 44 29.5 74.5t74.5 30.5q29 1 56 -16l72 -45q12 -6 24 -6q47 0 47 22t-45 25q-45 0 -81.5 33.5t-23.5 85.5l40 139q6 23 28 47q31 28 73 28q45 0 74.5 -30.5t29.5 -74.5q0 -11 -3 -23l-9 -35q126 -74 126 -198q0 -97 -77 -163q-73 -65 -179 -65q-64 0 -123 31 l-87 53q-46 37 -46 87z" />
<glyph unicode="&#xb9;" horiz-adv-x="480" d="M107 1496q0 18 11.5 35.5t31.5 26.5l115 39q10 3 21 3q26 0 46.5 -19t20.5 -48v-678q0 -29 -20.5 -48t-46.5 -19t-46 19t-20 48v588l-22 -9q-9 -4 -25 -4q-29 0 -47.5 18.5t-18.5 47.5z" />
<glyph unicode="&#xba;" horiz-adv-x="640" d="M72 1194q0 96 17 171t49.5 127.5t80 80t108.5 27.5q59 0 106 -27.5t80 -80t50.5 -127.5t17.5 -171t-17.5 -171t-50.5 -127.5t-80 -80t-106 -27.5q-61 0 -108.5 27.5t-80 80t-49.5 127.5t-17 171zM204 1194q0 -176 64 -249l-2 1q24 -25 61 -25q31 0 54 21t38 58t22.5 87 t7.5 107q0 178 -63 249v-1q-24 26 -59 26q-30 0 -53 -21.5t-38.5 -59t-23.5 -87t-8 -106.5z" />
<glyph unicode="&#xbb;" horiz-adv-x="960" d="M76 1015q1 45 30.5 74.5t74.5 29.5q32 0 57 -16t39 -48l223 -446q13 -26 13 -50q0 -25 -15 -54l-221 -441q-15 -32 -41 -48t-55 -16q-22 0 -41 8t-33 22.5t-22 33.5t-8 40q0 25 9 44l205 412l-205 410q-9 20 -10 45zM458 1015q1 45 30.5 74.5t74.5 29.5q32 0 57 -16 t39 -48l223 -446q13 -26 13 -50q0 -25 -15 -54l-221 -441q-15 -32 -41 -48t-55 -16q-22 0 -41 8t-33 22.5t-22 33.5t-8 40q0 25 9 44l205 412l-205 410q-9 20 -10 45z" />
<glyph unicode="&#xbc;" horiz-adv-x="1440" d="M82 1480q0 22 12 40.5t31 26.5l141 48q13 5 26 5q32 0 53.5 -21.5t21.5 -52.5v-822q0 -31 -21.5 -52.5t-53.5 -21.5q-31 0 -52.5 21.5t-21.5 52.5v717l-36 -10q-14 -5 -26 -5q-32 0 -53 21t-21 53zM158 104q0 34 15 56l932 1398q28 42 84 42q22 0 41 -8.5t33 -22.5 t22.5 -33t8.5 -41q0 -30 -16 -57l-926 -1387q-36 -51 -90 -51q-22 0 -41 8t-33 22.5t-22 33.5t-8 40zM659 302q0 23 14 43l409 592q22 31 61 31q32 0 53 -21t21 -53v-518h63q31 0 52.5 -21t21.5 -53t-21.5 -53t-52.5 -21h-63v-154q0 -32 -21 -53t-53 -21t-53 21t-21 53v154 h-336q-32 0 -53 21t-21 53zM875 376h194v281z" />
<glyph unicode="&#xbd;" horiz-adv-x="1600" d="M82 1480q0 22 12 40.5t31 26.5l141 48q13 5 26 5q32 0 53.5 -21.5t21.5 -52.5v-822q0 -31 -21.5 -52.5t-53.5 -21.5q-31 0 -52.5 21.5t-21.5 52.5v717l-36 -10q-14 -5 -26 -5q-32 0 -53 21t-21 53zM158 104q0 34 15 56l932 1398q28 42 84 42q22 0 41 -8.5t33 -22.5 t22.5 -33t8.5 -41q0 -30 -16 -57l-926 -1387q-36 -51 -90 -51q-22 0 -41 8t-33 22.5t-22 33.5t-8 40zM903 74q0 28 21 51l389 431q46 46 46 111q0 32 -12.5 60t-33.5 49t-49 33t-59 12q-32 0 -60 -12t-49 -33t-33 -49t-12 -60t-21 -53t-53 -21t-53 21t-21 53q0 62 24 117 t65 96t96 65t117 24q61 0 116.5 -24.5t96.5 -65.5t65.5 -96t24.5 -116t-23.5 -114t-65.5 -99l-275 -306h289q30 0 52.5 -21t22.5 -53t-22.5 -53t-52.5 -21h-456q-32 0 -53 21t-21 53z" />
<glyph unicode="&#xbe;" horiz-adv-x="1600" d="M84 935q0 32 21 53t53 21t53 -21t21 -53t12 -60t32.5 -48.5t48.5 -32t60 -11.5q31 0 58.5 12t48.5 33t33 48.5t12 58.5q0 33 -12 61t-33 48.5t-48.5 32.5t-58.5 12q-32 0 -53 21t-21 53q0 29 21 51t53 22q22 0 41.5 8.5t34.5 23.5t23.5 34.5t8.5 41.5q0 23 -9.5 42.5 t-24.5 34t-34.5 23t-39.5 8.5q-22 0 -41.5 -8.5t-34.5 -23.5t-23.5 -34.5t-8.5 -41.5q0 -15 -6 -28.5t-16.5 -23.5t-23.5 -16t-28 -6q-31 0 -52.5 21.5t-21.5 52.5q0 52 20.5 98.5t55 81.5t81 55.5t99.5 20.5t99.5 -20.5t81 -56t54.5 -82t20 -97.5q0 -99 -67 -172 q27 -28 48.5 -54.5t35.5 -55t21.5 -60t7.5 -67.5q0 -61 -24 -115.5t-65.5 -96t-96 -65.5t-115.5 -24q-62 0 -116.5 24t-95.5 65t-65 95.5t-24 116.5zM312 104q0 34 15 56l932 1398q28 42 84 42q22 0 41 -8.5t33 -22.5t22.5 -33t8.5 -41q0 -30 -16 -57l-926 -1387 q-36 -51 -90 -51q-22 0 -41 8t-33 22.5t-22 33.5t-8 40zM812 302q0 23 14 43l409 592q22 31 61 31q32 0 53 -21t21 -53v-518h63q31 0 52.5 -21t21.5 -53t-21.5 -53t-52.5 -21h-63v-154q0 -32 -21 -53t-53 -21t-53 21t-21 53v154h-336q-32 0 -53 21t-21 53zM1028 376h194v281 z" />
<glyph unicode="&#xbf;" horiz-adv-x="1120" d="M78 4q0 45 29.5 75t74.5 30q22 0 41 -8t33 -22.5t22.5 -33.5t8.5 -41q0 -58 21.5 -108t59 -87t87.5 -58.5t107 -21.5q56 0 106 22t87.5 59.5t59.5 87.5t22 106q0 112 -80 195l-157 146q-143 143 -143 343q0 45 30 74.5t75 29.5t74.5 -29.5t29.5 -74.5q0 -115 80 -195 l157 -145q143 -146 143 -344q0 -98 -38.5 -186t-104.5 -154t-154 -105t-187 -39t-187 38t-154 104t-104.5 154t-38.5 188zM420 977q0 59 41.5 100.5t100.5 41.5t100.5 -41.5t41.5 -100.5t-41.5 -100.5t-100.5 -41.5t-100.5 41.5t-41.5 100.5z" />
<glyph unicode="&#xc0;" horiz-adv-x="1440" d="M77 106q0 24 11 48l534 1374q32 72 101 72q71 0 101 -72l536 -1379q8 -20 8 -43q0 -44 -31 -75t-75 -31t-74 31q-16 16 -24 34l-185 475h-512l-186 -475q-8 -18 -24 -34q-31 -31 -75 -31t-74.5 31t-30.5 75zM444 1974q0 44 29.5 74.5t74.5 30.5q42 0 74 -31l200 -199 q26 -28 26 -71q0 -45 -29.5 -74.5t-74.5 -29.5q-44 0 -72 28l-200 199q-28 28 -28 73zM549 752h348l-174 449z" />
<glyph unicode="&#xc1;" horiz-adv-x="1440" d="M77 106q0 24 11 48l534 1374q32 72 101 72q71 0 101 -72l536 -1379q8 -20 8 -43q0 -44 -31 -75t-75 -31t-74 31q-16 16 -24 34l-185 475h-512l-186 -475q-8 -18 -24 -34q-31 -31 -75 -31t-74.5 31t-30.5 75zM549 752h348l-174 449zM611 1778q0 43 26 71l200 199 q32 31 74 31q45 0 74.5 -30.5t29.5 -74.5q0 -45 -28 -73l-200 -199q-28 -28 -72 -28q-45 0 -74.5 29.5t-29.5 74.5z" />
<glyph unicode="&#xc2;" horiz-adv-x="1440" d="M77 106q0 24 11 48l534 1374q32 72 101 72q71 0 101 -72l536 -1379q8 -20 8 -43q0 -44 -31 -75t-75 -31t-74 31q-16 16 -24 34l-185 475h-512l-186 -475q-8 -18 -24 -34q-31 -31 -75 -31t-74.5 31t-30.5 75zM384 1823q0 53 49 90l229 151q25 16 54 16t54 -16l228 -151 q50 -38 50 -90q0 -45 -29.5 -74.5t-74.5 -29.5q-35 0 -66 22l-162 107l-162 -107q-30 -22 -66 -22q-45 0 -74.5 29.5t-29.5 74.5zM549 752h348l-174 449z" />
<glyph unicode="&#xc3;" horiz-adv-x="1440" d="M77 106q0 24 11 48l534 1374q32 72 101 72q71 0 101 -72l536 -1379q8 -20 8 -43q0 -44 -31 -75t-75 -31t-74 31q-16 16 -24 34l-185 475h-512l-186 -475q-8 -18 -24 -34q-31 -31 -75 -31t-74.5 31t-30.5 75zM304 1882q1 47 31 75.5t73 28.5q36 0 81 -33t84 -33 q43 0 73 27q87 82 219 82q37 0 83.5 -11.5t86.5 -33.5t67.5 -54t27.5 -72q0 -45 -30.5 -74.5t-74.5 -29.5q-32 0 -79.5 33t-83.5 33q-41 0 -74 -27q-90 -82 -219 -82q-38 0 -84 11t-86.5 33t-67.5 53.5t-27 73.5zM549 752h348l-174 449z" />
<glyph unicode="&#xc4;" horiz-adv-x="1440" d="M77 106q0 24 11 48l534 1374q32 72 101 72q71 0 101 -72l536 -1379q8 -20 8 -43q0 -44 -31 -75t-75 -31t-74 31q-16 16 -24 34l-185 475h-512l-186 -475q-8 -18 -24 -34q-31 -31 -75 -31t-74.5 31t-30.5 75zM373 1839q0 51 36 87t87 36t87 -36t36 -87t-36 -87t-87 -36 t-87 36t-36 87zM549 752h348l-174 449zM828 1839q0 51 36 87t87 36t87 -36t36 -87t-36 -87t-87 -36t-87 36t-36 87z" />
<glyph unicode="&#xc5;" horiz-adv-x="1440" d="M77 106q0 24 11 48l534 1374q32 72 101 72q71 0 101 -72l536 -1379q8 -20 8 -43q0 -44 -31 -75t-75 -31t-74 31q-16 16 -24 34l-185 475h-512l-186 -475q-8 -18 -24 -34q-31 -31 -75 -31t-74.5 31t-30.5 75zM499 1859q0 45 17.5 85t47.5 70t70 47.5t85 17.5t85 -18 t70 -48t47 -70t17 -84q0 -45 -17.5 -85t-47.5 -70t-69.5 -47.5t-84.5 -17.5t-85 17t-70 47t-47.5 70t-17.5 86zM549 752h348l-174 449zM651 1859q0 -28 20 -47.5t48 -19.5q27 0 46.5 19.5t19.5 47.5q0 27 -19.5 47t-46.5 20q-28 0 -48 -20t-20 -47z" />
<glyph unicode="&#xc6;" horiz-adv-x="1760" d="M80 106q0 29 15 53l772 1391q27 50 90 50h617q22 0 41.5 -8t34 -22.5t22.5 -34t8 -41.5q0 -23 -8 -42t-22.5 -33.5t-34 -22.5t-41.5 -8h-511v-559h357q22 0 41.5 -8t34 -22.5t22.5 -34t8 -41.5q0 -23 -8 -42t-22.5 -33.5t-34 -22.5t-41.5 -8h-357v-405h511q22 0 41.5 -8 t34 -22.5t22.5 -34t8 -41.5q0 -23 -8 -42t-22.5 -33.5t-34 -22.5t-41.5 -8h-617q-23 0 -42 8t-33.5 22.5t-22.5 33.5t-8 42v511h-259l-317 -570q-32 -47 -89 -47q-23 0 -42 8t-33.5 22.5t-22.5 33.5t-8 42zM710 829h141v255z" />
<glyph unicode="&#xc7;" horiz-adv-x="1480" d="M78 800q0 331 234 565q235 235 566 235q284 0 513 -187q28 -27 28 -73q0 -23 -8 -42t-22.5 -33.5t-34 -22.5t-41.5 -8q-39 0 -73 30q-76 60 -167.5 92t-194.5 32q-244 0 -417 -173q-171 -171 -171 -415q0 -245 171 -416q172 -172 417 -172q209 0 368 129q26 18 62 19 q22 0 41 -8.5t33.5 -22.5t23 -33.5t8.5 -41.5q0 -42 -33 -76q-223 -178 -503 -178q-332 0 -566 234t-234 566zM498 -308q0 44 29.5 74.5t74.5 30.5q29 1 56 -16l72 -45q12 -6 24 -6q47 0 47 22t-45 25q-45 0 -81.5 33.5t-23.5 85.5l40 139q6 23 28 47q31 28 73 28 q45 0 74.5 -30.5t29.5 -74.5q0 -11 -3 -23l-9 -35q126 -74 126 -198q0 -97 -77 -163q-73 -65 -179 -65q-64 0 -123 31l-87 53q-46 37 -46 87z" />
<glyph unicode="&#xc8;" d="M77 106v1388q0 22 8 41.5t22.5 34t33.5 22.5t42 8h925q44 0 75 -31t31 -75t-31 -75t-75 -31h-819v-482h588q44 0 75 -31t31 -75t-31 -75t-75 -31h-588v-482h819q44 0 75 -31t31 -75t-31 -75t-75 -31h-925q-23 0 -42 8t-33.5 22.5t-22.5 33.5t-8 42zM366 1974 q0 44 29.5 74.5t74.5 30.5q42 0 74 -31l200 -199q26 -28 26 -71q0 -45 -29.5 -74.5t-74.5 -29.5q-44 0 -72 28l-200 199q-28 28 -28 73z" />
<glyph unicode="&#xc9;" d="M77 106v1388q0 22 8 41.5t22.5 34t33.5 22.5t42 8h925q44 0 75 -31t31 -75t-31 -75t-75 -31h-819v-482h588q44 0 75 -31t31 -75t-31 -75t-75 -31h-588v-482h819q44 0 75 -31t31 -75t-31 -75t-75 -31h-925q-23 0 -42 8t-33.5 22.5t-22.5 33.5t-8 42zM533 1778q0 43 26 71 l200 199q32 31 74 31q45 0 74.5 -30.5t29.5 -74.5q0 -45 -28 -73l-200 -199q-28 -28 -72 -28q-45 0 -74.5 29.5t-29.5 74.5z" />
<glyph unicode="&#xca;" d="M77 106v1388q0 22 8 41.5t22.5 34t33.5 22.5t42 8h925q44 0 75 -31t31 -75t-31 -75t-75 -31h-819v-482h588q44 0 75 -31t31 -75t-31 -75t-75 -31h-588v-482h819q44 0 75 -31t31 -75t-31 -75t-75 -31h-925q-23 0 -42 8t-33.5 22.5t-22.5 33.5t-8 42zM304 1823q0 53 49 90 l229 151q25 16 54 16t54 -16l228 -151q50 -38 50 -90q0 -45 -29.5 -74.5t-74.5 -29.5q-35 0 -66 22l-162 107l-162 -107q-30 -22 -66 -22q-45 0 -74.5 29.5t-29.5 74.5z" />
<glyph unicode="&#xcb;" d="M77 106v1388q0 22 8 41.5t22.5 34t33.5 22.5t42 8h925q44 0 75 -31t31 -75t-31 -75t-75 -31h-819v-482h588q44 0 75 -31t31 -75t-31 -75t-75 -31h-588v-482h819q44 0 75 -31t31 -75t-31 -75t-75 -31h-925q-23 0 -42 8t-33.5 22.5t-22.5 33.5t-8 42zM295 1839q0 51 36 87 t87 36t87 -36t36 -87t-36 -87t-87 -36t-87 36t-36 87zM750 1839q0 51 36 87t87 36t87 -36t36 -87t-36 -87t-87 -36t-87 36t-36 87z" />
<glyph unicode="&#xcc;" horiz-adv-x="480" d="M-3 1974q0 44 29.5 74.5t74.5 30.5q42 0 74 -31l200 -199q26 -28 26 -71q0 -45 -29.5 -74.5t-74.5 -29.5q-44 0 -72 28l-200 199q-28 28 -28 73zM137 106v1388q0 44 31 75t75 31t75 -31t31 -75v-1388q0 -44 -31 -75t-75 -31t-75 31t-31 75z" />
<glyph unicode="&#xcd;" horiz-adv-x="480" d="M72 1778q0 43 26 71l200 199q32 31 74 31q45 0 74.5 -30.5t29.5 -74.5q0 -45 -28 -73l-200 -199q-28 -28 -72 -28q-45 0 -74.5 29.5t-29.5 74.5zM137 106v1388q0 44 31 75t75 31t75 -31t31 -75v-1388q0 -44 -31 -75t-75 -31t-75 31t-31 75z" />
<glyph unicode="&#xce;" horiz-adv-x="480" d="M-83 1823q0 53 49 90l229 151q25 16 54 16t54 -16l228 -151q50 -38 50 -90q0 -45 -29.5 -74.5t-74.5 -29.5q-35 0 -66 22l-162 107l-162 -107q-30 -22 -66 -22q-45 0 -74.5 29.5t-29.5 74.5zM137 106v1388q0 44 31 75t75 31t75 -31t31 -75v-1388q0 -44 -31 -75t-75 -31 t-75 31t-31 75z" />
<glyph unicode="&#xcf;" horiz-adv-x="480" d="M-104 1839q0 51 36 87t87 36t87 -36t36 -87t-36 -87t-87 -36t-87 36t-36 87zM137 106v1388q0 44 31 75t75 31t75 -31t31 -75v-1388q0 -44 -31 -75t-75 -31t-75 31t-31 75zM351 1839q0 51 36 87t87 36t87 -36t36 -87t-36 -87t-87 -36t-87 36t-36 87z" />
<glyph unicode="&#xd0;" horiz-adv-x="1520" d="M0 800q0 22 8 41.5t22.5 34t33.5 22.5t42 8h124v588q0 22 8.5 41.5t23 33.5t33.5 22.5t41 8.5h309q330 0 565 -235q118 -118 176.5 -257.5t58.5 -307.5q0 -331 -235 -566q-234 -234 -565 -234h-309q-22 0 -41 8.5t-33.5 22.5t-23 33.5t-8.5 41.5v588h-124q-23 0 -42 8 t-33.5 22.5t-22.5 33.5t-8 42zM442 212h203q243 0 415 172q87 87 130 189.5t43 226.5q0 242 -173 415t-415 173h-203v-482h280q45 0 75.5 -30.5t30.5 -75.5q0 -23 -8 -42t-22.5 -33.5t-34 -22.5t-41.5 -8h-280v-482z" />
<glyph unicode="&#xd1;" horiz-adv-x="1440" d="M77 106v1388q0 22 8 41.5t22.5 34t33.5 22.5t42 8q47 0 82 -39l892 -1147v1080q0 44 31 75t75 31t75 -31t31 -75v-1388q0 -23 -8 -42t-22.5 -33.5t-34 -22.5t-41.5 -8q-47 0 -81 37l-893 1147v-1078q0 -44 -31 -75t-75 -31t-75 31t-31 75zM304 1882q1 47 31 75.5t73 28.5 q36 0 81 -33t84 -33q43 0 73 27q87 82 219 82q37 0 83.5 -11.5t86.5 -33.5t67.5 -54t27.5 -72q0 -45 -30.5 -74.5t-74.5 -29.5q-32 0 -79.5 33t-83.5 33q-41 0 -74 -27q-90 -82 -219 -82q-38 0 -84 11t-86.5 33t-67.5 53.5t-27 73.5z" />
<glyph unicode="&#xd2;" horiz-adv-x="1760" d="M80 800q0 331 234 565q235 235 566 235q330 0 565 -235q118 -118 176.5 -258t58.5 -307q0 -331 -235 -566q-234 -234 -565 -234q-332 0 -566 234t-234 566zM292 800q0 -244 172 -416t416 -172t416 172t172 416q0 243 -172 415q-173 173 -416 173q-124 0 -226.5 -43 t-189.5 -130t-129.5 -189t-42.5 -226zM684 1974q0 44 29.5 74.5t74.5 30.5q42 0 74 -31l200 -199q26 -28 26 -71q0 -45 -29.5 -74.5t-74.5 -29.5q-44 0 -72 28l-200 199q-28 28 -28 73z" />
<glyph unicode="&#xd3;" horiz-adv-x="1760" d="M80 800q0 331 234 565q235 235 566 235q330 0 565 -235q118 -118 176.5 -258t58.5 -307q0 -331 -235 -566q-234 -234 -565 -234q-332 0 -566 234t-234 566zM292 800q0 -244 172 -416t416 -172t416 172t172 416q0 243 -172 415q-173 173 -416 173q-124 0 -226.5 -43 t-189.5 -130t-129.5 -189t-42.5 -226zM701 1778q0 43 26 71l200 199q32 31 74 31q45 0 74.5 -30.5t29.5 -74.5q0 -45 -28 -73l-200 -199q-28 -28 -72 -28q-45 0 -74.5 29.5t-29.5 74.5z" />
<glyph unicode="&#xd4;" horiz-adv-x="1760" d="M80 800q0 331 234 565q235 235 566 235q330 0 565 -235q118 -118 176.5 -258t58.5 -307q0 -331 -235 -566q-234 -234 -565 -234q-332 0 -566 234t-234 566zM292 800q0 -244 172 -416t416 -172t416 172t172 416q0 243 -172 415q-173 173 -416 173q-124 0 -226.5 -43 t-189.5 -130t-129.5 -189t-42.5 -226zM544 1823q0 53 49 90l229 151q25 16 54 16t54 -16l228 -151q50 -38 50 -90q0 -45 -29.5 -74.5t-74.5 -29.5q-35 0 -66 22l-162 107l-162 -107q-30 -22 -66 -22q-45 0 -74.5 29.5t-29.5 74.5z" />
<glyph unicode="&#xd5;" horiz-adv-x="1760" d="M80 800q0 331 234 565q235 235 566 235q330 0 565 -235q118 -118 176.5 -258t58.5 -307q0 -331 -235 -566q-234 -234 -565 -234q-332 0 -566 234t-234 566zM292 800q0 -244 172 -416t416 -172t416 172t172 416q0 243 -172 415q-173 173 -416 173q-124 0 -226.5 -43 t-189.5 -130t-129.5 -189t-42.5 -226zM464 1882q1 47 31 75.5t73 28.5q36 0 81 -33t84 -33q43 0 73 27q87 82 219 82q37 0 83.5 -11.5t86.5 -33.5t67.5 -54t27.5 -72q0 -45 -30.5 -74.5t-74.5 -29.5q-32 0 -79.5 33t-83.5 33q-41 0 -74 -27q-90 -82 -219 -82q-38 0 -84 11 t-86.5 33t-67.5 53.5t-27 73.5z" />
<glyph unicode="&#xd6;" horiz-adv-x="1760" d="M80 800q0 331 234 565q235 235 566 235q330 0 565 -235q118 -118 176.5 -258t58.5 -307q0 -331 -235 -566q-234 -234 -565 -234q-332 0 -566 234t-234 566zM292 800q0 -244 172 -416t416 -172t416 172t172 416q0 243 -172 415q-173 173 -416 173q-124 0 -226.5 -43 t-189.5 -130t-129.5 -189t-42.5 -226zM533 1839q0 51 36 87t87 36t87 -36t36 -87t-36 -87t-87 -36t-87 36t-36 87zM988 1839q0 51 36 87t87 36t87 -36t36 -87t-36 -87t-87 -36t-87 36t-36 87z" />
<glyph unicode="&#xd7;" horiz-adv-x="960" d="M76 408q0 46 28 73l232 231l-232 231q-28 31 -28 73q0 21 8 40t22 33.5t33 22.5t41 8q44 0 75 -31l229 -229l229 229q31 31 75 31q21 0 40 -8t33.5 -22.5t22.5 -33.5t8 -40q0 -41 -29 -73l-231 -231l231 -231q29 -31 29 -73q0 -22 -8 -41t-22.5 -33t-33.5 -22t-40 -8 q-45 0 -73 27l-231 233l-233 -233q-28 -27 -71 -27q-45 0 -74.5 29.5t-29.5 74.5z" />
<glyph unicode="&#xd8;" horiz-adv-x="1760" d="M80 106q0 44 28 72l136 136q-84 106 -124 226t-40 260q0 331 234 565q235 235 566 235q140 0 260 -40t226 -124l133 133q31 31 75 31q22 0 41.5 -8t34 -22.5t22.5 -34t8 -41.5q0 -39 -24 -67l-140 -141q84 -106 124 -226t40 -260q0 -331 -235 -566q-234 -234 -565 -234 q-140 0 -260 40t-226 124l-133 -134q-32 -30 -75 -30q-23 0 -42 8t-33.5 22.5t-22.5 33.5t-8 42zM292 800q0 -189 103 -334l820 819q-146 103 -335 103q-124 0 -226.5 -43t-189.5 -130t-129.5 -189t-42.5 -226zM546 315q145 -103 334 -103q244 0 416 172t172 416 q0 185 -104 334z" />
<glyph unicode="&#xd9;" d="M76 569v925q0 44 31 75t75 31t75 -31t31 -75v-925q0 -73 28 -138t76 -113.5t113 -77t139 -28.5t139 28t113.5 77t76.5 113.5t28 138.5v925q0 44 31 75t75 31t75 -31t31 -75v-925q0 -78 -20.5 -150t-57.5 -135.5t-89 -115.5t-115.5 -89.5t-136 -58t-150.5 -20.5 q-236 0 -401 167q-167 167 -167 402zM364 1974q0 44 29.5 74.5t74.5 30.5q42 0 74 -31l200 -199q26 -28 26 -71q0 -45 -29.5 -74.5t-74.5 -29.5q-44 0 -72 28l-200 199q-28 28 -28 73z" />
<glyph unicode="&#xda;" d="M76 569v925q0 44 31 75t75 31t75 -31t31 -75v-925q0 -73 28 -138t76 -113.5t113 -77t139 -28.5t139 28t113.5 77t76.5 113.5t28 138.5v925q0 44 31 75t75 31t75 -31t31 -75v-925q0 -78 -20.5 -150t-57.5 -135.5t-89 -115.5t-115.5 -89.5t-136 -58t-150.5 -20.5 q-236 0 -401 167q-167 167 -167 402zM531 1778q0 43 26 71l200 199q32 31 74 31q45 0 74.5 -30.5t29.5 -74.5q0 -45 -28 -73l-200 -199q-28 -28 -72 -28q-45 0 -74.5 29.5t-29.5 74.5z" />
<glyph unicode="&#xdb;" d="M76 569v925q0 44 31 75t75 31t75 -31t31 -75v-925q0 -73 28 -138t76 -113.5t113 -77t139 -28.5t139 28t113.5 77t76.5 113.5t28 138.5v925q0 44 31 75t75 31t75 -31t31 -75v-925q0 -78 -20.5 -150t-57.5 -135.5t-89 -115.5t-115.5 -89.5t-136 -58t-150.5 -20.5 q-236 0 -401 167q-167 167 -167 402zM304 1823q0 53 49 90l229 151q25 16 54 16t54 -16l228 -151q50 -38 50 -90q0 -45 -29.5 -74.5t-74.5 -29.5q-35 0 -66 22l-162 107l-162 -107q-30 -22 -66 -22q-45 0 -74.5 29.5t-29.5 74.5z" />
<glyph unicode="&#xdc;" d="M76 569v925q0 44 31 75t75 31t75 -31t31 -75v-925q0 -73 28 -138t76 -113.5t113 -77t139 -28.5t139 28t113.5 77t76.5 113.5t28 138.5v925q0 44 31 75t75 31t75 -31t31 -75v-925q0 -78 -20.5 -150t-57.5 -135.5t-89 -115.5t-115.5 -89.5t-136 -58t-150.5 -20.5 q-236 0 -401 167q-167 167 -167 402zM293 1839q0 51 36 87t87 36t87 -36t36 -87t-36 -87t-87 -36t-87 36t-36 87zM748 1839q0 51 36 87t87 36t87 -36t36 -87t-36 -87t-87 -36t-87 36t-36 87z" />
<glyph unicode="&#xdd;" d="M76 1494q0 44 31 75t75 31q56 0 86 -44l376 -563l376 563q31 44 87 44q44 0 74.5 -31t30.5 -75q0 -36 -16 -60l-446 -666v-662q0 -44 -31 -75t-75 -31q-43 0 -74.5 31t-31.5 75v662l-445 666q-17 26 -17 60zM531 1778q0 43 26 71l200 199q32 31 74 31q45 0 74.5 -30.5 t29.5 -74.5q0 -45 -28 -73l-200 -199q-28 -28 -72 -28q-45 0 -74.5 29.5t-29.5 74.5z" />
<glyph unicode="&#xde;" d="M76 106v1388q0 22 8 41.5t22.5 34t33.5 22.5t42 8q22 0 41.5 -8t34 -22.5t22.5 -34t8 -41.5v-202h434q100 0 189.5 -39t156.5 -106t106 -156.5t39 -190.5q0 -102 -39.5 -191.5t-106.5 -156.5t-156 -105.5t-189 -38.5h-434v-202q0 -23 -8 -42t-22.5 -33.5t-34 -22.5 t-41.5 -8q-23 0 -42 8t-33.5 22.5t-22.5 33.5t-8 42zM288 520h434q58 0 109 22t88.5 60t59.5 89t22 109t-22 109t-60 89t-89 60t-108 22h-434v-560z" />
<glyph unicode="&#xdf;" horiz-adv-x="1120" d="M78 105v1078q0 84 32.5 160t88.5 132.5t132 89.5t161 33t160 -33t131 -89.5t89 -132t33 -160.5q0 -152 -95 -263q-17 -26 -17 -57q0 -57 39 -78q54 -29 96.5 -69t71.5 -88t44.5 -102.5t15.5 -111.5q0 -85 -33 -160.5t-89.5 -131.5t-131.5 -89t-160 -33q-172 0 -293 122 q-34 33 -34 77q0 21 8.5 40.5t22.5 34t33 22.5t42 8q42 0 78 -32q60 -60 143 -60q40 0 77 16t64.5 43.5t44 64t16.5 78.5q0 85 -59 144v-1q-29 25 -66 50t-55 44q-90 88 -90 213q0 113 77 201q38 47 38 118q0 42 -16 79t-44 64.5t-64.5 43.5t-76.5 16q-42 0 -79 -15.5 t-64.5 -43t-43 -64.5t-15.5 -80v-1078q0 -21 -8.5 -40t-23 -34t-33.5 -23t-42 -8q-22 0 -41 8t-33.5 23t-22.5 34t-8 40z" />
<glyph unicode="&#xe0;" d="M80 560q0 232 164 396t396 164q230 0 396 -164q164 -164 164 -396v-456q0 -43 -30.5 -73.5t-73.5 -30.5q-44 0 -74.5 30.5t-30.5 73.5v20q-75 -60 -163 -92t-188 -32q-232 0 -396 164t-164 396zM289 560q0 -72 27.5 -136t74.5 -111.5t111 -75.5t138 -28q73 0 137 28 t111.5 76t75 111.5t27.5 135.5t-27.5 135.5t-75 111.5t-111.5 76t-137 28q-74 0 -138 -28t-111 -75.5t-74.5 -111.5t-27.5 -136zM402 1494q0 44 29.5 74.5t74.5 30.5q42 0 74 -31l200 -199q26 -28 26 -71q0 -45 -29.5 -74.5t-74.5 -29.5q-44 0 -72 28l-200 199 q-28 28 -28 73z" />
<glyph unicode="&#xe1;" d="M80 560q0 232 164 396t396 164q230 0 396 -164q164 -164 164 -396v-456q0 -43 -30.5 -73.5t-73.5 -30.5q-44 0 -74.5 30.5t-30.5 73.5v20q-75 -60 -163 -92t-188 -32q-232 0 -396 164t-164 396zM289 560q0 -72 27.5 -136t74.5 -111.5t111 -75.5t138 -28q73 0 137 28 t111.5 76t75 111.5t27.5 135.5t-27.5 135.5t-75 111.5t-111.5 76t-137 28q-74 0 -138 -28t-111 -75.5t-74.5 -111.5t-27.5 -136zM480 1298q0 43 26 71l200 199q32 31 74 31q45 0 74.5 -30.5t29.5 -74.5q0 -45 -28 -73l-200 -199q-28 -28 -72 -28q-45 0 -74.5 29.5 t-29.5 74.5z" />
<glyph unicode="&#xe2;" d="M80 560q0 232 164 396t396 164q230 0 396 -164q164 -164 164 -396v-456q0 -43 -30.5 -73.5t-73.5 -30.5q-44 0 -74.5 30.5t-30.5 73.5v20q-75 -60 -163 -92t-188 -32q-232 0 -396 164t-164 396zM289 560q0 -72 27.5 -136t74.5 -111.5t111 -75.5t138 -28q73 0 137 28 t111.5 76t75 111.5t27.5 135.5t-27.5 135.5t-75 111.5t-111.5 76t-137 28q-74 0 -138 -28t-111 -75.5t-74.5 -111.5t-27.5 -136zM304 1343q0 53 49 90l229 151q25 16 54 16t54 -16l228 -151q50 -38 50 -90q0 -45 -29.5 -74.5t-74.5 -29.5q-35 0 -66 22l-162 107l-162 -107 q-30 -22 -66 -22q-45 0 -74.5 29.5t-29.5 74.5z" />
<glyph unicode="&#xe3;" d="M80 560q0 232 164 396t396 164q230 0 396 -164q164 -164 164 -396v-456q0 -43 -30.5 -73.5t-73.5 -30.5q-44 0 -74.5 30.5t-30.5 73.5v20q-75 -60 -163 -92t-188 -32q-232 0 -396 164t-164 396zM231 1402q1 47 31 75.5t73 28.5q36 0 81 -33t84 -33q43 0 73 27 q87 82 219 82q37 0 83.5 -11.5t86.5 -33.5t67.5 -54t27.5 -72q0 -45 -30.5 -74.5t-74.5 -29.5q-32 0 -79.5 33t-83.5 33q-41 0 -74 -27q-90 -82 -219 -82q-38 0 -84 11t-86.5 33t-67.5 53.5t-27 73.5zM289 560q0 -72 27.5 -136t74.5 -111.5t111 -75.5t138 -28q73 0 137 28 t111.5 76t75 111.5t27.5 135.5t-27.5 135.5t-75 111.5t-111.5 76t-137 28q-74 0 -138 -28t-111 -75.5t-74.5 -111.5t-27.5 -136z" />
<glyph unicode="&#xe4;" d="M80 560q0 232 164 396t396 164q230 0 396 -164q164 -164 164 -396v-456q0 -43 -30.5 -73.5t-73.5 -30.5q-44 0 -74.5 30.5t-30.5 73.5v20q-75 -60 -163 -92t-188 -32q-232 0 -396 164t-164 396zM289 560q0 -72 27.5 -136t74.5 -111.5t111 -75.5t138 -28q73 0 137 28 t111.5 76t75 111.5t27.5 135.5t-27.5 135.5t-75 111.5t-111.5 76t-137 28q-74 0 -138 -28t-111 -75.5t-74.5 -111.5t-27.5 -136zM293 1359q0 51 36 87t87 36t87 -36t36 -87t-36 -87t-87 -36t-87 36t-36 87zM748 1359q0 51 36 87t87 36t87 -36t36 -87t-36 -87t-87 -36t-87 36 t-36 87z" />
<glyph unicode="&#xe5;" d="M80 560q0 232 164 396t396 164q230 0 396 -164q164 -164 164 -396v-456q0 -43 -30.5 -73.5t-73.5 -30.5q-44 0 -74.5 30.5t-30.5 73.5v20q-75 -60 -163 -92t-188 -32q-232 0 -396 164t-164 396zM289 560q0 -72 27.5 -136t74.5 -111.5t111 -75.5t138 -28q73 0 137 28 t111.5 76t75 111.5t27.5 135.5t-27.5 135.5t-75 111.5t-111.5 76t-137 28q-74 0 -138 -28t-111 -75.5t-74.5 -111.5t-27.5 -136zM420 1379q0 45 17.5 85t47.5 70t70 47.5t85 17.5t85 -18t70 -48t47 -70t17 -84q0 -45 -17.5 -85t-47.5 -70t-69.5 -47.5t-84.5 -17.5t-85 17 t-70 47t-47.5 70t-17.5 86zM572 1379q0 -28 20 -47.5t48 -19.5q27 0 46.5 19.5t19.5 47.5q0 27 -19.5 47t-46.5 20q-28 0 -48 -20t-20 -47z" />
<glyph unicode="&#xe6;" horiz-adv-x="2240" d="M92 560q0 232 164 396t396 164q141 0 251.5 -58.5t204.5 -174.5q48 58 98.5 101.5t106 73t117.5 44t133 14.5q232 0 396 -164t164 -396q0 -45 -29.5 -74.5t-74.5 -29.5h-793q18 -57 51.5 -102.5t78 -77.5t97.5 -49.5t110 -17.5q66 0 121 20t102 60q32 26 69 26 q44 0 74.5 -29.5t30.5 -74.5t-31 -75q-155 -136 -366 -136q-100 0 -188 32t-163 92v-20q0 -21 -8 -40t-22.5 -33.5t-33.5 -22.5t-40 -8q-22 0 -41 8t-33.5 22.5t-22.5 33.5t-8 40v20q-75 -60 -163 -92t-188 -32q-232 0 -396 164t-164 396zM301 560q0 -73 27.5 -137 t75 -111.5t111.5 -75t137 -27.5t137 27.5t111.5 75t75 111.5t27.5 137t-27.5 137t-75 111.5t-111.5 75t-137 27.5t-137 -27.5t-111.5 -75t-75 -111.5t-27.5 -137zM1226 664h674q-17 55 -50.5 101t-78.5 78t-98 50t-110 18q-56 0 -110 -18t-99 -50.5t-78.5 -78t-49.5 -100.5z " />
<glyph unicode="&#xe7;" horiz-adv-x="1120" d="M78 560q0 232 164 396t396 164q211 0 365 -136q36 -32 36 -79q0 -45 -29.5 -75t-74.5 -30q-38 0 -68 24q-51 43 -107 65t-122 22q-73 0 -137 -27.5t-112 -75t-75.5 -111.5t-27.5 -137t27.5 -137t75.5 -111.5t112 -75t137 -27.5q66 0 122 21.5t106 64.5q28 21 66 22 q45 0 74.5 -29.5t29.5 -74.5q0 -44 -33 -77q-155 -136 -365 -136q-232 0 -396 164t-164 396zM309 -308q0 44 29.5 74.5t74.5 30.5q29 1 56 -16l72 -45q12 -6 24 -6q47 0 47 22t-45 25q-45 0 -81.5 33.5t-23.5 85.5l40 139q6 23 28 47q31 28 73 28q45 0 74.5 -30.5 t29.5 -74.5q0 -11 -3 -23l-9 -35q126 -74 126 -198q0 -97 -77 -163q-73 -65 -179 -65q-64 0 -123 31l-87 53q-46 37 -46 87z" />
<glyph unicode="&#xe8;" d="M80 560q0 232 164 396t396 164q230 0 396 -164q82 -81 123 -180.5t41 -215.5q0 -45 -30.5 -74.5t-74.5 -29.5h-792q17 -55 50 -100.5t77.5 -78t98 -50.5t111.5 -18q66 0 121 20t102 60q30 25 69 26q45 0 74.5 -29.5t29.5 -74.5q0 -44 -30 -75q-155 -136 -366 -136 q-232 0 -396 164t-164 396zM303 664h674q-17 55 -50.5 100.5t-78 78t-98 50.5t-110.5 18t-111 -18t-99 -50.5t-78 -78t-49 -100.5zM401 1494q0 44 29.5 74.5t74.5 30.5q42 0 74 -31l200 -199q26 -28 26 -71q0 -45 -29.5 -74.5t-74.5 -29.5q-44 0 -72 28l-200 199 q-28 28 -28 73z" />
<glyph unicode="&#xe9;" d="M80 560q0 232 164 396t396 164q230 0 396 -164q82 -81 123 -180.5t41 -215.5q0 -45 -30.5 -74.5t-74.5 -29.5h-792q17 -55 50 -100.5t77.5 -78t98 -50.5t111.5 -18q66 0 121 20t102 60q30 25 69 26q45 0 74.5 -29.5t29.5 -74.5q0 -44 -30 -75q-155 -136 -366 -136 q-232 0 -396 164t-164 396zM303 664h674q-17 55 -50.5 100.5t-78 78t-98 50.5t-110.5 18t-111 -18t-99 -50.5t-78 -78t-49 -100.5zM480 1298q0 43 26 71l200 199q32 31 74 31q45 0 74.5 -30.5t29.5 -74.5q0 -45 -28 -73l-200 -199q-28 -28 -72 -28q-45 0 -74.5 29.5 t-29.5 74.5z" />
<glyph unicode="&#xea;" d="M80 560q0 232 164 396t396 164q230 0 396 -164q82 -81 123 -180.5t41 -215.5q0 -45 -30.5 -74.5t-74.5 -29.5h-792q17 -55 50 -100.5t77.5 -78t98 -50.5t111.5 -18q66 0 121 20t102 60q30 25 69 26q45 0 74.5 -29.5t29.5 -74.5q0 -44 -30 -75q-155 -136 -366 -136 q-232 0 -396 164t-164 396zM303 664h674q-17 55 -50.5 100.5t-78 78t-98 50.5t-110.5 18t-111 -18t-99 -50.5t-78 -78t-49 -100.5zM304 1343q0 53 49 90l229 151q25 16 54 16t54 -16l228 -151q50 -38 50 -90q0 -45 -29.5 -74.5t-74.5 -29.5q-35 0 -66 22l-162 107l-162 -107 q-30 -22 -66 -22q-45 0 -74.5 29.5t-29.5 74.5z" />
<glyph unicode="&#xeb;" d="M80 560q0 232 164 396t396 164q230 0 396 -164q82 -81 123 -180.5t41 -215.5q0 -45 -30.5 -74.5t-74.5 -29.5h-792q17 -55 50 -100.5t77.5 -78t98 -50.5t111.5 -18q66 0 121 20t102 60q30 25 69 26q45 0 74.5 -29.5t29.5 -74.5q0 -44 -30 -75q-155 -136 -366 -136 q-232 0 -396 164t-164 396zM293 1359q0 51 36 87t87 36t87 -36t36 -87t-36 -87t-87 -36t-87 36t-36 87zM303 664h674q-17 55 -50.5 100.5t-78 78t-98 50.5t-110.5 18t-111 -18t-99 -50.5t-78 -78t-49 -100.5zM748 1359q0 51 36 87t87 36t87 -36t36 -87t-36 -87t-87 -36 t-87 36t-36 87z" />
<glyph unicode="&#xec;" horiz-adv-x="480" d="M4 1494q0 44 29.5 74.5t74.5 30.5q42 0 74 -31l200 -199q26 -28 26 -71q0 -45 -29.5 -74.5t-74.5 -29.5q-44 0 -72 28l-200 199q-28 28 -28 73zM137 105v910q0 44 30.5 74.5t73.5 30.5t73.5 -30.5t31.5 -74.5v-910q-1 -44 -31.5 -74.5t-73.5 -30.5t-73.5 30.5t-30.5 74.5 z" />
<glyph unicode="&#xed;" horiz-adv-x="480" d="M77 1298q0 43 26 71l200 199q32 31 74 31q45 0 74.5 -30.5t29.5 -74.5q0 -45 -28 -73l-200 -199q-28 -28 -72 -28q-45 0 -74.5 29.5t-29.5 74.5zM137 105v910q0 44 30.5 74.5t73.5 30.5t73.5 -30.5t31.5 -74.5v-910q-1 -44 -31.5 -74.5t-73.5 -30.5t-73.5 30.5 t-30.5 74.5z" />
<glyph unicode="&#xee;" horiz-adv-x="560" d="M-50 1343q0 53 49 90l229 151q25 16 54 16t54 -16l228 -151q50 -38 50 -90q0 -45 -29.5 -74.5t-74.5 -29.5q-35 0 -66 22l-162 107l-162 -107q-30 -22 -66 -22q-45 0 -74.5 29.5t-29.5 74.5zM180 105v910q0 44 30.5 74.5t73.5 30.5t73.5 -30.5t31.5 -74.5v-910 q-1 -44 -31.5 -74.5t-73.5 -30.5t-73.5 30.5t-30.5 74.5z" />
<glyph unicode="&#xef;" horiz-adv-x="600" d="M-43 1359q0 51 36 87t87 36t87 -36t36 -87t-36 -87t-87 -36t-87 36t-36 87zM196 105v910q0 44 30.5 74.5t73.5 30.5t73.5 -30.5t31.5 -74.5v-910q-1 -44 -31.5 -74.5t-73.5 -30.5t-73.5 30.5t-30.5 74.5zM412 1359q0 51 36 87t87 36t87 -36t36 -87t-36 -87t-87 -36 t-87 36t-36 87z" />
<glyph unicode="&#xf0;" d="M70 568q0 235 166 401q167 167 402 167q44 0 86 -6l-65 116l-110 -63q-20 -10 -46 -10q-28 0 -52.5 13t-38.5 37q-14 25 -14 55q0 27 12.5 52t38.5 39l105 60l-16 28q-7 16 -7 38t8.5 41t23 33.5t34 23t41.5 8.5q50 0 75 -33l22 -33l96 57q19 9 45 9q28 0 53 -13.5 t39 -37.5q14 -25 14 -55q0 -27 -13 -52t-39 -39l-87 -51l294 -511q35 -61 52 -130t17 -144q0 -237 -167 -402q-168 -166 -401 -166q-235 0 -402 166q-166 167 -166 402zM282 568q0 -73 28 -138t75.5 -113t112.5 -76.5t140 -28.5q74 0 139 28.5t113 77t76 113t28 137.5 t-28 137.5t-76 113t-113 77t-139 28.5q-75 0 -140 -28.5t-112.5 -76.5t-75.5 -113t-28 -138z" />
<glyph unicode="&#xf1;" horiz-adv-x="1200" d="M79 105v910q0 43 30.5 74t74.5 31q43 0 73.5 -31t30.5 -72q133 103 313 103q105 0 199.5 -41t166.5 -111.5t114 -166t42 -203.5v-493q0 -44 -30.5 -74.5t-73.5 -30.5q-44 0 -74.5 30.5t-30.5 74.5v493q0 64 -25 121t-67.5 99.5t-99.5 67.5t-121 25q-65 0 -121.5 -24.5 t-99.5 -67.5t-67.5 -100t-24.5 -121v-493q0 -44 -30.5 -74.5t-73.5 -30.5q-44 0 -74.5 30.5t-30.5 74.5zM196 1402q1 47 31 75.5t73 28.5q36 0 81 -33t84 -33q43 0 73 27q87 82 219 82q37 0 83.5 -11.5t86.5 -33.5t67.5 -54t27.5 -72q0 -45 -30.5 -74.5t-74.5 -29.5 q-32 0 -79.5 33t-83.5 33q-41 0 -74 -27q-90 -82 -219 -82q-38 0 -84 11t-86.5 33t-67.5 53.5t-27 73.5z" />
<glyph unicode="&#xf2;" d="M80 560q0 232 164 396t396 164q230 0 396 -164q82 -82 122.5 -181t41.5 -215q0 -234 -164 -396q-166 -164 -396 -164q-232 0 -396 164t-164 396zM289 560q0 -72 27.5 -136t74.5 -111.5t111 -75.5t138 -28q73 0 137 28t111.5 76t75 111.5t27.5 135.5t-27.5 135.5 t-75 111.5t-111.5 76t-137 28q-74 0 -138 -28t-111 -75.5t-74.5 -111.5t-27.5 -136zM401 1494q0 44 29.5 74.5t74.5 30.5q42 0 74 -31l200 -199q26 -28 26 -71q0 -45 -29.5 -74.5t-74.5 -29.5q-44 0 -72 28l-200 199q-28 28 -28 73z" />
<glyph unicode="&#xf3;" d="M80 560q0 232 164 396t396 164q230 0 396 -164q82 -82 122.5 -181t41.5 -215q0 -234 -164 -396q-166 -164 -396 -164q-232 0 -396 164t-164 396zM289 560q0 -72 27.5 -136t74.5 -111.5t111 -75.5t138 -28q73 0 137 28t111.5 76t75 111.5t27.5 135.5t-27.5 135.5 t-75 111.5t-111.5 76t-137 28q-74 0 -138 -28t-111 -75.5t-74.5 -111.5t-27.5 -136zM480 1298q0 43 26 71l200 199q32 31 74 31q45 0 74.5 -30.5t29.5 -74.5q0 -45 -28 -73l-200 -199q-28 -28 -72 -28q-45 0 -74.5 29.5t-29.5 74.5z" />
<glyph unicode="&#xf4;" d="M80 560q0 232 164 396t396 164q230 0 396 -164q82 -82 122.5 -181t41.5 -215q0 -234 -164 -396q-166 -164 -396 -164q-232 0 -396 164t-164 396zM289 560q0 -72 27.5 -136t74.5 -111.5t111 -75.5t138 -28q73 0 137 28t111.5 76t75 111.5t27.5 135.5t-27.5 135.5 t-75 111.5t-111.5 76t-137 28q-74 0 -138 -28t-111 -75.5t-74.5 -111.5t-27.5 -136zM304 1343q0 53 49 90l229 151q25 16 54 16t54 -16l228 -151q50 -38 50 -90q0 -45 -29.5 -74.5t-74.5 -29.5q-35 0 -66 22l-162 107l-162 -107q-30 -22 -66 -22q-45 0 -74.5 29.5 t-29.5 74.5z" />
<glyph unicode="&#xf5;" d="M80 560q0 232 164 396t396 164q230 0 396 -164q82 -82 122.5 -181t41.5 -215q0 -234 -164 -396q-166 -164 -396 -164q-232 0 -396 164t-164 396zM231 1402q1 47 31 75.5t73 28.5q36 0 81 -33t84 -33q43 0 73 27q87 82 219 82q37 0 83.5 -11.5t86.5 -33.5t67.5 -54 t27.5 -72q0 -45 -30.5 -74.5t-74.5 -29.5q-32 0 -79.5 33t-83.5 33q-41 0 -74 -27q-90 -82 -219 -82q-38 0 -84 11t-86.5 33t-67.5 53.5t-27 73.5zM289 560q0 -72 27.5 -136t74.5 -111.5t111 -75.5t138 -28q73 0 137 28t111.5 76t75 111.5t27.5 135.5t-27.5 135.5t-75 111.5 t-111.5 76t-137 28q-74 0 -138 -28t-111 -75.5t-74.5 -111.5t-27.5 -136z" />
<glyph unicode="&#xf6;" d="M80 560q0 232 164 396t396 164q230 0 396 -164q82 -82 122.5 -181t41.5 -215q0 -234 -164 -396q-166 -164 -396 -164q-232 0 -396 164t-164 396zM289 560q0 -72 27.5 -136t74.5 -111.5t111 -75.5t138 -28q73 0 137 28t111.5 76t75 111.5t27.5 135.5t-27.5 135.5 t-75 111.5t-111.5 76t-137 28q-74 0 -138 -28t-111 -75.5t-74.5 -111.5t-27.5 -136zM293 1359q0 51 36 87t87 36t87 -36t36 -87t-36 -87t-87 -36t-87 36t-36 87zM748 1359q0 51 36 87t87 36t87 -36t36 -87t-36 -87t-87 -36t-87 36t-36 87z" />
<glyph unicode="&#xf7;" horiz-adv-x="960" d="M76 712q0 45 29.5 74.5t74.5 29.5h608q45 0 74.5 -29.5t29.5 -74.5t-29.5 -75t-74.5 -30h-608q-45 0 -74.5 30t-29.5 75zM360 428q0 51 36 87t88 36q51 0 87 -36t36 -87q0 -52 -36 -88t-87 -36q-52 0 -88 36t-36 88zM360 997q0 51 36 87t88 36q51 0 87 -36t36 -87 q0 -52 -36 -88t-87 -36q-52 0 -88 36t-36 88z" />
<glyph unicode="&#xf8;" d="M80 104q0 21 6.5 39.5t21.5 33.5l69 68q-97 136 -97 315q0 232 164 396t396 164q180 0 316 -97l63 64q31 33 76 33q22 0 41 -8t33 -22.5t22.5 -33.5t8.5 -40q0 -42 -30 -73l-67 -68q97 -137 97 -315q0 -234 -164 -396q-166 -164 -396 -164q-179 0 -315 97l-70 -73 q-27 -24 -71 -24q-22 0 -41 8t-33 22.5t-22 33.5t-8 40zM289 560q0 -91 38 -164l477 475q-37 21 -78 30.5t-86 9.5q-74 0 -138 -28t-111 -75.5t-74.5 -111.5t-27.5 -136zM476 248q37 -20 77.5 -29.5t86.5 -9.5q73 0 137 28t111.5 76t75 111.5t27.5 135.5q0 46 -9.5 86.5 t-29.5 77.5z" />
<glyph unicode="&#xf9;" horiz-adv-x="1200" d="M79 522v494q0 43 30.5 73.5t74.5 30.5q43 0 73.5 -30.5t30.5 -73.5v-494q0 -65 24.5 -122t67 -99.5t99.5 -67t122 -24.5q64 0 121 24.5t100 67.5t67.5 99.5t24.5 121.5v494q0 43 30.5 73.5t74.5 30.5q43 0 73.5 -30.5t30.5 -73.5v-912q0 -43 -30.5 -73.5t-74.5 -30.5 q-45 0 -74 30t-30 73q-69 -54 -146 -78.5t-167 -24.5q-107 0 -202 41.5t-166 112.5t-112.5 166t-41.5 202zM391 1494q0 44 29.5 74.5t74.5 30.5q42 0 74 -31l200 -199q26 -28 26 -71q0 -45 -29.5 -74.5t-74.5 -29.5q-44 0 -72 28l-200 199q-28 28 -28 73z" />
<glyph unicode="&#xfa;" horiz-adv-x="1200" d="M79 522v494q0 43 30.5 73.5t74.5 30.5q43 0 73.5 -30.5t30.5 -73.5v-494q0 -65 24.5 -122t67 -99.5t99.5 -67t122 -24.5q64 0 121 24.5t100 67.5t67.5 99.5t24.5 121.5v494q0 43 30.5 73.5t74.5 30.5q43 0 73.5 -30.5t30.5 -73.5v-912q0 -43 -30.5 -73.5t-74.5 -30.5 q-45 0 -74 30t-30 73q-69 -54 -146 -78.5t-167 -24.5q-107 0 -202 41.5t-166 112.5t-112.5 166t-41.5 202zM424 1298q0 43 26 71l200 199q32 31 74 31q45 0 74.5 -30.5t29.5 -74.5q0 -45 -28 -73l-200 -199q-28 -28 -72 -28q-45 0 -74.5 29.5t-29.5 74.5z" />
<glyph unicode="&#xfb;" horiz-adv-x="1200" d="M79 522v494q0 43 30.5 73.5t74.5 30.5q43 0 73.5 -30.5t30.5 -73.5v-494q0 -65 24.5 -122t67 -99.5t99.5 -67t122 -24.5q64 0 121 24.5t100 67.5t67.5 99.5t24.5 121.5v494q0 43 30.5 73.5t74.5 30.5q43 0 73.5 -30.5t30.5 -73.5v-912q0 -43 -30.5 -73.5t-74.5 -30.5 q-45 0 -74 30t-30 73q-69 -54 -146 -78.5t-167 -24.5q-107 0 -202 41.5t-166 112.5t-112.5 166t-41.5 202zM264 1343q0 53 49 90l229 151q25 16 54 16t54 -16l228 -151q50 -38 50 -90q0 -45 -29.5 -74.5t-74.5 -29.5q-35 0 -66 22l-162 107l-162 -107q-30 -22 -66 -22 q-45 0 -74.5 29.5t-29.5 74.5z" />
<glyph unicode="&#xfc;" horiz-adv-x="1200" d="M79 522v494q0 43 30.5 73.5t74.5 30.5q43 0 73.5 -30.5t30.5 -73.5v-494q0 -65 24.5 -122t67 -99.5t99.5 -67t122 -24.5q64 0 121 24.5t100 67.5t67.5 99.5t24.5 121.5v494q0 43 30.5 73.5t74.5 30.5q43 0 73.5 -30.5t30.5 -73.5v-912q0 -43 -30.5 -73.5t-74.5 -30.5 q-45 0 -74 30t-30 73q-69 -54 -146 -78.5t-167 -24.5q-107 0 -202 41.5t-166 112.5t-112.5 166t-41.5 202zM253 1359q0 51 36 87t87 36t87 -36t36 -87t-36 -87t-87 -36t-87 36t-36 87zM708 1359q0 51 36 87t87 36t87 -36t36 -87t-36 -87t-87 -36t-87 36t-36 87z" />
<glyph unicode="&#xfd;" horiz-adv-x="1120" d="M78 1016q0 21 8 40t22 33.5t33 22.5t41 8q31 0 58 -17.5t41 -51.5l281 -671l281 673q12 30 34.5 48.5t63.5 18.5q22 0 41 -8t33 -22.5t22.5 -33.5t8.5 -40q0 -22 -11 -47l-575 -1379q-13 -31 -40 -50.5t-59 -19.5q-45 0 -74.5 30t-29.5 75q0 24 10 46l181 433l-360 865 q-10 23 -10 47zM451 1298q0 43 26 71l200 199q32 31 74 31q45 0 74.5 -30.5t29.5 -74.5q0 -45 -28 -73l-200 -199q-28 -28 -72 -28q-45 0 -74.5 29.5t-29.5 74.5z" />
<glyph unicode="&#xfe;" d="M80 -374v1870q0 45 29.5 74.5t74.5 29.5q44 0 74.5 -29.5t30.5 -74.5v-498q75 60 163 92t188 32q230 0 396 -164q82 -81 123 -180.5t41 -215.5q0 -234 -164 -396q-166 -164 -396 -164q-100 0 -188 32t-163 92v-500q0 -22 -8.5 -41t-22.5 -33.5t-33 -22.5t-41 -8 q-45 0 -74.5 30t-29.5 75zM289 562q0 -72 27.5 -136t74.5 -111.5t111 -75.5t138 -28q73 0 137 28t111.5 76t75 111.5t27.5 135.5t-27.5 135.5t-75 111.5t-111.5 76t-137 28q-74 0 -138 -28t-111 -75.5t-74.5 -111.5t-27.5 -136z" />
<glyph unicode="&#xff;" horiz-adv-x="1120" d="M78 1016q0 21 8 40t22 33.5t33 22.5t41 8q31 0 58 -17.5t41 -51.5l281 -671l281 673q12 30 34.5 48.5t63.5 18.5q22 0 41 -8t33 -22.5t22.5 -33.5t8.5 -40q0 -22 -11 -47l-575 -1379q-13 -31 -40 -50.5t-59 -19.5q-45 0 -74.5 30t-29.5 75q0 24 10 46l181 433l-360 865 q-10 23 -10 47zM213 1359q0 51 36 87t87 36t87 -36t36 -87t-36 -87t-87 -36t-87 36t-36 87zM668 1359q0 51 36 87t87 36t87 -36t36 -87t-36 -87t-87 -36t-87 36t-36 87z" />
<glyph unicode="&#x100;" horiz-adv-x="1440" d="M77 106q0 24 11 48l534 1374q32 72 101 72q71 0 101 -72l536 -1379q8 -20 8 -43q0 -44 -31 -75t-75 -31t-74 31q-16 16 -24 34l-185 475h-512l-186 -475q-8 -18 -24 -34q-31 -31 -75 -31t-74.5 31t-30.5 75zM384 1835q0 44 29.5 74.5t74.5 30.5h456q45 0 74.5 -30.5 t29.5 -74.5q0 -45 -29.5 -74.5t-74.5 -29.5h-456q-45 0 -74.5 29.5t-29.5 74.5zM549 752h348l-174 449z" />
<glyph unicode="&#x101;" d="M80 560q0 232 164 396t396 164q230 0 396 -164q164 -164 164 -396v-456q0 -43 -30.5 -73.5t-73.5 -30.5q-44 0 -74.5 30.5t-30.5 73.5v20q-75 -60 -163 -92t-188 -32q-232 0 -396 164t-164 396zM289 560q0 -72 27.5 -136t74.5 -111.5t111 -75.5t138 -28q73 0 137 28 t111.5 76t75 111.5t27.5 135.5t-27.5 135.5t-75 111.5t-111.5 76t-137 28q-74 0 -138 -28t-111 -75.5t-74.5 -111.5t-27.5 -136zM304 1355q0 44 29.5 74.5t74.5 30.5h456q45 0 74.5 -30.5t29.5 -74.5q0 -45 -29.5 -74.5t-74.5 -29.5h-456q-45 0 -74.5 29.5t-29.5 74.5z" />
<glyph unicode="&#x102;" horiz-adv-x="1440" d="M77 106q0 24 11 48l534 1374q32 72 101 72q71 0 101 -72l536 -1379q8 -20 8 -43q0 -44 -31 -75t-75 -31t-74 31q-16 16 -24 34l-185 475h-512l-186 -475q-8 -18 -24 -34q-31 -31 -75 -31t-74.5 31t-30.5 75zM390 1975q0 44 29.5 74.5t74.5 30.5t75 -30q22 -23 27 -54 q3 -28 38 -47q37 -21 89 -21t89 21q35 19 37 47q6 31 28 54q30 30 75 30t74.5 -30.5t29.5 -74.5q0 -54 -26.5 -101t-71.5 -81.5t-105.5 -54t-129.5 -19.5t-129.5 19.5t-105.5 54t-71.5 81.5t-26.5 101zM549 752h348l-174 449z" />
<glyph unicode="&#x103;" d="M80 560q0 232 164 396t396 164q230 0 396 -164q164 -164 164 -396v-456q0 -43 -30.5 -73.5t-73.5 -30.5q-44 0 -74.5 30.5t-30.5 73.5v20q-75 -60 -163 -92t-188 -32q-232 0 -396 164t-164 396zM289 560q0 -72 27.5 -136t74.5 -111.5t111 -75.5t138 -28q73 0 137 28 t111.5 76t75 111.5t27.5 135.5t-27.5 135.5t-75 111.5t-111.5 76t-137 28q-74 0 -138 -28t-111 -75.5t-74.5 -111.5t-27.5 -136zM310 1495q0 44 29.5 74.5t74.5 30.5t75 -30q22 -23 27 -54q3 -28 38 -47q37 -21 89 -21t89 21q35 19 37 47q6 31 28 54q30 30 75 30t74.5 -30.5 t29.5 -74.5q0 -54 -26.5 -101t-71.5 -81.5t-105.5 -54t-129.5 -19.5t-129.5 19.5t-105.5 54t-71.5 81.5t-26.5 101z" />
<glyph unicode="&#x104;" horiz-adv-x="1520" d="M77 106q0 24 11 48l534 1374q32 72 101 72q71 0 101 -72l536 -1379q8 -20 8 -43q0 -44 -31 -75t-75 -31t-74 31q-16 16 -24 34l-185 475h-512l-186 -475q-8 -18 -24 -34q-31 -31 -75 -31t-74.5 31t-30.5 75zM549 752h348l-174 449zM1008 -116q0 124 107 208q42 35 57 66 q13 26 36 40.5t55 14.5q44 0 73.5 -29t31.5 -73q0 -46 -33 -93t-97 -94q-22 -18 -22 -40q0 -20 14 -34t34 -14q14 0 25 8l63 47q27 21 64 21q45 0 74.5 -29.5t29.5 -74.5q0 -51 -38 -83l-77 -53q-65 -45 -141 -45q-51 0 -97.5 20t-82 55t-56 82t-20.5 100z" />
<glyph unicode="&#x105;" horiz-adv-x="1360" d="M80 560q0 232 164 396t396 164q230 0 396 -164q164 -164 164 -396v-456q0 -43 -30.5 -73.5t-73.5 -30.5q-44 0 -74.5 30.5t-30.5 73.5v20q-75 -60 -163 -92t-188 -32q-232 0 -396 164t-164 396zM289 560q0 -72 27.5 -136t74.5 -111.5t111 -75.5t138 -28q73 0 137 28 t111.5 76t75 111.5t27.5 135.5t-27.5 135.5t-75 111.5t-111.5 76t-137 28q-74 0 -138 -28t-111 -75.5t-74.5 -111.5t-27.5 -136zM840 -120q0 124 107 208q42 35 57 66q13 26 36 40.5t55 14.5q44 0 73.5 -29t31.5 -73q0 -46 -33 -93t-97 -94q-22 -18 -22 -40q0 -20 14 -34 t34 -14q14 0 25 8l63 47q27 21 64 21q45 0 74.5 -29.5t29.5 -74.5q0 -51 -38 -83l-77 -53q-65 -45 -141 -45q-51 0 -97.5 20t-82 55t-56 82t-20.5 100z" />
<glyph unicode="&#x106;" horiz-adv-x="1480" d="M78 800q0 331 234 565q235 235 566 235q284 0 513 -187q28 -27 28 -73q0 -23 -8 -42t-22.5 -33.5t-34 -22.5t-41.5 -8q-39 0 -73 30q-76 60 -167.5 92t-194.5 32q-244 0 -417 -173q-171 -171 -171 -415q0 -245 171 -416q172 -172 417 -172q209 0 368 129q26 18 62 19 q22 0 41 -8.5t33.5 -22.5t23 -33.5t8.5 -41.5q0 -42 -33 -76q-223 -178 -503 -178q-332 0 -566 234t-234 566zM745 1778q0 43 26 71l200 199q32 31 74 31q45 0 74.5 -30.5t29.5 -74.5q0 -45 -28 -73l-200 -199q-28 -28 -72 -28q-45 0 -74.5 29.5t-29.5 74.5z" />
<glyph unicode="&#x107;" horiz-adv-x="1120" d="M78 560q0 232 164 396t396 164q211 0 365 -136q36 -32 36 -79q0 -45 -29.5 -75t-74.5 -30q-38 0 -68 24q-51 43 -107 65t-122 22q-73 0 -137 -27.5t-112 -75t-75.5 -111.5t-27.5 -137t27.5 -137t75.5 -111.5t112 -75t137 -27.5q66 0 122 21.5t106 64.5q28 21 66 22 q45 0 74.5 -29.5t29.5 -74.5q0 -44 -33 -77q-155 -136 -365 -136q-232 0 -396 164t-164 396zM503 1298q0 43 26 71l200 199q32 31 74 31q45 0 74.5 -30.5t29.5 -74.5q0 -45 -28 -73l-200 -199q-28 -28 -72 -28q-45 0 -74.5 29.5t-29.5 74.5z" />
<glyph unicode="&#x108;" horiz-adv-x="1480" d="M78 800q0 331 234 565q235 235 566 235q284 0 513 -187q28 -27 28 -73q0 -23 -8 -42t-22.5 -33.5t-34 -22.5t-41.5 -8q-39 0 -73 30q-76 60 -167.5 92t-194.5 32q-244 0 -417 -173q-171 -171 -171 -415q0 -245 171 -416q172 -172 417 -172q209 0 368 129q26 18 62 19 q22 0 41 -8.5t33.5 -22.5t23 -33.5t8.5 -41.5q0 -42 -33 -76q-223 -178 -503 -178q-332 0 -566 234t-234 566zM545 1823q0 53 49 90l229 151q25 16 54 16t54 -16l228 -151q50 -38 50 -90q0 -45 -29.5 -74.5t-74.5 -29.5q-35 0 -66 22l-162 107l-162 -107q-30 -22 -66 -22 q-45 0 -74.5 29.5t-29.5 74.5z" />
<glyph unicode="&#x109;" horiz-adv-x="1120" d="M78 560q0 232 164 396t396 164q211 0 365 -136q36 -32 36 -79q0 -45 -29.5 -75t-74.5 -30q-38 0 -68 24q-51 43 -107 65t-122 22q-73 0 -137 -27.5t-112 -75t-75.5 -111.5t-27.5 -137t27.5 -137t75.5 -111.5t112 -75t137 -27.5q66 0 122 21.5t106 64.5q28 21 66 22 q45 0 74.5 -29.5t29.5 -74.5q0 -44 -33 -77q-155 -136 -365 -136q-232 0 -396 164t-164 396zM305 1343q0 53 49 90l229 151q25 16 54 16t54 -16l228 -151q50 -38 50 -90q0 -45 -29.5 -74.5t-74.5 -29.5q-35 0 -66 22l-162 107l-162 -107q-30 -22 -66 -22q-45 0 -74.5 29.5 t-29.5 74.5z" />
<glyph unicode="&#x10a;" horiz-adv-x="1480" d="M78 800q0 331 234 565q235 235 566 235q284 0 513 -187q28 -27 28 -73q0 -23 -8 -42t-22.5 -33.5t-34 -22.5t-41.5 -8q-39 0 -73 30q-76 60 -167.5 92t-194.5 32q-244 0 -417 -173q-171 -171 -171 -415q0 -245 171 -416q172 -172 417 -172q209 0 368 129q26 18 62 19 q22 0 41 -8.5t33.5 -22.5t23 -33.5t8.5 -41.5q0 -42 -33 -76q-223 -178 -503 -178q-332 0 -566 234t-234 566zM738 1859q0 59 41.5 100.5t100.5 41.5t100.5 -41.5t41.5 -100.5t-41.5 -100.5t-100.5 -41.5t-100.5 41.5t-41.5 100.5z" />
<glyph unicode="&#x10b;" horiz-adv-x="1120" d="M78 560q0 232 164 396t396 164q211 0 365 -136q36 -32 36 -79q0 -45 -29.5 -75t-74.5 -30q-38 0 -68 24q-51 43 -107 65t-122 22q-73 0 -137 -27.5t-112 -75t-75.5 -111.5t-27.5 -137t27.5 -137t75.5 -111.5t112 -75t137 -27.5q66 0 122 21.5t106 64.5q28 21 66 22 q45 0 74.5 -29.5t29.5 -74.5q0 -44 -33 -77q-155 -136 -365 -136q-232 0 -396 164t-164 396zM495 1379q0 59 41.5 100.5t100.5 41.5t100.5 -41.5t41.5 -100.5t-41.5 -100.5t-100.5 -41.5t-100.5 41.5t-41.5 100.5z" />
<glyph unicode="&#x10c;" horiz-adv-x="1480" d="M78 800q0 331 234 565q235 235 566 235q284 0 513 -187q28 -27 28 -73q0 -23 -8 -42t-22.5 -33.5t-34 -22.5t-41.5 -8q-39 0 -73 30q-76 60 -167.5 92t-194.5 32q-244 0 -417 -173q-171 -171 -171 -415q0 -245 171 -416q172 -172 417 -172q209 0 368 129q26 18 62 19 q22 0 41 -8.5t33.5 -22.5t23 -33.5t8.5 -41.5q0 -42 -33 -76q-223 -178 -503 -178q-332 0 -566 234t-234 566zM543 1976q0 45 29.5 74.5t74.5 29.5q36 0 66 -22l162 -107l162 107q31 22 66 22q45 0 74.5 -29.5t29.5 -74.5q0 -52 -50 -90l-228 -151q-25 -16 -54 -16t-54 16 l-229 151q-49 37 -49 90z" />
<glyph unicode="&#x10d;" horiz-adv-x="1120" d="M78 560q0 232 164 396t396 164q211 0 365 -136q36 -32 36 -79q0 -45 -29.5 -75t-74.5 -30q-38 0 -68 24q-51 43 -107 65t-122 22q-73 0 -137 -27.5t-112 -75t-75.5 -111.5t-27.5 -137t27.5 -137t75.5 -111.5t112 -75t137 -27.5q66 0 122 21.5t106 64.5q28 21 66 22 q45 0 74.5 -29.5t29.5 -74.5q0 -44 -33 -77q-155 -136 -365 -136q-232 0 -396 164t-164 396zM301 1496q0 45 29.5 74.5t74.5 29.5q36 0 66 -22l162 -107l162 107q31 22 66 22q45 0 74.5 -29.5t29.5 -74.5q0 -52 -50 -90l-228 -151q-25 -16 -54 -16t-54 16l-229 151 q-49 37 -49 90z" />
<glyph unicode="&#x10e;" horiz-adv-x="1360" d="M76 106v1388q0 22 8.5 41.5t23 33.5t34 22.5t41.5 8.5h308q330 0 565 -235q118 -118 176.5 -257.5t58.5 -307.5q0 -331 -235 -566q-234 -234 -565 -234h-308q-22 0 -41.5 8.5t-34 22.5t-23 33.5t-8.5 41.5zM224 1976q0 45 29.5 74.5t74.5 29.5q36 0 66 -22l162 -107 l162 107q31 22 66 22q45 0 74.5 -29.5t29.5 -74.5q0 -52 -50 -90l-228 -151q-25 -16 -54 -16t-54 16l-229 151q-49 37 -49 90zM289 212h202q243 0 415 172q87 87 130 189.5t43 226.5q0 242 -173 415t-415 173h-202v-1176z" />
<glyph unicode="&#x10f;" horiz-adv-x="1600" d="M80 560q0 232 164 396t396 164q199 0 351 -123v499q0 45 29.5 74.5t74.5 29.5q44 0 74.5 -29.5t30.5 -74.5v-936q0 -234 -164 -396q-166 -164 -396 -164q-232 0 -396 164t-164 396zM289 560q0 -72 27.5 -136t74.5 -111.5t111 -75.5t138 -28q73 0 137 28t111.5 76 t75 111.5t27.5 135.5t-27.5 135.5t-75 111.5t-111.5 76t-137 28q-74 0 -138 -28t-111 -75.5t-74.5 -111.5t-27.5 -136zM1268 1000q0 17 7 35q45 110 45 209q0 94 -41 182q-11 25 -11 49q0 26 10 48.5t26.5 39.5t39.5 26.5t48 9.5q46 0 79 -32t54 -78.5t30.5 -96t9.5 -92.5 q0 -177 -151 -358q-27 -27 -61 -27q-35 0 -60 25t-25 60z" />
<glyph unicode="&#x110;" horiz-adv-x="1520" d="M0 800q0 22 8 41.5t22.5 34t33.5 22.5t42 8h124v588q0 22 8.5 41.5t23 33.5t33.5 22.5t41 8.5h309q330 0 565 -235q118 -118 176.5 -257.5t58.5 -307.5q0 -331 -235 -566q-234 -234 -565 -234h-309q-22 0 -41 8.5t-33.5 22.5t-23 33.5t-8.5 41.5v588h-124q-23 0 -42 8 t-33.5 22.5t-22.5 33.5t-8 42zM442 212h203q243 0 415 172q87 87 130 189.5t43 226.5q0 242 -173 415t-415 173h-203v-482h280q45 0 75.5 -30.5t30.5 -75.5q0 -23 -8 -42t-22.5 -33.5t-34 -22.5t-41.5 -8h-280v-482z" />
<glyph unicode="&#x111;" horiz-adv-x="1440" d="M82 560q0 232 164 396t396 164q199 0 351 -123v241h-275q-45 0 -75 29.5t-30 74.5q0 22 8 41t22.5 33t33.5 22.5t41 8.5h275v49q0 45 29.5 74.5t74.5 29.5q44 0 74.5 -29.5t30.5 -74.5v-49h47q22 0 41 -8.5t33 -22.5t22.5 -33t8.5 -41q0 -45 -30.5 -74.5t-74.5 -29.5h-47 v-678q0 -234 -164 -396q-166 -164 -396 -164q-232 0 -396 164t-164 396zM291 560q0 -72 27.5 -136t74.5 -111.5t111 -75.5t138 -28q73 0 137 28t111.5 76t75 111.5t27.5 135.5t-27.5 135.5t-75 111.5t-111.5 76t-137 28q-74 0 -138 -28t-111 -75.5t-74.5 -111.5t-27.5 -136z " />
<glyph unicode="&#x112;" d="M76 106v1388q0 22 8 41.5t22.5 34t33.5 22.5t42 8h925q44 0 75 -31t31 -75t-31 -75t-75 -31h-819v-482h588q44 0 75 -31t31 -75t-31 -75t-75 -31h-588v-482h819q44 0 75 -31t31 -75t-31 -75t-75 -31h-925q-23 0 -42 8t-33.5 22.5t-22.5 33.5t-8 42zM305 1835 q0 44 29.5 74.5t74.5 30.5h456q45 0 74.5 -30.5t29.5 -74.5q0 -45 -29.5 -74.5t-74.5 -29.5h-456q-45 0 -74.5 29.5t-29.5 74.5z" />
<glyph unicode="&#x113;" d="M80 560q0 232 164 396t396 164q230 0 396 -164q82 -81 123 -180.5t41 -215.5q0 -45 -30.5 -74.5t-74.5 -29.5h-792q17 -55 50 -100.5t77.5 -78t98 -50.5t111.5 -18q66 0 121 20t102 60q30 25 69 26q45 0 74.5 -29.5t29.5 -74.5q0 -44 -30 -75q-155 -136 -366 -136 q-232 0 -396 164t-164 396zM303 664h674q-17 55 -50.5 100.5t-78 78t-98 50.5t-110.5 18t-111 -18t-99 -50.5t-78 -78t-49 -100.5zM304 1355q0 44 29.5 74.5t74.5 30.5h456q45 0 74.5 -30.5t29.5 -74.5q0 -45 -29.5 -74.5t-74.5 -29.5h-456q-45 0 -74.5 29.5t-29.5 74.5z " />
<glyph unicode="&#x114;" d="M76 106v1388q0 22 8 41.5t22.5 34t33.5 22.5t42 8h925q44 0 75 -31t31 -75t-31 -75t-75 -31h-819v-482h588q44 0 75 -31t31 -75t-31 -75t-75 -31h-588v-482h819q44 0 75 -31t31 -75t-31 -75t-75 -31h-925q-23 0 -42 8t-33.5 22.5t-22.5 33.5t-8 42zM310 1975 q0 44 29.5 74.5t74.5 30.5t75 -30q22 -23 27 -54q3 -28 38 -47q37 -21 89 -21t89 21q35 19 37 47q6 31 28 54q30 30 75 30t74.5 -30.5t29.5 -74.5q0 -54 -26.5 -101t-71.5 -81.5t-105.5 -54t-129.5 -19.5t-129.5 19.5t-105.5 54t-71.5 81.5t-26.5 101z" />
<glyph unicode="&#x115;" d="M80 560q0 232 164 396t396 164q230 0 396 -164q82 -81 123 -180.5t41 -215.5q0 -45 -30.5 -74.5t-74.5 -29.5h-792q17 -55 50 -100.5t77.5 -78t98 -50.5t111.5 -18q66 0 121 20t102 60q30 25 69 26q45 0 74.5 -29.5t29.5 -74.5q0 -44 -30 -75q-155 -136 -366 -136 q-232 0 -396 164t-164 396zM303 664h674q-17 55 -50.5 100.5t-78 78t-98 50.5t-110.5 18t-111 -18t-99 -50.5t-78 -78t-49 -100.5zM310 1495q0 44 29.5 74.5t74.5 30.5t75 -30q22 -23 27 -54q3 -28 38 -47q37 -21 89 -21t89 21q35 19 37 47q6 31 28 54q30 30 75 30 t74.5 -30.5t29.5 -74.5q0 -54 -26.5 -101t-71.5 -81.5t-105.5 -54t-129.5 -19.5t-129.5 19.5t-105.5 54t-71.5 81.5t-26.5 101z" />
<glyph unicode="&#x116;" d="M76 106v1388q0 22 8 41.5t22.5 34t33.5 22.5t42 8h925q44 0 75 -31t31 -75t-31 -75t-75 -31h-819v-482h588q44 0 75 -31t31 -75t-31 -75t-75 -31h-588v-482h819q44 0 75 -31t31 -75t-31 -75t-75 -31h-925q-23 0 -42 8t-33.5 22.5t-22.5 33.5t-8 42zM500 1859 q0 59 41.5 100.5t100.5 41.5t100.5 -41.5t41.5 -100.5t-41.5 -100.5t-100.5 -41.5t-100.5 41.5t-41.5 100.5z" />
<glyph unicode="&#x117;" d="M80 560q0 232 164 396t396 164q230 0 396 -164q82 -81 123 -180.5t41 -215.5q0 -45 -30.5 -74.5t-74.5 -29.5h-792q17 -55 50 -100.5t77.5 -78t98 -50.5t111.5 -18q66 0 121 20t102 60q30 25 69 26q45 0 74.5 -29.5t29.5 -74.5q0 -44 -30 -75q-155 -136 -366 -136 q-232 0 -396 164t-164 396zM303 664h674q-17 55 -50.5 100.5t-78 78t-98 50.5t-110.5 18t-111 -18t-99 -50.5t-78 -78t-49 -100.5zM499 1379q0 59 41.5 100.5t100.5 41.5t100.5 -41.5t41.5 -100.5t-41.5 -100.5t-100.5 -41.5t-100.5 41.5t-41.5 100.5z" />
<glyph unicode="&#x118;" d="M76 106v1388q0 22 8 41.5t22.5 34t33.5 22.5t42 8h925q44 0 75 -31t31 -75t-31 -75t-75 -31h-819v-482h588q44 0 75 -31t31 -75t-31 -75t-75 -31h-588v-482h819q44 0 75 -31t31 -75t-31 -75t-75 -31h-925q-23 0 -42 8t-33.5 22.5t-22.5 33.5t-8 42zM713 -223 q0 124 107 208q42 35 57 66q13 26 36 40.5t55 14.5q44 0 73.5 -29t31.5 -73q0 -46 -33 -93t-97 -94q-22 -18 -22 -40q0 -20 14 -34t34 -14q14 0 25 8l63 47q27 21 64 21q45 0 74.5 -29.5t29.5 -74.5q0 -51 -38 -83l-77 -53q-65 -45 -141 -45q-51 0 -97.5 20t-82 55t-56 82 t-20.5 100z" />
<glyph unicode="&#x119;" d="M80 560q0 232 164 396t396 164q230 0 396 -164q82 -81 123 -180.5t41 -215.5q0 -45 -30.5 -74.5t-74.5 -29.5h-792q17 -55 50 -100.5t77.5 -78t98 -50.5t111.5 -18q66 0 121 20t102 60q30 25 69 26q45 0 74.5 -29.5t29.5 -74.5q0 -44 -30 -75q-155 -136 -366 -136 q-232 0 -396 164t-164 396zM303 664h674q-17 55 -50.5 100.5t-78 78t-98 50.5t-110.5 18t-111 -18t-99 -50.5t-78 -78t-49 -100.5zM392 -223q0 124 107 208q42 35 57 66q13 26 36 40.5t55 14.5q44 0 73.5 -29t31.5 -73q0 -46 -33 -93t-97 -94q-22 -18 -22 -40q0 -20 14 -34 t34 -14q14 0 25 8l63 47q27 21 64 21q45 0 74.5 -29.5t29.5 -74.5q0 -51 -38 -83l-77 -53q-65 -45 -141 -45q-51 0 -97.5 20t-82 55t-56 82t-20.5 100z" />
<glyph unicode="&#x11a;" d="M76 106v1388q0 22 8 41.5t22.5 34t33.5 22.5t42 8h925q44 0 75 -31t31 -75t-31 -75t-75 -31h-819v-482h588q44 0 75 -31t31 -75t-31 -75t-75 -31h-588v-482h819q44 0 75 -31t31 -75t-31 -75t-75 -31h-925q-23 0 -42 8t-33.5 22.5t-22.5 33.5t-8 42zM305 1976 q0 45 29.5 74.5t74.5 29.5q36 0 66 -22l162 -107l162 107q31 22 66 22q45 0 74.5 -29.5t29.5 -74.5q0 -52 -50 -90l-228 -151q-25 -16 -54 -16t-54 16l-229 151q-49 37 -49 90z" />
<glyph unicode="&#x11b;" d="M80 560q0 232 164 396t396 164q230 0 396 -164q82 -81 123 -180.5t41 -215.5q0 -45 -30.5 -74.5t-74.5 -29.5h-792q17 -55 50 -100.5t77.5 -78t98 -50.5t111.5 -18q66 0 121 20t102 60q30 25 69 26q45 0 74.5 -29.5t29.5 -74.5q0 -44 -30 -75q-155 -136 -366 -136 q-232 0 -396 164t-164 396zM303 664h674q-17 55 -50.5 100.5t-78 78t-98 50.5t-110.5 18t-111 -18t-99 -50.5t-78 -78t-49 -100.5zM304 1496q0 45 29.5 74.5t74.5 29.5q36 0 66 -22l162 -107l162 107q31 22 66 22q45 0 74.5 -29.5t29.5 -74.5q0 -52 -50 -90l-228 -151 q-25 -16 -54 -16t-54 16l-229 151q-49 37 -49 90z" />
<glyph unicode="&#x11c;" horiz-adv-x="1500" d="M78 800q0 331 234 565q235 235 566 235q284 0 513 -187q28 -26 28 -73q0 -23 -8 -42t-22.5 -33.5t-34 -22.5t-41.5 -8q-41 0 -73 30q-76 60 -167.5 92t-194.5 32q-244 0 -417 -173q-171 -171 -171 -415q0 -245 171 -416q172 -172 417 -172q181 0 324 95v310h-276 q-45 0 -75.5 30.5t-30.5 75.5q0 22 8 41.5t22.5 34t33.5 22.5t42 8h383q21 0 40 -8.5t33.5 -23t23 -34t8.5 -40.5v-469q0 -42 -33 -76q-223 -178 -503 -178q-332 0 -566 234t-234 566zM544 1823q0 53 49 90l229 151q25 16 54 16t54 -16l228 -151q50 -38 50 -90 q0 -45 -29.5 -74.5t-74.5 -29.5q-35 0 -66 22l-162 107l-162 -107q-30 -22 -66 -22q-45 0 -74.5 29.5t-29.5 74.5z" />
<glyph unicode="&#x11d;" d="M80 560q0 232 164 396t396 164q230 0 396 -164q164 -164 164 -396v-556q0 -72 -22 -136t-61 -117.5t-92 -96.5t-114.5 -72.5t-128.5 -45.5t-134 -16q-80 0 -157 20.5t-146 60.5t-126.5 99t-97.5 132q-16 23 -16 56q0 45 30 74.5t75 29.5q30 0 49.5 -14t53.5 -62t60 -73 q114 -114 275 -114q162 0 274 112q69 84 69 163v119q-150 -123 -351 -123q-232 0 -396 164t-164 396zM289 560q0 -72 27.5 -136t74.5 -111.5t111 -75.5t138 -28q73 0 137 28t111.5 76t75 111.5t27.5 135.5t-27.5 135.5t-75 111.5t-111.5 76t-137 28q-74 0 -138 -28 t-111 -75.5t-74.5 -111.5t-27.5 -136zM304 1343q0 53 49 90l229 151q25 16 54 16t54 -16l228 -151q50 -38 50 -90q0 -45 -29.5 -74.5t-74.5 -29.5q-35 0 -66 22l-162 107l-162 -107q-30 -22 -66 -22q-45 0 -74.5 29.5t-29.5 74.5z" />
<glyph unicode="&#x11e;" horiz-adv-x="1500" d="M78 800q0 331 234 565q235 235 566 235q284 0 513 -187q28 -26 28 -73q0 -23 -8 -42t-22.5 -33.5t-34 -22.5t-41.5 -8q-41 0 -73 30q-76 60 -167.5 92t-194.5 32q-244 0 -417 -173q-171 -171 -171 -415q0 -245 171 -416q172 -172 417 -172q181 0 324 95v310h-276 q-45 0 -75.5 30.5t-30.5 75.5q0 22 8 41.5t22.5 34t33.5 22.5t42 8h383q21 0 40 -8.5t33.5 -23t23 -34t8.5 -40.5v-469q0 -42 -33 -76q-223 -178 -503 -178q-332 0 -566 234t-234 566zM549 1975q0 44 29.5 74.5t74.5 30.5t75 -30q22 -23 27 -54q3 -28 38 -47q37 -21 89 -21 t89 21q35 19 37 47q6 31 28 54q30 30 75 30t74.5 -30.5t29.5 -74.5q0 -54 -26.5 -101t-71.5 -81.5t-105.5 -54t-129.5 -19.5t-129.5 19.5t-105.5 54t-71.5 81.5t-26.5 101z" />
<glyph unicode="&#x11f;" d="M80 560q0 232 164 396t396 164q230 0 396 -164q164 -164 164 -396v-556q0 -72 -22 -136t-61 -117.5t-92 -96.5t-114.5 -72.5t-128.5 -45.5t-134 -16q-80 0 -157 20.5t-146 60.5t-126.5 99t-97.5 132q-16 23 -16 56q0 45 30 74.5t75 29.5q30 0 49.5 -14t53.5 -62t60 -73 q114 -114 275 -114q162 0 274 112q69 84 69 163v119q-150 -123 -351 -123q-232 0 -396 164t-164 396zM289 560q0 -72 27.5 -136t74.5 -111.5t111 -75.5t138 -28q73 0 137 28t111.5 76t75 111.5t27.5 135.5t-27.5 135.5t-75 111.5t-111.5 76t-137 28q-74 0 -138 -28 t-111 -75.5t-74.5 -111.5t-27.5 -136zM310 1495q0 44 29.5 74.5t74.5 30.5t75 -30q22 -23 27 -54q3 -28 38 -47q37 -21 89 -21t89 21q35 19 37 47q6 31 28 54q30 30 75 30t74.5 -30.5t29.5 -74.5q0 -54 -26.5 -101t-71.5 -81.5t-105.5 -54t-129.5 -19.5t-129.5 19.5 t-105.5 54t-71.5 81.5t-26.5 101z" />
<glyph unicode="&#x120;" horiz-adv-x="1500" d="M78 800q0 331 234 565q235 235 566 235q284 0 513 -187q28 -26 28 -73q0 -23 -8 -42t-22.5 -33.5t-34 -22.5t-41.5 -8q-41 0 -73 30q-76 60 -167.5 92t-194.5 32q-244 0 -417 -173q-171 -171 -171 -415q0 -245 171 -416q172 -172 417 -172q181 0 324 95v310h-276 q-45 0 -75.5 30.5t-30.5 75.5q0 22 8 41.5t22.5 34t33.5 22.5t42 8h383q21 0 40 -8.5t33.5 -23t23 -34t8.5 -40.5v-469q0 -42 -33 -76q-223 -178 -503 -178q-332 0 -566 234t-234 566zM739 1859q0 59 41.5 100.5t100.5 41.5t100.5 -41.5t41.5 -100.5t-41.5 -100.5 t-100.5 -41.5t-100.5 41.5t-41.5 100.5z" />
<glyph unicode="&#x121;" d="M80 560q0 232 164 396t396 164q230 0 396 -164q164 -164 164 -396v-556q0 -72 -22 -136t-61 -117.5t-92 -96.5t-114.5 -72.5t-128.5 -45.5t-134 -16q-80 0 -157 20.5t-146 60.5t-126.5 99t-97.5 132q-16 23 -16 56q0 45 30 74.5t75 29.5q30 0 49.5 -14t53.5 -62t60 -73 q114 -114 275 -114q162 0 274 112q69 84 69 163v119q-150 -123 -351 -123q-232 0 -396 164t-164 396zM289 560q0 -72 27.5 -136t74.5 -111.5t111 -75.5t138 -28q73 0 137 28t111.5 76t75 111.5t27.5 135.5t-27.5 135.5t-75 111.5t-111.5 76t-137 28q-74 0 -138 -28 t-111 -75.5t-74.5 -111.5t-27.5 -136zM499 1379q0 59 41.5 100.5t100.5 41.5t100.5 -41.5t41.5 -100.5t-41.5 -100.5t-100.5 -41.5t-100.5 41.5t-41.5 100.5z" />
<glyph unicode="&#x122;" horiz-adv-x="1500" d="M78 800q0 331 234 565q235 235 566 235q284 0 513 -187q28 -26 28 -73q0 -23 -8 -42t-22.5 -33.5t-34 -22.5t-41.5 -8q-41 0 -73 30q-76 60 -167.5 92t-194.5 32q-244 0 -417 -173q-171 -171 -171 -415q0 -245 171 -416q172 -172 417 -172q181 0 324 95v310h-276 q-45 0 -75.5 30.5t-30.5 75.5q0 22 8 41.5t22.5 34t33.5 22.5t42 8h383q21 0 40 -8.5t33.5 -23t23 -34t8.5 -40.5v-469q0 -42 -33 -76q-223 -178 -503 -178q-332 0 -566 234t-234 566zM632 -308q0 44 29.5 74.5t74.5 30.5q29 1 56 -16l72 -45q12 -6 24 -6q47 0 47 23 q-1 22 -47 22q-45 0 -75 30t-30 75q1 41 37 61.5t102 20.5q79 -4 146 -53q76 -61 76 -160q0 -97 -78 -163q-72 -65 -178 -65q-64 0 -123 31l-87 53q-46 37 -46 87z" />
<glyph unicode="&#x123;" d="M80 560q0 232 164 396t396 164q230 0 396 -164q164 -164 164 -396v-556q0 -72 -22 -136t-61 -117.5t-92 -96.5t-114.5 -72.5t-128.5 -45.5t-134 -16q-80 0 -157 20.5t-146 60.5t-126.5 99t-97.5 132q-16 23 -16 56q0 45 30 74.5t75 29.5q30 0 49.5 -14t53.5 -62t60 -73 q114 -114 275 -114q162 0 274 112q69 84 69 163v119q-150 -123 -351 -123q-232 0 -396 164t-164 396zM289 560q0 -72 27.5 -136t74.5 -111.5t111 -75.5t138 -28q73 0 137 28t111.5 76t75 111.5t27.5 135.5t-27.5 135.5t-75 111.5t-111.5 76t-137 28q-74 0 -138 -28 t-111 -75.5t-74.5 -111.5t-27.5 -136zM508 1514q0 177 151 358q27 27 61 27q35 0 60 -25t25 -60q0 -17 -7 -35q-45 -110 -45 -209q0 -94 41 -182q11 -25 11 -49q0 -26 -10 -48.5t-26.5 -39.5t-39.5 -26.5t-48 -9.5q-46 0 -79 32t-54 78.5t-30.5 96t-9.5 92.5z" />
<glyph unicode="&#x124;" d="M76 106v1388q0 44 31 75t75 31t75 -31t31 -75v-588h713v588q0 44 31 75t75 31t75 -31t31 -75v-1388q0 -44 -31 -75t-75 -31t-75 31t-31 75v588h-713v-588q0 -44 -31 -75t-75 -31t-75 31t-31 75zM304 1823q0 53 49 90l229 151q25 16 54 16t54 -16l228 -151q50 -38 50 -90 q0 -45 -29.5 -74.5t-74.5 -29.5q-35 0 -66 22l-162 107l-162 -107q-30 -22 -66 -22q-45 0 -74.5 29.5t-29.5 74.5z" />
<glyph unicode="&#x125;" horiz-adv-x="1200" d="M79 105v1390q0 44 30.5 74.5t73.5 30.5t73.5 -30.5t31.5 -74.5v-480q133 103 313 103q105 0 199.5 -41t166.5 -111.5t114 -166t42 -203.5v-491q-1 -44 -31.5 -74.5t-73.5 -30.5t-73.5 30.5t-30.5 74.5v491q0 64 -25 121t-67.5 99.5t-99.5 67.5t-121 25 q-65 0 -121.5 -24.5t-99.5 -67.5t-67.5 -100t-24.5 -121v-491q0 -44 -30.5 -74.5t-74.5 -30.5q-43 0 -73.5 30.5t-30.5 74.5zM264 1823q0 53 49 90l229 151q25 16 54 16t54 -16l228 -151q50 -38 50 -90q0 -45 -29.5 -74.5t-74.5 -29.5q-35 0 -66 22l-162 107l-162 -107 q-30 -22 -66 -22q-45 0 -74.5 29.5t-29.5 74.5z" />
<glyph unicode="&#x126;" horiz-adv-x="1600" d="M79 1224q0 22 8 41.5t22.5 34t33.5 22.5t42 8h48v164q0 22 8 41.5t22.5 34t33.5 22.5t42 8q22 0 41.5 -8t34 -22.5t22.5 -34t8 -41.5v-164h713v164q0 22 8 41.5t22.5 34t33.5 22.5t42 8q22 0 41.5 -8t34 -22.5t22.5 -34t8 -41.5v-164h48q22 0 41.5 -8t34 -22.5t22.5 -34 t8 -41.5q0 -23 -8 -42t-22.5 -33.5t-34 -22.5t-41.5 -8h-48v-1012q0 -23 -8 -42t-22.5 -33.5t-34 -22.5t-41.5 -8q-23 0 -42 8t-33.5 22.5t-22.5 33.5t-8 42v588h-713v-588q0 -23 -8 -42t-22.5 -33.5t-34 -22.5t-41.5 -8q-23 0 -42 8t-33.5 22.5t-22.5 33.5t-8 42v1012h-48 q-23 0 -42 8t-33.5 22.5t-22.5 33.5t-8 42zM445 906h713v212h-713v-212z" />
<glyph unicode="&#x127;" horiz-adv-x="1320" d="M42 1343q0 44 29.5 74.5t74.5 30.5h48v47q0 44 29.5 74.5t74.5 30.5t74.5 -30.5t29.5 -74.5v-47h276q45 0 74.5 -30.5t29.5 -74.5q0 -45 -29.5 -74.5t-74.5 -29.5h-276v-222q136 103 314 103q106 0 200.5 -41t166 -112t113.5 -166t42 -203v-494q0 -21 -8.5 -40 t-22.5 -33.5t-33 -22.5t-41 -8t-41 8t-33 22.5t-22 33.5t-8 40v494q0 64 -25 121t-67.5 99.5t-99.5 67.5t-121 25q-65 0 -122 -25t-99.5 -67.5t-67.5 -99.5t-25 -121v-494q0 -21 -8 -40t-22 -33.5t-33 -22.5t-41 -8t-41 8t-33 22.5t-22 33.5t-8 40v1135h-48 q-45 0 -74.5 29.5t-29.5 74.5z" />
<glyph unicode="&#x128;" horiz-adv-x="640" d="M-86 1882q1 47 31 75.5t73 28.5q36 0 81 -33t84 -33q43 0 73 27q87 82 219 82q37 0 83.5 -11.5t86.5 -33.5t67.5 -54t27.5 -72q0 -45 -30.5 -74.5t-74.5 -29.5q-32 0 -79.5 33t-83.5 33q-41 0 -74 -27q-90 -82 -219 -82q-38 0 -84 11t-86.5 33t-67.5 53.5t-27 73.5z M226 106v1388q0 44 31 75t75 31t75 -31t31 -75v-1388q0 -44 -31 -75t-75 -31t-75 31t-31 75z" />
<glyph unicode="&#x129;" horiz-adv-x="720" d="M-46 1402q1 47 31 75.5t73 28.5q36 0 81 -33t84 -33q43 0 73 27q87 82 219 82q37 0 83.5 -11.5t86.5 -33.5t67.5 -54t27.5 -72q0 -45 -30.5 -74.5t-74.5 -29.5q-32 0 -79.5 33t-83.5 33q-41 0 -74 -27q-90 -82 -219 -82q-38 0 -84 11t-86.5 33t-67.5 53.5t-27 73.5z M266 105v910q0 44 30.5 74.5t73.5 30.5t73.5 -30.5t31.5 -74.5v-910q-1 -44 -31.5 -74.5t-73.5 -30.5t-73.5 30.5t-30.5 74.5z" />
<glyph unicode="&#x12a;" horiz-adv-x="480" d="M-83 1835q0 44 29.5 74.5t74.5 30.5h456q45 0 74.5 -30.5t29.5 -74.5q0 -45 -29.5 -74.5t-74.5 -29.5h-456q-45 0 -74.5 29.5t-29.5 74.5zM156 106v1388q0 44 31 75t75 31t75 -31t31 -75v-1388q0 -44 -31 -75t-75 -31t-75 31t-31 75z" />
<glyph unicode="&#x12b;" horiz-adv-x="560" d="M-43 1355q0 44 29.5 74.5t74.5 30.5h456q45 0 74.5 -30.5t29.5 -74.5q0 -45 -29.5 -74.5t-74.5 -29.5h-456q-45 0 -74.5 29.5t-29.5 74.5zM196 105v910q0 44 30.5 74.5t73.5 30.5t73.5 -30.5t31.5 -74.5v-910q-1 -44 -31.5 -74.5t-73.5 -30.5t-73.5 30.5t-30.5 74.5z" />
<glyph unicode="&#x12c;" horiz-adv-x="480" d="M-83 1975q0 44 29.5 74.5t74.5 30.5t75 -30q22 -23 27 -54q3 -28 38 -47q37 -21 89 -21t89 21q35 19 37 47q6 31 28 54q30 30 75 30t74.5 -30.5t29.5 -74.5q0 -54 -26.5 -101t-71.5 -81.5t-105.5 -54t-129.5 -19.5t-129.5 19.5t-105.5 54t-71.5 81.5t-26.5 101zM153 106 v1388q0 44 31 75t75 31t75 -31t31 -75v-1388q0 -44 -31 -75t-75 -31t-75 31t-31 75z" />
<glyph unicode="&#x12d;" horiz-adv-x="560" d="M-43 1495q0 44 29.5 74.5t74.5 30.5t75 -30q22 -23 27 -54q3 -28 38 -47q37 -21 89 -21t89 21q35 19 37 47q6 31 28 54q30 30 75 30t74.5 -30.5t29.5 -74.5q0 -54 -26.5 -101t-71.5 -81.5t-105.5 -54t-129.5 -19.5t-129.5 19.5t-105.5 54t-71.5 81.5t-26.5 101zM191 105 v910q0 44 30.5 74.5t73.5 30.5t73.5 -30.5t31.5 -74.5v-910q-1 -44 -31.5 -74.5t-73.5 -30.5t-73.5 30.5t-30.5 74.5z" />
<glyph unicode="&#x12e;" horiz-adv-x="480" d="M-1 -124q0 124 107 208q42 35 57 66q13 26 36 40.5t55 14.5q44 0 73.5 -29t31.5 -73q0 -46 -33 -93t-97 -94q-22 -18 -22 -40q0 -20 14 -34t34 -14q14 0 25 8l63 47q27 21 64 21q45 0 74.5 -29.5t29.5 -74.5q0 -51 -38 -83l-77 -53q-65 -45 -141 -45q-51 0 -97.5 20 t-82 55t-56 82t-20.5 100zM146 106v1388q0 44 31 75t75 31t75 -31t31 -75v-1388q0 -44 -31 -75t-75 -31t-75 31t-31 75z" />
<glyph unicode="&#x12f;" horiz-adv-x="480" d="M-4 -121q0 124 107 208q42 35 57 66q13 26 36 40.5t55 14.5q44 0 73.5 -29t31.5 -73q0 -46 -33 -93t-97 -94q-22 -18 -22 -40q0 -20 14 -34t34 -14q14 0 25 8l63 47q27 21 64 21q45 0 74.5 -29.5t29.5 -74.5q0 -51 -38 -83l-77 -53q-65 -45 -141 -45q-51 0 -97.5 20 t-82 55t-56 82t-20.5 100zM117 1319q0 51 36 87t87 36t87 -36t36 -87t-36 -87t-87 -36t-87 36t-36 87zM136 105v910q0 44 30.5 74.5t73.5 30.5t73.5 -30.5t31.5 -74.5v-910q-1 -44 -31.5 -74.5t-73.5 -30.5t-73.5 30.5t-30.5 74.5z" />
<glyph unicode="&#x130;" horiz-adv-x="480" d="M99 1859q0 59 41.5 100.5t100.5 41.5t100.5 -41.5t41.5 -100.5t-41.5 -100.5t-100.5 -41.5t-100.5 41.5t-41.5 100.5zM146 106v1388q0 44 31 75t75 31t75 -31t31 -75v-1388q0 -44 -31 -75t-75 -31t-75 31t-31 75z" />
<glyph unicode="&#x131;" horiz-adv-x="480" d="M146 105v910q0 44 30.5 74.5t73.5 30.5t73.5 -30.5t31.5 -74.5v-910q-1 -44 -31.5 -74.5t-73.5 -30.5t-73.5 30.5t-30.5 74.5z" />
<glyph unicode="&#x132;" horiz-adv-x="1520" d="M146 106v1388q0 44 31 75t75 31t75 -31t31 -75v-1388q0 -44 -31 -75t-75 -31t-75 31t-31 75zM474 492q0 44 31 75t75 31t75 -31t31 -75q0 -59 22 -110t59.5 -88.5t88.5 -59.5t110 -22q58 0 109 22t88.5 60t59.5 89t22 109v1002q0 44 31 75t75 31t75 -31t31 -75v-1002 q0 -101 -39 -190.5t-105.5 -156.5t-156 -106t-190.5 -39q-102 0 -191.5 39t-156 106.5t-105.5 156.5t-39 190z" />
<glyph unicode="&#x133;" horiz-adv-x="880" d="M127 1319q0 51 36 87t87 36t87 -36t36 -87t-36 -87t-87 -36t-87 36t-36 87zM146 105v910q0 44 30.5 74.5t73.5 30.5t73.5 -30.5t31.5 -74.5v-910q-1 -44 -31.5 -74.5t-73.5 -30.5t-73.5 30.5t-30.5 74.5zM166 -374q0 45 29.5 74.5t74.5 29.5q57 0 107 21.5t87.5 59 t59.5 87.5t22 107v1010q0 44 30.5 74.5t73.5 30.5t73.5 -30.5t30.5 -74.5v-1010q0 -99 -38.5 -187t-104.5 -154t-154 -104.5t-187 -38.5q-45 0 -74.5 30t-29.5 75zM527 1319q0 51 36 87t87 36t87 -36t36 -87t-36 -87t-87 -36t-87 36t-36 87z" />
<glyph unicode="&#x134;" horiz-adv-x="1200" d="M74 492q0 44 31 75t75 31t75 -31t31 -75q0 -59 22 -110t59.5 -88.5t88.5 -59.5t110 -22q58 0 109 22t88.5 60t59.5 89t22 109v1002q0 44 31 75t75 31t75 -31t31 -75v-1002q0 -101 -39 -190.5t-105.5 -156.5t-156 -106t-190.5 -39q-102 0 -191.5 39t-156 106.5 t-105.5 156.5t-39 190zM624 1823q0 53 49 90l229 151q25 16 54 16t54 -16l228 -151q50 -38 50 -90q0 -45 -29.5 -74.5t-74.5 -29.5q-35 0 -66 22l-162 107l-162 -107q-30 -22 -66 -22q-45 0 -74.5 29.5t-29.5 74.5z" />
<glyph unicode="&#x135;" horiz-adv-x="760" d="M-2 -351q0 45 29.5 74.5t74.5 29.5q57 0 107 21.5t87.5 59t59 87.5t21.5 107v988q0 21 8 40t22.5 33.5t33.5 22.5t41 8t41 -8t33 -22.5t22 -33.5t8 -40v-988q0 -99 -38.5 -187t-104.5 -154t-154 -104.5t-187 -38.5q-45 0 -74.5 30t-29.5 75zM146 1343q0 53 49 90l229 151 q25 16 54 16t54 -16l228 -151q50 -38 50 -90q0 -45 -29.5 -74.5t-74.5 -29.5q-35 0 -66 22l-162 107l-162 -107q-30 -22 -66 -22q-45 0 -74.5 29.5t-29.5 74.5z" />
<glyph unicode="&#x136;" horiz-adv-x="1200" d="M75 106v1388q0 44 31 75t75 31t75 -31t31 -75v-592l665 665q33 33 77 33q22 0 41.5 -8t34 -22.5t22.5 -34t8 -41.5q0 -44 -31 -75l-524 -525l535 -725q20 -28 20 -60q0 -21 -8 -41t-22 -35t-33 -24t-41 -9q-59 0 -89 45l-514 697l-141 -141v-495q0 -44 -31 -75t-75 -31 t-75 31t-31 75zM314 -309q0 44 29.5 74.5t74.5 30.5q29 1 56 -16l72 -45q12 -6 24 -6q47 0 47 23q-1 22 -47 22q-45 0 -75 30t-30 75q1 41 37 61.5t102 20.5q79 -4 146 -53q76 -61 76 -160q0 -97 -78 -163q-72 -65 -178 -65q-64 0 -123 31l-87 53q-46 37 -46 87z" />
<glyph unicode="&#x137;" horiz-adv-x="1120" d="M78 105v1390q0 44 30.5 74.5t74.5 30.5q43 0 73.5 -30.5t30.5 -74.5v-780l598 389q25 16 56 16q22 0 41 -8t33 -22.5t22.5 -33.5t8.5 -40q0 -56 -40 -83l-419 -272l430 -484q29 -32 29 -73q0 -21 -8.5 -40t-22.5 -33.5t-33 -22.5t-41 -8q-42 0 -70 27l-462 519l-122 -80 v-361q0 -43 -30.5 -74t-73.5 -31q-44 0 -74.5 31t-30.5 74zM313 -309q0 44 29.5 74.5t74.5 30.5q29 1 56 -16l72 -45q12 -6 24 -6q47 0 47 23q-1 22 -47 22q-45 0 -75 30t-30 75q1 41 37 61.5t102 20.5q79 -4 146 -53q76 -61 76 -160q0 -97 -78 -163q-72 -65 -178 -65 q-64 0 -123 31l-87 53q-46 37 -46 87z" />
<glyph unicode="&#x138;" horiz-adv-x="1120" d="M78 104v911q0 45 29.5 74.5t74.5 29.5q44 0 74.5 -29.5t30.5 -74.5v-300l598 389q25 16 56 16q22 0 41 -8t33 -22.5t22.5 -33.5t8.5 -40q0 -56 -43 -85l-416 -270l430 -484q29 -33 29 -73q0 -21 -8.5 -40t-22.5 -33.5t-33 -22.5t-41 -8q-42 0 -70 27l-462 519l-122 -80 v-362q0 -21 -8.5 -40t-22.5 -33.5t-33 -22.5t-41 -8t-41 8t-33 22.5t-22 33.5t-8 40z" />
<glyph unicode="&#x139;" horiz-adv-x="1200" d="M75 106v1388q0 44 31 75t75 31t75 -31t31 -75v-1282h742q44 0 75 -31t31 -75t-31 -75t-75 -31h-848q-23 0 -42 8t-33.5 22.5t-22.5 33.5t-8 42zM265 1778q0 43 26 71l200 199q32 31 74 31q45 0 74.5 -30.5t29.5 -74.5q0 -45 -28 -73l-200 -199q-28 -28 -72 -28 q-45 0 -74.5 29.5t-29.5 74.5z" />
<glyph unicode="&#x13a;" horiz-adv-x="480" d="M34 1778q0 43 26 71l200 199q32 31 74 31q45 0 74.5 -30.5t29.5 -74.5q0 -45 -28 -73l-200 -199q-28 -28 -72 -28q-45 0 -74.5 29.5t-29.5 74.5zM38 104v1391q0 44 29.5 74.5t74.5 30.5t74.5 -30.5t29.5 -74.5v-1286h48q43 0 73.5 -30.5t30.5 -74.5q0 -43 -30.5 -73.5 t-73.5 -30.5h-153q-43 0 -73 30.5t-30 73.5z" />
<glyph unicode="&#x13b;" horiz-adv-x="1200" d="M75 106v1388q0 44 31 75t75 31t75 -31t31 -75v-1282h742q44 0 75 -31t31 -75t-31 -75t-75 -31h-848q-23 0 -42 8t-33.5 22.5t-22.5 33.5t-8 42zM353 -309q0 44 29.5 74.5t74.5 30.5q29 1 56 -16l72 -45q12 -6 24 -6q47 0 47 23q-1 22 -47 22q-45 0 -75 30t-30 75 q1 41 37 61.5t102 20.5q79 -4 146 -53q76 -61 76 -160q0 -97 -78 -163q-72 -65 -178 -65q-64 0 -123 31l-87 53q-46 37 -46 87z" />
<glyph unicode="&#x13c;" horiz-adv-x="480" d="M-5 -309q0 44 29.5 74.5t74.5 30.5q29 1 56 -16l72 -45q12 -6 24 -6q47 0 47 23q-1 22 -47 22q-45 0 -75 30t-30 75q1 41 37 61.5t102 20.5q79 -4 146 -53q76 -61 76 -160q0 -97 -78 -163q-72 -65 -178 -65q-64 0 -123 31l-87 53q-46 37 -46 87zM70 104v1391 q0 44 29.5 74.5t74.5 30.5t74.5 -30.5t29.5 -74.5v-1286h48q43 0 73.5 -30.5t30.5 -74.5q0 -43 -30.5 -73.5t-73.5 -30.5h-153q-43 0 -73 30.5t-30 73.5z" />
<glyph unicode="&#x13d;" horiz-adv-x="1200" d="M75 106v1388q0 44 31 75t75 31t75 -31t31 -75v-1282h742q44 0 75 -31t31 -75t-31 -75t-75 -31h-848q-23 0 -42 8t-33.5 22.5t-22.5 33.5t-8 42zM467 1000q0 17 7 35q45 110 45 209q0 94 -41 182q-11 25 -11 49q0 26 10 48.5t26.5 39.5t39.5 26.5t48 9.5q46 0 79 -32 t54 -78.5t30.5 -96t9.5 -92.5q0 -177 -151 -358q-27 -27 -61 -27q-35 0 -60 25t-25 60z" />
<glyph unicode="&#x13e;" horiz-adv-x="680" d="M70 104v1391q0 44 29.5 74.5t74.5 30.5t74.5 -30.5t29.5 -74.5v-1286h48q43 0 73.5 -30.5t30.5 -74.5q0 -43 -30.5 -73.5t-73.5 -30.5h-153q-43 0 -73 30.5t-30 73.5zM355 1000q0 17 7 35q45 110 45 209q0 94 -41 182q-11 25 -11 49q0 26 10 48.5t26.5 39.5t39.5 26.5 t48 9.5q46 0 79 -32t54 -78.5t30.5 -96t9.5 -92.5q0 -177 -151 -358q-27 -27 -61 -27q-35 0 -60 25t-25 60z" />
<glyph unicode="&#x13f;" horiz-adv-x="1200" d="M75 106v1388q0 44 31 75t75 31t75 -31t31 -75v-1282h742q44 0 75 -31t31 -75t-31 -75t-75 -31h-848q-23 0 -42 8t-33.5 22.5t-22.5 33.5t-8 42zM520 790q0 59 41.5 100.5t100.5 41.5t100.5 -41.5t41.5 -100.5t-41.5 -100.5t-100.5 -41.5t-100.5 41.5t-41.5 100.5z" />
<glyph unicode="&#x140;" horiz-adv-x="640" d="M70 104v1391q0 44 29.5 74.5t74.5 30.5t74.5 -30.5t29.5 -74.5v-1286h48q43 0 73.5 -30.5t30.5 -74.5q0 -43 -30.5 -73.5t-73.5 -30.5h-153q-43 0 -73 30.5t-30 73.5zM328 790q0 59 41.5 100.5t100.5 41.5t100.5 -41.5t41.5 -100.5t-41.5 -100.5t-100.5 -41.5 t-100.5 41.5t-41.5 100.5z" />
<glyph unicode="&#x141;" horiz-adv-x="1360" d="M23 598q0 43 31 74l176 175v647q0 22 8 41.5t22.5 34t33.5 22.5t42 8q22 0 41.5 -8t34 -22.5t22.5 -34t8 -41.5v-438l50 51q31 31 76 31q22 0 41 -9t33.5 -24t23 -34t8.5 -40q0 -43 -31 -74l-201 -198v-547h742q22 0 41.5 -8t34 -22.5t22.5 -34t8 -41.5q0 -23 -8 -42 t-22.5 -33.5t-34 -22.5t-41.5 -8h-848q-23 0 -42 8t-33.5 22.5t-22.5 33.5t-8 42v443l-26 -27q-29 -31 -75 -31q-22 0 -41.5 8.5t-33.5 23t-22.5 34t-8.5 41.5z" />
<glyph unicode="&#x142;" horiz-adv-x="720" d="M20 588q0 44 30 74l174 172v637q0 44 29.5 74.5t74.5 30.5q22 0 41 -8.5t33 -22.5t22.5 -33t8.5 -41v-431l49 50q31 31 74 31q21 0 40 -8.5t33.5 -22.5t22.5 -33.5t8 -40.5q0 -43 -30 -73l-197 -196v-538h47q45 0 74.5 -30.5t29.5 -74.5q0 -21 -8 -40t-22 -33.5 t-33 -22.5t-41 -8h-152q-22 0 -41 8t-33 22.5t-22 33.5t-8 40v437l-26 -27q-31 -31 -74 -31q-20 0 -39 8t-33.5 22t-23 33t-8.5 42z" />
<glyph unicode="&#x143;" horiz-adv-x="1440" d="M77 106v1388q0 22 8 41.5t22.5 34t33.5 22.5t42 8q47 0 82 -39l892 -1147v1080q0 44 31 75t75 31t75 -31t31 -75v-1388q0 -23 -8 -42t-22.5 -33.5t-34 -22.5t-41.5 -8q-47 0 -81 37l-893 1147v-1078q0 -44 -31 -75t-75 -31t-75 31t-31 75zM611 1778q0 43 26 71l200 199 q32 31 74 31q45 0 74.5 -30.5t29.5 -74.5q0 -45 -28 -73l-200 -199q-28 -28 -72 -28q-45 0 -74.5 29.5t-29.5 74.5z" />
<glyph unicode="&#x144;" horiz-adv-x="1200" d="M79 105v910q0 43 30.5 74t74.5 31q43 0 73.5 -31t30.5 -72q133 103 313 103q105 0 199.5 -41t166.5 -111.5t114 -166t42 -203.5v-493q0 -44 -30.5 -74.5t-73.5 -30.5q-44 0 -74.5 30.5t-30.5 74.5v493q0 64 -25 121t-67.5 99.5t-99.5 67.5t-121 25q-65 0 -121.5 -24.5 t-99.5 -67.5t-67.5 -100t-24.5 -121v-493q0 -44 -30.5 -74.5t-73.5 -30.5q-44 0 -74.5 30.5t-30.5 74.5zM491 1298q0 43 26 71l200 199q32 31 74 31q45 0 74.5 -30.5t29.5 -74.5q0 -45 -28 -73l-200 -199q-28 -28 -72 -28q-45 0 -74.5 29.5t-29.5 74.5z" />
<glyph unicode="&#x145;" horiz-adv-x="1440" d="M77 106v1388q0 22 8 41.5t22.5 34t33.5 22.5t42 8q47 0 82 -39l892 -1147v1080q0 44 31 75t75 31t75 -31t31 -75v-1388q0 -23 -8 -42t-22.5 -33.5t-34 -22.5t-41.5 -8q-47 0 -81 37l-893 1147v-1078q0 -44 -31 -75t-75 -31t-75 31t-31 75zM473 -309q0 44 29.5 74.5 t74.5 30.5q29 1 56 -16l72 -45q12 -6 24 -6q47 0 47 23q-1 22 -47 22q-45 0 -75 30t-30 75q1 41 37 61.5t102 20.5q79 -4 146 -53q76 -61 76 -160q0 -97 -78 -163q-72 -65 -178 -65q-64 0 -123 31l-87 53q-46 37 -46 87z" />
<glyph unicode="&#x146;" horiz-adv-x="1200" d="M79 105v910q0 43 30.5 74t74.5 31q43 0 73.5 -31t30.5 -72q133 103 313 103q105 0 199.5 -41t166.5 -111.5t114 -166t42 -203.5v-493q0 -44 -30.5 -74.5t-73.5 -30.5q-44 0 -74.5 30.5t-30.5 74.5v493q0 64 -25 121t-67.5 99.5t-99.5 67.5t-121 25q-65 0 -121.5 -24.5 t-99.5 -67.5t-67.5 -100t-24.5 -121v-493q0 -44 -30.5 -74.5t-73.5 -30.5q-44 0 -74.5 30.5t-30.5 74.5zM354 -309q0 44 29.5 74.5t74.5 30.5q29 1 56 -16l72 -45q12 -6 24 -6q47 0 47 23q-1 22 -47 22q-45 0 -75 30t-30 75q1 41 37 61.5t102 20.5q79 -4 146 -53 q76 -61 76 -160q0 -97 -78 -163q-72 -65 -178 -65q-64 0 -123 31l-87 53q-46 37 -46 87z" />
<glyph unicode="&#x147;" horiz-adv-x="1440" d="M77 106v1388q0 22 8 41.5t22.5 34t33.5 22.5t42 8q47 0 82 -39l892 -1147v1080q0 44 31 75t75 31t75 -31t31 -75v-1388q0 -23 -8 -42t-22.5 -33.5t-34 -22.5t-41.5 -8q-47 0 -81 37l-893 1147v-1078q0 -44 -31 -75t-75 -31t-75 31t-31 75zM384 1976q0 45 29.5 74.5 t74.5 29.5q36 0 66 -22l162 -107l162 107q31 22 66 22q45 0 74.5 -29.5t29.5 -74.5q0 -52 -50 -90l-228 -151q-25 -16 -54 -16t-54 16l-229 151q-49 37 -49 90z" />
<glyph unicode="&#x148;" horiz-adv-x="1200" d="M79 105v910q0 43 30.5 74t74.5 31q43 0 73.5 -31t30.5 -72q133 103 313 103q105 0 199.5 -41t166.5 -111.5t114 -166t42 -203.5v-493q0 -44 -30.5 -74.5t-73.5 -30.5q-44 0 -74.5 30.5t-30.5 74.5v493q0 64 -25 121t-67.5 99.5t-99.5 67.5t-121 25q-65 0 -121.5 -24.5 t-99.5 -67.5t-67.5 -100t-24.5 -121v-493q0 -44 -30.5 -74.5t-73.5 -30.5q-44 0 -74.5 30.5t-30.5 74.5zM264 1496q0 45 29.5 74.5t74.5 29.5q36 0 66 -22l162 -107l162 107q31 22 66 22q45 0 74.5 -29.5t29.5 -74.5q0 -52 -50 -90l-228 -151q-25 -16 -54 -16t-54 16 l-229 151q-49 37 -49 90z" />
<glyph unicode="&#x149;" horiz-adv-x="1440" d="M43 1000q0 17 7 35q45 110 45 209q0 94 -41 182q-11 25 -11 49q0 26 10 48.5t26.5 39.5t39.5 26.5t48 9.5q46 0 79 -32t54 -78.5t30.5 -96t9.5 -92.5q0 -177 -151 -358q-27 -27 -61 -27q-35 0 -60 25t-25 60zM320 105v910q0 43 30.5 74t74.5 31q43 0 73.5 -31t30.5 -72 q133 103 313 103q105 0 199.5 -41t166.5 -111.5t114 -166t42 -203.5v-493q0 -44 -30.5 -74.5t-73.5 -30.5q-44 0 -74.5 30.5t-30.5 74.5v493q0 64 -25 121t-67.5 99.5t-99.5 67.5t-121 25q-65 0 -121.5 -24.5t-99.5 -67.5t-67.5 -100t-24.5 -121v-493q0 -44 -30.5 -74.5 t-73.5 -30.5q-44 0 -74.5 30.5t-30.5 74.5z" />
<glyph unicode="&#x14a;" horiz-adv-x="1440" d="M77 106v1388q0 22 8 41.5t22.5 34t33.5 22.5t42 8q22 0 41.5 -8t34 -22.5t22.5 -34t8 -41.5v-62q183 168 434 168q266 0 456 -190t190 -456v-462q0 -101 -39 -190t-105.5 -156.5t-156 -106.5t-191.5 -39q-204 0 -347 145q-32 30 -32 75q0 22 8.5 41.5t23 33.5t33.5 22.5 t41 8.5q43 0 76 -31q42 -42 90.5 -62.5t106.5 -20.5t109.5 22t89 60.5t59.5 89.5t22 108v462q0 89 -34 168t-93 138t-138 93.5t-169 34.5t-169.5 -34.5t-138 -93.5t-92.5 -138t-34 -168v-848q0 -23 -8 -42t-22.5 -33.5t-34 -22.5t-41.5 -8q-23 0 -42 8t-33.5 22.5 t-22.5 33.5t-8 42z" />
<glyph unicode="&#x14b;" horiz-adv-x="1200" d="M79 104v912q0 21 8 40t22 33.5t33 22.5t41 8q21 0 40 -8t33.5 -22t23 -33t8.5 -40q133 103 313 103q105 0 199.5 -41t166.5 -111.5t114 -166t42 -203.5v-745q0 -68 -26.5 -128.5t-71.5 -106t-105.5 -72t-128.5 -26.5q-34 0 -69.5 6.5t-65 21t-48.5 38.5t-19 59q0 22 8 41 t22.5 33t33.5 22.5t41 8.5q23 0 48 -10.5t49 -10.5t46.5 9.5t39.5 26t27 39t10 49.5v745q0 64 -25 121t-67.5 99.5t-99.5 67.5t-121 25q-65 0 -121.5 -24.5t-99.5 -67.5t-67.5 -100t-24.5 -121v-494q0 -21 -8.5 -40t-22.5 -33.5t-33 -22.5t-41 -8t-41 8t-33 22.5t-22 33.5 t-8 40z" />
<glyph unicode="&#x14c;" horiz-adv-x="1760" d="M80 800q0 331 234 565q235 235 566 235q330 0 565 -235q118 -118 176.5 -258t58.5 -307q0 -331 -235 -566q-234 -234 -565 -234q-332 0 -566 234t-234 566zM292 800q0 -244 172 -416t416 -172t416 172t172 416q0 243 -172 415q-173 173 -416 173q-124 0 -226.5 -43 t-189.5 -130t-129.5 -189t-42.5 -226zM544 1835q0 44 29.5 74.5t74.5 30.5h456q45 0 74.5 -30.5t29.5 -74.5q0 -45 -29.5 -74.5t-74.5 -29.5h-456q-45 0 -74.5 29.5t-29.5 74.5z" />
<glyph unicode="&#x14d;" d="M80 560q0 232 164 396t396 164q230 0 396 -164q82 -82 122.5 -181t41.5 -215q0 -234 -164 -396q-166 -164 -396 -164q-232 0 -396 164t-164 396zM289 560q0 -72 27.5 -136t74.5 -111.5t111 -75.5t138 -28q73 0 137 28t111.5 76t75 111.5t27.5 135.5t-27.5 135.5 t-75 111.5t-111.5 76t-137 28q-74 0 -138 -28t-111 -75.5t-74.5 -111.5t-27.5 -136zM304 1355q0 44 29.5 74.5t74.5 30.5h456q45 0 74.5 -30.5t29.5 -74.5q0 -45 -29.5 -74.5t-74.5 -29.5h-456q-45 0 -74.5 29.5t-29.5 74.5z" />
<glyph unicode="&#x14e;" horiz-adv-x="1760" d="M80 800q0 331 234 565q235 235 566 235q330 0 565 -235q118 -118 176.5 -258t58.5 -307q0 -331 -235 -566q-234 -234 -565 -234q-332 0 -566 234t-234 566zM292 800q0 -244 172 -416t416 -172t416 172t172 416q0 243 -172 415q-173 173 -416 173q-124 0 -226.5 -43 t-189.5 -130t-129.5 -189t-42.5 -226zM550 1975q0 44 29.5 74.5t74.5 30.5t75 -30q22 -23 27 -54q3 -28 38 -47q37 -21 89 -21t89 21q35 19 37 47q6 31 28 54q30 30 75 30t74.5 -30.5t29.5 -74.5q0 -54 -26.5 -101t-71.5 -81.5t-105.5 -54t-129.5 -19.5t-129.5 19.5 t-105.5 54t-71.5 81.5t-26.5 101z" />
<glyph unicode="&#x14f;" d="M80 560q0 232 164 396t396 164q230 0 396 -164q82 -82 122.5 -181t41.5 -215q0 -234 -164 -396q-166 -164 -396 -164q-232 0 -396 164t-164 396zM289 560q0 -72 27.5 -136t74.5 -111.5t111 -75.5t138 -28q73 0 137 28t111.5 76t75 111.5t27.5 135.5t-27.5 135.5 t-75 111.5t-111.5 76t-137 28q-74 0 -138 -28t-111 -75.5t-74.5 -111.5t-27.5 -136zM310 1495q0 44 29.5 74.5t74.5 30.5t75 -30q22 -23 27 -54q3 -28 38 -47q37 -21 89 -21t89 21q35 19 37 47q6 31 28 54q30 30 75 30t74.5 -30.5t29.5 -74.5q0 -54 -26.5 -101t-71.5 -81.5 t-105.5 -54t-129.5 -19.5t-129.5 19.5t-105.5 54t-71.5 81.5t-26.5 101z" />
<glyph unicode="&#x150;" horiz-adv-x="1760" d="M80 800q0 331 234 565q235 235 566 235q330 0 565 -235q118 -118 176.5 -258t58.5 -307q0 -331 -235 -566q-234 -234 -565 -234q-332 0 -566 234t-234 566zM292 800q0 -244 172 -416t416 -172t416 172t172 416q0 243 -172 415q-173 173 -416 173q-124 0 -226.5 -43 t-189.5 -130t-129.5 -189t-42.5 -226zM600 1726q0 14 5 32l79 254q9 28 37 47.5t60 19.5q22 0 41.5 -8.5t34 -23t22.5 -33.5t8 -40q0 -17 -9 -39l-114 -242q-25 -52 -79 -52q-15 0 -30 5.5t-27 16t-20 26.5t-8 37zM894 1726q0 14 5 32l79 254q9 28 37 47.5t60 19.5 q22 0 41.5 -8.5t34 -23t22.5 -33.5t8 -40q0 -17 -9 -39l-114 -242q-25 -52 -79 -52q-15 0 -30 5.5t-27 16t-20 26.5t-8 37z" />
<glyph unicode="&#x151;" d="M80 560q0 232 164 396t396 164q230 0 396 -164q82 -82 122.5 -181t41.5 -215q0 -234 -164 -396q-166 -164 -396 -164q-232 0 -396 164t-164 396zM289 560q0 -72 27.5 -136t74.5 -111.5t111 -75.5t138 -28q73 0 137 28t111.5 76t75 111.5t27.5 135.5t-27.5 135.5 t-75 111.5t-111.5 76t-137 28q-74 0 -138 -28t-111 -75.5t-74.5 -111.5t-27.5 -136zM360 1287q0 14 5 32l79 254q9 28 37 47.5t60 19.5q22 0 41.5 -8.5t34 -23t22.5 -33.5t8 -40q0 -17 -9 -39l-114 -242q-25 -52 -79 -52q-15 0 -30 5.5t-27 16t-20 26.5t-8 37zM654 1287 q0 14 5 32l79 254q9 28 37 47.5t60 19.5q22 0 41.5 -8.5t34 -23t22.5 -33.5t8 -40q0 -17 -9 -39l-114 -242q-25 -52 -79 -52q-15 0 -30 5.5t-27 16t-20 26.5t-8 37z" />
<glyph unicode="&#x152;" horiz-adv-x="2160" d="M84 800q0 331 234 565q235 235 566 235h1080q22 0 41.5 -8t34 -22.5t22.5 -34t8 -41.5q0 -23 -8 -42t-22.5 -33.5t-34 -22.5t-41.5 -8h-820v-482h589q22 0 41.5 -8t34 -22.5t22.5 -34t8 -41.5q0 -23 -8.5 -42.5t-22.5 -33.5t-33.5 -22.5t-41.5 -8.5h-589v-481h819 q22 0 41.5 -8t34 -22.5t22.5 -34t8 -41.5q0 -23 -8 -42t-22.5 -33.5t-34 -22.5t-41.5 -8h-1079q-332 0 -566 234t-234 566zM296 800q0 -245 171 -416q172 -172 417 -172h48v1176h-48q-244 0 -417 -173q-171 -171 -171 -415z" />
<glyph unicode="&#x153;" horiz-adv-x="2240" d="M92 560q0 232 164 396t396 164q141 0 251.5 -58.5t204.5 -174.5q48 58 98.5 101.5t106 73t117.5 44t133 14.5q232 0 396 -164t164 -396q0 -45 -29.5 -74.5t-74.5 -29.5h-793q18 -57 51.5 -102.5t78 -77.5t97.5 -49.5t110 -17.5q66 0 121 20t102 60q32 26 69 26 q44 0 74.5 -29.5t30.5 -74.5q0 -46 -31 -75q-155 -136 -366 -136q-232 0 -396 164q-31 31 -59 69q-93 -117 -204 -175t-252 -58q-232 0 -396 164t-164 396zM301 560q0 -73 27.5 -137t75 -111.5t111.5 -75t137 -27.5t137 27.5t111.5 75t75 111.5t27.5 137t-27.5 137 t-75 111.5t-111.5 75t-137 27.5t-137 -27.5t-111.5 -75t-75 -111.5t-27.5 -137zM1226 664h674q-17 55 -50.5 101t-78.5 78t-98 50t-110 18q-56 0 -110 -18t-99 -50.5t-78.5 -78t-49.5 -100.5z" />
<glyph unicode="&#x154;" horiz-adv-x="1200" d="M75 106v1388q0 22 8 41.5t22.5 34t33.5 22.5t42 8h386q101 0 190.5 -39t156 -106t105.5 -156.5t39 -190.5q0 -66 -16.5 -128.5t-49 -118t-81 -103t-112.5 -83.5l319 -511q17 -28 17 -58q0 -23 -8 -42t-22.5 -33.5t-34 -22.5t-41.5 -8q-56 0 -91 52l-353 565h-298v-511 q0 -44 -31 -75t-75 -31t-75 31t-31 75zM287 829h280q58 0 109 22t88.5 60.5t59.5 89t22 107.5q0 58 -22 109t-60 89t-89 60t-108 22h-280v-559zM344 1778q0 43 26 71l200 199q32 31 74 31q45 0 74.5 -30.5t29.5 -74.5q0 -45 -28 -73l-200 -199q-28 -28 -72 -28 q-45 0 -74.5 29.5t-29.5 74.5z" />
<glyph unicode="&#x155;" horiz-adv-x="960" d="M76 104v912q0 43 30.5 73.5t74.5 30.5q43 0 73.5 -30.5t30.5 -73.5v-20q75 60 163 92t188 32q44 0 94.5 -6t93 -21.5t70.5 -42.5t28 -70q0 -22 -8.5 -41t-22.5 -33.5t-33 -22.5t-41 -8q-19 0 -44 11q-63 25 -137 25q-73 0 -137 -27.5t-111.5 -75t-75 -111.5t-27.5 -137 v-456q0 -43 -30.5 -73.5t-73.5 -30.5q-44 0 -74.5 30.5t-30.5 73.5zM342 1298q0 43 26 71l200 199q32 31 74 31q45 0 74.5 -30.5t29.5 -74.5q0 -45 -28 -73l-200 -199q-28 -28 -72 -28q-45 0 -74.5 29.5t-29.5 74.5z" />
<glyph unicode="&#x156;" horiz-adv-x="1200" d="M75 106v1388q0 22 8 41.5t22.5 34t33.5 22.5t42 8h386q101 0 190.5 -39t156 -106t105.5 -156.5t39 -190.5q0 -66 -16.5 -128.5t-49 -118t-81 -103t-112.5 -83.5l319 -511q17 -28 17 -58q0 -23 -8 -42t-22.5 -33.5t-34 -22.5t-41.5 -8q-56 0 -91 52l-353 565h-298v-511 q0 -44 -31 -75t-75 -31t-75 31t-31 75zM287 829h280q58 0 109 22t88.5 60.5t59.5 89t22 107.5q0 58 -22 109t-60 89t-89 60t-108 22h-280v-559zM353 -309q0 44 29.5 74.5t74.5 30.5q29 1 56 -16l72 -45q12 -6 24 -6q47 0 47 23q-1 22 -47 22q-45 0 -75 30t-30 75 q1 41 37 61.5t102 20.5q79 -4 146 -53q76 -61 76 -160q0 -97 -78 -163q-72 -65 -178 -65q-64 0 -123 31l-87 53q-46 37 -46 87z" />
<glyph unicode="&#x157;" horiz-adv-x="960" d="M76 104v912q0 43 30.5 73.5t74.5 30.5q43 0 73.5 -30.5t30.5 -73.5v-20q75 60 163 92t188 32q44 0 94.5 -6t93 -21.5t70.5 -42.5t28 -70q0 -22 -8.5 -41t-22.5 -33.5t-33 -22.5t-41 -8q-19 0 -44 11q-63 25 -137 25q-73 0 -137 -27.5t-111.5 -75t-75 -111.5t-27.5 -137 v-456q0 -43 -30.5 -73.5t-73.5 -30.5q-44 0 -74.5 30.5t-30.5 73.5zM151 -309q0 44 29.5 74.5t74.5 30.5q29 1 56 -16l72 -45q12 -6 24 -6q47 0 47 23q-1 22 -47 22q-45 0 -75 30t-30 75q1 41 37 61.5t102 20.5q79 -4 146 -53q76 -61 76 -160q0 -97 -78 -163 q-72 -65 -178 -65q-64 0 -123 31l-87 53q-46 37 -46 87z" />
<glyph unicode="&#x158;" horiz-adv-x="1200" d="M75 106v1388q0 22 8 41.5t22.5 34t33.5 22.5t42 8h386q101 0 190.5 -39t156 -106t105.5 -156.5t39 -190.5q0 -66 -16.5 -128.5t-49 -118t-81 -103t-112.5 -83.5l319 -511q17 -28 17 -58q0 -23 -8 -42t-22.5 -33.5t-34 -22.5t-41.5 -8q-56 0 -91 52l-353 565h-298v-511 q0 -44 -31 -75t-75 -31t-75 31t-31 75zM145 1976q0 45 29.5 74.5t74.5 29.5q36 0 66 -22l162 -107l162 107q31 22 66 22q45 0 74.5 -29.5t29.5 -74.5q0 -52 -50 -90l-228 -151q-25 -16 -54 -16t-54 16l-229 151q-49 37 -49 90zM287 829h280q58 0 109 22t88.5 60.5t59.5 89 t22 107.5q0 58 -22 109t-60 89t-89 60t-108 22h-280v-559z" />
<glyph unicode="&#x159;" horiz-adv-x="960" d="M76 104v912q0 43 30.5 73.5t74.5 30.5q43 0 73.5 -30.5t30.5 -73.5v-20q75 60 163 92t188 32q44 0 94.5 -6t93 -21.5t70.5 -42.5t28 -70q0 -22 -8.5 -41t-22.5 -33.5t-33 -22.5t-41 -8q-19 0 -44 11q-63 25 -137 25q-73 0 -137 -27.5t-111.5 -75t-75 -111.5t-27.5 -137 v-456q0 -43 -30.5 -73.5t-73.5 -30.5q-44 0 -74.5 30.5t-30.5 73.5zM143 1496q0 45 29.5 74.5t74.5 29.5q36 0 66 -22l162 -107l162 107q31 22 66 22q45 0 74.5 -29.5t29.5 -74.5q0 -52 -50 -90l-228 -151q-25 -16 -54 -16t-54 16l-229 151q-49 37 -49 90z" />
<glyph unicode="&#x15a;" horiz-adv-x="1060" d="M74 286q0 22 8 41.5t22.5 34t33.5 22.5t42 8q59 0 89 -49q42 -65 105 -98t136 -33q57 0 107.5 22.5t88 60.5t59.5 89.5t22 109.5q0 55 -20.5 103.5t-55.5 85t-81.5 59.5t-98.5 28q-80 7 -149 42t-121 90.5t-81.5 127t-29.5 151.5q0 98 37 177.5t109 141.5h-1 q115 100 270 100q50 0 100 -12.5t96.5 -38t87 -63.5t72.5 -89q15 -26 15 -57q0 -23 -8 -42t-22.5 -33.5t-34 -22.5t-41.5 -8q-20 0 -35.5 6t-28 17t-24 25.5t-24.5 33.5q-24 35 -65.5 52.5t-89.5 17.5q-38 0 -74 -15.5t-64 -42.5t-45.5 -64t-17.5 -80q0 -39 14.5 -74 t39.5 -62.5t58.5 -45t72.5 -20.5q93 -7 175 -48t143.5 -106.5t97.5 -150.5t36 -179q0 -234 -173 -380h1q-139 -118 -316 -118q-59 0 -118 14.5t-113.5 42.5t-102 70t-82.5 95q-21 27 -21 64zM421 1778q0 43 26 71l200 199q32 31 74 31q45 0 74.5 -30.5t29.5 -74.5 q0 -45 -28 -73l-200 -199q-28 -28 -72 -28q-45 0 -74.5 29.5t-29.5 74.5z" />
<glyph unicode="&#x15b;" horiz-adv-x="1060" d="M77 788q0 76 40.5 137.5t105.5 104.5t146.5 66.5t163.5 23.5q250 0 429 -201q21 -26 21 -63q0 -45 -29.5 -74.5t-74.5 -29.5q-32 0 -54.5 18t-43.5 39q-102 102 -248 102q-144 0 -230 -88q-16 -16 -16 -44t26 -38l468 -154q98 -38 132 -74h-1q76 -77 76 -181 q0 -77 -40.5 -138t-105.5 -104.5t-146 -66.5t-163 -23q-252 0 -429 199q-22 29 -22 65q0 45 29.5 74.5t74.5 29.5q33 0 56 -19.5t42 -37.5q102 -102 249 -102q143 0 230 90q15 17 15 41q0 28 -27 39l-467 154q-94 36 -132 74h1q-76 77 -76 181zM383 1298q0 43 26 71l200 199 q32 31 74 31q45 0 74.5 -30.5t29.5 -74.5q0 -45 -28 -73l-200 -199q-28 -28 -72 -28q-45 0 -74.5 29.5t-29.5 74.5z" />
<glyph unicode="&#x15c;" horiz-adv-x="1060" d="M74 286q0 22 8 41.5t22.5 34t33.5 22.5t42 8q59 0 89 -49q42 -65 105 -98t136 -33q57 0 107.5 22.5t88 60.5t59.5 89.5t22 109.5q0 55 -20.5 103.5t-55.5 85t-81.5 59.5t-98.5 28q-80 7 -149 42t-121 90.5t-81.5 127t-29.5 151.5q0 98 37 177.5t109 141.5h-1 q115 100 270 100q50 0 100 -12.5t96.5 -38t87 -63.5t72.5 -89q15 -26 15 -57q0 -23 -8 -42t-22.5 -33.5t-34 -22.5t-41.5 -8q-20 0 -35.5 6t-28 17t-24 25.5t-24.5 33.5q-24 35 -65.5 52.5t-89.5 17.5q-38 0 -74 -15.5t-64 -42.5t-45.5 -64t-17.5 -80q0 -39 14.5 -74 t39.5 -62.5t58.5 -45t72.5 -20.5q93 -7 175 -48t143.5 -106.5t97.5 -150.5t36 -179q0 -234 -173 -380h1q-139 -118 -316 -118q-59 0 -118 14.5t-113.5 42.5t-102 70t-82.5 95q-21 27 -21 64zM224 1823q0 53 49 90l229 151q25 16 54 16t54 -16l228 -151q50 -38 50 -90 q0 -45 -29.5 -74.5t-74.5 -29.5q-35 0 -66 22l-162 107l-162 -107q-30 -22 -66 -22q-45 0 -74.5 29.5t-29.5 74.5z" />
<glyph unicode="&#x15d;" horiz-adv-x="1060" d="M77 788q0 76 40.5 137.5t105.5 104.5t146.5 66.5t163.5 23.5q250 0 429 -201q21 -26 21 -63q0 -45 -29.5 -74.5t-74.5 -29.5q-32 0 -54.5 18t-43.5 39q-102 102 -248 102q-144 0 -230 -88q-16 -16 -16 -44t26 -38l468 -154q98 -38 132 -74h-1q76 -77 76 -181 q0 -77 -40.5 -138t-105.5 -104.5t-146 -66.5t-163 -23q-252 0 -429 199q-22 29 -22 65q0 45 29.5 74.5t74.5 29.5q33 0 56 -19.5t42 -37.5q102 -102 249 -102q143 0 230 90q15 17 15 41q0 28 -27 39l-467 154q-94 36 -132 74h1q-76 77 -76 181zM204 1343q0 53 49 90l229 151 q25 16 54 16t54 -16l228 -151q50 -38 50 -90q0 -45 -29.5 -74.5t-74.5 -29.5q-35 0 -66 22l-162 107l-162 -107q-30 -22 -66 -22q-45 0 -74.5 29.5t-29.5 74.5z" />
<glyph unicode="&#x15e;" horiz-adv-x="1060" d="M74 286q0 22 8 41.5t22.5 34t33.5 22.5t42 8q59 0 89 -49q42 -65 105 -98t136 -33q57 0 107.5 22.5t88 60.5t59.5 89.5t22 109.5q0 55 -20.5 103.5t-55.5 85t-81.5 59.5t-98.5 28q-80 7 -149 42t-121 90.5t-81.5 127t-29.5 151.5q0 98 37 177.5t109 141.5h-1 q115 100 270 100q50 0 100 -12.5t96.5 -38t87 -63.5t72.5 -89q15 -26 15 -57q0 -23 -8 -42t-22.5 -33.5t-34 -22.5t-41.5 -8q-20 0 -35.5 6t-28 17t-24 25.5t-24.5 33.5q-24 35 -65.5 52.5t-89.5 17.5q-38 0 -74 -15.5t-64 -42.5t-45.5 -64t-17.5 -80q0 -39 14.5 -74 t39.5 -62.5t58.5 -45t72.5 -20.5q93 -7 175 -48t143.5 -106.5t97.5 -150.5t36 -179q0 -234 -173 -380h1q-139 -118 -316 -118q-59 0 -118 14.5t-113.5 42.5t-102 70t-82.5 95q-21 27 -21 64zM222 -308q0 44 29.5 74.5t74.5 30.5q29 1 56 -16l72 -45q12 -6 24 -6q47 0 47 22 t-45 25q-45 0 -81.5 33.5t-23.5 85.5l40 139q6 23 28 47q31 28 73 28q45 0 74.5 -30.5t29.5 -74.5q0 -11 -3 -23l-9 -35q126 -74 126 -198q0 -97 -77 -163q-73 -65 -179 -65q-64 0 -123 31l-87 53q-46 37 -46 87z" />
<glyph unicode="&#x15f;" horiz-adv-x="1060" d="M77 788q0 76 40.5 137.5t105.5 104.5t146.5 66.5t163.5 23.5q250 0 429 -201q21 -26 21 -63q0 -45 -29.5 -74.5t-74.5 -29.5q-32 0 -54.5 18t-43.5 39q-102 102 -248 102q-144 0 -230 -88q-16 -16 -16 -44t26 -38l468 -154q98 -38 132 -74h-1q76 -77 76 -181 q0 -77 -40.5 -138t-105.5 -104.5t-146 -66.5t-163 -23q-252 0 -429 199q-22 29 -22 65q0 45 29.5 74.5t74.5 29.5q33 0 56 -19.5t42 -37.5q102 -102 249 -102q143 0 230 90q15 17 15 41q0 28 -27 39l-467 154q-94 36 -132 74h1q-76 77 -76 181zM232 -308q0 44 29.5 74.5 t74.5 30.5q29 1 56 -16l72 -45q12 -6 24 -6q47 0 47 22t-45 25q-45 0 -81.5 33.5t-23.5 85.5l40 139q6 23 28 47q31 28 73 28q45 0 74.5 -30.5t29.5 -74.5q0 -11 -3 -23l-9 -35q126 -74 126 -198q0 -97 -77 -163q-73 -65 -179 -65q-64 0 -123 31l-87 53q-46 37 -46 87z" />
<glyph unicode="&#x160;" horiz-adv-x="1060" d="M74 286q0 22 8 41.5t22.5 34t33.5 22.5t42 8q59 0 89 -49q42 -65 105 -98t136 -33q57 0 107.5 22.5t88 60.5t59.5 89.5t22 109.5q0 55 -20.5 103.5t-55.5 85t-81.5 59.5t-98.5 28q-80 7 -149 42t-121 90.5t-81.5 127t-29.5 151.5q0 98 37 177.5t109 141.5h-1 q115 100 270 100q50 0 100 -12.5t96.5 -38t87 -63.5t72.5 -89q15 -26 15 -57q0 -23 -8 -42t-22.5 -33.5t-34 -22.5t-41.5 -8q-20 0 -35.5 6t-28 17t-24 25.5t-24.5 33.5q-24 35 -65.5 52.5t-89.5 17.5q-38 0 -74 -15.5t-64 -42.5t-45.5 -64t-17.5 -80q0 -39 14.5 -74 t39.5 -62.5t58.5 -45t72.5 -20.5q93 -7 175 -48t143.5 -106.5t97.5 -150.5t36 -179q0 -234 -173 -380h1q-139 -118 -316 -118q-59 0 -118 14.5t-113.5 42.5t-102 70t-82.5 95q-21 27 -21 64zM224 1976q0 45 29.5 74.5t74.5 29.5q36 0 66 -22l162 -107l162 107q31 22 66 22 q45 0 74.5 -29.5t29.5 -74.5q0 -52 -50 -90l-228 -151q-25 -16 -54 -16t-54 16l-229 151q-49 37 -49 90z" />
<glyph unicode="&#x161;" horiz-adv-x="1060" d="M77 788q0 76 40.5 137.5t105.5 104.5t146.5 66.5t163.5 23.5q250 0 429 -201q21 -26 21 -63q0 -45 -29.5 -74.5t-74.5 -29.5q-32 0 -54.5 18t-43.5 39q-102 102 -248 102q-144 0 -230 -88q-16 -16 -16 -44t26 -38l468 -154q98 -38 132 -74h-1q76 -77 76 -181 q0 -77 -40.5 -138t-105.5 -104.5t-146 -66.5t-163 -23q-252 0 -429 199q-22 29 -22 65q0 45 29.5 74.5t74.5 29.5q33 0 56 -19.5t42 -37.5q102 -102 249 -102q143 0 230 90q15 17 15 41q0 28 -27 39l-467 154q-94 36 -132 74h1q-76 77 -76 181zM204 1496q0 45 29.5 74.5 t74.5 29.5q36 0 66 -22l162 -107l162 107q31 22 66 22q45 0 74.5 -29.5t29.5 -74.5q0 -52 -50 -90l-228 -151q-25 -16 -54 -16t-54 16l-229 151q-49 37 -49 90z" />
<glyph unicode="&#x162;" horiz-adv-x="1360" d="M77 1494q0 44 31 75t75 31h1002q44 0 75 -31t31 -75t-31 -75t-75 -31h-395v-1282q0 -44 -31 -75t-75 -31t-75 31t-31 75v1282h-395q-44 0 -75 31t-31 75zM391 -217q0 44 29.5 74.5t74.5 30.5q29 1 56 -16l72 -45q12 -6 24 -6q47 0 47 22t-45 25q-45 0 -81.5 33.5 t-23.5 85.5l40 139q6 23 28 47q31 28 73 28q45 0 74.5 -30.5t29.5 -74.5q0 -11 -3 -23l-9 -35q126 -74 126 -198q0 -97 -77 -163q-73 -65 -179 -65q-64 0 -123 31l-87 53q-46 37 -46 87z" />
<glyph unicode="&#x163;" horiz-adv-x="800" d="M75 1016q0 43 30.5 73.5t72.5 30.5h47v376q0 43 30.5 73.5t74.5 30.5q43 0 73.5 -30.5t30.5 -73.5v-376h125q43 0 73 -30.5t30 -73.5q0 -44 -30 -74.5t-73 -30.5h-125v-503q0 -199 200 -199q43 0 73 -30.5t30 -73.5q0 -44 -30 -74.5t-73 -30.5q-409 0 -409 408v503h-47 q-42 0 -72.5 30.5t-30.5 74.5zM231 -288q0 44 29.5 74.5t74.5 30.5q29 1 56 -16l72 -45q12 -6 24 -6q47 0 47 22t-45 25q-45 0 -81.5 33.5t-23.5 85.5l40 139q6 23 28 47q31 28 73 28q45 0 74.5 -30.5t29.5 -74.5q0 -11 -3 -23l-9 -35q126 -74 126 -198q0 -97 -77 -163 q-73 -65 -179 -65q-64 0 -123 31l-87 53q-46 37 -46 87z" />
<glyph unicode="&#x164;" horiz-adv-x="1360" d="M77 1494q0 44 31 75t75 31h1002q44 0 75 -31t31 -75t-31 -75t-75 -31h-395v-1282q0 -44 -31 -75t-75 -31t-75 31t-31 75v1282h-395q-44 0 -75 31t-31 75zM343 1976q0 45 29.5 74.5t74.5 29.5q36 0 66 -22l162 -107l162 107q31 22 66 22q45 0 74.5 -29.5t29.5 -74.5 q0 -52 -50 -90l-228 -151q-25 -16 -54 -16t-54 16l-229 151q-49 37 -49 90z" />
<glyph unicode="&#x165;" horiz-adv-x="1040" d="M75 1016q0 43 30.5 73.5t72.5 30.5h47v376q0 43 30.5 73.5t74.5 30.5q43 0 73.5 -30.5t30.5 -73.5v-376h125q43 0 73 -30.5t30 -73.5q0 -44 -30 -74.5t-73 -30.5h-125v-503q0 -199 200 -199q43 0 73 -30.5t30 -73.5q0 -44 -30 -74.5t-73 -30.5q-409 0 -409 408v503h-47 q-42 0 -72.5 30.5t-30.5 74.5zM716 1000q0 17 7 35q45 110 45 209q0 94 -41 182q-11 25 -11 49q0 26 10 48.5t26.5 39.5t39.5 26.5t48 9.5q46 0 79 -32t54 -78.5t30.5 -96t9.5 -92.5q0 -177 -151 -358q-27 -27 -61 -27q-35 0 -60 25t-25 60z" />
<glyph unicode="&#x166;" horiz-adv-x="1360" d="M76 1494q0 22 8.5 41.5t23 33.5t34 22.5t41.5 8.5h1002q22 0 41.5 -8t34 -22.5t22.5 -34t8 -41.5q0 -23 -8 -42t-22.5 -33.5t-34 -22.5t-41.5 -8h-395v-559h279q22 0 41.5 -8t34 -22.5t22.5 -34t8 -41.5q0 -23 -8 -42t-22.5 -33.5t-34 -22.5t-41.5 -8h-279v-511 q0 -23 -8 -42t-22.5 -33.5t-34 -22.5t-41.5 -8q-23 0 -42 8t-33.5 22.5t-22.5 33.5t-8 42v511h-280q-23 0 -42 8t-33.5 22.5t-22.5 33.5t-8 42q0 22 8 41.5t22.5 34t33.5 22.5t42 8h280v559h-395q-22 0 -41.5 8.5t-34 22.5t-23 33.5t-8.5 41.5z" />
<glyph unicode="&#x167;" horiz-adv-x="800" d="M73 636q0 45 29.5 74.5t74.5 29.5h48v171h-47q-45 0 -74.5 30t-29.5 75q0 21 8 40t22 33.5t33 22.5t41 8h47v351q0 22 8 41t22.5 33t33.5 22.5t41 8.5q45 0 74.5 -30.5t29.5 -74.5v-351h125q22 0 41 -8t33 -22.5t22 -33.5t8 -40q0 -45 -29.5 -75t-74.5 -30h-125v-171h124 q45 0 74.5 -29.5t29.5 -74.5t-29.5 -74.5t-74.5 -29.5h-124v-124q0 -199 200 -199q21 0 40 -8.5t33.5 -22.5t22.5 -33t8 -41q0 -21 -8 -40t-22.5 -33.5t-33.5 -22.5t-40 -8q-409 0 -409 408v124h-48q-45 0 -74.5 29.5t-29.5 74.5z" />
<glyph unicode="&#x168;" d="M76 569v925q0 44 31 75t75 31t75 -31t31 -75v-925q0 -73 28 -138t76 -113.5t113 -77t139 -28.5t139 28t113.5 77t76.5 113.5t28 138.5v925q0 44 31 75t75 31t75 -31t31 -75v-925q0 -78 -20.5 -150t-57.5 -135.5t-89 -115.5t-115.5 -89.5t-136 -58t-150.5 -20.5 q-236 0 -401 167q-167 167 -167 402zM231 1882q1 47 31 75.5t73 28.5q36 0 81 -33t84 -33q43 0 73 27q87 82 219 82q37 0 83.5 -11.5t86.5 -33.5t67.5 -54t27.5 -72q0 -45 -30.5 -74.5t-74.5 -29.5q-32 0 -79.5 33t-83.5 33q-41 0 -74 -27q-90 -82 -219 -82q-38 0 -84 11 t-86.5 33t-67.5 53.5t-27 73.5z" />
<glyph unicode="&#x169;" horiz-adv-x="1200" d="M79 522v494q0 43 30.5 73.5t74.5 30.5q43 0 73.5 -30.5t30.5 -73.5v-494q0 -65 24.5 -122t67 -99.5t99.5 -67t122 -24.5q64 0 121 24.5t100 67.5t67.5 99.5t24.5 121.5v494q0 43 30.5 73.5t74.5 30.5q43 0 73.5 -30.5t30.5 -73.5v-912q0 -43 -30.5 -73.5t-74.5 -30.5 q-45 0 -74 30t-30 73q-69 -54 -146 -78.5t-167 -24.5q-107 0 -202 41.5t-166 112.5t-112.5 166t-41.5 202zM191 1402q1 47 31 75.5t73 28.5q36 0 81 -33t84 -33q43 0 73 27q87 82 219 82q37 0 83.5 -11.5t86.5 -33.5t67.5 -54t27.5 -72q0 -45 -30.5 -74.5t-74.5 -29.5 q-32 0 -79.5 33t-83.5 33q-41 0 -74 -27q-90 -82 -219 -82q-38 0 -84 11t-86.5 33t-67.5 53.5t-27 73.5z" />
<glyph unicode="&#x16a;" d="M76 569v925q0 44 31 75t75 31t75 -31t31 -75v-925q0 -73 28 -138t76 -113.5t113 -77t139 -28.5t139 28t113.5 77t76.5 113.5t28 138.5v925q0 44 31 75t75 31t75 -31t31 -75v-925q0 -78 -20.5 -150t-57.5 -135.5t-89 -115.5t-115.5 -89.5t-136 -58t-150.5 -20.5 q-236 0 -401 167q-167 167 -167 402zM304 1835q0 44 29.5 74.5t74.5 30.5h456q45 0 74.5 -30.5t29.5 -74.5q0 -45 -29.5 -74.5t-74.5 -29.5h-456q-45 0 -74.5 29.5t-29.5 74.5z" />
<glyph unicode="&#x16b;" horiz-adv-x="1200" d="M79 522v494q0 43 30.5 73.5t74.5 30.5q43 0 73.5 -30.5t30.5 -73.5v-494q0 -65 24.5 -122t67 -99.5t99.5 -67t122 -24.5q64 0 121 24.5t100 67.5t67.5 99.5t24.5 121.5v494q0 43 30.5 73.5t74.5 30.5q43 0 73.5 -30.5t30.5 -73.5v-912q0 -43 -30.5 -73.5t-74.5 -30.5 q-45 0 -74 30t-30 73q-69 -54 -146 -78.5t-167 -24.5q-107 0 -202 41.5t-166 112.5t-112.5 166t-41.5 202zM264 1355q0 44 29.5 74.5t74.5 30.5h456q45 0 74.5 -30.5t29.5 -74.5q0 -45 -29.5 -74.5t-74.5 -29.5h-456q-45 0 -74.5 29.5t-29.5 74.5z" />
<glyph unicode="&#x16c;" d="M76 569v925q0 44 31 75t75 31t75 -31t31 -75v-925q0 -73 28 -138t76 -113.5t113 -77t139 -28.5t139 28t113.5 77t76.5 113.5t28 138.5v925q0 44 31 75t75 31t75 -31t31 -75v-925q0 -78 -20.5 -150t-57.5 -135.5t-89 -115.5t-115.5 -89.5t-136 -58t-150.5 -20.5 q-236 0 -401 167q-167 167 -167 402zM310 1975q0 44 29.5 74.5t74.5 30.5t75 -30q22 -23 27 -54q3 -28 38 -47q37 -21 89 -21t89 21q35 19 37 47q6 31 28 54q30 30 75 30t74.5 -30.5t29.5 -74.5q0 -54 -26.5 -101t-71.5 -81.5t-105.5 -54t-129.5 -19.5t-129.5 19.5 t-105.5 54t-71.5 81.5t-26.5 101z" />
<glyph unicode="&#x16d;" horiz-adv-x="1200" d="M79 522v494q0 43 30.5 73.5t74.5 30.5q43 0 73.5 -30.5t30.5 -73.5v-494q0 -65 24.5 -122t67 -99.5t99.5 -67t122 -24.5q64 0 121 24.5t100 67.5t67.5 99.5t24.5 121.5v494q0 43 30.5 73.5t74.5 30.5q43 0 73.5 -30.5t30.5 -73.5v-912q0 -43 -30.5 -73.5t-74.5 -30.5 q-45 0 -74 30t-30 73q-69 -54 -146 -78.5t-167 -24.5q-107 0 -202 41.5t-166 112.5t-112.5 166t-41.5 202zM270 1495q0 44 29.5 74.5t74.5 30.5t75 -30q22 -23 27 -54q3 -28 38 -47q37 -21 89 -21t89 21q35 19 37 47q6 31 28 54q30 30 75 30t74.5 -30.5t29.5 -74.5 q0 -54 -26.5 -101t-71.5 -81.5t-105.5 -54t-129.5 -19.5t-129.5 19.5t-105.5 54t-71.5 81.5t-26.5 101z" />
<glyph unicode="&#x16e;" d="M76 569v925q0 44 31 75t75 31t75 -31t31 -75v-925q0 -73 28 -138t76 -113.5t113 -77t139 -28.5t139 28t113.5 77t76.5 113.5t28 138.5v925q0 44 31 75t75 31t75 -31t31 -75v-925q0 -78 -20.5 -150t-57.5 -135.5t-89 -115.5t-115.5 -89.5t-136 -58t-150.5 -20.5 q-236 0 -401 167q-167 167 -167 402zM420 1859q0 45 17.5 85t47.5 70t70 47.5t85 17.5t85 -18t70 -48t47 -70t17 -84q0 -45 -17.5 -85t-47.5 -70t-69.5 -47.5t-84.5 -17.5t-85 17t-70 47t-47.5 70t-17.5 86zM572 1859q0 -28 20 -47.5t48 -19.5q27 0 46.5 19.5t19.5 47.5 q0 27 -19.5 47t-46.5 20q-28 0 -48 -20t-20 -47z" />
<glyph unicode="&#x16f;" horiz-adv-x="1200" d="M79 522v494q0 43 30.5 73.5t74.5 30.5q43 0 73.5 -30.5t30.5 -73.5v-494q0 -65 24.5 -122t67 -99.5t99.5 -67t122 -24.5q64 0 121 24.5t100 67.5t67.5 99.5t24.5 121.5v494q0 43 30.5 73.5t74.5 30.5q43 0 73.5 -30.5t30.5 -73.5v-912q0 -43 -30.5 -73.5t-74.5 -30.5 q-45 0 -74 30t-30 73q-69 -54 -146 -78.5t-167 -24.5q-107 0 -202 41.5t-166 112.5t-112.5 166t-41.5 202zM380 1379q0 45 17.5 85t47.5 70t70 47.5t85 17.5t85 -18t70 -48t47 -70t17 -84q0 -45 -17.5 -85t-47.5 -70t-69.5 -47.5t-84.5 -17.5t-85 17t-70 47t-47.5 70 t-17.5 86zM532 1379q0 -28 20 -47.5t48 -19.5q27 0 46.5 19.5t19.5 47.5q0 27 -19.5 47t-46.5 20q-28 0 -48 -20t-20 -47z" />
<glyph unicode="&#x170;" d="M76 569v925q0 44 31 75t75 31t75 -31t31 -75v-925q0 -73 28 -138t76 -113.5t113 -77t139 -28.5t139 28t113.5 77t76.5 113.5t28 138.5v925q0 44 31 75t75 31t75 -31t31 -75v-925q0 -78 -20.5 -150t-57.5 -135.5t-89 -115.5t-115.5 -89.5t-136 -58t-150.5 -20.5 q-236 0 -401 167q-167 167 -167 402zM360 1727q0 14 5 32l79 254q9 28 37 47.5t60 19.5q22 0 41.5 -8.5t34 -23t22.5 -33.5t8 -40q0 -17 -9 -39l-114 -242q-25 -52 -79 -52q-15 0 -30 5.5t-27 16t-20 26.5t-8 37zM654 1727q0 14 5 32l79 254q9 28 37 47.5t60 19.5 q22 0 41.5 -8.5t34 -23t22.5 -33.5t8 -40q0 -17 -9 -39l-114 -242q-25 -52 -79 -52q-15 0 -30 5.5t-27 16t-20 26.5t-8 37z" />
<glyph unicode="&#x171;" horiz-adv-x="1200" d="M79 522v494q0 43 30.5 73.5t74.5 30.5q43 0 73.5 -30.5t30.5 -73.5v-494q0 -65 24.5 -122t67 -99.5t99.5 -67t122 -24.5q64 0 121 24.5t100 67.5t67.5 99.5t24.5 121.5v494q0 43 30.5 73.5t74.5 30.5q43 0 73.5 -30.5t30.5 -73.5v-912q0 -43 -30.5 -73.5t-74.5 -30.5 q-45 0 -74 30t-30 73q-69 -54 -146 -78.5t-167 -24.5q-107 0 -202 41.5t-166 112.5t-112.5 166t-41.5 202zM320 1247q0 14 5 32l79 254q9 28 37 47.5t60 19.5q22 0 41.5 -8.5t34 -23t22.5 -33.5t8 -40q0 -17 -9 -39l-114 -242q-25 -52 -79 -52q-15 0 -30 5.5t-27 16 t-20 26.5t-8 37zM614 1247q0 14 5 32l79 254q9 28 37 47.5t60 19.5q22 0 41.5 -8.5t34 -23t22.5 -33.5t8 -40q0 -17 -9 -39l-114 -242q-25 -52 -79 -52q-15 0 -30 5.5t-27 16t-20 26.5t-8 37z" />
<glyph unicode="&#x172;" d="M76 569v925q0 44 31 75t75 31t75 -31t31 -75v-925q0 -73 28 -138t76 -113.5t113 -77t139 -28.5t139 28t113.5 77t76.5 113.5t28 138.5v925q0 44 31 75t75 31t75 -31t31 -75v-925q0 -78 -20.5 -150t-57.5 -135.5t-89 -115.5t-115.5 -89.5t-136 -58t-150.5 -20.5 q-236 0 -401 167q-167 167 -167 402zM392 -220q0 124 107 208q42 35 57 66q13 26 36 40.5t55 14.5q44 0 73.5 -29t31.5 -73q0 -46 -33 -93t-97 -94q-22 -18 -22 -40q0 -20 14 -34t34 -14q14 0 25 8l63 47q27 21 64 21q45 0 74.5 -29.5t29.5 -74.5q0 -51 -38 -83l-77 -53 q-65 -45 -141 -45q-51 0 -97.5 20t-82 55t-56 82t-20.5 100z" />
<glyph unicode="&#x173;" d="M79 522v494q0 43 30.5 73.5t74.5 30.5q43 0 73.5 -30.5t30.5 -73.5v-494q0 -65 24.5 -122t67 -99.5t99.5 -67t122 -24.5q64 0 121 24.5t100 67.5t67.5 99.5t24.5 121.5v494q0 43 30.5 73.5t74.5 30.5q43 0 73.5 -30.5t30.5 -73.5v-912q0 -43 -30.5 -73.5t-74.5 -30.5 q-45 0 -74 30t-30 73q-69 -54 -146 -78.5t-167 -24.5q-107 0 -202 41.5t-166 112.5t-112.5 166t-41.5 202zM763 -130q0 124 107 208q42 35 57 66q13 26 36 40.5t55 14.5q44 0 73.5 -29t31.5 -73q0 -46 -33 -93t-97 -94q-22 -18 -22 -40q0 -20 14 -34t34 -14q14 0 25 8l63 47 q27 21 64 21q45 0 74.5 -29.5t29.5 -74.5q0 -51 -38 -83l-77 -53q-65 -45 -141 -45q-51 0 -97.5 20t-82 55t-56 82t-20.5 100z" />
<glyph unicode="&#x174;" horiz-adv-x="1920" d="M82 1494q0 44 31 75t75 31t75 -31q17 -18 25 -40l285 -1027l284 1026q8 31 36.5 51.5t65.5 20.5q32 0 60.5 -18.5t39.5 -52.5l285 -1027l286 1027q7 22 25 40q31 31 75 31t74.5 -31t30.5 -75q-1 -20 -7 -42l-377 -1366q-14 -39 -42 -62.5t-65 -23.5q-45 0 -74 32 q-21 22 -32 52l-279 1011l-279 -1009q-14 -39 -42 -62.5t-65 -23.5q-45 0 -75 32q-20 20 -31 52l-379 1369q-6 23 -6 41zM624 1823q0 53 49 90l229 151q25 16 54 16t54 -16l228 -151q50 -38 50 -90q0 -45 -29.5 -74.5t-74.5 -29.5q-35 0 -66 22l-162 107l-162 -107 q-30 -22 -66 -22q-45 0 -74.5 29.5t-29.5 74.5z" />
<glyph unicode="&#x175;" horiz-adv-x="1600" d="M84 1016q0 21 8 40t22 33.5t33 22.5t41 8q36 0 60.5 -17t33.5 -41l210 -627l203 608q26 77 101 77q74 0 100 -77l203 -609l210 628q8 26 32 42t62 16q22 0 41 -8t33 -22.5t22.5 -33.5t8.5 -40q0 -19 -8 -40l-303 -909q-9 -29 -33 -48t-65 -19q-35 0 -62 20t-35 47 l-206 618l-206 -618q-9 -29 -36 -48t-62 -19t-61.5 19t-36.5 48l-303 909q-7 22 -7 40zM464 1343q0 53 49 90l229 151q25 16 54 16t54 -16l228 -151q50 -38 50 -90q0 -45 -29.5 -74.5t-74.5 -29.5q-35 0 -66 22l-162 107l-162 -107q-30 -22 -66 -22q-45 0 -74.5 29.5 t-29.5 74.5z" />
<glyph unicode="&#x176;" d="M76 1494q0 44 31 75t75 31q56 0 86 -44l376 -563l376 563q31 44 87 44q44 0 74.5 -31t30.5 -75q0 -36 -16 -60l-446 -666v-662q0 -44 -31 -75t-75 -31q-43 0 -74.5 31t-31.5 75v662l-445 666q-17 26 -17 60zM304 1823q0 53 49 90l229 151q25 16 54 16t54 -16l228 -151 q50 -38 50 -90q0 -45 -29.5 -74.5t-74.5 -29.5q-35 0 -66 22l-162 107l-162 -107q-30 -22 -66 -22q-45 0 -74.5 29.5t-29.5 74.5z" />
<glyph unicode="&#x177;" horiz-adv-x="1120" d="M78 1016q0 21 8 40t22 33.5t33 22.5t41 8q31 0 58 -17.5t41 -51.5l281 -671l281 673q12 30 34.5 48.5t63.5 18.5q22 0 41 -8t33 -22.5t22.5 -33.5t8.5 -40q0 -22 -11 -47l-575 -1379q-13 -31 -40 -50.5t-59 -19.5q-45 0 -74.5 30t-29.5 75q0 24 10 46l181 433l-360 865 q-10 23 -10 47zM224 1343q0 53 49 90l229 151q25 16 54 16t54 -16l228 -151q50 -38 50 -90q0 -45 -29.5 -74.5t-74.5 -29.5q-35 0 -66 22l-162 107l-162 -107q-30 -22 -66 -22q-45 0 -74.5 29.5t-29.5 74.5z" />
<glyph unicode="&#x178;" d="M76 1494q0 44 31 75t75 31q56 0 86 -44l376 -563l376 563q31 44 87 44q44 0 74.5 -31t30.5 -75q0 -36 -16 -60l-446 -666v-662q0 -44 -31 -75t-75 -31q-43 0 -74.5 31t-31.5 75v662l-445 666q-17 26 -17 60zM293 1839q0 51 36 87t87 36t87 -36t36 -87t-36 -87t-87 -36 t-87 36t-36 87zM748 1839q0 51 36 87t87 36t87 -36t36 -87t-36 -87t-87 -36t-87 36t-36 87z" />
<glyph unicode="&#x179;" horiz-adv-x="1440" d="M77 106q1 38 22 66l947 1216h-863q-43 0 -74.5 31t-31.5 75t31.5 75t74.5 31h1080q22 0 41.5 -8t34 -22.5t22.5 -34t8 -41.5q0 -33 -20 -62l-949 -1220h863q45 -1 75.5 -32t30.5 -75t-30.5 -74.5t-74.5 -30.5h-1081q-23 0 -42 8t-33.5 22.5t-22.5 33.5t-8 42zM611 1778 q0 43 26 71l200 199q32 31 74 31q45 0 74.5 -30.5t29.5 -74.5q0 -45 -28 -73l-200 -199q-28 -28 -72 -28q-45 0 -74.5 29.5t-29.5 74.5z" />
<glyph unicode="&#x17a;" horiz-adv-x="1120" d="M78 104q0 37 21 65l619 742h-536q-42 0 -72.5 30.5t-30.5 74.5q0 43 30.5 73.5t72.5 30.5h759q22 0 41 -8t33 -22.5t22.5 -33.5t8.5 -40q0 -41 -25 -69l-618 -738h538q43 0 73 -30.5t30 -73.5q0 -44 -30 -74.5t-73 -30.5h-759q-22 0 -41 8t-33 22.5t-22 33.5t-8 40z M451 1298q0 43 26 71l200 199q32 31 74 31q45 0 74.5 -30.5t29.5 -74.5q0 -45 -28 -73l-200 -199q-28 -28 -72 -28q-45 0 -74.5 29.5t-29.5 74.5z" />
<glyph unicode="&#x17b;" horiz-adv-x="1440" d="M77 106q1 38 22 66l947 1216h-863q-43 0 -74.5 31t-31.5 75t31.5 75t74.5 31h1080q22 0 41.5 -8t34 -22.5t22.5 -34t8 -41.5q0 -33 -20 -62l-949 -1220h863q45 -1 75.5 -32t30.5 -75t-30.5 -74.5t-74.5 -30.5h-1081q-23 0 -42 8t-33.5 22.5t-22.5 33.5t-8 42zM579 1859 q0 59 41.5 100.5t100.5 41.5t100.5 -41.5t41.5 -100.5t-41.5 -100.5t-100.5 -41.5t-100.5 41.5t-41.5 100.5z" />
<glyph unicode="&#x17c;" horiz-adv-x="1120" d="M78 104q0 37 21 65l619 742h-536q-42 0 -72.5 30.5t-30.5 74.5q0 43 30.5 73.5t72.5 30.5h759q22 0 41 -8t33 -22.5t22.5 -33.5t8.5 -40q0 -41 -25 -69l-618 -738h538q43 0 73 -30.5t30 -73.5q0 -44 -30 -74.5t-73 -30.5h-759q-22 0 -41 8t-33 22.5t-22 33.5t-8 40z M419 1379q0 59 41.5 100.5t100.5 41.5t100.5 -41.5t41.5 -100.5t-41.5 -100.5t-100.5 -41.5t-100.5 41.5t-41.5 100.5z" />
<glyph unicode="&#x17d;" horiz-adv-x="1440" d="M77 106q1 38 22 66l947 1216h-863q-43 0 -74.5 31t-31.5 75t31.5 75t74.5 31h1080q22 0 41.5 -8t34 -22.5t22.5 -34t8 -41.5q0 -33 -20 -62l-949 -1220h863q45 -1 75.5 -32t30.5 -75t-30.5 -74.5t-74.5 -30.5h-1081q-23 0 -42 8t-33.5 22.5t-22.5 33.5t-8 42zM384 1976 q0 45 29.5 74.5t74.5 29.5q36 0 66 -22l162 -107l162 107q31 22 66 22q45 0 74.5 -29.5t29.5 -74.5q0 -52 -50 -90l-228 -151q-25 -16 -54 -16t-54 16l-229 151q-49 37 -49 90z" />
<glyph unicode="&#x17e;" horiz-adv-x="1120" d="M78 104q0 37 21 65l619 742h-536q-42 0 -72.5 30.5t-30.5 74.5q0 43 30.5 73.5t72.5 30.5h759q22 0 41 -8t33 -22.5t22.5 -33.5t8.5 -40q0 -41 -25 -69l-618 -738h538q43 0 73 -30.5t30 -73.5q0 -44 -30 -74.5t-73 -30.5h-759q-22 0 -41 8t-33 22.5t-22 33.5t-8 40z M224 1496q0 45 29.5 74.5t74.5 29.5q36 0 66 -22l162 -107l162 107q31 22 66 22q45 0 74.5 -29.5t29.5 -74.5q0 -52 -50 -90l-228 -151q-25 -16 -54 -16t-54 16l-229 151q-49 37 -49 90z" />
<glyph unicode="&#x17f;" horiz-adv-x="640" d="M53 104v1011q0 484 484 484q45 0 74.5 -30.5t29.5 -74.5q0 -45 -29.5 -74.5t-74.5 -29.5q-276 0 -276 -275v-1011q0 -21 -8 -40t-22 -33.5t-33 -22.5t-41 -8t-41 8t-33 22.5t-22 33.5t-8 40z" />
<glyph unicode="&#x192;" horiz-adv-x="960" d="M0 -374q0 45 29.5 74.5t74.5 29.5q275 0 276 275v849h-48q-45 0 -74.5 30t-29.5 75t29.5 74.5t74.5 29.5h47v52q0 484 484 484q22 0 41 -8.5t33 -22.5t22.5 -33t8.5 -41q0 -45 -30.5 -74.5t-74.5 -29.5q-275 0 -275 -275v-52h200q44 0 74.5 -29.5t30.5 -74.5 q0 -22 -8.5 -41t-22.5 -33.5t-33 -22.5t-41 -8h-200v-849q0 -484 -484 -484q-45 0 -74.5 30t-29.5 75z" />
<glyph unicode="&#x1fa;" horiz-adv-x="1440" d="M77 107q0 22 9 43l521 1341q-53 31 -79.5 83.5t-26.5 106.5q0 85 60 153q-18 28 -18 60q0 41 28 71l81 82q32 31 76 31q22 0 41.5 -8.5t33.5 -23t22.5 -34t8.5 -41.5q0 -41 -32 -77q34 -12 62 -34.5t47 -50.5t29.5 -61t10.5 -67q0 -56 -25.5 -106.5t-76.5 -83.5 l520 -1341q9 -24 9 -43q0 -23 -8 -42.5t-22.5 -34t-34 -22.5t-41.5 -8q-32 0 -59 17.5t-41 47.5l-186 479h-516l-188 -479q-17 -33 -42.5 -49t-55.5 -16q-23 0 -42.5 8t-34 22.5t-22.5 34t-8 42.5zM552 757h351l-175 453zM658 1681q0 -28 19.5 -48t49.5 -20q28 0 47.5 20 t19.5 48t-19.5 48.5t-47.5 20.5q-30 0 -49.5 -20.5t-19.5 -48.5z" />
<glyph unicode="&#x1fb;" d="M80 560q0 232 164 396t396 164q230 0 396 -164q164 -164 164 -396v-456q0 -43 -30.5 -73.5t-73.5 -30.5q-44 0 -74.5 30.5t-30.5 73.5v20q-75 -60 -163 -92t-188 -32q-232 0 -396 164t-164 396zM289 560q0 -72 27.5 -136t74.5 -111.5t111 -75.5t138 -28q73 0 137 28 t111.5 76t75 111.5t27.5 135.5t-27.5 135.5t-75 111.5t-111.5 76t-137 28q-74 0 -138 -28t-111 -75.5t-74.5 -111.5t-27.5 -136zM420 1379q0 45 17.5 85t47.5 70t70 47.5t85 17.5t85 -18t70 -48t47 -70t17 -84q0 -45 -17.5 -85t-47.5 -70t-69.5 -47.5t-84.5 -17.5t-85 17 t-70 47t-47.5 70t-17.5 86zM504 1777q0 43 26 71l200 199q32 31 74 31q45 0 74.5 -30.5t29.5 -74.5q0 -45 -28 -73l-200 -199q-28 -28 -72 -28q-45 0 -74.5 29.5t-29.5 74.5zM572 1379q0 -28 20 -47.5t48 -19.5q27 0 46.5 19.5t19.5 47.5q0 27 -19.5 47t-46.5 20 q-28 0 -48 -20t-20 -47z" />
<glyph unicode="&#x1fc;" horiz-adv-x="1760" d="M80 106q0 29 15 53l772 1391q27 50 90 50h617q22 0 41.5 -8t34 -22.5t22.5 -34t8 -41.5q0 -23 -8 -42t-22.5 -33.5t-34 -22.5t-41.5 -8h-511v-559h357q22 0 41.5 -8t34 -22.5t22.5 -34t8 -41.5q0 -23 -8 -42t-22.5 -33.5t-34 -22.5t-41.5 -8h-357v-405h511q22 0 41.5 -8 t34 -22.5t22.5 -34t8 -41.5q0 -23 -8 -42t-22.5 -33.5t-34 -22.5t-41.5 -8h-617q-23 0 -42 8t-33.5 22.5t-22.5 33.5t-8 42v511h-259l-317 -570q-32 -47 -89 -47q-23 0 -42 8t-33.5 22.5t-22.5 33.5t-8 42zM710 829h141v255zM904 1778q0 43 26 71l200 199q32 31 74 31 q45 0 74.5 -30.5t29.5 -74.5q0 -45 -28 -73l-200 -199q-28 -28 -72 -28q-45 0 -74.5 29.5t-29.5 74.5z" />
<glyph unicode="&#x1fd;" horiz-adv-x="2240" d="M92 560q0 232 164 396t396 164q141 0 251.5 -58.5t204.5 -174.5q48 58 98.5 101.5t106 73t117.5 44t133 14.5q232 0 396 -164t164 -396q0 -45 -29.5 -74.5t-74.5 -29.5h-793q18 -57 51.5 -102.5t78 -77.5t97.5 -49.5t110 -17.5q66 0 121 20t102 60q32 26 69 26 q44 0 74.5 -29.5t30.5 -74.5t-31 -75q-155 -136 -366 -136q-100 0 -188 32t-163 92v-20q0 -21 -8 -40t-22.5 -33.5t-33.5 -22.5t-40 -8q-22 0 -41 8t-33.5 22.5t-22.5 33.5t-8 40v20q-75 -60 -163 -92t-188 -32q-232 0 -396 164t-164 396zM301 560q0 -73 27.5 -137 t75 -111.5t111.5 -75t137 -27.5t137 27.5t111.5 75t75 111.5t27.5 137t-27.5 137t-75 111.5t-111.5 75t-137 27.5t-137 -27.5t-111.5 -75t-75 -111.5t-27.5 -137zM1011 1298q0 43 26 71l200 199q32 31 74 31q45 0 74.5 -30.5t29.5 -74.5q0 -45 -28 -73l-200 -199 q-28 -28 -72 -28q-45 0 -74.5 29.5t-29.5 74.5zM1226 664h674q-17 55 -50.5 101t-78.5 78t-98 50t-110 18q-56 0 -110 -18t-99 -50.5t-78.5 -78t-49.5 -100.5z" />
<glyph unicode="&#x1fe;" horiz-adv-x="1760" d="M80 106q0 44 28 72l136 136q-84 106 -124 226t-40 260q0 331 234 565q235 235 566 235q140 0 260 -40t226 -124l133 133q31 31 75 31q22 0 41.5 -8t34 -22.5t22.5 -34t8 -41.5q0 -39 -24 -67l-140 -141q84 -106 124 -226t40 -260q0 -331 -235 -566q-234 -234 -565 -234 q-140 0 -260 40t-226 124l-133 -134q-32 -30 -75 -30q-23 0 -42 8t-33.5 22.5t-22.5 33.5t-8 42zM292 800q0 -189 103 -334l820 819q-146 103 -335 103q-124 0 -226.5 -43t-189.5 -130t-129.5 -189t-42.5 -226zM546 315q145 -103 334 -103q244 0 416 172t172 416 q0 185 -104 334zM744 1778q0 43 26 71l200 199q32 31 74 31q45 0 74.5 -30.5t29.5 -74.5q0 -45 -28 -73l-200 -199q-28 -28 -72 -28q-45 0 -74.5 29.5t-29.5 74.5z" />
<glyph unicode="&#x1ff;" d="M80 104q0 21 6.5 39.5t21.5 33.5l69 68q-97 136 -97 315q0 232 164 396t396 164q180 0 316 -97l63 64q31 33 76 33q22 0 41 -8t33 -22.5t22.5 -33.5t8.5 -40q0 -42 -30 -73l-67 -68q97 -137 97 -315q0 -234 -164 -396q-166 -164 -396 -164q-179 0 -315 97l-70 -73 q-27 -24 -71 -24q-22 0 -41 8t-33 22.5t-22 33.5t-8 40zM289 560q0 -91 38 -164l477 475q-37 21 -78 30.5t-86 9.5q-74 0 -138 -28t-111 -75.5t-74.5 -111.5t-27.5 -136zM476 248q37 -20 77.5 -29.5t86.5 -9.5q73 0 137 28t111.5 76t75 111.5t27.5 135.5q0 46 -9.5 86.5 t-29.5 77.5zM504 1298q0 43 26 71l200 199q32 31 74 31q45 0 74.5 -30.5t29.5 -74.5q0 -45 -28 -73l-200 -199q-28 -28 -72 -28q-45 0 -74.5 29.5t-29.5 74.5z" />
<glyph unicode="&#x2c6;" horiz-adv-x="800" d="M64 1343q0 53 49 90l229 151q25 16 54 16t54 -16l228 -151q50 -38 50 -90q0 -45 -29.5 -74.5t-74.5 -29.5q-35 0 -66 22l-162 107l-162 -107q-30 -22 -66 -22q-45 0 -74.5 29.5t-29.5 74.5z" />
<glyph unicode="&#x2c7;" horiz-adv-x="800" d="M64 1496q0 45 29.5 74.5t74.5 29.5q36 0 66 -22l162 -107l162 107q31 22 66 22q45 0 74.5 -29.5t29.5 -74.5q0 -52 -50 -90l-228 -151q-25 -16 -54 -16t-54 16l-229 151q-49 37 -49 90z" />
<glyph unicode="&#x2d8;" horiz-adv-x="800" d="M64 1495q0 44 29.5 74.5t74.5 30.5t75 -30q22 -23 27 -54q3 -28 38 -47q37 -21 89 -21t89 21q35 19 37 47q6 31 28 54q30 30 75 30t74.5 -30.5t29.5 -74.5q0 -54 -26.5 -101t-71.5 -81.5t-105.5 -54t-129.5 -19.5t-129.5 19.5t-105.5 54t-71.5 81.5t-26.5 101z" />
<glyph unicode="&#x2d9;" horiz-adv-x="400" d="M59 1379q0 59 41.5 100.5t100.5 41.5t100.5 -41.5t41.5 -100.5t-41.5 -100.5t-100.5 -41.5t-100.5 41.5t-41.5 100.5z" />
<glyph unicode="&#x2da;" horiz-adv-x="560" d="M61 1379q0 45 17.5 85t47.5 70t70 47.5t85 17.5t85 -18t70 -48t47 -70t17 -84q0 -45 -17.5 -85t-47.5 -70t-69.5 -47.5t-84.5 -17.5t-85 17t-70 47t-47.5 70t-17.5 86zM213 1379q0 -28 20 -47.5t48 -19.5q27 0 46.5 19.5t19.5 47.5q0 27 -19.5 47t-46.5 20q-28 0 -48 -20 t-20 -47z" />
<glyph unicode="&#x2db;" horiz-adv-x="640" d="M72 -223q0 124 107 208q42 35 57 66q13 26 36 40.5t55 14.5q44 0 73.5 -29t31.5 -73q0 -46 -33 -93t-97 -94q-22 -18 -22 -40q0 -20 14 -34t34 -14q14 0 25 8l63 47q27 21 64 21q45 0 74.5 -29.5t29.5 -74.5q0 -51 -38 -83l-77 -53q-65 -45 -141 -45q-51 0 -97.5 20 t-82 55t-56 82t-20.5 100z" />
<glyph unicode="&#x2dc;" horiz-adv-x="960" d="M67 1402q1 47 31 75.5t73 28.5q36 0 81 -33t84 -33q43 0 73 27q87 82 219 82q37 0 83.5 -11.5t86.5 -33.5t67.5 -54t27.5 -72q0 -45 -30.5 -74.5t-74.5 -29.5q-32 0 -79.5 33t-83.5 33q-41 0 -74 -27q-90 -82 -219 -82q-38 0 -84 11t-86.5 33t-67.5 53.5t-27 73.5z" />
<glyph unicode="&#x2dd;" horiz-adv-x="720" d="M80 1247q0 14 5 32l79 254q9 28 37 47.5t60 19.5q22 0 41.5 -8.5t34 -23t22.5 -33.5t8 -40q0 -17 -9 -39l-114 -242q-25 -52 -79 -52q-15 0 -30 5.5t-27 16t-20 26.5t-8 37zM374 1247q0 14 5 32l79 254q9 28 37 47.5t60 19.5q22 0 41.5 -8.5t34 -23t22.5 -33.5t8 -40 q0 -17 -9 -39l-114 -242q-25 -52 -79 -52q-15 0 -30 5.5t-27 16t-20 26.5t-8 37z" />
<glyph unicode="&#x3a9;" horiz-adv-x="1760" d="M80 106q0 22 8 41.5t22.5 34t33.5 22.5t42 8h76q-91 121 -136.5 266.5t-45.5 321.5q0 331 234 565q235 235 566 235q330 0 565 -235q118 -118 176.5 -257.5t58.5 -307.5q0 -167 -41 -307.5t-141 -280.5h76q22 0 41.5 -8t34 -22.5t22.5 -34t8 -41.5q0 -23 -8 -42 t-22.5 -33.5t-34 -22.5t-41.5 -8h-463q-22 0 -41 8.5t-33.5 22.5t-23 33.5t-8.5 41.5t8.5 41.5t23 33.5t33.5 22.5t41 8.5q74 0 139 47t113.5 127.5t76.5 187.5t28 226q0 243 -172 415q-173 173 -416 173q-124 0 -226.5 -43t-189.5 -130t-129.5 -189t-42.5 -226 q0 -119 28 -226t76 -187.5t113 -127.5t140 -47q22 0 41.5 -8t34 -22.5t22.5 -34t8 -41.5q0 -23 -8 -42t-22.5 -33.5t-34 -22.5t-41.5 -8h-463q-23 0 -42 8t-33.5 22.5t-22.5 33.5t-8 42z" />
<glyph unicode="&#x3c0;" d="M80 1016q0 21 8 40t22 33.5t33 22.5t41 8h911q22 0 41 -8t33 -22.5t22.5 -33.5t8.5 -40q0 -22 -8.5 -41t-22.5 -33.5t-33 -22.5t-41 -8h-47v-807q0 -21 -8.5 -40t-22.5 -33.5t-33 -22.5t-41 -8q-21 0 -40 8t-33.5 22.5t-22.5 33.5t-8 40v807h-399v-807q0 -21 -8 -40 t-22 -33.5t-33 -22.5t-41 -8t-41 8t-33 22.5t-22 33.5t-8 40v807h-48q-45 0 -74.5 30t-29.5 75z" />
<glyph unicode="&#x401;" d="M76 106v1388q0 22 8 41.5t22.5 34t33.5 22.5t42 8h925q44 0 75 -31t31 -75t-31 -75t-75 -31h-819v-482h588q44 0 75 -31t31 -75t-31 -75t-75 -31h-588v-482h819q44 0 75 -31t31 -75t-31 -75t-75 -31h-925q-23 0 -42 8t-33.5 22.5t-22.5 33.5t-8 42zM294 1839q0 51 36 87 t87 36t87 -36t36 -87t-36 -87t-87 -36t-87 36t-36 87zM749 1839q0 51 36 87t87 36t87 -36t36 -87t-36 -87t-87 -36t-87 36t-36 87z" />
<glyph unicode="&#x402;" horiz-adv-x="1640" d="M79 1494q0 22 8 41.5t22.5 34t33.5 22.5t42 8h1002q22 0 41.5 -8t34 -22.5t22.5 -34t8 -41.5q0 -23 -8 -42t-22.5 -33.5t-34 -22.5t-41.5 -8h-395v-492q121 87 280 87q102 0 191 -39t156 -106t105.5 -156.5t38.5 -189.5q0 -101 -39 -190.5t-105.5 -156.5t-156 -106 t-190.5 -39q-23 0 -42 8t-33.5 22.5t-22.5 33.5t-8 42q0 22 8 41.5t22.5 34t33.5 22.5t42 8q58 0 109 22t88.5 60t59.5 89t22 109q0 57 -22 108t-60 89t-89 60t-108 22q-59 0 -110 -22t-89 -60t-59.5 -88.5t-21.5 -107.5v-387q0 -23 -8 -42t-22.5 -33.5t-34 -22.5t-41.5 -8 q-23 0 -42 8t-33.5 22.5t-22.5 33.5t-8 42v1282h-395q-23 0 -42 8t-33.5 22.5t-22.5 33.5t-8 42z" />
<glyph unicode="&#x403;" horiz-adv-x="1200" d="M74 115q0 1 2 7v1372q0 22 8 41.5t22.5 34t33.5 22.5t42 8h847q22 0 41.5 -8t34 -22.5t22.5 -34t8 -41.5q0 -23 -8 -42t-22.5 -33.5t-34 -22.5t-41.5 -8h-742v-1283q0 -21 -8.5 -40t-23 -33.5t-34 -23t-40.5 -8.5q-50 0 -78.5 33.5t-28.5 81.5zM531 1778q0 43 26 71 l200 199q32 31 74 31q45 0 74.5 -30.5t29.5 -74.5q0 -45 -28 -73l-200 -199q-28 -28 -72 -28q-45 0 -74.5 29.5t-29.5 74.5z" />
<glyph unicode="&#x404;" horiz-adv-x="1480" d="M78 800q0 331 234 565q235 235 566 235q284 0 513 -187q28 -26 28 -73q0 -23 -8 -42t-22.5 -33.5t-34 -22.5t-41.5 -8q-37 0 -73 30q-76 60 -167.5 92t-194.5 32q-105 0 -202 -36.5t-175 -101t-131.5 -152.5t-71.5 -192h657q45 0 75.5 -30.5t30.5 -75.5q0 -23 -8 -42 t-22.5 -33.5t-34 -22.5t-41.5 -8h-657q18 -103 72 -191.5t132 -153t174.5 -101t201.5 -36.5q209 0 368 129q27 19 62 19q22 0 41 -8.5t33.5 -22.5t23 -33.5t8.5 -41.5q0 -47 -33 -76q-223 -178 -503 -178q-332 0 -566 234t-234 566z" />
<glyph unicode="&#x405;" horiz-adv-x="1060" d="M74 286q0 22 8 41.5t22.5 34t33.5 22.5t42 8q59 0 89 -49q42 -65 105 -98t136 -33q57 0 107.5 22.5t88 60.5t59.5 89.5t22 109.5q0 55 -20.5 103.5t-55.5 85t-81.5 59.5t-98.5 28q-80 7 -149 42t-121 90.5t-81.5 127t-29.5 151.5q0 98 37 177.5t109 141.5h-1 q115 100 270 100q50 0 100 -12.5t96.5 -38t87 -63.5t72.5 -89q15 -26 15 -57q0 -23 -8 -42t-22.5 -33.5t-34 -22.5t-41.5 -8q-20 0 -35.5 6t-28 17t-24 25.5t-24.5 33.5q-24 35 -65.5 52.5t-89.5 17.5q-38 0 -74 -15.5t-64 -42.5t-45.5 -64t-17.5 -80q0 -39 14.5 -74 t39.5 -62.5t58.5 -45t72.5 -20.5q93 -7 175 -48t143.5 -106.5t97.5 -150.5t36 -179q0 -234 -173 -380h1q-139 -118 -316 -118q-59 0 -118 14.5t-113.5 42.5t-102 70t-82.5 95q-21 27 -21 64z" />
<glyph unicode="&#x406;" horiz-adv-x="480" d="M146 106v1388q0 44 31 75t75 31t75 -31t31 -75v-1388q0 -44 -31 -75t-75 -31t-75 31t-31 75z" />
<glyph unicode="&#x407;" horiz-adv-x="480" d="M-104 1839q0 51 36 87t87 36t87 -36t36 -87t-36 -87t-87 -36t-87 36t-36 87zM146 106v1388q0 44 31 75t75 31t75 -31t31 -75v-1388q0 -44 -31 -75t-75 -31t-75 31t-31 75zM351 1839q0 51 36 87t87 36t87 -36t36 -87t-36 -87t-87 -36t-87 36t-36 87z" />
<glyph unicode="&#x408;" horiz-adv-x="1120" d="M74 492q0 44 31 75t75 31t75 -31t31 -75q0 -59 22 -110t59.5 -88.5t88.5 -59.5t110 -22q58 0 109 22t88.5 60t59.5 89t22 109v1002q0 44 31 75t75 31t75 -31t31 -75v-1002q0 -101 -39 -190.5t-105.5 -156.5t-156 -106t-190.5 -39q-102 0 -191.5 39t-156 106.5 t-105.5 156.5t-39 190z" />
<glyph unicode="&#x409;" horiz-adv-x="2080" d="M83 106q0 22 9 43l536 1377q10 34 39.5 54t61.5 20q39 0 63.5 -20t37.5 -54l242 -620h466q93 0 175.5 -36t144 -98t97.5 -144t36 -175t-36 -175t-97.5 -144t-144 -98t-175.5 -36h-269q-32 0 -57 15t-42 50l-441 1136l-443 -1136q-12 -31 -39.5 -48t-57.5 -17q-23 0 -42 8 t-33.5 22.5t-22.5 33.5t-8 42zM1154 694l188 -482h196q50 0 94 19t76.5 51.5t51.5 76.5t19 94t-19 94t-51.5 76.5t-76.5 51.5t-94 19h-384z" />
<glyph unicode="&#x40a;" horiz-adv-x="1920" d="M82 106v1388q0 22 8 41.5t22.5 34t33.5 22.5t42 8q22 0 41 -8.5t33.5 -22.5t23 -33.5t8.5 -41.5v-588h559v588q0 22 8 41.5t22.5 34t33.5 22.5t42 8q22 0 41 -8.5t33.5 -22.5t23 -33.5t8.5 -41.5v-588h318q93 0 175.5 -36.5t144 -98.5t97.5 -144.5t36 -173.5 q0 -92 -36 -174t-97.5 -144t-144 -98.5t-175.5 -36.5h-424q-23 0 -42 8t-33.5 22.5t-22.5 33.5t-8 42v588h-559v-588q0 -22 -8.5 -41.5t-23 -33.5t-33.5 -22.5t-41 -8.5q-23 0 -42 8t-33.5 22.5t-22.5 33.5t-8 42zM1065 212h318q49 0 93 19t77 51.5t52 76.5t19 94 q0 49 -19 93t-52 77t-77 52t-93 19h-318v-482z" />
<glyph unicode="&#x40b;" horiz-adv-x="1640" d="M79 1494q0 22 8 41.5t22.5 34t33.5 22.5t42 8h1002q22 0 41.5 -8t34 -22.5t22.5 -34t8 -41.5q0 -23 -8 -42t-22.5 -33.5t-34 -22.5t-41.5 -8h-395v-492q121 87 280 87q102 0 191 -39t156 -106t105.5 -156.5t38.5 -189.5v-386q0 -23 -8 -42t-22.5 -33.5t-34 -22.5 t-41.5 -8t-41 8.5t-33.5 22.5t-23 33.5t-8.5 41.5v386q0 57 -22 108t-60 89t-89 60t-108 22q-59 0 -110 -22t-89 -60t-59.5 -88.5t-21.5 -107.5v-387q0 -23 -8 -42t-22.5 -33.5t-34 -22.5t-41.5 -8q-23 0 -42 8t-33.5 22.5t-22.5 33.5t-8 42v1282h-395q-23 0 -42 8 t-33.5 22.5t-22.5 33.5t-8 42z" />
<glyph unicode="&#x40c;" horiz-adv-x="1200" d="M75 106v1388q0 22 8 41.5t22.5 34t33.5 22.5t42 8q22 0 41.5 -8t34 -22.5t22.5 -34t8 -41.5v-592l665 665q33 33 77 33q22 0 41.5 -8t34 -22.5t22.5 -34t8 -41.5q0 -44 -31 -75l-524 -525q135 -183 267.5 -362.5t267.5 -362.5q20 -28 20 -60q0 -21 -8 -41t-22 -35 t-33 -24t-41 -9q-59 0 -89 45l1 -1q-67 90 -131 176.5t-127.5 172.5t-127 172.5t-129.5 176.5l-141 -141v-495q0 -23 -8 -42t-22.5 -33.5t-34 -22.5t-41.5 -8q-23 0 -42 8t-33.5 22.5t-22.5 33.5t-8 42zM389 1725q0 39 27 72l235 235q34 31 76 31q22 0 41 -8.5t33.5 -23 t23 -33.5t8.5 -41q0 -41 -30 -75l-235 -235q-31 -28 -73 -28q-22 0 -41.5 8.5t-33.5 23t-22.5 33.5t-8.5 41z" />
<glyph unicode="&#x40e;" horiz-adv-x="1437" d="M77 1494q0 22 8 41.5t22.5 34t33.5 22.5t42 8q60 0 91 -52l449 -833l448 833q28 52 92 52q22 0 41.5 -8t34 -22.5t22.5 -34t8 -41.5q0 -27 -15 -54l-681 -1266q-53 -88 -129 -131t-168 -43q-41 0 -84.5 10t-79 29.5t-58 47.5t-22.5 63q0 22 8 41.5t22.5 34t33.5 22.5 t42 8q19 0 35.5 -7t32.5 -15t33 -15t37 -7q35 0 63.5 16.5t48.5 51.5l115 213l-511 947q-15 28 -15 54zM390 1975q0 44 29.5 74.5t74.5 30.5t75 -30q22 -23 27 -54q3 -28 38 -47q37 -21 89 -21t89 21q35 19 37 47q6 31 28 54q30 30 75 30t74.5 -30.5t29.5 -74.5 q0 -54 -26.5 -101t-71.5 -81.5t-105.5 -54t-129.5 -19.5t-129.5 19.5t-105.5 54t-71.5 81.5t-26.5 101z" />
<glyph unicode="&#x40f;" d="M76 106v1388q0 22 8 41.5t22.5 34t33.5 22.5t42 8q22 0 41.5 -8t34 -22.5t22.5 -34t8 -41.5v-1282h713v1282q0 22 8 41.5t22.5 34t33.5 22.5t42 8q22 0 41.5 -8t34 -22.5t22.5 -34t8 -41.5v-1388q0 -23 -8 -42t-22.5 -33.5t-34 -22.5t-41.5 -8h-357v-202q0 -23 -8 -42 t-22.5 -33.5t-34 -22.5t-41.5 -8t-41 8.5t-33.5 22.5t-23 33.5t-8.5 41.5v202h-356q-23 0 -42 8t-33.5 22.5t-22.5 33.5t-8 42z" />
<glyph unicode="&#x410;" horiz-adv-x="1440" d="M77 106q0 24 11 48l534 1374q32 72 101 72q71 0 101 -72l536 -1379q8 -20 8 -43q0 -44 -31 -75t-75 -31t-74 31q-16 16 -24 34l-185 475h-512l-186 -475q-8 -18 -24 -34q-31 -31 -75 -31t-74.5 31t-30.5 75zM549 752h348l-174 449z" />
<glyph unicode="&#x411;" horiz-adv-x="1120" d="M74 106v1388q0 22 8.5 41.5t23 33.5t33.5 22.5t41 8.5h617q22 0 41.5 -8t34 -22.5t22.5 -34t8 -41.5q0 -23 -8 -42t-22.5 -33.5t-34 -22.5t-41.5 -8h-511v-405h280q102 0 191 -39t156 -106t105.5 -156.5t38.5 -189.5q0 -101 -39 -190.5t-105.5 -156.5t-156 -106 t-190.5 -39h-386q-22 0 -41 8.5t-33.5 22.5t-23 33.5t-8.5 41.5zM286 212h280q58 0 109 22t88.5 60t59.5 89t22 109q0 57 -22 108t-60 89t-89 60t-108 22h-280v-559z" />
<glyph unicode="&#x412;" horiz-adv-x="1120" d="M74 106v1388q0 22 8.5 41.5t23 33.5t33.5 22.5t41 8.5h309q85 0 160.5 -32.5t132 -89t89 -132t32.5 -160.5q0 -152 -94 -265q61 -36 107 -83t77.5 -102.5t47.5 -117t16 -126.5q0 -101 -39 -190.5t-105.5 -156.5t-156 -106t-190.5 -39h-386q-22 0 -41 8.5t-33.5 22.5 t-23 33.5t-8.5 41.5zM286 212h280q58 0 109 22t88.5 60t59.5 89t22 109q0 57 -22 108t-60 89t-89 60t-108 22h-280v-559zM286 983h203q42 0 78.5 16t64 44t43.5 64.5t16 78.5q0 41 -16 77.5t-44 64.5t-64.5 44t-77.5 16h-203v-405z" />
<glyph unicode="&#x413;" horiz-adv-x="1200" d="M74 115q0 1 2 7v1372q0 22 8 41.5t22.5 34t33.5 22.5t42 8h847q22 0 41.5 -8t34 -22.5t22.5 -34t8 -41.5q0 -23 -8 -42t-22.5 -33.5t-34 -22.5t-41.5 -8h-742v-1283q0 -21 -8.5 -40t-23 -33.5t-34 -23t-40.5 -8.5q-50 0 -78.5 33.5t-28.5 81.5z" />
<glyph unicode="&#x414;" horiz-adv-x="1600" d="M79 106q0 22 8 41.5t22.5 34t33.5 22.5t46 8l511 1314q16 39 43 56.5t59 17.5q42 0 66 -22.5t35 -51.5l512 -1314q25 0 44.5 -8t34 -22.5t22.5 -34t8 -41.5v-308q0 -23 -8 -42t-22.5 -33.5t-34 -22.5t-41.5 -8t-41 8.5t-33.5 22.5t-23 33.5t-8.5 41.5v202h-1021v-202 q0 -22 -8.5 -41.5t-23 -33.5t-33.5 -22.5t-41 -8.5q-23 0 -42 8t-33.5 22.5t-22.5 33.5t-8 42v308zM417 212h769l-384 988z" />
<glyph unicode="&#x415;" d="M76 106v1388q0 22 8 41.5t22.5 34t33.5 22.5t42 8h925q44 0 75 -31t31 -75t-31 -75t-75 -31h-819v-482h588q44 0 75 -31t31 -75t-31 -75t-75 -31h-588v-482h819q44 0 75 -31t31 -75t-31 -75t-75 -31h-925q-23 0 -42 8t-33.5 22.5t-22.5 33.5t-8 42z" />
<glyph unicode="&#x416;" horiz-adv-x="2080" d="M83 101q0 38 20 68l535 725l-525 525q-30 30 -30 75q0 22 8 41.5t22.5 34t33.5 22.5t42 8q44 0 77 -33l665 -665v592q0 22 8 41.5t22.5 34t33.5 22.5t42 8q22 0 41.5 -8t34 -22.5t22.5 -34t8 -41.5v-592l665 665q33 33 77 33q22 0 41.5 -8t34 -22.5t22.5 -34t8 -41.5 q-1 -44 -30 -75l-525 -525l535 -725q20 -32 20 -68q0 -42 -31 -71.5t-78 -29.5q-51 0 -83 43l-515 699l-141 -141v-495q0 -23 -8 -42t-22.5 -33.5t-34 -22.5t-41.5 -8q-23 0 -42 8t-33.5 22.5t-22.5 33.5t-8 42v495l-141 142l-514 -700q-32 -43 -84 -43q-37 0 -67 21 q-41 28 -42 80z" />
<glyph unicode="&#x417;" horiz-adv-x="1080" d="M74 472q0 22 8 41.5t22.5 34t33.5 22.5t42 8q22 0 41.5 -8t34 -22.5t22.5 -34t8 -41.5q0 -54 20.5 -101t56 -82.5t82.5 -56t101 -20.5t101 20.5t82.5 56t56 82.5t20.5 101t-21 101.5t-56.5 83t-82.5 56t-100 20.5q-23 0 -42 8t-33.5 22.5t-22.5 33.5t-8 42q0 22 8.5 41 t22.5 33.5t33.5 23t41.5 8.5q46 0 86.5 17.5t70.5 47.5t47.5 70t17.5 86t-17.5 86.5t-47.5 70.5t-70.5 47.5t-86.5 17.5t-86 -17.5t-70 -47.5t-47.5 -70.5t-17.5 -86.5q0 -22 -8.5 -41.5t-23 -33.5t-33.5 -22.5t-41 -8.5q-23 0 -42 8t-33.5 22.5t-22.5 33.5t-8 42 q0 89 34.5 168t93.5 138t137.5 93.5t167.5 34.5t168 -34.5t138 -93.5t93.5 -138t34.5 -168q0 -186 -142 -321q46 -33 80 -76t56.5 -91t33.5 -100.5t11 -105.5q0 -96 -37 -182t-101.5 -150.5t-150.5 -102t-184 -37.5t-183.5 37t-150 101.5t-101.5 150t-37 183.5z" />
<glyph unicode="&#x418;" horiz-adv-x="1440" d="M71 106q0 -23 8 -42t22.5 -33.5t34 -22.5t41.5 -8q47 0 81 37l893 1147v-1078q0 -44 31 -75t75 -31t75 31t31 75v1388q0 22 -8 41.5t-22.5 34t-33.5 22.5t-42 8q-47 0 -82 -39l-892 -1147v1080q0 44 -31 75t-75 31t-75 -31t-31 -75v-1388z" />
<glyph unicode="&#x419;" horiz-adv-x="1440" d="M71 106v1388q0 44 31 75t75 31t75 -31t31 -75v-1080l892 1147q35 39 82 39q23 0 42 -8t33.5 -22.5t22.5 -34t8 -41.5v-1388q0 -44 -31 -75t-75 -31t-75 31t-31 75v1078l-893 -1147q-34 -37 -81 -37q-22 0 -41.5 8t-34 22.5t-22.5 33.5t-8 42zM384 1975q0 44 29.5 74.5 t74.5 30.5t75 -30q22 -23 27 -54q3 -28 38 -47q37 -21 89 -21t89 21q35 19 37 47q6 31 28 54q30 30 75 30t74.5 -30.5t29.5 -74.5q0 -54 -26.5 -101t-71.5 -81.5t-105.5 -54t-129.5 -19.5t-129.5 19.5t-105.5 54t-71.5 81.5t-26.5 101z" />
<glyph unicode="&#x41a;" horiz-adv-x="1200" d="M75 106v1388q0 44 31 75t75 31t75 -31t31 -75v-592l665 665q33 33 77 33q22 0 41.5 -8t34 -22.5t22.5 -34t8 -41.5q0 -44 -31 -75l-524 -525l535 -725q20 -28 20 -60q0 -21 -8 -41t-22 -35t-33 -24t-41 -9q-59 0 -89 45l-514 697l-141 -141v-495q0 -44 -31 -75t-75 -31 t-75 31t-31 75z" />
<glyph unicode="&#x41b;" horiz-adv-x="1440" d="M77 106q0 21 9 43l536 1377q32 74 101 74t101 -74l536 -1377q9 -21 9 -43q0 -23 -8 -42t-22.5 -33.5t-34 -22.5t-41.5 -8q-70 0 -99 65l-441 1136l-442 -1136q-31 -65 -98 -65q-23 0 -42 8t-33.5 22.5t-22.5 33.5t-8 42z" />
<glyph unicode="&#x41c;" horiz-adv-x="1920" d="M82 106q0 -44 31 -75t75 -31t75 31q17 18 25 40l285 1027l284 -1026q8 -31 36.5 -51.5t65.5 -20.5q32 0 60.5 18.5t39.5 52.5l285 1027l286 -1027q7 -22 25 -40q31 -31 75 -31t74.5 31t30.5 75q-1 20 -7 42l-377 1366q-14 39 -42 62.5t-65 23.5q-45 0 -74 -32 q-21 -22 -32 -52l-279 -1011l-279 1009q-14 39 -42 62.5t-65 23.5q-45 0 -75 -32q-20 -20 -31 -52l-379 -1369q-6 -23 -6 -41z" />
<glyph unicode="&#x41d;" d="M76 106v1388q0 44 31 75t75 31t75 -31t31 -75v-588h713v588q0 44 31 75t75 31t75 -31t31 -75v-1388q0 -44 -31 -75t-75 -31t-75 31t-31 75v588h-713v-588q0 -44 -31 -75t-75 -31t-75 31t-31 75z" />
<glyph unicode="&#x41e;" horiz-adv-x="1760" d="M80 800q0 331 234 565q235 235 566 235q330 0 565 -235q118 -118 176.5 -258t58.5 -307q0 -331 -235 -566q-234 -234 -565 -234q-332 0 -566 234t-234 566zM292 800q0 -244 172 -416t416 -172t416 172t172 416q0 243 -172 415q-173 173 -416 173q-124 0 -226.5 -43 t-189.5 -130t-129.5 -189t-42.5 -226z" />
<glyph unicode="&#x41f;" d="M76 106v1388q0 22 8 41.5t22.5 34t33.5 22.5t42 8h925q22 0 41.5 -8t34 -22.5t22.5 -34t8 -41.5v-1388q0 -23 -8 -42t-22.5 -33.5t-34 -22.5t-41.5 -8q-23 0 -42 8t-33.5 22.5t-22.5 33.5t-8 42v1282h-713v-1282q0 -23 -8 -42t-22.5 -33.5t-34 -22.5t-41.5 -8 q-23 0 -42 8t-33.5 22.5t-22.5 33.5t-8 42z" />
<glyph unicode="&#x420;" horiz-adv-x="1080" d="M74 106v1388q0 22 8 41.5t22.5 34t33.5 22.5t42 8h308q72 0 139.5 -19t126.5 -54t108 -83.5t83.5 -107.5t54 -126.5t19.5 -139.5q0 -218 -157 -375q-155 -155 -374 -155h-202v-434q0 -44 -31 -75t-75 -31t-75 31t-31 75zM286 752h202q65 0 122.5 25t101 68t69 101 t25.5 124q0 67 -25.5 125t-69 101t-101.5 67.5t-122 24.5h-202v-636z" />
<glyph unicode="&#x421;" horiz-adv-x="1480" d="M78 800q0 331 234 565q235 235 566 235q284 0 513 -187q28 -27 28 -73q0 -23 -8 -42t-22.5 -33.5t-34 -22.5t-41.5 -8q-39 0 -73 30q-76 60 -167.5 92t-194.5 32q-244 0 -417 -173q-171 -171 -171 -415q0 -245 171 -416q172 -172 417 -172q209 0 368 129q26 18 62 19 q22 0 41 -8.5t33.5 -22.5t23 -33.5t8.5 -41.5q0 -42 -33 -76q-223 -178 -503 -178q-332 0 -566 234t-234 566z" />
<glyph unicode="&#x422;" horiz-adv-x="1360" d="M77 1494q0 44 31 75t75 31h1002q44 0 75 -31t31 -75t-31 -75t-75 -31h-395v-1282q0 -44 -31 -75t-75 -31t-75 31t-31 75v1282h-395q-44 0 -75 31t-31 75z" />
<glyph unicode="&#x423;" horiz-adv-x="1437" d="M77 1494q0 22 8 41.5t22.5 34t33.5 22.5t42 8q60 0 91 -52l449 -833l448 833q28 52 92 52q22 0 41.5 -8t34 -22.5t22.5 -34t8 -41.5q0 -27 -15 -54l-681 -1266q-53 -88 -129 -131t-168 -43q-41 0 -84.5 10t-79 29.5t-58 47.5t-22.5 63q0 22 8 41.5t22.5 34t33.5 22.5 t42 8q19 0 35.5 -7t32.5 -15t33 -15t37 -7q35 0 63.5 16.5t48.5 51.5l115 213l-511 947q-15 28 -15 54z" />
<glyph unicode="&#x424;" horiz-adv-x="1760" d="M80 800q0 121 55.5 231.5t150.5 197.5t221 143.5t267 68.5v53q0 22 8 41.5t22.5 34t33.5 22.5t42 8q22 0 41.5 -8t34 -22.5t22.5 -34t8 -41.5v-53q136 -11 246.5 -56.5t211.5 -125.5q236 -189 236 -459q0 -81 -25.5 -157.5t-71 -145t-109.5 -127t-141 -103t-165 -72.5 t-182 -36v-53q0 -23 -8 -42t-22.5 -33.5t-34 -22.5t-41.5 -8q-23 0 -42 8t-33.5 22.5t-22.5 33.5t-8 42v53q-60 8 -122 24.5t-121 40t-113.5 53.5t-100.5 65q-111 94 -174 210t-63 248zM292 800q0 -77 37 -148.5t101.5 -129.5t152.5 -97.5t191 -52.5v856 q-103 -13 -191.5 -53t-153 -97.5t-101 -129t-36.5 -148.5zM986 372q103 13 191.5 52.5t153 97t101 129.5t36.5 149q0 78 -37 149.5t-102 129t-153 97t-190 52.5v-856z" />
<glyph unicode="&#x425;" horiz-adv-x="1440" d="M77 105q0 38 23 67l489 628l-492 632q-19 27 -19 62q0 44 31 75t75 31q48 0 75 -31l465 -596l465 596q28 31 75 31q44 0 74.5 -31t30.5 -75q0 -35 -19 -62l-491 -632l489 -628q22 -29 22 -67q0 -44 -30.5 -74.5t-74.5 -30.5q-53 0 -83 38l-458 589l-466 -596 q-31 -31 -75 -31t-75 30.5t-31 74.5z" />
<glyph unicode="&#x426;" horiz-adv-x="1440" d="M77 106v1388q0 22 8 41.5t22.5 34t33.5 22.5t42 8q22 0 41.5 -8t34 -22.5t22.5 -34t8 -41.5v-1282h714v1282q0 22 8 41.5t22.5 34t33.5 22.5t42 8q22 0 41 -8.5t33.5 -22.5t23 -33.5t8.5 -41.5v-1282h48q22 0 41.5 -8t34 -22.5t22.5 -34t8 -41.5q0 -190 -76 -346 q-13 -31 -40.5 -49.5t-59.5 -18.5q-22 0 -41 8.5t-33.5 22.5t-23 33.5t-8.5 41.5q0 26 13 50q37 72 44 152h-961q-23 0 -42 8t-33.5 22.5t-22.5 33.5t-8 42z" />
<glyph unicode="&#x427;" d="M76 1108v386q0 22 8 41.5t22.5 34t33.5 22.5t42 8q22 0 41.5 -8t34 -22.5t22.5 -34t8 -41.5v-386q0 -74 28 -138.5t76.5 -113t113 -76.5t138.5 -28q73 0 138 28t114 76t77 113t28 139v386q0 22 8 41.5t22.5 34t33.5 22.5t42 8q22 0 41.5 -8t34 -22.5t22.5 -34t8 -41.5 v-1388q0 -23 -8 -42t-22.5 -33.5t-34 -22.5t-41.5 -8q-23 0 -42 8t-33.5 22.5t-22.5 33.5t-8 42v559q-150 -125 -357 -125q-117 0 -220 45t-180.5 122.5t-122.5 180.5t-45 220z" />
<glyph unicode="&#x428;" horiz-adv-x="1600" d="M79 106v1388q0 22 8 41.5t22.5 34t33.5 22.5t42 8q22 0 41 -8.5t33.5 -22.5t23 -33.5t8.5 -41.5v-1282h405v1282q0 22 8 41.5t22.5 34t33.5 22.5t42 8q22 0 41 -8.5t33.5 -22.5t23 -33.5t8.5 -41.5v-1282h404v1282q0 22 8.5 41.5t23 33.5t33.5 22.5t41 8.5t41.5 -8 t34 -22.5t22.5 -34t8 -41.5v-1388q0 -23 -8 -42t-22.5 -33.5t-34 -22.5t-41.5 -8h-1233q-23 0 -42 8t-33.5 22.5t-22.5 33.5t-8 42z" />
<glyph unicode="&#x429;" horiz-adv-x="1760" d="M80 106v1388q0 22 8 41.5t22.5 34t33.5 22.5t42 8q22 0 41.5 -8t34 -22.5t22.5 -34t8 -41.5v-1282h405v1282q0 22 8 41.5t22.5 34t33.5 22.5t42 8q22 0 41.5 -8t34 -22.5t22.5 -34t8 -41.5v-1282h405v1282q0 22 8 41.5t22.5 34t33.5 22.5t42 8q22 0 41.5 -8t34 -22.5 t22.5 -34t8 -41.5v-1282h48q22 0 41.5 -8t34 -22.5t22.5 -34t8 -41.5q0 -190 -76 -346q-13 -31 -40.5 -49.5t-59.5 -18.5q-22 0 -41 8.5t-33.5 22.5t-23 33.5t-8.5 41.5q0 26 13 50q37 72 44 152h-1269q-23 0 -42 8t-33.5 22.5t-22.5 33.5t-8 42z" />
<glyph unicode="&#x42a;" horiz-adv-x="1360" d="M-1 1494q0 22 8 41.5t22.5 34t33.5 22.5t42 8h308q22 0 41.5 -8t34 -22.5t22.5 -34t8 -41.5v-588h318q93 0 175.5 -36t144 -98t97.5 -144t36 -175t-36 -175t-97.5 -144t-144 -98t-175.5 -36h-424q-23 0 -42 8t-33.5 22.5t-22.5 33.5t-8 42v1282h-202q-23 0 -42 8 t-33.5 22.5t-22.5 33.5t-8 42zM519 212h318q50 0 94 19t76.5 51.5t51.5 76.5t19 94t-19 94t-51.5 76.5t-76.5 51.5t-94 19h-318v-482z" />
<glyph unicode="&#x42b;" horiz-adv-x="1440" d="M77 106v1388q0 22 8 41.5t22.5 34t33.5 22.5t42 8q22 0 41.5 -8t34 -22.5t22.5 -34t8 -41.5v-588h318q93 0 175.5 -36t144 -98t97.5 -144t36 -175t-36 -175t-97.5 -144t-144 -98t-175.5 -36h-424q-23 0 -42 8t-33.5 22.5t-22.5 33.5t-8 42zM289 212h318q50 0 94 19 t76.5 51.5t51.5 76.5t19 94t-19 94t-51.5 76.5t-76.5 51.5t-94 19h-318v-482zM1157 106v1388q0 22 8 41.5t22.5 34t33.5 22.5t42 8q22 0 41.5 -8t34 -22.5t22.5 -34t8 -41.5v-1388q0 -23 -8 -42t-22.5 -33.5t-34 -22.5t-41.5 -8q-23 0 -42 8t-33.5 22.5t-22.5 33.5t-8 42z " />
<glyph unicode="&#x42c;" horiz-adv-x="1120" d="M74 106v1388q0 22 8.5 41.5t23 33.5t33.5 22.5t41 8.5t41.5 -8t34 -22.5t22.5 -34t8 -41.5v-588h318q93 0 175.5 -36t144 -98t97.5 -144t36 -175t-36 -175t-97.5 -144t-144 -98t-175.5 -36h-424q-22 0 -41 8.5t-33.5 22.5t-23 33.5t-8.5 41.5zM286 212h318q50 0 94 19 t76.5 51.5t51.5 76.5t19 94t-19 94t-51.5 76.5t-76.5 51.5t-94 19h-318v-482z" />
<glyph unicode="&#x42d;" horiz-adv-x="1480" d="M73 1340q0 -23 8 -42t22.5 -33.5t34 -22.5t41.5 -8q37 0 73 30q76 60 167.5 92t194.5 32q105 0 202 -36.5t175 -101t131.5 -152.5t71.5 -192h-657q-45 0 -75.5 -30.5t-30.5 -75.5q0 -23 8 -42t22.5 -33.5t34 -22.5t41.5 -8h657q-18 -103 -72 -191.5t-132 -153 t-174.5 -101t-201.5 -36.5q-209 0 -368 129q-27 19 -62 19q-22 0 -41 -8.5t-33.5 -22.5t-23 -33.5t-8.5 -41.5q0 -47 33 -76q223 -178 503 -178q332 0 566 234t234 566q0 331 -234 565q-235 235 -566 235q-284 0 -513 -187q-28 -26 -28 -73z" />
<glyph unicode="&#x42e;" horiz-adv-x="2080" d="M83 106v1388q0 22 8 41.5t22.5 34t33.5 22.5t42 8q22 0 41.5 -8t34 -22.5t22.5 -34t8 -41.5v-588h103q31 262 229 460q234 234 564 234t565 -235q118 -118 176.5 -257.5t58.5 -307.5q0 -331 -235 -566q-234 -234 -565 -234q-330 0 -564 235q-198 198 -229 459h-103v-588 q0 -23 -8 -42t-22.5 -33.5t-34 -22.5t-41.5 -8q-23 0 -42 8t-33.5 22.5t-22.5 33.5t-8 42zM603 800q0 -245 172 -416q172 -172 416 -172t416 172q172 171 172 416q0 244 -172 415q-173 173 -416 173t-416 -173q-172 -171 -172 -415z" />
<glyph unicode="&#x42f;" horiz-adv-x="1200" d="M65 106q0 -23 8 -42t22.5 -33.5t34 -22.5t41.5 -8q56 0 91 52l353 565h298v-511q0 -44 31 -75t75 -31t75 31t31 75v1388q0 22 -8 41.5t-22.5 34t-33.5 22.5t-42 8h-386q-101 0 -190.5 -39t-156 -106t-105.5 -156.5t-39 -190.5q0 -66 16.5 -128.5t49 -118t81 -103 t112.5 -83.5l-319 -511q-17 -28 -17 -58zM354 1108q0 58 22 109t60 89t89 60t108 22h280v-559h-280q-58 0 -109 22t-88.5 60.5t-59.5 89t-22 107.5z" />
<glyph unicode="&#x430;" d="M80 560q0 232 164 396t396 164q230 0 396 -164q164 -164 164 -396v-456q0 -43 -30.5 -73.5t-73.5 -30.5q-44 0 -74.5 30.5t-30.5 73.5v20q-75 -60 -163 -92t-188 -32q-232 0 -396 164t-164 396zM289 560q0 -72 27.5 -136t74.5 -111.5t111 -75.5t138 -28q73 0 137 28 t111.5 76t75 111.5t27.5 135.5t-27.5 135.5t-75 111.5t-111.5 76t-137 28q-74 0 -138 -28t-111 -75.5t-74.5 -111.5t-27.5 -136z" />
<glyph unicode="&#x431;" d="M80 560v380q0 115 44.5 216.5t121 178t178 121t216.5 44.5h43q160 0 290 65q22 11 46 11q22 0 41 -8.5t33 -22.5t22.5 -33t8.5 -41q0 -33 -21 -58.5t-56.5 -45.5t-81 -34.5t-94.5 -23.5t-97.5 -13.5t-90.5 -4.5h-43q-147 0 -249 -103q-80 -80 -98 -188q148 120 347 120 q230 0 396 -164q82 -81 123 -180.5t41 -215.5q0 -234 -164 -396q-166 -164 -396 -164q-232 0 -396 164t-164 396zM289 560q0 -72 27.5 -136t74.5 -111.5t111 -75.5t138 -28q73 0 137 28t111.5 76t75 111.5t27.5 135.5t-27.5 135.5t-75 111.5t-111.5 76t-137 28 q-74 0 -138 -28t-111 -75.5t-74.5 -111.5t-27.5 -136z" />
<glyph unicode="&#x432;" horiz-adv-x="1040" d="M77 104v912q0 21 8 40t22 33.5t33 22.5t41 8h380q68 0 128.5 -26.5t105.5 -71.5t71.5 -105.5t26.5 -128.5q0 -107 -57 -188q33 -30 58 -60t41.5 -62t25 -67.5t8.5 -78.5q0 -68 -26 -128.5t-71 -105.5t-105.5 -71.5t-129.5 -26.5h-456q-22 0 -41 8t-33 22.5t-22 33.5 t-8 40zM285 209h352q25 0 47.5 9.5t39 26.5t26.5 39t10 48t-10 49t-27 39.5t-39.5 26t-46.5 9.5h-352v-247zM285 664h276q24 0 46.5 9.5t39.5 26t27 39t10 49.5q0 25 -10 47.5t-26.5 39t-39 26.5t-47.5 10h-276v-247z" />
<glyph unicode="&#x433;" horiz-adv-x="880" d="M75 104v684q0 69 26.5 129.5t71.5 105.5t105.5 71t128.5 26h304q21 0 40 -8t33.5 -22.5t22.5 -33.5t8 -40q0 -22 -8 -41t-22.5 -33.5t-33.5 -22.5t-40 -8h-304q-27 0 -50 -10.5t-39.5 -28t-25.5 -39.5t-9 -45v-684q0 -21 -8 -40t-22 -33.5t-33 -22.5t-41 -8t-41 8 t-33 22.5t-22 33.5t-8 40z" />
<glyph unicode="&#x434;" d="M80 560q0 232 164 396t396 164q230 0 396 -164q164 -164 164 -396v-556q0 -72 -22 -136t-61 -117.5t-92 -96.5t-114.5 -72.5t-128.5 -45.5t-134 -16q-80 0 -157 20.5t-146 60.5t-126.5 99t-97.5 132q-16 23 -16 56q0 45 30 74.5t75 29.5q30 0 49.5 -14t53.5 -62t60 -73 q114 -114 275 -114q162 0 274 112q69 84 69 163v119q-150 -123 -351 -123q-232 0 -396 164t-164 396zM289 560q0 -72 27.5 -136t74.5 -111.5t111 -75.5t138 -28q73 0 137 28t111.5 76t75 111.5t27.5 135.5t-27.5 135.5t-75 111.5t-111.5 76t-137 28q-74 0 -138 -28 t-111 -75.5t-74.5 -111.5t-27.5 -136z" />
<glyph unicode="&#x435;" d="M80 560q0 232 164 396t396 164q230 0 396 -164q82 -81 123 -180.5t41 -215.5q0 -45 -30.5 -74.5t-74.5 -29.5h-792q17 -55 50 -100.5t77.5 -78t98 -50.5t111.5 -18q66 0 121 20t102 60q30 25 69 26q45 0 74.5 -29.5t29.5 -74.5q0 -44 -30 -75q-155 -136 -366 -136 q-232 0 -396 164t-164 396zM303 664h674q-17 55 -50.5 100.5t-78 78t-98 50.5t-110.5 18t-111 -18t-99 -50.5t-78 -78t-49 -100.5z" />
<glyph unicode="&#x436;" horiz-adv-x="1760" d="M86 104q0 47 30 75l448 384l-446 378q-32 28 -32 75q0 21 8 40t22 33.5t33 22.5t41 8q41 0 70 -26l509 -432v354q0 21 8 40t22.5 33.5t33.5 22.5t41 8t41 -8t33 -22.5t22 -33.5t8 -40v-354l510 432q29 26 69 26q22 0 41 -8t33 -22.5t22 -33.5t8 -40q0 -45 -31 -74 l-447 -379l448 -384q30 -30 30 -75q0 -21 -8 -40t-22 -33.5t-33 -22.5t-41 -8q-39 0 -68 25l-468 400l-43 -37v-284q0 -21 -8 -40t-22 -33.5t-33 -22.5t-41 -8t-41 8t-33.5 22.5t-22.5 33.5t-8 40v284l-42 37l-468 -400q-29 -25 -69 -25q-22 0 -41 8t-33 22.5t-22 33.5 t-8 40z" />
<glyph unicode="&#x437;" horiz-adv-x="960" d="M92 883q0 31 16 56q29 46 78 86q119 94 286 94t287.5 -91t120.5 -231q0 -143 -107 -204q107 -94 107 -252q0 -139 -120 -240t-288 -101q-167 0 -286 95q-44 35 -72 75q-20 27 -20 62q0 43 30.5 74t73.5 31q54 0 84 -43q28 -34 46 -45q59 -40 144 -40t142 42t57 90 q0 59 -57.5 105.5t-141.5 46.5q-43 0 -73.5 30.5t-30.5 73.5q0 44 30.5 74.5t73.5 30.5q87 0 143 29.5t56 65.5q0 46 -56.5 79.5t-142.5 33.5q-85 0 -144 -39q-24 -17 -42 -43q-7 -9 -16 -18q-31 -31 -74 -31t-73.5 30.5t-30.5 73.5z" />
<glyph unicode="&#x438;" horiz-adv-x="1200" d="M79 522v494q0 43 30.5 73.5t74.5 30.5q43 0 73.5 -30.5t30.5 -73.5v-494q0 -65 24.5 -122t67 -99.5t99.5 -67t122 -24.5q64 0 121 24.5t100 67.5t67.5 99.5t24.5 121.5v494q0 43 30.5 73.5t74.5 30.5q43 0 73.5 -30.5t30.5 -73.5v-912q0 -43 -30.5 -73.5t-74.5 -30.5 q-45 0 -74 30t-30 73q-69 -54 -146 -78.5t-167 -24.5q-107 0 -202 41.5t-166 112.5t-112.5 166t-41.5 202z" />
<glyph unicode="&#x439;" horiz-adv-x="1200" d="M79 522v494q0 43 30.5 73.5t74.5 30.5q43 0 73.5 -30.5t30.5 -73.5v-494q0 -65 24.5 -122t67 -99.5t99.5 -67t122 -24.5q64 0 121 24.5t100 67.5t67.5 99.5t24.5 121.5v494q0 43 30.5 73.5t74.5 30.5q43 0 73.5 -30.5t30.5 -73.5v-912q0 -43 -30.5 -73.5t-74.5 -30.5 q-45 0 -74 30t-30 73q-69 -54 -146 -78.5t-167 -24.5q-107 0 -202 41.5t-166 112.5t-112.5 166t-41.5 202zM268 1495q0 44 29.5 74.5t74.5 30.5t75 -30q22 -23 27 -54q3 -28 38 -47q37 -21 89 -21t89 21q35 19 37 47q6 31 28 54q30 30 75 30t74.5 -30.5t29.5 -74.5 q0 -54 -26.5 -101t-71.5 -81.5t-105.5 -54t-129.5 -19.5t-129.5 19.5t-105.5 54t-71.5 81.5t-26.5 101z" />
<glyph unicode="&#x43a;" horiz-adv-x="1040" d="M77 104v912q0 21 8 40t22 33.5t33 22.5t41 8t41 -8t33 -22.5t22 -33.5t8 -40v-354l510 432q29 26 69 26q22 0 41 -8t33 -22.5t22.5 -33.5t8.5 -40q0 -43 -31 -74l-447 -379l448 -384q30 -30 30 -75q0 -21 -8.5 -40t-22.5 -33.5t-33 -22.5t-41 -8q-39 0 -68 25l-468 400 l-43 -37v-284q0 -21 -8 -40t-22 -33.5t-33 -22.5t-41 -8t-41 8t-33 22.5t-22 33.5t-8 40z" />
<glyph unicode="&#x43b;" horiz-adv-x="1200" d="M79 102q0 -21 8 -40t22 -33.5t33 -22.5t41 -8q27 0 52 13.5t39 38.5l327 713l326 -712q29 -53 91 -53q22 0 41 8t33 22.5t22.5 33.5t8.5 40q0 23 -9 42l-421 918q-28 56 -92 56q-66 0 -92 -56l-422 -918q-8 -21 -8 -42z" />
<glyph unicode="&#x43c;" horiz-adv-x="1600" d="M84 103q0 -21 8 -40t22 -33.5t33 -22.5t41 -8q36 0 60.5 17t33.5 41l210 627l203 -608q26 -77 101 -77q74 0 100 77l203 609l210 -628q8 -26 32 -42t62 -16q22 0 41 8t33 22.5t22.5 33.5t8.5 40q0 19 -8 40l-303 909q-9 29 -33 48t-65 19q-35 0 -62 -20t-35 -47 l-206 -618l-206 618q-9 29 -36 48t-62 19t-61.5 -19t-36.5 -48l-303 -909q-7 -22 -7 -40z" />
<glyph unicode="&#x43d;" horiz-adv-x="1080" d="M77 104v912q0 21 8 40t22.5 33.5t33.5 22.5t41 8q21 0 40 -8t33.5 -22.5t22.5 -33.5t8 -40v-352h513v352q0 21 8 40t22 33.5t33 22.5t41 8t41 -8t33 -22.5t22 -33.5t8 -40v-912q0 -21 -8 -40t-22 -33.5t-33 -22.5t-41 -8t-41 8t-33 22.5t-22 33.5t-8 40v352h-513v-352 q0 -21 -8 -40t-22.5 -33.5t-33.5 -22.5t-40 -8q-22 0 -41 8t-33.5 22.5t-22.5 33.5t-8 40z" />
<glyph unicode="&#x43e;" d="M80 560q0 232 164 396t396 164q230 0 396 -164q82 -82 122.5 -181t41.5 -215q0 -234 -164 -396q-166 -164 -396 -164q-232 0 -396 164t-164 396zM289 560q0 -72 27.5 -136t74.5 -111.5t111 -75.5t138 -28q73 0 137 28t111.5 76t75 111.5t27.5 135.5t-27.5 135.5 t-75 111.5t-111.5 76t-137 28q-74 0 -138 -28t-111 -75.5t-74.5 -111.5t-27.5 -136z" />
<glyph unicode="&#x43f;" horiz-adv-x="1200" d="M79 105v910q0 43 30.5 74t74.5 31q43 0 73.5 -31t30.5 -72q133 103 313 103q105 0 199.5 -41t166.5 -111.5t114 -166t42 -203.5v-493q0 -44 -30.5 -74.5t-73.5 -30.5q-44 0 -74.5 30.5t-30.5 74.5v493q0 64 -25 121t-67.5 99.5t-99.5 67.5t-121 25q-65 0 -121.5 -24.5 t-99.5 -67.5t-67.5 -100t-24.5 -121v-493q0 -44 -30.5 -74.5t-73.5 -30.5q-44 0 -74.5 30.5t-30.5 74.5z" />
<glyph unicode="&#x440;" d="M80 -376v936q0 232 164 396t396 164q230 0 396 -164q82 -81 123 -180.5t41 -215.5q0 -234 -164 -396q-84 -83 -182.5 -123.5t-213.5 -40.5q-201 0 -351 123v-499q0 -45 -30.5 -74.5t-74.5 -29.5q-45 0 -74.5 29.5t-29.5 74.5zM289 560q0 -72 27.5 -136t74.5 -111.5 t111 -75.5t138 -28q73 0 137 28t111.5 76t75 111.5t27.5 135.5t-27.5 135.5t-75 111.5t-111.5 76t-137 28q-74 0 -138 -28t-111 -75.5t-74.5 -111.5t-27.5 -136z" />
<glyph unicode="&#x441;" horiz-adv-x="1120" d="M78 560q0 232 164 396t396 164q211 0 365 -136q36 -32 36 -79q0 -45 -29.5 -75t-74.5 -30q-38 0 -68 24q-51 43 -107 65t-122 22q-73 0 -137 -27.5t-112 -75t-75.5 -111.5t-27.5 -137t27.5 -137t75.5 -111.5t112 -75t137 -27.5q66 0 122 21.5t106 64.5q28 21 66 22 q45 0 74.5 -29.5t29.5 -74.5q0 -44 -33 -77q-155 -136 -365 -136q-232 0 -396 164t-164 396z" />
<glyph unicode="&#x442;" horiz-adv-x="1760" d="M86 105v911q0 43 30.5 73.5t73.5 30.5q35 0 62 -19.5t37 -51.5q107 71 243 71q100 0 188 -39.5t154 -119.5q139 159 341 159q91 0 172.5 -35.5t142 -96t96 -142t35.5 -172.5v-569q0 -44 -30.5 -74.5t-73.5 -30.5q-44 0 -74 30.5t-30 74.5v569q0 48 -18.5 91t-50.5 75.5 t-75.5 51.5t-93.5 19q-49 0 -92 -19t-75.5 -51t-51 -75t-18.5 -92v-569q0 -44 -30.5 -74.5t-73.5 -30.5q-44 0 -74.5 30.5t-30.5 74.5v569q0 49 -19 92t-51 75t-75 51t-92 19t-92 -18.5t-75.5 -51t-51 -75.5t-18.5 -92v-569q0 -44 -30.5 -74.5t-73.5 -30.5q-44 0 -74.5 30.5 t-30.5 74.5z" />
<glyph unicode="&#x443;" horiz-adv-x="1120" d="M78 1016q0 21 8 40t22 33.5t33 22.5t41 8q31 0 58 -17.5t41 -51.5l281 -671l281 673q12 30 34.5 48.5t63.5 18.5q22 0 41 -8t33 -22.5t22.5 -33.5t8.5 -40q0 -22 -11 -47l-575 -1379q-13 -31 -40 -50.5t-59 -19.5q-45 0 -74.5 30t-29.5 75q0 24 10 46l181 433l-360 865 q-10 23 -10 47z" />
<glyph unicode="&#x444;" horiz-adv-x="1920" d="M88 560q0 117 38.5 219.5t104.5 178t154 119t187 43.5q76 0 145.5 -25t129.5 -73v472q0 22 8 41t22.5 33t33.5 22.5t41 8.5q21 0 40 -8.5t33.5 -22.5t22.5 -33t8 -41v-472q61 51 128.5 74.5t146.5 23.5q202 0 344 -166v1q140 -164 140 -395q0 -232 -140 -395v1 q-142 -166 -344 -166q-153 0 -275 98v-472q0 -22 -8 -41t-22.5 -33.5t-33.5 -22.5t-40 -8q-45 0 -75 30t-30 75v472q-60 -51 -128 -74.5t-147 -23.5q-99 0 -187 43.5t-154 119t-104.5 177.5t-38.5 220zM297 560q0 -73 21.5 -137t58.5 -111.5t87.5 -75t107.5 -27.5t107.5 28 t87.5 76t58.5 111.5t21.5 135.5t-21.5 135.5t-58.5 111.5t-87.5 76t-107.5 28q-58 0 -108 -28t-87 -75.5t-58.5 -111.5t-21.5 -136zM1056 560q0 -71 21 -134.5t58 -111.5t87.5 -76.5t108.5 -28.5t108.5 28.5t88 77t58.5 112t21 133.5t-21 133.5t-58.5 112t-88 77 t-108.5 28.5t-108.5 -28.5t-87.5 -77t-58 -112t-21 -133.5z" />
<glyph unicode="&#x445;" horiz-adv-x="1120" d="M78 104q0 39 21 65l327 392l-324 386q-24 27 -24 69q0 21 8 40t22 33.5t33 22.5t41 8q47 0 78 -34l302 -361l302 361q30 34 77 34q22 0 41 -8t33 -22.5t22.5 -33.5t8.5 -40q0 -38 -25 -69l-324 -386l327 -392q22 -25 22 -65q0 -21 -8.5 -40t-22.5 -33.5t-33 -22.5t-41 -8 q-43 0 -75 32l-304 366l-306 -366q-30 -32 -74 -32q-22 0 -41 8t-33 22.5t-22 33.5t-8 40z" />
<glyph unicode="&#x446;" horiz-adv-x="1360" d="M81 522v494q0 21 8 40t22 33.5t33 22.5t41 8t41 -8t33 -22.5t22.5 -33.5t8.5 -40v-494q0 -65 24.5 -122t67 -99.5t99.5 -67t122 -24.5q64 0 121 24.5t100 67.5t67.5 99.5t24.5 121.5v494q0 21 8 40t22.5 33.5t33.5 22.5t40 8q22 0 41 -8t33 -22.5t22.5 -33.5t8.5 -40 v-807h49q22 0 41.5 -8t34 -22.5t22.5 -34t8 -41.5q0 -190 -76 -346q-13 -31 -40.5 -49.5t-59.5 -18.5q-22 0 -41 8.5t-33.5 22.5t-23 33.5t-8.5 41.5q0 26 13 50q37 75 44 155h-35q-21 0 -40 8t-33 22t-22.5 33t-8.5 40q-69 -54 -146 -78.5t-167 -24.5q-107 0 -202 41.5 t-166 112.5t-112.5 166t-41.5 202z" />
<glyph unicode="&#x447;" horiz-adv-x="1040" d="M77 788v228q0 21 8 40t22 33.5t33 22.5t41 8t41 -8t33 -22.5t22 -33.5t8 -40v-228q0 -48 18.5 -91.5t50.5 -75.5t75.5 -51t93.5 -19q49 0 92 18.5t75.5 50.5t51 75t18.5 92v229q0 21 8 40t22.5 33.5t33.5 22.5t40 8q22 0 41 -8t33 -22.5t22.5 -33.5t8.5 -40v-912 q0 -21 -8.5 -40t-22.5 -33.5t-33 -22.5t-41 -8q-21 0 -40 8t-33.5 22.5t-22.5 33.5t-8 40v305q-103 -67 -237 -67q-92 0 -173 35.5t-141.5 96t-96 141.5t-35.5 173z" />
<glyph unicode="&#x448;" horiz-adv-x="1760" d="M99 446v569q0 44 30.5 74.5t73.5 30.5q44 0 74 -30.5t30 -74.5v-569q0 -48 18.5 -91t50.5 -75.5t75.5 -51.5t93.5 -19q49 0 92 19t75.5 51t51 75t18.5 92v569q0 44 30.5 74.5t73.5 30.5q44 0 74.5 -30.5t30.5 -74.5v-569q0 -49 19 -92t51 -75t75 -51t92 -19t92 18.5 t75.5 51t51 75.5t18.5 92v569q0 44 30.5 74.5t73.5 30.5q44 0 74.5 -30.5t30.5 -74.5v-911q0 -43 -30.5 -73.5t-73.5 -30.5q-35 0 -62 19.5t-37 51.5q-107 -71 -243 -71q-100 0 -188 39.5t-154 119.5q-139 -159 -341 -159q-91 0 -172.5 35.5t-142 96t-96 142t-35.5 172.5z " />
<glyph unicode="&#x449;" horiz-adv-x="1920" d="M88 446v570q0 21 8 40t22 33.5t33 22.5t41 8t41 -8t33 -22.5t22.5 -33.5t8.5 -40v-570q0 -49 18.5 -92t51 -75.5t75.5 -51t92 -18.5t92 18.5t75 51t51 75.5t19 92v570q0 21 8 40t22.5 33.5t33.5 22.5t41 8t41 -8t33 -22.5t22 -33.5t8 -40v-570q0 -49 18.5 -92t51 -75.5 t75.5 -51t92 -18.5q50 0 93.5 19t75.5 51.5t50.5 75.5t18.5 91v570q0 21 8 40t22 33.5t33 22.5t41 8t41 -8t33 -22.5t22 -33.5t8 -40v-807h47q22 0 41.5 -8t34 -22.5t22.5 -34t8 -41.5q0 -190 -76 -346q-13 -31 -40.5 -49.5t-59.5 -18.5q-22 0 -41 8.5t-33.5 22.5t-23 33.5 t-8.5 41.5q0 26 13 50q36 75 44 155h-32q-35 0 -62 19.5t-38 51.5q-107 -71 -242 -71q-181 0 -315 131l-14 14t-12 14q-39 -39 -77 -68.5t-79 -49.5t-86.5 -30.5t-99.5 -10.5q-92 0 -173 35.5t-141.5 96t-96 141.5t-35.5 173z" />
<glyph unicode="&#x44a;" d="M41 1016q0 21 8 40t22.5 33.5t33.5 22.5t41 8h303q22 0 41 -8t33 -22.5t22.5 -33.5t8.5 -40v-352h313q69 0 129.5 -26.5t105.5 -71.5t71 -105.5t26 -128.5t-26 -128.5t-71 -105.5t-105.5 -71.5t-129.5 -26.5h-418q-22 0 -41 8t-33 22.5t-22 33.5t-8 40v807h-199 q-45 0 -75 30t-30 75zM554 209h313q26 0 48.5 10t39 27t26 39t9.5 47q0 26 -9.5 48.5t-26.5 39.5t-39.5 26.5t-47.5 9.5h-313v-247z" />
<glyph unicode="&#x44b;" d="M76 104v913q1 21 9 39.5t22 32.5t32.5 22.5t41.5 8.5q21 0 40 -8t33.5 -22.5t22.5 -33.5t8 -40v-352h313q68 0 128.5 -26.5t105.5 -71.5t71.5 -105.5t26.5 -128.5q0 -69 -26.5 -129.5t-71.5 -105.5t-105.5 -71t-128.5 -26h-417q-22 0 -41 8t-33.5 22.5t-22.5 33.5t-8 40z M285 209h313q26 0 49 10t39.5 27t26 39.5t9.5 46.5q0 25 -10 47.5t-27 39.5t-39.5 27t-47.5 10h-313v-247zM1027 105v910q0 44 30.5 74.5t73.5 30.5t73.5 -30.5t31.5 -74.5v-910q-1 -44 -31.5 -74.5t-73.5 -30.5t-73.5 30.5t-30.5 74.5z" />
<glyph unicode="&#x44c;" horiz-adv-x="1000" d="M76 104v913q1 21 9 39.5t22 32.5t32.5 22.5t41.5 8.5q21 0 40 -8t33.5 -22.5t22.5 -33.5t8 -40v-352h313q68 0 128.5 -26.5t105.5 -71.5t71.5 -105.5t26.5 -128.5q0 -69 -26.5 -129.5t-71.5 -105.5t-105.5 -71t-128.5 -26h-417q-22 0 -41 8t-33.5 22.5t-22.5 33.5t-8 40z M285 209h313q26 0 49 10t39.5 27t26 39.5t9.5 46.5q0 25 -10 47.5t-27 39.5t-39.5 27t-47.5 10h-313v-247z" />
<glyph unicode="&#x44d;" horiz-adv-x="1120" d="M78 905q0 47 36 79q154 136 365 136q232 0 396 -164t164 -396t-164 -396t-396 -164q-212 0 -366 136q-33 33 -33 77q0 45 30 74.5t75 29.5q38 0 64 -22q51 -43 107.5 -64.5t122.5 -21.5q56 0 110 18t99 50.5t78.5 78t49.5 100.5h-406q-45 0 -75 29.5t-30 74.5t30 74.5 t75 29.5h406q-17 55 -50.5 101t-78.5 78t-98 50t-110 18q-131 0 -231 -87q-29 -24 -66 -24q-45 0 -74.5 30t-29.5 75z" />
<glyph unicode="&#x44e;" horiz-adv-x="1600" d="M84 104v912q0 21 8 40t22 33.5t33 22.5t41 8t41 -8t33 -22.5t22.5 -33.5t8.5 -40v-352h103q18 98 69 181.5t125 144.5t166.5 95.5t191.5 34.5q231 0 395 -164q165 -165 165 -396t-165 -396q-164 -164 -395 -164q-99 0 -191.5 34.5t-166.5 95.5t-125 144.5t-69 181.5h-103 v-352q0 -21 -8.5 -40t-22.5 -33.5t-33 -22.5t-41 -8t-41 8t-33 22.5t-22 33.5t-8 40zM596 560q0 -73 27.5 -137t75.5 -111.5t112 -75t137 -27.5t137 28t111.5 76t75 111.5t27.5 135.5t-27.5 135.5t-75 111.5t-111.5 76t-137 28t-137 -27.5t-112 -75t-75.5 -111.5t-27.5 -137 z" />
<glyph unicode="&#x44f;" horiz-adv-x="1000" d="M38 104q0 31 15 55l173 327q9 18 21 34q-33 30 -58 60t-41.5 62t-25 68t-8.5 78q0 69 26.5 129.5t71.5 105.5t105.5 71t128.5 26h379q22 0 41 -8t33 -22.5t22.5 -33.5t8.5 -40v-912q0 -21 -8.5 -40t-22.5 -33.5t-33 -22.5t-41 -8q-21 0 -40 8t-33.5 22.5t-22.5 33.5 t-8 40v352h-199q-71 0 -111 -69l-174 -324q-33 -63 -95 -63q-22 0 -41 8t-33 22.5t-22 33.5t-8 40zM322 788q0 -25 9.5 -47.5t26.5 -39.5t39.5 -27t48.5 -10h275v247h-275q-27 0 -50 -10.5t-39.5 -28t-25.5 -39.5t-9 -45z" />
<glyph unicode="&#x451;" d="M80 560q0 232 164 396t396 164q230 0 396 -164q82 -81 123 -180.5t41 -215.5q0 -45 -30.5 -74.5t-74.5 -29.5h-792q17 -55 50 -100.5t77.5 -78t98 -50.5t111.5 -18q66 0 121 20t102 60q30 25 69 26q45 0 74.5 -29.5t29.5 -74.5q0 -44 -30 -75q-155 -136 -366 -136 q-232 0 -396 164t-164 396zM293 1359q0 51 36 87t87 36t87 -36t36 -87t-36 -87t-87 -36t-87 36t-36 87zM303 664h674q-17 55 -50.5 100.5t-78 78t-98 50.5t-110.5 18t-111 -18t-99 -50.5t-78 -78t-49 -100.5zM748 1359q0 51 36 87t87 36t87 -36t36 -87t-36 -87t-87 -36 t-87 36t-36 87z" />
<glyph unicode="&#x452;" horiz-adv-x="1320" d="M42 1342q0 44 29.5 74.5t74.5 30.5h48v47q0 44 29.5 74.5t74.5 30.5t74.5 -30.5t29.5 -74.5v-47h276q45 0 74.5 -30.5t29.5 -74.5q0 -45 -29.5 -74.5t-74.5 -29.5h-276v-221q136 103 314 103q106 0 200.5 -41t166 -112t113.5 -166t42 -203v-744q0 -67 -26 -127.5 t-71 -106t-106 -72.5t-130 -27q-40 0 -73 7.5t-57 22t-37 36.5t-13 51q0 22 8 41t22.5 33t33.5 22.5t41 8.5q18 0 36.5 -6.5t38.5 -6.5q24 0 46.5 9.5t40 26t27.5 39t10 49.5v744q0 64 -25 121t-67.5 99.5t-99.5 67.5t-121 25q-65 0 -122 -25t-99.5 -67.5t-67.5 -99.5 t-25 -121v-494q0 -21 -8 -40t-22 -33.5t-33 -22.5t-41 -8t-41 8t-33 22.5t-22 33.5t-8 40v1134h-48q-45 0 -74.5 29.5t-29.5 74.5z" />
<glyph unicode="&#x453;" horiz-adv-x="880" d="M75 104v684q0 69 26.5 129.5t71.5 105.5t105.5 71t128.5 26h304q21 0 40 -8t33.5 -22.5t22.5 -33.5t8 -40q0 -22 -8 -41t-22.5 -33.5t-33.5 -22.5t-40 -8h-304q-27 0 -50 -10.5t-39.5 -28t-25.5 -39.5t-9 -45v-684q0 -21 -8 -40t-22 -33.5t-33 -22.5t-41 -8t-41 8 t-33 22.5t-22 33.5t-8 40zM331 1298q0 43 26 71l200 199q32 31 74 31q45 0 74.5 -30.5t29.5 -74.5q0 -45 -28 -73l-200 -199q-28 -28 -72 -28q-45 0 -74.5 29.5t-29.5 74.5z" />
<glyph unicode="&#x454;" horiz-adv-x="1120" d="M79 560q0 -232 164 -396t396 -164q212 0 366 136q33 33 33 77q0 45 -30 74.5t-75 29.5q-38 0 -64 -22q-51 -43 -107.5 -64.5t-122.5 -21.5q-56 0 -110 18t-99 50.5t-78.5 78t-49.5 100.5h406q45 0 75 29.5t30 74.5t-30 74.5t-75 29.5h-406q17 55 50.5 101t78.5 78t98 50 t110 18q131 0 231 -87q29 -24 66 -24q45 0 74.5 30t29.5 75q0 47 -36 79q-154 136 -365 136q-232 0 -396 -164t-164 -396z" />
<glyph unicode="&#x455;" horiz-adv-x="1060" d="M77 788q0 76 40.5 137.5t105.5 104.5t146.5 66.5t163.5 23.5q250 0 429 -201q21 -26 21 -63q0 -45 -29.5 -74.5t-74.5 -29.5q-32 0 -54.5 18t-43.5 39q-102 102 -248 102q-144 0 -230 -88q-16 -16 -16 -44t26 -38l468 -154q98 -38 132 -74h-1q76 -77 76 -181 q0 -77 -40.5 -138t-105.5 -104.5t-146 -66.5t-163 -23q-252 0 -429 199q-22 29 -22 65q0 45 29.5 74.5t74.5 29.5q33 0 56 -19.5t42 -37.5q102 -102 249 -102q143 0 230 90q15 17 15 41q0 28 -27 39l-467 154q-94 36 -132 74h1q-76 77 -76 181z" />
<glyph unicode="&#x456;" horiz-adv-x="480" d="M127 1319q0 51 36 87t87 36t87 -36t36 -87t-36 -87t-87 -36t-87 36t-36 87zM146 105v910q0 44 30.5 74.5t73.5 30.5t73.5 -30.5t31.5 -74.5v-910q-1 -44 -31.5 -74.5t-73.5 -30.5t-73.5 30.5t-30.5 74.5z" />
<glyph unicode="&#x457;" horiz-adv-x="600" d="M-44 1359q0 51 36 87t87 36t87 -36t36 -87t-36 -87t-87 -36t-87 36t-36 87zM196 105v910q0 44 30.5 74.5t73.5 30.5t73.5 -30.5t31.5 -74.5v-910q-1 -44 -31.5 -74.5t-73.5 -30.5t-73.5 30.5t-30.5 74.5zM411 1359q0 51 36 87t87 36t87 -36t36 -87t-36 -87t-87 -36 t-87 36t-36 87z" />
<glyph unicode="&#x458;" horiz-adv-x="656" d="M-5 -374q0 45 29.5 74.5t74.5 29.5q57 0 107 21.5t87.5 59t59.5 87.5t22 107v1010q0 44 30.5 74.5t73.5 30.5t73.5 -30.5t30.5 -74.5v-1010q0 -99 -38.5 -187t-104.5 -154t-154 -104.5t-187 -38.5q-45 0 -74.5 30t-29.5 75zM356 1319q0 51 36 87t87 36t87 -36t36 -87 t-36 -87t-87 -36t-87 36t-36 87z" />
<glyph unicode="&#x459;" horiz-adv-x="1800" d="M86 104q0 23 9 41l421 918q12 26 35.5 41.5t56.5 15.5q31 0 54.5 -14t37.5 -43l184 -399h484q69 0 129.5 -26.5t105.5 -71.5t71 -105.5t26 -128.5t-26 -128.5t-71 -105.5t-105.5 -71.5t-129.5 -26.5h-342q-66 0 -91 52l-327 713l-324 -708q-29 -57 -93 -57q-22 0 -41 8 t-33.5 22.5t-22.5 33.5t-8 40zM980 456l113 -247h275q25 0 47.5 9.5t39 26.5t26.5 39t10 48t-10 49t-27 39.5t-39.5 26t-46.5 9.5h-388z" />
<glyph unicode="&#x45a;" horiz-adv-x="1760" d="M86 104v912q0 21 8 40t22 33.5t33 22.5t41 8t41 -8t33 -22.5t22.5 -33.5t8.5 -40v-352h512v352q0 21 8 40t22.5 33.5t33.5 22.5t41 8q21 0 40 -8t33.5 -22.5t22.5 -33.5t8 -40v-352h314q68 0 128.5 -26.5t105.5 -71.5t71.5 -105.5t26.5 -128.5q0 -69 -26.5 -129.5 t-71.5 -105.5t-105.5 -71t-128.5 -26h-418q-22 0 -41 8t-33.5 22.5t-22.5 33.5t-8 40v352h-512v-352q0 -21 -8.5 -40t-22.5 -33.5t-33 -22.5t-41 -8t-41 8t-33 22.5t-22 33.5t-8 40zM1016 209h314q27 0 49.5 10.5t39 27.5t26 39.5t9.5 45.5q0 24 -9.5 46.5t-26.5 40 t-39.5 27.5t-48.5 10h-314v-247z" />
<glyph unicode="&#x45b;" horiz-adv-x="1320" d="M42 1343q0 44 29.5 74.5t74.5 30.5h48v47q0 44 29.5 74.5t74.5 30.5t74.5 -30.5t29.5 -74.5v-47h276q45 0 74.5 -30.5t29.5 -74.5q0 -45 -29.5 -74.5t-74.5 -29.5h-276v-222q136 103 314 103q106 0 200.5 -41t166 -112t113.5 -166t42 -203v-494q0 -21 -8.5 -40 t-22.5 -33.5t-33 -22.5t-41 -8t-41 8t-33 22.5t-22 33.5t-8 40v494q0 64 -25 121t-67.5 99.5t-99.5 67.5t-121 25q-65 0 -122 -25t-99.5 -67.5t-67.5 -99.5t-25 -121v-494q0 -21 -8 -40t-22 -33.5t-33 -22.5t-41 -8t-41 8t-33 22.5t-22 33.5t-8 40v1135h-48 q-45 0 -74.5 29.5t-29.5 74.5z" />
<glyph unicode="&#x45c;" horiz-adv-x="1040" d="M77 104v912q0 21 8 40t22 33.5t33 22.5t41 8t41 -8t33 -22.5t22 -33.5t8 -40v-354l510 432q29 26 69 26q22 0 41 -8t33 -22.5t22.5 -33.5t8.5 -40q0 -43 -31 -74l-447 -379l448 -384q30 -30 30 -75q0 -21 -8.5 -40t-22.5 -33.5t-33 -22.5t-41 -8q-39 0 -68 25l-468 400 l-43 -37v-284q0 -21 -8 -40t-22 -33.5t-33 -22.5t-41 -8t-41 8t-33 22.5t-22 33.5t-8 40zM411 1298q0 43 26 71l200 199q32 31 74 31q45 0 74.5 -30.5t29.5 -74.5q0 -45 -28 -73l-200 -199q-28 -28 -72 -28q-45 0 -74.5 29.5t-29.5 74.5z" />
<glyph unicode="&#x45e;" horiz-adv-x="1120" d="M78 1016q0 21 8 40t22 33.5t33 22.5t41 8q31 0 58 -17.5t41 -51.5l281 -671l281 673q12 30 34.5 48.5t63.5 18.5q22 0 41 -8t33 -22.5t22.5 -33.5t8.5 -40q0 -22 -11 -47l-575 -1379q-13 -31 -40 -50.5t-59 -19.5q-45 0 -74.5 30t-29.5 75q0 24 10 46l181 433l-360 865 q-10 23 -10 47zM230 1495q0 44 29.5 74.5t74.5 30.5t75 -30q22 -23 27 -54q3 -28 38 -47q37 -21 89 -21t89 21q35 19 37 47q6 31 28 54q30 30 75 30t74.5 -30.5t29.5 -74.5q0 -54 -26.5 -101t-71.5 -81.5t-105.5 -54t-129.5 -19.5t-129.5 19.5t-105.5 54t-71.5 81.5 t-26.5 101z" />
<glyph unicode="&#x45f;" horiz-adv-x="1120" d="M78 104v912q0 21 8 40t22 33.5t33 22.5t41 8t41 -8t33 -22.5t22.5 -33.5t8.5 -40v-807h550v807q0 21 8 40t22.5 33.5t33.5 22.5t40 8q22 0 41 -8t33 -22.5t22.5 -33.5t8.5 -40v-912q0 -21 -8.5 -40t-22.5 -33.5t-33 -22.5t-41 -8h-275v-199q0 -45 -29.5 -75t-74.5 -30 t-75 30t-30 75v199h-275q-22 0 -41 8t-33 22.5t-22 33.5t-8 40z" />
<glyph unicode="&#x490;" horiz-adv-x="1200" d="M75 106v1388q0 22 8.5 41t23 33.5t34 23t41.5 8.5h733q-8 60 -49 152q-12 24 -12 50q0 22 8 41.5t22.5 34t33.5 22.5t42 8q68 0 99 -68q76 -156 76 -346q0 -23 -8 -42t-22.5 -33.5t-34 -22.5t-41.5 -8h-742v-1282q0 -21 -8.5 -40.5t-23 -34t-34 -23t-40.5 -8.5 q-23 0 -42 8t-33.5 22.5t-22.5 33.5t-8 42z" />
<glyph unicode="&#x491;" horiz-adv-x="880" d="M75 104v684q0 69 26.5 129.5t71.5 105.5t105.5 71t128.5 26h191q-8 54 -48 150q-12 26 -12 49q0 44 29.5 74.5t74.5 30.5q32 0 58 -18t40 -50q75 -156 75 -340q0 -22 -8 -41t-22.5 -33.5t-33.5 -22.5t-40 -8h-304q-27 0 -50 -10.5t-39.5 -28t-25.5 -39.5t-9 -45v-684 q0 -21 -8 -40t-22 -33.5t-33 -22.5t-41 -8t-41 8t-33 22.5t-22 33.5t-8 40z" />
<glyph unicode="&#x492;" horiz-adv-x="1360" d="M76 800q0 22 8.5 41.5t23 33.5t34 22.5t41.5 8.5h48v588q0 22 8.5 41t23 33.5t34 23t41.5 8.5h847q22 0 41.5 -8t34 -22.5t22.5 -34t8 -41.5q0 -23 -8 -42t-22.5 -33.5t-34 -22.5t-41.5 -8h-742v-482h433q22 0 41.5 -8.5t34 -22.5t23 -33.5t8.5 -41.5t-8.5 -41.5 t-23 -33.5t-34 -22.5t-41.5 -8.5h-433v-588q0 -21 -8.5 -40.5t-23 -34t-34 -23t-40.5 -8.5q-23 0 -42 8t-33.5 22.5t-22.5 33.5t-8 42v588h-48q-22 0 -41.5 8.5t-34 22.5t-23 33.5t-8.5 41.5z" />
<glyph unicode="&#x493;" horiz-adv-x="1040" d="M77 560q0 45 29.5 74.5t74.5 29.5h48v124q0 69 26.5 129.5t71.5 105.5t105.5 71t128.5 26h303q22 0 41 -8t33 -22.5t22.5 -33.5t8.5 -40q0 -22 -8.5 -41t-22.5 -33.5t-33 -22.5t-41 -8h-303q-27 0 -49.5 -10t-39 -27t-26 -39.5t-9.5 -46.5v-124h200q45 0 74.5 -29.5 t29.5 -74.5t-29.5 -74.5t-74.5 -29.5h-200v-352q0 -21 -8 -40t-22 -33.5t-33 -22.5t-41 -8t-41 8t-33 22.5t-22 33.5t-8 40v352h-48q-45 0 -74.5 29.5t-29.5 74.5z" />
</font>
</defs>
</svg>
