<?xml version="1.0" standalone="no"?>
<!DOCTYPE svg PUBLIC "-//W3C//DTD SVG 1.1//EN" "http://www.w3.org/Graphics/SVG/1.1/DTD/svg11.dtd" >
<svg xmlns="http://www.w3.org/2000/svg">
<metadata>
This is a custom SVG webfont generated by Font Squirrel.
Copyright   : Digitized data copyright The Monotype Corporation 19911995 All rights reserved Book Antiqua is a trademark of The Monotype Corporation which may be registered in certain jurisdictions
Designer    : Monotype Type Drawing Office
Foundry     : Monotype Typography Inc
Foundry URL : httpwwwmonotypecomhtmlmtnamemswelcomehtml
</metadata>
<defs>
<font id="BookAntiquaBoldItalic" horiz-adv-x="1139" >
<font-face units-per-em="2048" ascent="1638" descent="-410" />
<missing-glyph horiz-adv-x="512" />
<glyph unicode=" "  horiz-adv-x="512" />
<glyph unicode="&#x09;" horiz-adv-x="512" />
<glyph unicode="&#xa0;" horiz-adv-x="512" />
<glyph unicode="!" horiz-adv-x="682" d="M107 92q0 69 37 125t109 56q58 0 91.5 -34.5t33.5 -88.5q0 -78 -42.5 -127.5t-110.5 -49.5q-55 0 -86.5 32t-31.5 87zM230 404q13 104 58 625q23 269 24 327q67 2 284 59l24 -19l-47 -153l-189 -627q-35 -116 -47 -179l-80 -50z" />
<glyph unicode="&#x22;" horiz-adv-x="1024" d="M274 857l12 339q5 118 40.5 168.5t85.5 50.5q47 0 76.5 -33t29.5 -93q0 -51 -26 -130l-105 -322q-14 -42 -54 -42q-28 0 -44 17t-15 45zM678 857l12 339q4 117 40 168t86 51q47 0 76 -33t29 -93q0 -52 -25 -130l-106 -322q-13 -42 -53 -42q-28 0 -44 17t-15 45z" />
<glyph unicode="#" horiz-adv-x="1241" d="M130 444v154h237l34 219h-214v154h236l62 416h152l-60 -416h219l61 416h157l-61 -416h191v-154h-214l-30 -219h193v-154h-217l-65 -444h-158l65 444h-220l-65 -444h-156l66 444h-213zM523 598h217l34 219h-220z" />
<glyph unicode="$" horiz-adv-x="1024" d="M33 79q14 37 27 115q20 125 22 181l70 -1q0 -27 -8 -156q64 -99 223 -134l84 502q-172 33 -241 97q-87 81 -87 227q0 177 125.5 307.5t336.5 156.5q6 46 18 139l83 -3q-15 -91 -22 -134q82 -1 149 -19.5t144 -63.5q-43 -136 -50 -276l-65 2q6 51 6 111l-2 32 q-50 88 -197 111l-79 -475q200 -37 279.5 -117t79.5 -215q0 -123 -67.5 -231.5t-193.5 -181t-236 -70.5q-26 -146 -34 -206h-83l35 206q-84 4 -151 23.5t-166 72.5zM290 1002q0 -64 42 -107.5t159 -74.5l77 456q-93 -5 -152 -39t-92.5 -96.5t-33.5 -138.5zM448 81 q131 1 208.5 78.5t77.5 199.5q0 50 -20.5 90.5t-59.5 67.5q-28 20 -125 48z" />
<glyph unicode="%" horiz-adv-x="1821" d="M132 856q0 269 115 431q91 128 232 128q114 0 179.5 -79t65.5 -245q0 -227 -100.5 -383.5t-251.5 -156.5q-107 0 -173.5 78t-66.5 227zM300 729q0 -59 20 -84.5t56 -25.5t59 26q37 43 79 240.5t42 346.5q0 60 -22 88t-58 28q-33 0 -56 -27q-40 -45 -80 -231.5t-40 -360.5 zM423 -2q66 91 175 268l553 901q97 167 125 229q60 -8 91 -8l50 1q-75 -103 -174 -265l-554 -905q-97 -163 -124 -223l-78 4zM1113 289q0 269 115 431q91 128 232 128q114 0 179.5 -79t65.5 -245q0 -227 -100.5 -383.5t-251.5 -156.5q-107 0 -173.5 78t-66.5 227zM1281 162 q0 -59 20 -84.5t56 -25.5t59 26q37 43 79 240.5t42 346.5q0 60 -22 88t-58 28q-33 0 -56 -27q-40 -45 -80 -231.5t-40 -360.5z" />
<glyph unicode="&#x26;" horiz-adv-x="1706" d="M142 371q0 137 89 235q109 119 323 185q-88 14 -139.5 72t-51.5 148q0 101 67.5 177.5t190 151.5t259.5 75q62 0 121 -13t114 -39q-34 -118 -41 -259h-62l-5 122q-43 41 -94 61t-109 20q-111 0 -178.5 -62.5t-67.5 -155.5q0 -97 65.5 -159t173.5 -62q20 0 51 4 q-22 -76 -26 -118l-76 2q-72 3 -160.5 -27.5t-146 -111.5t-57.5 -191q0 -151 105.5 -246.5t291.5 -95.5q185 0 296.5 92.5t111.5 219.5q0 85 -46.5 134.5t-119.5 49.5q-62 0 -98.5 -36.5t-54.5 -131.5h-50l20 220q56 53 117.5 78.5t186.5 43.5l192 26q140 19 191 60t51 95 q0 73 -76 99v14l29 38q124 -59 124 -180q0 -72 -34 -131.5t-88 -87.5q-74 -40 -185 -51q-31 -3 -86 -15q61 -25 91 -70t30 -109q0 -194 -227.5 -331.5t-506.5 -137.5q-243 0 -374 110.5t-131 287.5z" />
<glyph unicode="'" horiz-adv-x="512" d="M220 857l12 339q5 118 40.5 168.5t85.5 50.5q47 0 76.5 -33t29.5 -93q0 -51 -26 -130l-105 -322q-14 -42 -54 -42q-28 0 -44 17t-15 45z" />
<glyph unicode="(" horiz-adv-x="682" d="M116 540q0 167 64 336t198 325q94 110 314 292l51 -50q-111 -104 -205 -267t-145 -360t-51 -413q0 -384 181 -619l-55 -43q-183 210 -277 429q-75 175 -75 370z" />
<glyph unicode=")" horiz-adv-x="682" d="M-65 -210q82 65 185.5 232.5t160.5 376.5t57 423q0 219 -52 375t-129 254l57 42q164 -214 216 -312q70 -130 101.5 -248t31.5 -234q0 -160 -56.5 -320t-168.5 -302.5t-353 -335.5z" />
<glyph unicode="*" horiz-adv-x="909" d="M183 931l4 9q154 51 297 112q-121 62 -297 133l-3 14q56 70 91 151h18q123 -147 224 -243q14 99 34 298l10 10q48 -17 78 -23l105 -18l6 -14q-121 -196 -166 -283q205 34 298 60l18 -16q-3 -37 -3 -72q0 -31 3 -94l-14 -9q-221 61 -317 73l152 -266l-5 -18 q-88 -24 -161 -56l-16 10q-8 163 -26 309q-114 -113 -223 -222l-20 2q-35 69 -87 153z" />
<glyph unicode="+" horiz-adv-x="1241" d="M111 601v187h416v416h187v-416h416v-187h-416v-417h-187v417h-416z" />
<glyph unicode="," horiz-adv-x="512" d="M-106 -313q74 107 133 269.5t66 269.5l178 46q54 13 81 24l34 -30l-90 -175q-52 -93 -117 -185.5t-140 -178.5l-107 -70z" />
<glyph unicode="-" horiz-adv-x="797" d="M29 405q56 89 101 209q185 -6 299 -6q122 0 283 6l11 -20q-53 -93 -105 -208q-154 5 -291 5q-143 0 -288 -5z" />
<glyph unicode="." horiz-adv-x="512" d="M30 104q0 85 42.5 135t109.5 50q62 0 98.5 -37t36.5 -101q0 -79 -44 -128.5t-110 -49.5q-61 0 -97 36t-36 95z" />
<glyph unicode="/" horiz-adv-x="645" d="M-364 -257q65 90 174 268l766 1250q97 166 125 229q128 -8 152 -8l85 2q-76 -105 -174 -265l-767 -1255q-97 -165 -123 -223l-132 4z" />
<glyph unicode="0" horiz-adv-x="1024" d="M69 481q0 385 149 659.5t392 274.5q171 0 269.5 -126t98.5 -395t-89 -500t-221 -339q-100 -82 -239 -82q-176 0 -276 150q-84 125 -84 358zM309 265q0 -121 33 -167.5t91 -46.5t99 47q62 72 125 379q82 403 82 663q0 101 -36.5 149t-93.5 48q-54 0 -93 -45 q-70 -80 -127 -370q-80 -409 -80 -657z" />
<glyph unicode="1" horiz-adv-x="1024" d="M29 -10l5 71h113q105 0 133 35q20 26 49 194l108 636q38 221 42 268q-18 -10 -130 -60l-243 -109l-19 15l33 136l105 28q189 51 318 104.5t183 89.5l37 -28l-175 -1006q-31 -183 -31 -227q0 -42 32 -59t166 -17h83l-11 -71q-333 10 -394 10q-228 0 -404 -10z" />
<glyph unicode="2" horiz-adv-x="1024" d="M-32 -6l7 57q99 87 281 282q205 217 292.5 387t87.5 289t-56.5 178.5t-154.5 59.5q-60 0 -103 -20.5t-76 -62t-91 -166.5l-61 21q61 148 112 276q63 60 135.5 90t155.5 30q183 0 287 -98t104 -263q0 -116 -62 -232t-242 -288l-219 -211l-112 -105v-12l377 2q164 1 256 18 l16 -15q-13 -29 -29 -86q-27 -92 -36 -135q-209 10 -454 10z" />
<glyph unicode="3" horiz-adv-x="1024" d="M20 60l58 330l68 -6q-5 -62 -5 -88q0 -126 57.5 -185.5t165.5 -59.5q138 0 214 116t76 277q0 135 -59 199t-170 64q-68 0 -146 -29l-11 11l32 105q33 -8 70 -8q148 0 227.5 77t79.5 201q0 93 -51 143t-143 50q-91 0 -152 -42t-113 -147l-58 24q57 108 111 227 q54 48 129 72t171 24q169 0 257.5 -76.5t88.5 -203.5q0 -132 -99.5 -224.5t-215.5 -129.5l-2 -9q159 -17 238 -98t79 -214q0 -126 -71.5 -239t-201.5 -180.5t-297 -67.5q-89 0 -161.5 19t-165.5 68z" />
<glyph unicode="4" horiz-adv-x="1024" d="M-8 360l8 76l143 228q67 103 174 257q106 152 164 225q128 158 147 188q107 13 250 67l25 -22q-20 -90 -53 -292l-95 -569l219 7l9 -7l-36 -160l-57 3q-65 3 -161 5l-7 -48q-24 -167 -24 -201q0 -29 18 -42.5t66 -13.5h149l-12 -71q-192 10 -333 10q-280 0 -397 -12l9 73 h63q20 0 100 5q61 4 73 22q24 36 48 190l14 86l-356 -4h-148zM158 518h366l67 421l50 275q-198 -262 -293 -396q-39 -62 -103 -153q-64 -90 -87 -147z" />
<glyph unicode="5" horiz-adv-x="1024" d="M17 68q32 114 53 304l61 -8q-2 -36 -2 -64q0 -115 64.5 -182t171.5 -67q119 0 198 105q99 134 99 334q0 134 -60 201t-168 67q-137 0 -219 -131l-64 27q31 159 70 375q20 111 35 215l19 131l10 8q71 -22 155.5 -33t181.5 -11q79 0 204 15q78 9 127 24l12 -19l-91 -184 q-172 -14 -288 -14q-95 0 -157 2t-92 6l-82 -406q121 103 286 103q118 0 202.5 -43t133 -126.5t48.5 -181.5q0 -145 -74 -272t-200 -198.5t-287 -71.5q-97 0 -176.5 21t-170.5 74z" />
<glyph unicode="6" horiz-adv-x="1024" d="M40 441q0 221 82 429q98 248 296.5 396.5t376.5 148.5q77 0 157 -29l-42 -143l-17 -6q-70 70 -173 70q-85 0 -160 -55t-135 -187q-81 -180 -105 -360q97 96 162.5 126.5t146.5 30.5q136 0 221 -86.5t85 -243.5q0 -148 -66.5 -269t-218.5 -218q-112 -72 -242 -72 q-170 0 -269 115.5t-99 352.5zM292 310q0 -128 47 -188.5t126 -60.5q61 0 105 37.5t78.5 144t34.5 245.5q0 132 -45 188.5t-125 56.5q-95 0 -148 -85q-73 -116 -73 -338z" />
<glyph unicode="7" horiz-adv-x="1024" d="M154 1145q31 151 41 225l10 12q71 -5 175 -8l189 -4q85 0 550 2l-5 -75q-42 -50 -164 -253q-123 -208 -244 -428q-82 -149 -206 -405q-53 -109 -94 -217l-22 1l-147 5q-32 0 -67 -6l-13 24l221 342q398 594 526 781q-335 4 -406 4q-194 0 -333 -13z" />
<glyph unicode="8" horiz-adv-x="1024" d="M31 287q0 81 37 150t121 136q45 36 173 110l-31 19q-162 95 -162 279q0 162 139 287q164 147 345 147q139 0 222.5 -76.5t83.5 -196.5q0 -62 -23.5 -116.5t-74.5 -105t-197 -144.5q129 -67 184.5 -146t55.5 -180q0 -187 -150 -314q-191 -163 -375 -163q-160 0 -254 86.5 t-94 227.5zM199 311q0 -111 64.5 -175t170.5 -64q119 0 187 77.5t68 189.5q0 80 -43 139.5t-167 133.5l-56 33q-105 -56 -164.5 -145.5t-59.5 -188.5zM363 1090q0 -76 41 -134.5t148 -116.5l51 -28q104 76 152 154q36 58 36 137q0 103 -55 159t-150 56q-97 0 -160 -64 t-63 -163z" />
<glyph unicode="9" horiz-adv-x="1024" d="M56 218l47 23q78 -169 237 -169q122 0 205 109q105 139 173 501q-145 -166 -299 -166q-139 0 -224 91.5t-85 263.5q0 117 36.5 208t104.5 156q94 88 208 141q83 39 177 39q166 0 266.5 -117t100.5 -346q0 -265 -109.5 -497t-281 -357t-333.5 -125q-38 0 -66 6l-103 28 q-7 86 -54 211zM362 917q0 -134 47.5 -193.5t126.5 -59.5q94 0 154.5 91.5t60.5 297.5q0 139 -47.5 201.5t-129.5 62.5q-108 0 -160 -108t-52 -292z" />
<glyph unicode=":" horiz-adv-x="512" d="M32 87q0 87 44 138.5t109 51.5q58 0 91 -33.5t33 -93.5q0 -80 -42 -128.5t-109 -48.5q-59 0 -92.5 33t-33.5 81zM151 796q0 79 43.5 128t110.5 49q57 0 90 -33.5t33 -90.5q0 -80 -43 -127.5t-109 -47.5q-58 0 -91.5 32t-33.5 90z" />
<glyph unicode=";" horiz-adv-x="512" d="M-126 -311q89 140 142.5 299t53.5 240q43 5 262 68l31 -30q-29 -65 -117 -218q-51 -89 -120 -184t-112 -140l-102 -68zM160 787q0 87 42.5 136.5t109.5 49.5q60 0 93.5 -32.5t33.5 -93.5q0 -80 -44 -127.5t-112 -47.5q-54 0 -88.5 33.5t-34.5 81.5z" />
<glyph unicode="&#x37e;" horiz-adv-x="512" d="M-126 -311q89 140 142.5 299t53.5 240q43 5 262 68l31 -30q-29 -65 -117 -218q-51 -89 -120 -184t-112 -140l-102 -68zM160 787q0 87 42.5 136.5t109.5 49.5q60 0 93.5 -32.5t33.5 -93.5q0 -80 -44 -127.5t-112 -47.5q-54 0 -88.5 33.5t-34.5 81.5z" />
<glyph unicode="&#x3c;" horiz-adv-x="1241" d="M111 608v173l1019 464v-207l-761 -344l761 -344v-206z" />
<glyph unicode="=" horiz-adv-x="1241" d="M111 414v187h1019v-187h-1019zM111 788v187h1019v-187h-1019z" />
<glyph unicode="&#x3e;" horiz-adv-x="1241" d="M111 144v206l761 344l-761 344v207l1019 -464v-173z" />
<glyph unicode="?" horiz-adv-x="909" d="M179 1069q53 121 87 259q81 50 143 68.5t135 18.5q176 0 273.5 -86t97.5 -223q0 -70 -25 -128.5t-67 -100.5q-64 -64 -97 -86l-139 -98q-110 -77 -143 -118t-33 -77q0 -47 47 -85l-45 -36q-58 56 -71 83q-19 38 -19 79q0 46 29 99.5t115 140.5l45 46q87 88 119 148.5 t32 115.5q0 75 -51.5 121.5t-137.5 46.5q-76 0 -124.5 -32t-81.5 -111l-22 -54zM207 96q0 80 42 128t106 48q57 0 90.5 -34t33.5 -88q0 -79 -43 -128t-111 -49q-55 0 -86.5 32t-31.5 91z" />
<glyph unicode="@" horiz-adv-x="1706" d="M202 682q0 200 95 368t259 263.5t358 95.5q275 0 475 -179q173 -155 173 -391q0 -153 -61 -270t-183 -198.5t-211 -81.5q-59 0 -97 38t-51 130q-66 -88 -105 -115q-60 -43 -132 -43q-106 0 -184 81.5t-78 204.5q0 117 59.5 221.5t162 168t202.5 63.5q67 0 109 -35 t59 -106l32 123h195l-149 -556q-11 -38 -11 -52q0 -28 12 -42t31 -14q41 0 103 54q83 70 136.5 189.5t53.5 228.5q0 183 -153.5 323.5t-376.5 140.5q-176 0 -315.5 -77t-219 -216.5t-79.5 -308.5q0 -166 78.5 -300.5t226 -214.5t325.5 -80q97 0 178.5 28.5t156 85.5 t143.5 154h132q-60 -109 -116 -166q-101 -102 -228.5 -160t-275.5 -58q-201 0 -372 95t-264 254t-93 354zM655 509q0 -73 30 -111t71 -38q56 0 118.5 68t100.5 195.5t38 197.5q0 81 -28.5 118.5t-70.5 37.5q-47 0 -101 -48t-106 -181.5t-52 -238.5z" />
<glyph unicode="A" horiz-adv-x="1479" d="M-97 -10l3 69h39q40 0 67 10t44 33l80 136l529 904q112 191 149 263h197q13 -99 29 -206l138 -880q22 -143 32.5 -184.5t24.5 -53.5t56 -16l45 -5q23 -1 48 -1l1 -69q-122 10 -282 10q-205 0 -337 -10l1 69h39q69 0 99 12t30 49q0 62 -16 170l-34 252l-159 1l-297 -1 l-84 -150q-131 -237 -131 -284q0 -23 24 -33q38 -16 158 -16l-12 -69q-123 10 -242 10q-120 0 -239 -10zM478 641l197 -2l195 2l-82 531z" />
<glyph unicode="B" horiz-adv-x="1366" d="M22 -10l11 69h24q47 0 90 20q19 8 28 40q16 53 49 250l88 525q49 297 49 378q0 29 -16 38q-31 17 -100 17h-72l11 68q109 -6 337 -6l346 6q167 0 252 -34t128.5 -97.5t43.5 -154.5q0 -127 -94 -224.5t-305 -147.5q200 -27 276 -101.5t76 -207.5q0 -114 -67 -212.5 t-201 -163t-292 -64.5l-402 12q-62 0 -260 -10zM440 103q171 -28 227 -28q101 0 161.5 36.5t102 123.5t41.5 192q0 126 -69.5 189t-226.5 63l-140 -2l-46 -273zM551 766l94 -2q143 0 220 37.5t121 116.5t44 184q0 69 -29 115t-80.5 68t-167.5 22q-59 0 -114 -8l-40 -244z " />
<glyph unicode="C" horiz-adv-x="1403" d="M126 518q0 262 109 454.5t326 317.5t453 125q115 0 218 -26.5t168 -66.5q-61 -198 -74 -335h-71q5 39 5 73q0 40 -8 126q-67 52 -144.5 76t-184.5 24q-171 0 -272.5 -69.5t-163.5 -230.5q-79 -202 -79 -446q0 -221 103 -329.5t296 -108.5q106 0 207.5 34t242.5 126 l22 -18l-24 -79q-165 -97 -237.5 -128t-155 -47.5t-172.5 -16.5q-272 0 -418 141.5t-146 403.5z" />
<glyph unicode="D" horiz-adv-x="1593" d="M-3 -10l11 69q31 0 92 17q26 7 37.5 23t27.5 97q27 151 132 783q36 215 36 282q0 37 -22 47q-38 19 -177 19l11 68q102 -6 293 -6l464 6q231 0 357 -61.5t196.5 -183.5t70.5 -297q0 -236 -110 -436.5t-298.5 -312.5t-418.5 -112l-386 8q-155 0 -316 -10zM414 120l91 -15 q143 -25 227 -25q168 0 264 83q120 104 184.5 305.5t64.5 394.5q0 159 -52 259t-135.5 142.5t-264.5 42.5q-97 0 -184 -17l-65 -387l-67 -402z" />
<glyph unicode="E" horiz-adv-x="1251" d="M-7 -10l11 69q105 14 123 31t43 139q10 50 80 469l69 414q20 119 20 159q0 27 -20 38q-32 18 -103 18h-74l11 68l118 -3l111 -4l368 4l330 1q78 0 126 -8l10 -8q-32 -157 -52 -314h-70l3 66l1 80q0 46 -29 56q-84 31 -293 31q-88 0 -168 -12q-54 -322 -85 -510l293 -8 q38 0 178 8l6 -13l-24 -97q-198 10 -389 10q-43 0 -81 -2l-94 -564q107 -14 215 -14q162 0 271 19q58 10 71 22q18 19 50 128l26 83h72l-32 -182q-17 -90 -24 -154l-15 -17q-46 -3 -95 -3l-783 14q-84 0 -175 -14z" />
<glyph unicode="F" d="M-39 -10l11 69h76q72 0 90.5 32t69.5 336l75 452q53 318 53 394q0 30 -24.5 42t-127.5 12h-47l11 68l167 -3l182 -4l544 7q67 0 127 -8l7 -15q-35 -195 -44 -315h-72l1 131q0 41 -10 65q-56 41 -256 41q-75 0 -183 -10q-74 -428 -97 -582l188 -1q153 0 291 14l7 -13 l-26 -102l-349 5q-75 0 -128 -5l-45 -271q-26 -156 -26 -191q0 -43 28 -59t133 -16h46l-12 -70l-392 8q-113 0 -268 -11z" />
<glyph unicode="G" horiz-adv-x="1593" d="M134 530q0 249 107.5 434t338 318t457.5 133q130 0 245 -22.5t180 -55.5l8 -14l-24 -90q-39 -143 -52 -242h-71q2 57 5 127l-1 71q-70 49 -158 73t-194 24q-183 0 -300 -74t-183 -231q-85 -203 -85 -441q0 -236 106.5 -352t302.5 -116q129 0 236 45l39 165q29 127 29 178 q0 27 -23.5 40.5t-101.5 13.5h-90l11 70q72 -3 354 -6l257 6l-12 -70h-32q-47 0 -75.5 -20.5t-38.5 -81.5l-17 -102l-33 -167l-3 -49l-1 -7q-38 -7 -200 -54q-117 -34 -203 -47t-173 -13q-295 0 -450 146t-155 411z" />
<glyph unicode="H" horiz-adv-x="1593" d="M-42 -10l11 69h61q83 0 104 29.5t57 242.5l106 635q39 238 39 301q0 32 -19 46t-70 14h-97l11 68l385 -7q55 0 256 7l-11 -68h-74q-70 0 -88 -28.5t-68 -304.5l-35 -209l75 1l325 -3l192 2l32 192q34 201 34 289q0 37 -30.5 49t-149.5 12l11 68q315 -9 383 -9 q129 0 256 9l-11 -68h-27q-97 0 -119 -15q-16 -11 -31 -63q-24 -83 -61 -308l-81 -482q-46 -277 -46 -335q0 -38 25.5 -47t137.5 -18h28l-12 -69q-170 10 -338 10q-165 0 -311 -10l11 69h32q112 0 132 28q25 36 73 324l46 276l-44 1h-255l-256 -2l-37 1l-28 -169 q-56 -341 -56 -395q0 -34 22 -46q33 -18 132 -18h26l-11 -69q-217 10 -281 10z" />
<glyph unicode="I" horiz-adv-x="797" d="M-21 -10l11 69h62q57 0 78 8t31 19.5t19 43.5t40 213q43 247 86 501q58 348 58 422q0 32 -26 46.5t-116 14.5h-53l11 68q276 -7 327 -7l331 7l-12 -68h-25q-101 0 -123 -12.5t-33 -44.5q-16 -45 -46 -225l-113 -680q-31 -184 -31 -238q0 -36 26 -52t111 -16h60l-12 -69 q-233 10 -348 10q-139 0 -313 -10z" />
<glyph unicode="J" horiz-adv-x="797" d="M-66 -338q40 -12 72 -12q76 0 112 87q26 64 78 378l135 811q45 271 45 345q0 29 -20 39q-38 17 -145 17h-44l11 68q216 -7 388 -7q160 0 278 7l-12 -68h-35q-89 0 -109.5 -14t-34 -68.5t-61.5 -312.5l-105 -635q-41 -243 -53 -288q-34 -135 -98.5 -234t-147 -151 t-159.5 -52q-51 0 -89 22z" />
<glyph unicode="K" horiz-adv-x="1479" d="M-9 -10l11 69h65q86 0 103.5 29t62.5 296l90 541q47 283 47 337q0 38 -20.5 51.5t-100.5 13.5h-68l11 68q131 -6 266 -6q72 0 381 6l-11 -68h-42q-106 0 -126.5 -28.5t-62.5 -287.5l-54 -323q86 53 278 240l101 97q177 171 249 259q28 35 27 76l6 35l216 -6q45 0 112 6 l-3 -68l-51 -7q-52 -7 -83.5 -22t-91.5 -66q-152 -130 -254 -225l-254 -238l399 -551q90 -125 112.5 -142t70.5 -17h43l-12 -69q-31 0 -164 8l-73 2q-62 0 -135 -10l-82 126q-87 127 -168 238q-166 227 -245 321l-26 -160q-58 -344 -58 -383q0 -36 16.5 -47.5t102.5 -19.5 l63 -6l-11 -69l-375 10q-133 0 -262 -10z" />
<glyph unicode="L" horiz-adv-x="1251" d="M-7 -10l11 69h45q69 0 91 43q13 23 82 413l63 383q21 124 33 236t12 138q0 30 -18.5 42.5t-73.5 12.5h-96l11 68q271 -6 375 -6q129 0 287 6l-12 -68h-56q-88 0 -109.5 -16.5t-34.5 -79.5q-10 -47 -59 -340q-86 -521 -131 -787q156 -9 240 -9q241 0 307 31q30 14 65 130 l35 102h73q-57 -251 -70 -368q-248 0 -406 4l-292 6q-250 0 -372 -10z" />
<glyph unicode="M" horiz-adv-x="1933" d="M-70 -9l11 68h37q71 0 94 40.5t117 404.5l139 540q44 170 44 207t-28.5 56.5t-93.5 19.5h-81l11 68q63 -4 275 -4q130 0 177 4q22 -93 92 -357l180 -678l284 465q113 187 337 570q200 -4 252 -4q85 0 216 4l-12 -68h-46q-79 0 -102.5 -30.5t-53.5 -211.5l-126 -761 q-26 -151 -26 -200q0 -37 21.5 -51t97.5 -14h61l-11 -68l-334 9q-59 0 -295 -9l11 68h53q87 0 109 33.5t62 285.5l126 812l-326 -527q-180 -291 -305 -521l-97 -177h-54q-66 261 -145 553l-158 600q-119 -496 -199 -826q-28 -128 -28 -175q0 -29 21.5 -43.5t79.5 -14.5h75 l-11 -68q-206 9 -241 9q-68 0 -210 -9z" />
<glyph unicode="N" horiz-adv-x="1593" d="M-35 -9l11 68h51q56 0 76 12t31 35q16 33 55 230l64 336q70 420 90 542q-43 72 -76 92.5t-101 20.5h-75l12 68q135 -7 246 -7q102 0 195 7q16 -26 80 -140q39 -69 69 -117q300 -508 505 -849l62 370q89 535 89 611q0 29 -19.5 43t-69.5 14h-91l11 68q153 -7 271 -7 q112 0 212 7l-11 -68h-70q-58 0 -77.5 -23t-59.5 -214q-65 -310 -164 -907q-22 -130 -31 -199h-178l-166 290l-481 818q-42 -251 -64 -382q-83 -502 -83 -588q0 -33 18.5 -48t67.5 -15h90l-12 -68q-156 9 -254 9q-104 0 -223 -9z" />
<glyph unicode="O" horiz-adv-x="1706" d="M128 536q0 266 107 466t291.5 306.5t436.5 106.5q302 0 468 -155t166 -423q0 -234 -116 -439.5t-304 -315t-434 -109.5q-294 0 -454.5 150.5t-160.5 412.5zM411 475q0 -140 44 -228t133.5 -137t208.5 -49q147 0 250.5 80t185 295.5t81.5 468.5q0 212 -98.5 317 t-280.5 105q-158 0 -263.5 -79.5t-183 -288.5t-77.5 -484z" />
<glyph unicode="P" horiz-adv-x="1366" d="M-17 -10l11 69h69q88 0 105 33q23 41 83 400l88 530q29 172 29 232q0 42 -23 57.5t-104 15.5h-78l11 68l291 -6l465 10q224 0 315.5 -93.5t91.5 -248.5q0 -200 -149 -342t-369 -142q-77 0 -191 39l-7 71q93 -33 155 -33q72 0 137.5 45.5t108 139t42.5 207.5 q0 133 -66.5 200t-195.5 67q-91 0 -157 -15l-69 -412l-81 -484q-36 -218 -36 -273q0 -34 22 -46q38 -20 131 -20h58l-11 -69q-280 11 -338 11z" />
<glyph unicode="Q" horiz-adv-x="1706" d="M134 526q0 406 230.5 647.5t602.5 241.5q302 0 468.5 -154t166.5 -422q0 -310 -193 -556q-244 -310 -655 -310q-198 0 -337.5 68.5t-211 190.5t-71.5 294zM289 -300q0 116 76 193t189 77q52 0 119 -18t208 -79q273 -119 333.5 -143.5t107.5 -24.5q67 0 109 43.5t67 155.5 l63 -21q-40 -178 -119.5 -262t-176.5 -84q-111 0 -278 95l-223 124q-171 95 -255 95q-46 0 -80.5 -22t-52.5 -59.5t-25 -126.5l-61 30zM417 463q0 -193 101.5 -297.5t276.5 -104.5q154 0 257.5 79t185.5 295t82 474q0 211 -99 314.5t-283 103.5q-155 0 -260.5 -80.5 t-183 -292.5t-77.5 -491z" />
<glyph unicode="R" horiz-adv-x="1479" d="M-35 -10l11 69h59q72 0 92.5 19t45.5 149l65 397l85 510q15 87 15 131q0 32 -22 47t-85 15h-82l11 68q107 -6 334 -6l397 8q161 0 237.5 -33t122 -102t45.5 -159q0 -139 -99 -238.5t-320 -141.5l140 -228l133 -224q92 -156 122 -184t85 -28h35l-12 -69q-116 10 -204 10 q-82 0 -165 -10l-32 60q-45 88 -89 164l-136 235q-64 110 -171 274l5 33l73 -2q161 0 261.5 82.5t100.5 247.5q0 113 -61 168t-199 55q-55 0 -153 -16l-63 -378l-95 -568q-29 -174 -29 -221q0 -35 24.5 -50t109.5 -15h56l-11 -69l-339 11q-68 0 -298 -11z" />
<glyph unicode="S" d="M63 75q30 138 52 310h66l-3 -110l1 -64q46 -55 132.5 -92t182.5 -37q145 0 223 76.5t78 207.5q0 89 -45 133q-46 43 -203 78q-233 52 -299 133q-66 80 -66 214q0 199 159 345t393 146q89 0 167.5 -21t145.5 -63q-38 -169 -50 -301h-69l3 106l-1 58q-37 50 -107.5 81.5 t-161.5 31.5q-134 0 -209 -71.5t-75 -195.5q0 -70 31 -120t87 -70q83 -29 193 -53q209 -47 266 -119t57 -191q0 -198 -171.5 -356t-413.5 -158q-108 0 -198.5 25.5t-164.5 76.5z" />
<glyph unicode="T" horiz-adv-x="1251" d="M86 1038q32 176 50 355l11 9l421 -9h284q333 0 478 9l15 -9l-20 -104q-29 -154 -39 -251h-76q8 104 8 162q0 57 -26.5 71.5t-167.5 14.5h-170q-48 -290 -164 -986q-22 -133 -22 -179q0 -33 21.5 -47.5t91.5 -14.5h84l-11 -69q-224 10 -361 10q-149 0 -305 -10l11 69h83 q65 0 83.5 13t28 48t46.5 242q71 423 154 924h-102q-190 0 -250 -24q-44 -18 -65 -144l-13 -80h-78z" />
<glyph unicode="U" horiz-adv-x="1593" d="M132 1327l12 68l312 -4q85 0 151 4l11 -14q-48 -203 -83 -412l-60 -362q-38 -229 -38 -276q0 -84 60 -137t163 -53q69 0 145 32t151.5 100t86 92t44.5 231l72 431q32 193 32 246q0 27 -23 40.5t-94 13.5h-76l12 68q172 -7 276 -7l369 7l-11 -68h-55q-88 0 -106 -32 q-26 -45 -78 -354l-79 -477q-46 -272 -46 -332q0 -37 28.5 -55t104.5 -18h56l-11 -69q-110 10 -290 10q-76 0 -165 -7l-14 12q3 18 17 75q23 97 33 179q-154 -162 -289 -236q-91 -50 -210 -50q-165 0 -265 94t-100 235q0 66 18 175l53 315q68 412 68 474q0 33 -19.5 47 t-79.5 14h-83z" />
<glyph unicode="V" horiz-adv-x="1366" d="M128 1327v68q139 -7 280 -7q160 0 327 7v-68h-75q-49 0 -67.5 -14t-18.5 -50q0 -57 25 -211l61 -368q45 -274 70 -404l228 426q157 291 253 509q25 56 25 68q0 22 -16.5 33t-73.5 11h-84l11 68q129 -6 227 -6q95 0 224 6l-11 -68h-36q-43 0 -67 -21q-15 -15 -76 -125 l-495 -901l-157 -290h-168q-21 145 -79 496q-30 180 -85 481.5t-62 319.5t-25 29t-65 11h-70z" />
<glyph unicode="W" horiz-adv-x="2048" d="M105 1327l11 68q174 -5 310 -5t286 5l-1 -68h-52q-75 0 -95 -15t-20 -60q0 -66 50 -568l37 -376q186 393 304 633l225 476h65q10 -26 50 -171l86 -320l177 -646q214 562 266 699q40 105 73 226q14 52 14 72q0 25 -22.5 37.5t-90.5 12.5h-65l11 68q201 -6 257 -6 q84 0 194 6l-12 -68h-25q-64 0 -84 -30.5t-185 -444.5l-223 -554q-80 -200 -118 -308h-173q-24 102 -63 242q-51 190 -216 778q-222 -448 -498 -1020h-169q-38 390 -85 843q-19 182 -49 384q-11 75 -31 92.5t-86 17.5h-53z" />
<glyph unicode="X" horiz-adv-x="1479" d="M-59 -10l11 69h51q77 0 114 34l234 258l189 204l99 106l-207 395q-113 215 -142.5 243t-103.5 28h-74l12 68q134 -6 342 -6q193 0 313 6v-68h-46q-71 0 -93.5 -10.5t-22.5 -29.5t10 -44q19 -46 75 -154l123 -236l159 182q190 218 190 251q0 17 -20 29t-74 12h-79l4 68 q133 -7 266 -7q135 0 272 7l-11 -68h-35q-77 0 -117 -31q-64 -48 -308 -312l-199 -215l193 -374q150 -291 171 -313.5t106 -22.5h41l-11 -69q-160 10 -305 10t-324 -10l3 69h83q50 0 66.5 12t16.5 35q0 31 -51 129l-175 339l-134 -153q-44 -45 -156 -182q-64 -78 -74 -98.5 t-10 -30.5q0 -25 21 -38t88 -13h71l-3 -69q-155 10 -284 10q-131 0 -265 -10z" />
<glyph unicode="Y" horiz-adv-x="1251" d="M52 1203v67q54 37 92 69l90 75q28 5 55 5q81 0 145 -47t114 -167q71 -170 126 -427l36 -162q117 281 252.5 477.5t231.5 261.5q65 45 133 46l-10 -186q-77 -14 -148 -70q-105 -84 -208.5 -247t-160.5 -306q-38 -92 -70 -287l-15 -86q-10 -62 -10 -91q0 -36 25 -51.5 t105 -15.5h79l-12 -71q-141 11 -258 11q-160 0 -418 -11l12 71h80q60 0 84 13.5t33 41.5q17 85 26 140q35 212 35 248q0 81 -101 392q-73 227 -141 300q-38 41 -88 41q-38 0 -114 -34z" />
<glyph unicode="Z" horiz-adv-x="1366" d="M4 54q71 69 341 409l653 823h-258q-331 0 -398 -25q-29 -11 -83 -216h-77l20 98q28 145 38 245l11 9l604 -9h516v-56q-83 -87 -425 -519q-393 -492 -558 -706l315 -3q305 0 435 35q55 96 89 232h75q-45 -185 -77 -371l-9 -5q-242 5 -512 5h-490l-206 -5z" />
<glyph unicode="[" horiz-adv-x="682" d="M-28 -239l55 311q27 157 59 376l57 389l37 289l42 344l13 14q82 -6 255 -6q131 0 195 9l-9 -74h-99q-67 0 -101 -9q-18 -5 -27.5 -16.5t-24.5 -99.5q-24 -131 -58 -343l-43 -286l-47 -343q-48 -344 -48 -435q0 -33 23 -45q36 -18 138 -18h77l-11 -72q-69 9 -183 9 q-234 0 -287 -7z" />
<glyph unicode="\" horiz-adv-x="1241" d="M260 1480l115 -1q26 0 124 8q9 -87 49 -229l339 -1247q38 -136 86 -268l-125 2q-22 0 -114 -4q-17 107 -49 222l-339 1252q-41 149 -86 265z" />
<glyph unicode="]" horiz-adv-x="682" d="M-7 -253l9 74l87 -3q82 -3 126 13q8 3 15.5 12t16.5 49q13 57 53 324q53 357 101 705q46 334 46 421q0 44 -29 59t-141 13l-69 -2l11 74q90 -5 245 -5q145 0 225 5l15 -14q-19 -82 -60 -329l-110 -746q-14 -101 -51 -391l-28 -247l-11 -11l-223 4z" />
<glyph unicode="^" horiz-adv-x="1241" d="M141 573l405 816h209l406 -816h-219l-291 565l-291 -565h-219z" />
<glyph unicode="_" horiz-adv-x="1024" d="M-12 -154h1048v-102h-1048v102z" />
<glyph unicode="`" horiz-adv-x="682" d="M265 1344q0 34 23.5 56.5t60.5 22.5q33 0 58 -16.5t75 -82.5l199 -263h-81l-247 175q-60 42 -74 62t-14 46z" />
<glyph unicode="a" d="M79 151q0 115 43.5 276t92.5 249q26 46 110 112q160 126 225.5 155t142.5 29q55 0 109 -12.5t106 -37.5l93 51l33 -21q-8 -19 -21 -62l-38 -134l-113 -481q-15 -63 -15 -97q0 -35 24 -35q43 0 161 96l21 -65q-249 -201 -349 -201q-33 0 -49 21q-23 29 -23 72q0 60 70 338 l18 71q-122 -192 -169 -249q-78 -96 -147.5 -152t-138.5 -84q-41 -17 -70 -17q-54 0 -85 41t-31 137zM304 211q0 -35 12 -52.5t28 -17.5q15 0 41 17q67 45 156 158.5t147 236t73 217.5l9 50q-45 22 -86.5 33t-80.5 11q-69 0 -117.5 -46.5t-105.5 -234.5q-76 -249 -76 -372z " />
<glyph unicode="b" horiz-adv-x="1100" d="M107 197q0 55 26 201l82 443q76 407 76 455q0 24 -17.5 34.5t-71.5 10.5h-74l14 60q289 42 406 92l23 -19q-8 -32 -40 -178l-142 -650q91 123 173 190.5t170 101.5t161 34q63 0 96 -48q44 -65 44 -190q0 -196 -84 -376q-67 -143 -210 -243q-202 -142 -379 -142 q-128 0 -191 58q-62 54 -62 166zM332 240q0 -82 40 -125t104 -43q61 0 120 53q79 71 138.5 236t59.5 313q0 83 -23.5 119.5t-56.5 36.5q-64 0 -159.5 -77.5t-159 -220.5t-63.5 -292z" />
<glyph unicode="c" horiz-adv-x="909" d="M81 250q0 119 37.5 251t85 200t146.5 128l176 105q79 38 173 38q47 0 101.5 -12.5t116.5 -38.5q-42 -104 -73 -288h-69q11 76 11 105l-2 32q-42 37 -89 55.5t-99 18.5q-77 0 -122 -39q-62 -55 -96 -173q-57 -199 -57 -336q0 -92 42.5 -143t111.5 -51q67 0 162.5 41 t179.5 112l23 -65q-203 -136 -305.5 -176.5t-185.5 -40.5q-126 0 -197 72.5t-71 204.5z" />
<glyph unicode="d" d="M79 185q0 115 38 260t98 251q34 61 85 98q153 112 246 152q66 29 144 29q51 0 130 -22l34 218q17 108 17 123q0 24 -19 36t-76 12q-33 0 -79 -1l12 60q184 4 420 92l27 -19q-34 -126 -73 -309l-172 -820q-24 -114 -24 -168q0 -34 22 -34q27 0 152 94l18 -60l-183 -134 q-66 -43 -112 -59q-30 -11 -55 -11q-35 0 -58 27t-23 73q0 27 5 54q23 115 45 197l44 161q-127 -241 -310 -394q-140 -118 -227 -118q-55 0 -90.5 50t-35.5 162zM318 204q0 -33 11.5 -48t29.5 -15q21 0 56 22q60 36 130 124q93 116 150 233t80 225l19 88q-75 44 -172 44 q-87 0 -122 -34q-50 -48 -116 -262.5t-66 -376.5z" />
<glyph unicode="e" horiz-adv-x="909" d="M79 221q0 140 59 326q42 132 113.5 209t243.5 166q97 50 196 50q91 0 143 -45.5t52 -119.5q0 -90 -51.5 -166.5t-183.5 -140t-326 -94.5q-21 -72 -21 -136q0 -80 40.5 -119.5t115.5 -39.5q57 0 146.5 33t188.5 98l22 -55l-170 -108q-106 -59 -179.5 -82.5t-133.5 -23.5 q-122 0 -188.5 64t-66.5 184zM333 461q155 42 216 81t101.5 110.5t40.5 127.5q0 43 -26.5 69t-71.5 26q-49 0 -94 -32t-83 -112.5t-83 -269.5z" />
<glyph unicode="f" horiz-adv-x="682" d="M-304 -552q58 152 69 221l32 6q37 -87 103 -87q24 0 46.5 13.5t39.5 45t48 159.5l54 250l156 772l-96 2l-97 -2l10 52q37 13 102 31q66 19 107 37l13 54q24 105 61.5 159.5t173 164t211.5 148.5q42 21 105 21q53 0 88 -16q-44 -141 -60 -257l-30 -7q-77 124 -152 124 q-40 0 -70.5 -32t-53.5 -130q-45 -188 -55 -245h26q38 0 147 7q54 4 83 9l10 -16q-25 -66 -33 -104l-122 2l-134 -2l-70 -299q-121 -512 -207.5 -701t-248.5 -317q-104 -81 -180 -81q-35 0 -76 18z" />
<glyph unicode="g" horiz-adv-x="1024" d="M-110 -307q0 69 50.5 138.5t145.5 117.5q46 23 203 78q-53 48 -53 98q0 40 31 60l79 46q53 31 84 56l-43 -2q-79 0 -154 37q-56 27 -87 80t-31 134q0 101 45.5 188t105 128t211.5 96q69 24 129 24q84 0 142 -25q35 -15 63 -19.5t74 -4.5l198 7l10 -16l-24 -105 q-59 11 -152 11l-26 -2q21 -54 21 -111q0 -82 -36.5 -165t-88 -127t-179.5 -94q-90 -34 -118.5 -59.5t-28.5 -46.5q0 -19 15 -36q21 -25 80 -67l133 -96q87 -62 120 -114.5t33 -117.5q0 -140 -125 -233q-155 -114 -401 -114q-217 0 -321.5 74t-104.5 182zM66 -278 q0 -88 76.5 -147.5t209.5 -59.5q130 0 202.5 57.5t72.5 137.5q0 44 -31.5 83.5t-171.5 134.5l-91 61l-101 -46q-59 -32 -94 -63t-53.5 -71.5t-18.5 -86.5zM320 542q0 -96 40.5 -141t115.5 -45q59 0 106 36.5t81 124t34 188.5q0 92 -41 136t-115 44q-105 0 -163 -107 t-58 -236z" />
<glyph unicode="h" d="M61 -10q59 190 109 423l30 142q39 181 119 609q18 98 18 121q0 32 -21 44t-95 12h-53l10 60q90 6 205 32t206 60l21 -18q-49 -186 -100 -413l-122 -547q158 234 319 345.5t257 111.5q43 0 63 -20.5t20 -66.5q0 -38 -10 -88q-5 -23 -56 -205l-39 -140q-63 -227 -63 -259 q0 -19 11.5 -32t26.5 -13q14 0 39 15q76 43 109 72l23 -55q-280 -207 -366 -207q-40 0 -60 24.5t-20 76.5q0 48 16 116l68 252l26 92q16 61 40 183q4 23 4 31q0 17 -10.5 27.5t-27.5 10.5q-51 0 -131 -68q-124 -105 -213.5 -287.5t-120.5 -419.5q-95 -7 -212 -38z" />
<glyph unicode="i" horiz-adv-x="682" d="M62 722q242 176 307 209q84 42 126 42q27 0 45 -20.5t18 -57.5q0 -71 -65 -292l-32 -108q-75 -250 -75 -316q0 -34 28 -34q26 0 171 96l27 -53l-207 -138q-83 -52 -125 -66q-29 -11 -54 -11q-38 0 -58.5 25.5t-20.5 82.5q0 75 32 192l67 238q50 179 50 233q0 26 -23 26 q-16 0 -48 -16q-78 -40 -139 -86zM405 1270q0 76 40 120t102 44q49 0 79.5 -30.5t30.5 -80.5q0 -70 -39.5 -115t-101.5 -45q-50 0 -80.5 30.5t-30.5 76.5z" />
<glyph unicode="j" horiz-adv-x="682" d="M-155 -562q24 81 33 162l29 6l8 -12q42 -61 86 -61q41 0 62 46q32 71 125 520l86 414q36 178 36 224q0 36 -23 36q-14 0 -50 -19q-67 -35 -143 -92l-26 55q253 182 329 219t121 37q25 0 39.5 -19t14.5 -57q0 -50 -28 -167l-79 -335l-69 -270q-61 -236 -107.5 -345 t-131 -207t-132 -123t-96.5 -25q-31 0 -84 13zM421 1270q0 77 39.5 120.5t100.5 43.5q50 0 80 -30.5t30 -81.5q0 -71 -39.5 -116t-100.5 -45q-50 0 -80 31t-30 78z" />
<glyph unicode="k" d="M76 0q75 246 153 629l42 205q76 372 76 462q0 26 -21 35.5t-108 9.5h-42l18 60q103 8 218.5 34t195.5 58l23 -21q-87 -383 -136 -599l-93 -413l78 91q221 261 360 353q103 68 210 68q27 0 58 -4v-11l-27 -96q-9 -33 -12 -55l-11 -8q-60 27 -96 27q-66 0 -146.5 -42.5 t-151.5 -125.5q21 -66 92.5 -260t116.5 -245q19 -21 39 -21q47 0 153 76l21 -59l-178 -111q-75 -42 -121 -57q-21 -7 -38 -7q-33 0 -59 32q-37 44 -95 197l-39 103l-61 174l-49 -52q-59 -64 -77 -139q-40 -164 -47 -276q-97 -3 -230 -39z" />
<glyph unicode="l" horiz-adv-x="682" d="M158 88q0 88 35 232l129 536q31 125 66 310q18 113 18 133t-18 29q-25 13 -94 13h-58l9 60q216 24 414 92l24 -22l-71 -290l-143 -608q-71 -305 -71 -379q0 -25 7.5 -36t19.5 -11q15 0 44 17q75 40 122 79l30 -54l-179 -122q-107 -65 -147 -79.5t-66 -14.5q-31 0 -51 28 t-20 87z" />
<glyph unicode="m" horiz-adv-x="1706" d="M42 734q171 131 217 162q69 47 117 64q34 13 55 13q27 0 44 -17t17 -45t-12 -85q-31 -148 -45 -192l-41 -178q130 225 274 352q186 164 296 164q33 0 53 -21t20 -60q0 -40 -19 -125q-54 -195 -85 -310q96 179 206 292.5t215.5 168.5t171.5 55q35 0 54.5 -24.5t19.5 -78.5 q0 -52 -47 -225l-42 -151q-21 -74 -48 -221q-15 -83 -15 -99q0 -36 23 -36q13 0 33 13q75 45 122 84l27 -50l-171 -122q-79 -51 -130.5 -70t-78.5 -19q-33 0 -54.5 23.5t-21.5 67.5q0 38 19 120l114 436q19 82 19 110q0 23 -9 34.5t-24 11.5q-22 0 -50 -15 q-57 -30 -132 -110.5t-130 -178.5t-98.5 -244t-49.5 -228q-68 0 -213 -27l-24 27q23 58 94 289q34 104 72 293q27 135 27 177q0 23 -10 35t-27 12q-35 0 -93 -46q-90 -72 -196 -245q-78 -127 -118 -276.5t-46 -229.5q-92 0 -222 -36l-20 27l24 77q22 67 56 195 q48 177 77 338q16 90 16 119q0 30 -8 46q-6 9 -17 9q-38 0 -156 -101z" />
<glyph unicode="n" d="M47 744l151 114q100 71 164 99q36 15 68 15q28 0 42.5 -14.5t14.5 -46.5q0 -28 -8 -71q-22 -114 -48 -210l-41 -150q79 129 106 162q82 101 177.5 182.5t180.5 120.5q59 27 104 27q42 0 64 -24t22 -69q0 -66 -61 -282l-51 -183q-41 -148 -41 -231q0 -38 23 -38 q17 0 50 19q64 37 99 71l25 -59q-177 -127 -239 -159q-83 -44 -136 -44q-37 0 -55 24t-18 84q0 65 40 203l32 111q43 148 53 196q27 116 27 149q0 18 -10.5 28t-28.5 10q-50 0 -136 -86q-119 -119 -196.5 -288t-110.5 -392q-127 -10 -219 -39l-25 26q21 54 35 99 q48 163 67 229q34 121 56.5 250.5t22.5 168.5q0 30 -23 30q-13 0 -43 -16q-61 -32 -108 -70z" />
<glyph unicode="o" d="M97 279q0 200 89 387q52 110 209.5 208t307.5 98q114 0 190 -36.5t112 -103t36 -175.5q0 -137 -50.5 -274.5t-116.5 -204.5q-86 -86 -237 -156q-106 -49 -223 -49q-162 0 -239.5 76.5t-77.5 229.5zM337 301q0 -125 46 -178t139 -53q65 0 115 45q66 60 115.5 220.5 t49.5 325.5q0 114 -48 169t-129 55q-71 0 -128 -50t-100 -190q-60 -198 -60 -344z" />
<glyph unicode="p" d="M-39 -543q53 184 88 323q32 120 109 448q94 402 94 517q0 33 -26 33q-32 0 -152 -84l-27 51q203 151 280.5 189t123.5 38q24 0 38 -16.5t14 -45.5q0 -21 -6 -53l-47 -201l-28 -108q138 206 270 304q163 120 273 120q50 0 74 -41q44 -73 44 -183q0 -126 -47 -275 t-102.5 -224t-151 -137.5t-190.5 -107.5q-63 -31 -161 -31q-52 0 -109 14l-27 -94q-18 -62 -54 -221q-11 -50 -16.5 -91t-6.5 -97q-133 -9 -236 -43zM343 128q117 -56 195 -56q69 0 115 43q62 59 126 247t64 347q0 62 -13 83t-37 21q-49 0 -121 -54q-108 -81 -189 -224 t-125 -337z" />
<glyph unicode="q" horiz-adv-x="1100" d="M67 149q0 107 43 264t98 252q29 51 113 117q166 129 247 166q52 24 125 24q60 0 118.5 -13.5t115.5 -40.5l96 55l37 -18q-42 -83 -145 -555l-80 -365l-98 -457q-7 -38 -7 -62l2 -34q-63 0 -271 -41l-19 37q44 34 54 64q21 63 75 295q56 245 133 567q-86 -131 -194.5 -235 t-221.5 -162q-67 -34 -119 -34q-45 0 -73.5 42t-28.5 134zM296 205q0 -32 14 -49.5t33 -17.5q51 0 130 74q105 98 186.5 227t120.5 339l8 42q-37 22 -78.5 33t-86.5 11q-67 0 -104.5 -22.5t-67.5 -82.5q-58 -115 -106.5 -299t-48.5 -255z" />
<glyph unicode="r" horiz-adv-x="797" d="M54 741q291 231 377 231q25 0 41.5 -19.5t16.5 -54.5q0 -55 -73 -341l-13 -53h13q74 171 152.5 288.5t135.5 153.5q42 26 100 26q28 0 55 -9q-41 -131 -46 -277l-23 -14q-49 43 -106 43q-91 0 -165 -121q-128 -207 -181 -581q-128 -15 -220 -40l-22 23q55 178 101 370 q24 100 44 232q13 89 13 134q0 27 -6 37t-16 10q-15 0 -46 -17q-51 -28 -108 -76z" />
<glyph unicode="s" horiz-adv-x="909" d="M36 29q36 138 45 268h62l3 -97q43 -52 114 -85.5t144 -33.5q92 0 139.5 42t47.5 111q0 53 -32 88t-109 51l-86 18q-121 25 -165 66q-67 62 -67 162q0 119 82 188q194 165 378 165q58 0 117 -14.5t119 -44.5q-25 -106 -40 -241h-60l-11 99q-60 52 -115 72.5t-113 20.5 q-74 0 -118.5 -40.5t-44.5 -102.5q0 -61 43 -97q42 -37 161 -57l56 -9q105 -18 158 -76q52 -58 52 -146q0 -90 -62 -161t-172.5 -136.5t-250.5 -65.5q-66 0 -117.5 10t-157.5 46z" />
<glyph unicode="t" horiz-adv-x="797" d="M100 825l14 55q96 21 236 69q36 198 37 281q107 28 252 80l21 -24q-51 -176 -94 -354h103q112 0 175 8l8 -8l-14 -51q-10 -34 -13 -64q-88 8 -175 8h-107q-34 -116 -89 -379q-43 -204 -43 -252q0 -26 14 -40.5t35 -14.5q30 0 74 24q85 46 154 107l24 -56l-150 -110 q-116 -79 -177 -105t-101 -26q-51 0 -82 34t-31 96q0 33 8.5 77t83.5 372q49 215 59 273h-222z" />
<glyph unicode="u" d="M60 767q135 97 236 151t154 54q34 0 51 -18t17 -61q0 -52 -36 -183l-59 -218q-33 -123 -55 -235q-10 -49 -10 -72q0 -22 9.5 -33t25.5 -11q21 0 54 21q52 34 132 133.5t138.5 222t86 236t32.5 178.5q103 4 221 41l17 -20q-51 -155 -117 -398q-79 -294 -79 -371 q0 -35 30 -35q12 0 38 14q61 34 111 75l20 -57l-182 -131q-75 -49 -113.5 -63t-65.5 -14q-30 0 -47.5 21.5t-17.5 62.5q0 50 35 181l58 219q-122 -220 -310 -374q-135 -110 -221 -110q-44 0 -69 29.5t-25 94.5q0 35 7 69q8 45 43 170l29 107q67 245 67 305q0 20 -8 30.5 t-21 10.5q-30 0 -152 -79z" />
<glyph unicode="v" d="M45 691l88 269q79 14 141 14q42 0 77 -4l75 -8q34 -4 57 -4q115 0 165 29l28 -39q-70 -76 -137.5 -196.5t-100 -237t-32.5 -215.5t37.5 -148t97.5 -49q73 0 138 56q92 79 159.5 244.5t67.5 301.5q0 59 -23 88t-62 29q-34 0 -70 -29l-21 43q40 29 81 71.5t56 65.5 q22 7 45 7q71 0 109.5 -47.5t38.5 -151.5q0 -173 -111 -381.5t-256 -317t-267 -108.5q-111 0 -178 74t-67 210q0 89 27 171t86.5 165t231.5 256q-73 -18 -133 -18l-113 1q-61 0 -105 -5q-46 -76 -70 -138z" />
<glyph unicode="w" horiz-adv-x="1706" d="M38 690q16 54 46 129q35 89 37 142q71 12 100 12q57 0 105 -4l84 -8q37 -3 66 -3q116 0 173 22l29 -32q-139 -153 -212.5 -326.5t-73.5 -322.5q0 -105 31 -151t76 -46q71 0 160 114q127 161 185 413t58 297q100 19 220 54l26 -19q-23 -70 -85 -317q-59 -237 -59 -381 q0 -79 33 -120t84 -41q59 0 126 60q101 90 168 246.5t67 297.5q0 60 -26.5 90.5t-69.5 30.5q-33 0 -69 -25l-24 47q65 35 145 118q32 8 53 8q62 0 103.5 -51t41.5 -148q0 -171 -111.5 -372.5t-281.5 -328.5q-135 -102 -250 -102q-84 0 -138.5 58.5t-54.5 155.5q0 71 19 174 l-23 -39q-61 -104 -107 -158q-91 -104 -168 -147.5t-142 -43.5q-93 0 -152.5 72t-59.5 205q0 89 28.5 173.5t87.5 166.5t236 259q-67 -19 -172 -19h-69q-55 0 -113 -7l-65 -136z" />
<glyph unicode="x" horiz-adv-x="1024" d="M-18 0q34 88 37 211l50 4q16 -85 68 -85q49 0 121.5 71.5t168.5 214.5q-43 282 -71.5 329.5t-84.5 47.5q-37 0 -77 -25t-67 -70l-47 26l59 93q42 65 64 116q44 20 84 29.5t75 9.5q88 0 142.5 -59.5t84.5 -235.5l9 -51q157 229 227.5 287t141.5 58q29 0 67 -16 q-27 -62 -48 -220l-44 -8q-12 66 -61 66q-91 0 -222 -183l-46 -64q34 -234 74 -345q25 -70 74 -70q50 0 162 105l32 -49l-167 -137q-63 -47 -107 -65q-29 -12 -57 -12q-117 0 -153 206l-27 160l-45 -64q-139 -197 -216 -259q-53 -43 -112 -43q-33 0 -89 27z" />
<glyph unicode="y" d="M25 747q12 8 115.5 88t174.5 113q52 24 86 24q38 0 59.5 -29.5t21.5 -97.5q0 -34 -5 -77l-43 -357q-12 -97 -12 -188q0 -48 10 -64.5t26 -16.5q42 0 120 94q132 158 202 376t74 307q59 8 232 49l23 -18q-40 -103 -79 -245l-96 -340q-90 -322 -155 -463 q-108 -231 -259 -348t-281 -117q-66 0 -114 23.5t-70 59.5t-22 98v18l127 80l30 -13q-3 -20 -3 -33q0 -65 37 -105t96 -40q51 0 100 32t90 107.5t92 235.5q59 211 117 437q-109 -151 -191.5 -232t-151.5 -116q-51 -26 -80 -26q-40 0 -69.5 44.5t-29.5 139.5q0 57 11 148 l20 158q28 229 28 265q0 55 -9.5 71.5t-27.5 16.5q-17 0 -49 -22q-79 -51 -119 -94z" />
<glyph unicode="z" horiz-adv-x="1024" d="M49 59l701 720q-79 -37 -176 -37q-117 0 -220 36q-36 14 -58 14q-28 0 -46 -28q-28 -44 -49 -105l-57 5l95 289q28 9 55.5 13.5t54.5 4.5q71 0 211 -38q134 -36 215 -36q52 0 88 18q25 13 54 58l40 -16l-28 -105l-678 -689q118 50 192 50q55 0 156 -17q117 -20 156 -20 q16 0 47 4l55 117l57 -5q-48 -138 -80 -292q-51 -27 -122 -27q-47 0 -91 7q-30 5 -157 38q-139 35 -227 35q-102 0 -164 -67z" />
<glyph unicode="{" horiz-adv-x="682" d="M106 611q163 40 189 191l79 449q17 95 68.5 149t141.5 74q44 10 202 10l-23 -7q-76 -23 -118.5 -71t-55.5 -125l-80 -450q-18 -100 -67 -147.5t-139 -72.5q76 -22 104.5 -58t28.5 -109q0 -31 -7 -67l-75 -429q-3 -17 -3 -41q0 -66 30 -104.5t99 -55.5q-157 0 -189 6 q-77 16 -110 56.5t-33 115.5q0 39 7 82l73 413q6 35 6 59q0 103 -128 132z" />
<glyph unicode="|" horiz-adv-x="1241" d="M540 -251v1736h201v-1736h-201z" />
<glyph unicode="}" horiz-adv-x="682" d="M-88 -253q61 14 99.5 40.5t57.5 59.5q32 53 40 101l76 429q18 105 64.5 157t144.5 77q-70 21 -102.5 56t-32.5 104q0 25 6 60l79 450q5 26 5 49q0 39 -14 69.5t-39 49.5q-15 13 -78 35q151 0 189 -7q75 -16 110.5 -57t35.5 -115q0 -25 -5 -54l-79 -449q-6 -31 -6 -48 q0 -108 127 -143q-82 -17 -135 -68q-39 -38 -54 -123l-73 -413q-16 -90 -47.5 -141t-83.5 -80t-120 -37q-21 -2 -165 -2z" />
<glyph unicode="~" horiz-adv-x="1241" d="M76 533q7 161 80 242t180 81q55 0 111 -16q104 -30 272 -103q93 -40 145 -55q31 -9 67 -9q72 0 120 47.5t57 134.5h57q-6 -156 -81 -239.5t-188 -83.5q-53 0 -112.5 17t-262.5 102q-146 61 -211 61q-144 0 -176 -179h-58z" />
<glyph unicode="&#xa2;" horiz-adv-x="1024" d="M132 480q0 156 57 324q39 114 107 179q36 33 206 139q112 70 184 72l51 162h83l-51 -162q92 -2 188 -51q-38 -98 -71 -285h-61l-1 133q-38 42 -99 57l-218 -714l25 -1q144 0 334 146l25 -64q-228 -193 -425 -216l-56 -183h-82l52 183q-123 6 -185.5 84.5t-62.5 196.5z M371 534q0 -120 63 -168l215 700q-16 2 -27 2q-58 0 -111 -48t-88 -167q-52 -182 -52 -319z" />
<glyph unicode="&#xa3;" horiz-adv-x="1024" d="M41 -24l3 158q74 26 115 35q58 131 58 374v24l-3 72h-49q-52 0 -106 -6l-9 9l8 81l71 -4l34 -1l51 2l3 84q4 184 34 256t132.5 148t209.5 136.5t210 60.5q52 0 98.5 -13.5t88.5 -40.5l-65 -271l-54 13l11 118q-31 33 -69.5 49t-85.5 16q-108 0 -168 -80.5t-80 -320.5 l-13 -152l95 -3l27 -1q131 0 179 7l11 -9l-11 -75q-46 3 -229 3h-84l-11 -53q-21 -97 -43.5 -164t-52.5 -126l-80 -129l66 3q73 5 121 5q63 0 160 -6q84 -6 114 -6q19 0 40.5 3t45.5 8q50 97 72 175l61 -6q-5 -31 -19 -88l-60 -254q-47 -31 -102 -31q-33 0 -78 9.5 t-271 73.5q-106 30 -170 30l-28 -1q-48 -57 -115 -112h-63z" />
<glyph unicode="&#xa5;" horiz-adv-x="1024" d="M-38 1203v67q54 37 91 68l91 76q29 4 54 4q76 0 135.5 -39.5t110 -142t105.5 -312.5l70 -308q119 285 253.5 480t229.5 259q65 45 132 46l-9 -186q-103 -19 -201 -119q-165 -169 -307 -480h331l-16 -81h-345q-37 -135 -45 -201h353l-16 -80h-350q-16 -92 -16 -124 q0 -35 20 -48t111 -18l76 -4l-8 -69q-149 9 -260 9l-393 -10l-20 1l7 71l83 2q80 3 103 28q16 19 39 162h-372l16 80h369q11 71 21 188l-3 13h-350l16 81h316q-32 140 -94 325.5t-126 254.5q-38 41 -88 41q-40 0 -114 -34z" />
<glyph unicode="&#xa8;" horiz-adv-x="682" d="M140 1191q0 50 35 85t85 35t86 -35.5t36 -86.5t-35.5 -86t-84.5 -35q-50 0 -86 36t-36 87zM562 1191q0 50 35 85t85 35t86 -35.5t36 -86.5t-35.5 -86t-84.5 -35q-50 0 -86 36t-36 87z" />
<glyph unicode="&#xa9;" horiz-adv-x="1530" d="M66 693q0 192 95.5 358t261.5 262t358 96q191 0 357 -96t261.5 -262t95.5 -358t-95.5 -358t-261.5 -262t-357 -96q-192 0 -358 96t-261.5 262t-95.5 358zM179 693q0 -163 81 -304t220.5 -222t300.5 -81t300.5 81t220.5 222t81 304q0 164 -81 304.5t-220.5 222 t-300.5 81.5t-300.5 -81.5t-220.5 -222.5t-81 -304zM394 686q0 177 112.5 288t297.5 111q57 0 154 -19.5t126 -33.5v-209h-67q-4 52 -32 100t-70 71.5t-95 23.5q-106 0 -175 -80.5t-69 -224.5q0 -162 76.5 -254.5t187.5 -92.5q61 0 115.5 29.5t98.5 100.5l54 -21 q-18 -47 -65 -91t-117.5 -69.5t-149.5 -25.5q-112 0 -198 49t-135 141t-49 207z" />
<glyph unicode="&#xab;" horiz-adv-x="1024" d="M70 526q135 115 265.5 235.5t163.5 147.5l47 -39l-262 -373l180 -387l-50 -29l-185 222l-157 177zM464 478v48q50 41 205 182l221 205l48 -41l-259 -375l184 -384l-52 -30q-49 57 -198 232q-88 103 -149 163z" />
<glyph unicode="&#xad;" horiz-adv-x="797" d="M29 405q56 89 101 209q185 -6 299 -6q122 0 283 6l11 -20q-53 -93 -105 -208q-154 5 -291 5q-143 0 -288 -5z" />
<glyph unicode="&#xae;" horiz-adv-x="1530" d="M66 694q0 192 95.5 357.5t262 261.5t358.5 96t358 -96t262 -261.5t96 -357.5t-96 -357.5t-262 -261.5t-358 -96t-358.5 96t-262 261.5t-95.5 357.5zM179 695q0 -163 81 -304.5t219.5 -222t301.5 -80.5q162 0 302 81t221 221.5t81 304.5q0 163 -80.5 303t-221 221.5 t-301.5 81.5q-163 0 -302 -81t-220 -222t-81 -303zM449 330v41q66 1 78 10.5t12 54.5v548q0 50 -10.5 59t-79.5 11v44h341q159 0 220.5 -53.5t61.5 -138.5q0 -78 -58 -136q-43 -43 -141 -65q46 -10 79.5 -46t85 -145t71.5 -126.5t55 -16.5v-41h-129q-28 0 -54 14 q-17 9 -36.5 38.5t-54.5 114.5q-56 132 -80.5 156.5t-75.5 24.5h-49v-229q0 -45 5.5 -57t16 -16.5t64.5 -4.5v-41h-322zM685 729q20 -3 41 -3q108 0 155 42t47 124q0 76 -40.5 117t-116.5 41l-53 -1q-20 0 -26.5 -9t-6.5 -41v-270z" />
<glyph unicode="&#xb4;" horiz-adv-x="682" d="M273 1061l242 255q74 76 96 90.5t47 14.5q39 0 65 -24.5t26 -60.5q0 -27 -16 -47.5t-67 -48.5l-306 -179h-87z" />
<glyph unicode="&#xb8;" horiz-adv-x="682" d="M0 -399l39 64q86 -34 148 -34q52 0 82 25t30 61q0 34 -25.5 56t-74.5 22q-30 0 -68 -10l-23 24l134 199h83l-92 -139q38 4 64 4q76 0 123.5 -41.5t47.5 -104.5q0 -70 -67.5 -122t-185.5 -52q-107 0 -215 48z" />
<glyph unicode="&#xbb;" horiz-adv-x="1024" d="M43 120l257 377l-185 383l52 31q217 -265 348 -397v-47q-85 -71 -178 -157l-248 -229zM434 123l261 375l-182 385l52 30q192 -239 343 -401v-45l-289 -257l-139 -127z" />
<glyph unicode="&#xc6;" horiz-adv-x="1933" d="M-66 -9l11 68l36 2q60 3 76 14t80 105l644 1002q51 80 51 95q0 20 -23.5 31t-122.5 11h-68l13 76h255l372 -1l595 9l42 -1l10 -9q-16 -64 -26 -122l-28 -200h-72q8 60 8 96q0 73 -13 89.5t-70 25.5q-87 14 -240 14q-65 0 -144 -4l-86 -528l171 -2q207 0 286 12l9 -10 l-28 -97l-80 4q-108 7 -307 7h-67l-74 -419q-15 -88 -22 -154q159 -9 210 -9q157 0 256 18q55 10 72.5 29t44.5 114l26 95h71l-37 -206q-15 -79 -19 -131l-18 -22q-201 5 -341 5h-174l-196 2q-162 0 -305 -9l12 68q86 9 107.5 24t31.5 53q33 170 72 407q-80 2 -141 2 l-305 -2q-140 -216 -208 -361q-28 -61 -28 -76q0 -19 22 -31q30 -16 96 -16h58l-12 -68q-138 9 -235 9q-88 0 -248 -9zM542 632l143 3h266l79 478q18 139 18 166q0 30 -31 30q-24 0 -47.5 -22t-84.5 -118z" />
<glyph unicode="&#xe6;" horiz-adv-x="1511" d="M79 173q0 105 58 189.5t169 125t317 40.5h64q6 64 6 96q0 109 -61 169.5t-178 60.5q-29 0 -58.5 -3t-59.5 -9l-53 -137l-38 7l-13 155l71 53q102 52 239 52q116 0 189 -48t102 -144q114 96 224 144t197 48q99 0 150 -44.5t51 -121.5q0 -94 -59.5 -166t-218 -120.5 t-282.5 -57.5q-19 -122 -19 -175q0 -98 39 -141.5t111 -43.5q62 0 160.5 41t172.5 101l24 -57q-314 -214 -499 -214q-88 0 -147 45t-89 134q-121 -105 -202 -142t-160 -37q-98 0 -152.5 54.5t-54.5 145.5zM294 241q0 -58 29.5 -89t87.5 -31q119 0 194 98q58 76 72 246l-50 1 q-167 0 -250 -64.5t-83 -160.5zM908 518q118 16 196.5 55.5t117.5 98.5t39 116q0 39 -26 63t-74 24q-68 0 -120.5 -52.5t-103.5 -214.5z" />
<glyph unicode="&#x131;" horiz-adv-x="682" d="M62 722q242 176 307 209q84 42 126 42q27 0 45 -20.5t18 -57.5q0 -71 -65 -292l-32 -108q-75 -250 -75 -316q0 -34 28 -34q26 0 171 96l27 -53l-207 -138q-83 -52 -125 -66q-29 -11 -54 -11q-38 0 -58.5 25.5t-20.5 82.5q0 75 32 192l67 238q50 179 50 233q0 26 -23 26 q-16 0 -48 -16q-78 -40 -139 -86z" />
<glyph unicode="&#x2c6;" horiz-adv-x="682" d="M108 1061l322 350h142l180 -350h-90l-181 205l-271 -205h-102z" />
<glyph unicode="&#x2c9;" horiz-adv-x="682" d="M148 1163l31 127h650l-30 -127h-651z" />
<glyph unicode="&#x2d8;" horiz-adv-x="682" d="M198 1346l2 47h74q10 -101 65.5 -152t157.5 -51q93 0 162 53.5t101 149.5h74q-39 -172 -130.5 -252t-226.5 -80q-131 0 -205 73.5t-74 211.5z" />
<glyph unicode="&#x2da;" horiz-adv-x="682" d="M294 1252q0 82 58 140t140 58q83 0 142 -59t59 -143q0 -82 -57.5 -139.5t-139.5 -57.5q-83 0 -142.5 59t-59.5 142zM372 1252q0 -51 36 -87.5t87 -36.5q50 0 85.5 35.5t35.5 85.5q0 51 -36.5 87t-86.5 36q-51 0 -86 -35t-35 -85z" />
<glyph unicode="&#x2dc;" horiz-adv-x="682" d="M112 1126q28 120 86 177t133 57q35 0 72.5 -11t121.5 -50q91 -42 128 -42q57 0 96 107h73q-21 -114 -81.5 -175t-138.5 -61q-49 0 -130 37q-110 49 -140 59q-23 7 -44 7q-71 0 -102 -105h-74z" />
<glyph unicode="&#x2dd;" horiz-adv-x="682" d="M136 1047l242 254q73 77 95.5 91.5t46.5 14.5q39 0 65 -24.5t26 -60.5q0 -34 -26 -58q-10 -10 -95 -60l-267 -157h-87zM471 1047l242 254q67 71 90 88.5t51 17.5q39 0 65 -24.5t26 -60.5q0 -34 -26 -58q-11 -10 -95 -60l-266 -157h-87z" />
<glyph unicode="&#x398;" horiz-adv-x="1706" d="M128 550q0 251 108.5 452.5t292 307t434.5 105.5q293 0 463.5 -151t170.5 -426q0 -340 -233 -602.5t-621 -262.5q-279 0 -447 143.5t-168 433.5zM411 500q0 -251 112 -345t274 -94q274 0 395.5 277t121.5 569q0 216 -102 318t-277 102q-203 0 -310 -123.5t-160.5 -322 t-53.5 -381.5zM528 491q52 253 79 445h85q-5 -42 -5 -62q0 -32 22.5 -42.5t149.5 -10.5q170 0 196.5 16t57.5 99h85q-31 -131 -78 -445h-85q8 53 8 76q0 34 -21.5 42t-196.5 8q-140 0 -160 -13t-52 -113h-85z" />
<glyph unicode="&#x3a8;" horiz-adv-x="1792" d="M133 1257v50q86 31 160 70l74 38q84 -13 128 -57t55 -123t11 -298q0 -206 12.5 -266.5t60 -90t147.5 -30.5l71 477q32 219 32 245q0 57 -103 57h-30l10 67q124 -8 284 -8q169 0 256 8l-10 -67h-22q-83 0 -109.5 -28t-42.5 -159q-1 -10 -27 -182l-61 -410 q157 3 228.5 77.5t102.5 257.5q45 264 74 346t99 165q125 -8 170 -8l161 8l-7 -67q-103 -22 -145 -86.5t-76 -277.5q-32 -192 -58.5 -267t-88.5 -129t-172.5 -81t-298.5 -36l-19 -137q-24 -172 -24 -206q0 -50 102 -50h85l-10 -66q-145 7 -317 7q-193 0 -356 -7l10 66h78 q59 0 102 21.5t57 147.5q5 41 15 104l20 120q-173 0 -322 64.5t-149 281.5q0 58 5 198q1 41 1 83q0 138 -25 168t-66 30q-30 0 -72 -20z" />
<glyph unicode="&#x3b8;" horiz-adv-x="1188" d="M142 287q0 256 63 543t142.5 394.5t211 188.5t254.5 81q134 0 224 -68.5t90 -267.5q0 -182 -38.5 -399.5t-101 -377t-146.5 -229t-187.5 -124.5t-226.5 -55q-156 0 -220.5 81.5t-64.5 232.5zM370 293q0 -114 45 -169t110 -55q55 0 111.5 36.5t101 120t71.5 221.5l52 278 l-219 2l-231 -3q-41 -216 -41 -431zM428 820l228 -3l220 3q31 212 31 362q0 224 -169 224q-101 0 -169 -104t-141 -482z" />
<glyph unicode="&#x3c8;" horiz-adv-x="1468" d="M-1 722q226 169 308.5 209.5t129.5 40.5q54 0 54 -53q0 -29 -19 -138q-63 -357 -63 -503q0 -202 190 -216l99 458q40 187 77 433q5 0 43 -3q59 -4 77 -4q29 0 124 7q-41 -153 -96 -406l-107 -485q219 50 328.5 247t109.5 383q0 123 -81 123q-37 0 -75 -30l-20 43 q90 70 130 138q20 6 45 6q80 0 114.5 -54.5t34.5 -125.5q0 -231 -155.5 -500.5t-449.5 -318.5l-65 -304q-29 -122 -32 -185q-132 -9 -235 -43l-21 16q52 129 135 516q-178 0 -287.5 80.5t-109.5 238.5q0 106 47 417q4 23 4 36q0 25 -22 25q-48 0 -188 -102z" />
<glyph unicode="&#x400;" horiz-adv-x="1251" d="M-199 1820q0 34 23.5 56.5t60.5 22.5q33 0 58 -16.5t75 -82.5l199 -263h-81l-247 175q-60 42 -74 62t-14 46zM-7 -10l11 69q105 14 123 31t43 139q10 50 80 469l69 414q20 119 20 159q0 27 -20 38q-32 18 -103 18h-74l11 68l118 -3l111 -4l368 4l330 1q78 0 126 -8l10 -8 q-32 -157 -52 -314h-70l3 66l1 80q0 46 -29 56q-84 31 -293 31q-88 0 -168 -12q-54 -322 -85 -510l293 -8q38 0 178 8l6 -13l-24 -97q-198 10 -389 10q-43 0 -81 -2l-94 -564q107 -14 215 -14q162 0 271 19q58 10 71 22q18 19 50 128l26 83h72l-32 -182q-17 -90 -24 -154 l-15 -17q-46 -3 -95 -3l-783 14q-84 0 -175 -14z" />
<glyph unicode="&#x401;" horiz-adv-x="1251" d="M-7 -10l11 69q105 14 123 31t43 139q10 50 80 469l69 414q20 119 20 159q0 27 -20 38q-32 18 -103 18h-74l11 68l118 -3l111 -4l368 4l330 1q78 0 126 -8l10 -8q-32 -157 -52 -314h-70l3 66l1 80q0 46 -29 56q-84 31 -293 31q-88 0 -168 -12q-54 -322 -85 -510l293 -8 q38 0 178 8l6 -13l-24 -97q-198 10 -389 10q-43 0 -81 -2l-94 -564q107 -14 215 -14q162 0 271 19q58 10 71 22q18 19 50 128l26 83h72l-32 -182q-17 -90 -24 -154l-15 -17q-46 -3 -95 -3l-783 14q-84 0 -175 -14zM424 1612q0 50 35 85t85 35t86 -35.5t36 -86.5t-35.5 -86 t-84.5 -35q-50 0 -86 36t-36 87zM846 1612q0 50 35 85t85 35t86 -35.5t36 -86.5t-35.5 -86t-84.5 -35q-50 0 -86 36t-36 87z" />
<glyph unicode="&#x402;" horiz-adv-x="1550" d="M86 1038q31 176 50 358l11 6l397 -6h309q353 0 477 6l15 -6q-54 -285 -59 -358h-76l6 104q2 39 2 56q0 56 -23 72t-170 16h-172l-79 -496l176 130q55 41 174 41q155 0 234 -86t79 -227q0 -232 -143 -476t-435 -322q-43 28 -80 56v25q83 7 177 71t158.5 223.5t64.5 316.5 q0 249 -199 249q-67 0 -127 -33t-83 -72.5t-34 -108.5l-46 -277q-22 -134 -22 -178q0 -39 26 -51t85 -12h50l-12 -66q-219 7 -340 7q-143 0 -289 -7l11 66h83q73 0 93.5 19.5t64.5 283.5l154 924h-102q-210 0 -253 -26t-62 -142l-13 -80h-78z" />
<glyph unicode="&#x403;" horiz-adv-x="1094" d="M-42 -7l11 66h76q39 0 61 9t31.5 25.5t26.5 112.5l41 221l75 452q53 319 53 397q0 27 -25 39t-127 12h-47l11 69q124 -7 373 -7l518 6q74 0 129 -8l7 -15q-35 -188 -44 -315h-72l1 136q0 39 -10 60q-41 39 -266 39q-82 0 -173 -8q-33 -222 -56 -343l-82 -483 q-47 -276 -47 -319q0 -47 33.5 -61.5t127.5 -14.5h46l-12 -70l-440 8q-59 0 -220 -8zM483 1489l242 255q70 73 92 89.5t51 16.5q36 0 63.5 -24t27.5 -62q0 -32 -16 -48t-106 -69l-267 -158h-87z" />
<glyph unicode="&#x404;" horiz-adv-x="1403" d="M126 518q0 415 275.5 656t612.5 241q240 0 386 -93q-60 -195 -74 -335h-71q5 35 5 67q0 50 -5 132q-132 100 -330 100q-206 0 -317.5 -103t-175.5 -394l254 -4q4 0 138 4q133 3 135 3q13 0 92 -3q11 -86 28 -183l-63 -19l-37 98q-64 10 -198 10q-263 0 -363 -5 q-10 -78 -10 -134q0 -454 398 -454q220 0 449 160l24 -18l-24 -79q-214 -130 -333.5 -161t-231.5 -31q-258 0 -411 135t-153 410z" />
<glyph unicode="&#x405;" d="M63 75q30 138 52 310h66l-3 -110l1 -64q46 -55 132.5 -92t182.5 -37q145 0 223 76.5t78 207.5q0 89 -45 133q-46 43 -203 78q-233 52 -299 133q-66 80 -66 214q0 199 159 345t393 146q89 0 167.5 -21t145.5 -63q-38 -169 -50 -301h-69l3 106l-1 58q-37 50 -107.5 81.5 t-161.5 31.5q-134 0 -209 -71.5t-75 -195.5q0 -70 31 -120t87 -70q83 -29 193 -53q209 -47 266 -119t57 -191q0 -198 -171.5 -356t-413.5 -158q-108 0 -198.5 25.5t-164.5 76.5z" />
<glyph unicode="&#x406;" horiz-adv-x="797" d="M-21 -10l11 69h62q57 0 78 8t31 19.5t19 43.5t40 213q43 247 86 501q58 348 58 422q0 32 -26 46.5t-116 14.5h-53l11 68q276 -7 327 -7l331 7l-12 -68h-25q-101 0 -123 -12.5t-33 -44.5q-16 -45 -46 -225l-113 -680q-31 -184 -31 -238q0 -36 26 -52t111 -16h60l-12 -69 q-233 10 -348 10q-139 0 -313 -10z" />
<glyph unicode="&#x407;" horiz-adv-x="830" d="M-21 -10l11 69h62q57 0 78 8t31 19.5t19 43.5t40 213q43 247 86 501q58 348 58 422q0 32 -26 46.5t-116 14.5h-53l11 68q276 -7 327 -7l331 7l-12 -68h-25q-101 0 -123 -12.5t-33 -44.5q-16 -45 -46 -225l-113 -680q-31 -184 -31 -238q0 -36 26 -52t111 -16h60l-12 -69 q-233 10 -348 10q-139 0 -313 -10zM208 1612q0 50 35 85t85 35t86 -35.5t36 -86.5t-35.5 -86t-84.5 -35q-50 0 -86 36t-36 87zM630 1612q0 50 35 85t85 35t86 -35.5t36 -86.5t-35.5 -86t-84.5 -35q-50 0 -86 36t-36 87z" />
<glyph unicode="&#x408;" horiz-adv-x="797" d="M-66 -338q40 -12 72 -12q76 0 112 87q26 64 78 378l135 811q45 271 45 345q0 29 -20 39q-38 17 -145 17h-44l11 68q216 -7 388 -7q160 0 278 7l-12 -68h-35q-89 0 -109.5 -14t-34 -68.5t-61.5 -312.5l-105 -635q-41 -243 -53 -288q-34 -135 -98.5 -234t-147 -151 t-159.5 -52q-51 0 -89 22z" />
<glyph unicode="&#x409;" horiz-adv-x="2114" d="M-36 -3l19 188l23 14q70 -78 130 -78q109 0 187.5 178t143 531t64.5 412q0 85 -113 85h-87l11 69l403 -7q80 -3 146 -3l288 -2q79 0 421 12v-64h-32q-89 0 -121.5 -16t-90.5 -375l-25 -153h144q256 0 389 -78t133 -263q0 -201 -166 -330t-405 -129q-64 0 -142 4 q-173 8 -224 8q-55 0 -256 -7v66h30q72 0 97 25.5t42 126.5q4 31 16 93q6 31 19 107l92 551q32 194 42 321q-121 11 -242 11t-223 -11l-82 -458q-42 -235 -99 -412.5t-123.5 -270.5t-134.5 -131t-146 -38q-69 0 -128 24zM1217 103q22 -3 57 -10q87 -17 154 -17 q171 0 233 120t62 240q0 251 -264 251h-145z" />
<glyph unicode="&#x40a;" horiz-adv-x="2107" d="M-36 -7v66h67q67 0 94 18t66 254l106 641q40 239 40 296q0 59 -90 59h-91v69l398 -8q43 0 245 8v-69h-81q-60 0 -81 -20t-34 -93q-6 -36 -20 -103q-8 -37 -21 -117l-35 -207l295 -4q28 0 242 4l32 185q34 192 34 292q0 40 -30.5 51.5t-123.5 11.5h-21v69l383 -8 q135 0 256 8v-69h-79q-64 0 -86.5 -24t-69.5 -309l-34 -207h144q270 0 396 -82t126 -259q0 -203 -168 -330.5t-394 -127.5q-50 0 -150 5q-130 7 -225 7q-55 0 -255 -7v66h29q92 0 110 39.5t64 312.5l46 276q-133 1 -231 1l-306 -1l-28 -169q-57 -341 -57 -397 q0 -38 36.5 -50t117.5 -12h21v-66h-13q-197 8 -235 8zM1210 103q132 -27 220 -27q148 0 217 110.5t69 255.5q0 245 -263 245h-145l-47 -283q-49 -291 -51 -301z" />
<glyph unicode="&#x40b;" horiz-adv-x="1511" d="M86 1038q31 176 50 358l11 6l421 -6h285q354 0 477 6l15 -6q-54 -285 -59 -358h-76l6 104q2 39 2 56q0 56 -23 72t-170 16h-172l-127 -771q141 215 307 336t280 121q91 0 91 -84q0 -74 -55 -288l-36 -140q-61 -239 -61 -267q0 -45 34 -45q33 0 152 87l22 -55 q-183 -134 -256 -170.5t-124 -36.5q-88 0 -88 99q0 61 53 269l51 215q35 142 35 174q0 41 -33 41q-55 0 -150 -83.5t-187.5 -251.5t-92.5 -315q0 -38 26.5 -50t86.5 -12h84l-12 -66q-215 7 -348 7q-176 0 -317 -7l11 66h83q73 0 93.5 19.5t64.5 283.5l154 924h-102 q-190 0 -242 -21t-73 -147l-13 -80h-78z" />
<glyph unicode="&#x40c;" horiz-adv-x="1479" d="M-9 -10l11 69h65q86 0 103.5 29t62.5 296l90 541q47 283 47 337q0 38 -20.5 51.5t-100.5 13.5h-68l11 68q131 -6 266 -6q72 0 381 6l-11 -68h-42q-106 0 -126.5 -28.5t-62.5 -287.5l-54 -323q86 53 278 240l101 97q177 171 249 259q28 35 27 76l6 35l216 -6q45 0 112 6 l-3 -68l-51 -7q-52 -7 -83.5 -22t-91.5 -66q-152 -130 -254 -225l-254 -238l399 -551q90 -125 112.5 -142t70.5 -17h43l-12 -69q-31 0 -164 8l-73 2q-62 0 -135 -10l-82 126q-87 127 -168 238q-166 227 -245 321l-26 -160q-58 -344 -58 -383q0 -36 16.5 -47.5t102.5 -19.5 l63 -6l-11 -69l-375 10q-133 0 -262 -10zM665 1489l242 255q74 76 96 90.5t47 14.5q39 0 65 -24.5t26 -60.5q0 -27 -16 -47.5t-67 -48.5l-306 -179h-87z" />
<glyph unicode="&#x40d;" horiz-adv-x="1581" d="M545 1820q0 34 23.5 56.5t60.5 22.5q33 0 58 -16.5t75 -82.5l199 -263h-81l-247 175q-60 42 -74 62t-14 46zM120 -29l165 995q40 240 40 301q0 60 -90 60h-97l12 69l397 -8q43 0 244 8l-12 -69h-73q-60 0 -81 -20t-34 -93l-20 -103q-11 -57 -21 -117l-111 -675l367 454 l485 623l229 -5q36 0 123 5l-12 -69h-27q-89 0 -120.5 -16t-90.5 -370l-80 -482q-46 -278 -46 -335q0 -38 25 -47t137 -18h28l-11 -66q-157 7 -322 7q-195 0 -327 -7l9 66h33q93 0 122.5 17t83.5 335l105 633l-353 -434q-220 -269 -370 -477l-120 -162h-187z" />
<glyph unicode="&#x40e;" horiz-adv-x="1366" d="M128 1327v69q128 -8 280 -8q167 0 327 8v-69h-72q-55 0 -72 -15t-17 -48q0 -56 29 -212l60 -326q7 -36 42 -194l42 -192l223 404q97 176 181.5 349.5t84.5 190.5q0 43 -90 43h-78v69q127 -7 246 -7q80 0 204 7v-69h-41q-42 0 -62 -17.5t-81 -128.5l-476 -864 q-148 -270 -222.5 -419t-150.5 -227t-198 -78q-68 0 -132 23l20 192l22 14q69 -78 136 -78q63 0 111 49.5t103 184.5q0 40 -22 145l-211 1044q-22 115 -31 129t-27.5 22.5t-58.5 8.5h-69zM495 1663v49q76 34 203 107q183 -99 465 -120v-51l-94 -40q-324 0 -574 55z" />
<glyph unicode="&#x40f;" horiz-adv-x="1575" d="M-41 -7l11 66h61q72 0 97 20.5t64 251.5l106 635q39 238 39 301q0 60 -89 60h-97l11 69l353 -8l288 8l-11 -69h-74q-70 0 -89.5 -29.5t-66.5 -303.5l-148 -887q71 -13 293 -13q156 0 242 13q12 89 52 317l95 553q34 193 34 289q0 38 -29.5 49.5t-124.5 11.5h-27l12 69 l407 -9q98 0 214 9l-11 -69q-102 0 -134 -15t-91 -371l-81 -482q-46 -277 -46 -335q0 -38 25.5 -47t137.5 -18h28l-12 -66q-175 7 -249 7q-243 0 -392 -48q-30 -87 -50 -165q-25 -95 -48 -165h-104q1 70 8 165q5 66 5 103q0 25 -1 62q-149 48 -312 48z" />
<glyph unicode="&#x410;" horiz-adv-x="1479" d="M-97 -10l3 69h39q40 0 67 10t44 33l80 136l529 904q112 191 149 263h197q13 -99 29 -206l138 -880q22 -143 32.5 -184.5t24.5 -53.5t56 -16l45 -5q23 -1 48 -1l1 -69q-122 10 -282 10q-205 0 -337 -10l1 69h39q69 0 99 12t30 49q0 62 -16 170l-34 252l-159 1l-297 -1 l-84 -150q-131 -237 -131 -284q0 -23 24 -33q38 -16 158 -16l-12 -69q-123 10 -242 10q-120 0 -239 -10zM478 641l197 -2l195 2l-82 531z" />
<glyph unicode="&#x411;" horiz-adv-x="1364" d="M22 -7l11 66h24q104 0 120.5 66.5t46.5 243.5l88 525q49 297 49 377q0 30 -23.5 43t-92.5 13h-72l11 69q110 -8 404 -8l531 7q79 0 133 -8l8 -15q-37 -192 -44 -315h-73l2 134q0 41 -11 62q-55 41 -284 41q-102 0 -215 -10q-2 -16 -56 -343l-24 -152q46 -3 64 -3l111 2 q237 0 377 -74.5t140 -266.5q0 -208 -171.5 -333.5t-391.5 -125.5q-72 0 -180 5q-138 7 -230 7q-51 0 -252 -7zM440 103q168 -28 231 -28q167 0 234.5 113.5t67.5 253.5q0 122 -70 184.5t-228 62.5l-138 -2l-47 -283q-49 -293 -50 -301z" />
<glyph unicode="&#x412;" horiz-adv-x="1366" d="M22 -10l11 69h24q47 0 90 20q19 8 28 40q16 53 49 250l88 525q49 297 49 378q0 29 -16 38q-31 17 -100 17h-72l11 68q109 -6 337 -6l346 6q167 0 252 -34t128.5 -97.5t43.5 -154.5q0 -127 -94 -224.5t-305 -147.5q200 -27 276 -101.5t76 -207.5q0 -114 -67 -212.5 t-201 -163t-292 -64.5l-402 12q-62 0 -260 -10zM440 103q171 -28 227 -28q101 0 161.5 36.5t102 123.5t41.5 192q0 126 -69.5 189t-226.5 63l-140 -2l-46 -273zM551 766l94 -2q143 0 220 37.5t121 116.5t44 184q0 69 -29 115t-80.5 68t-167.5 22q-59 0 -114 -8l-40 -244z " />
<glyph unicode="&#x413;" horiz-adv-x="1094" d="M-42 -7l11 66h76q39 0 61 9t31.5 25.5t26.5 112.5l41 221l75 452q53 319 53 397q0 27 -25 39t-127 12h-47l11 69q124 -7 373 -7l518 6q74 0 129 -8l7 -15q-35 -188 -44 -315h-72l1 136q0 39 -10 60q-41 39 -266 39q-82 0 -173 -8q-33 -222 -56 -343l-82 -483 q-47 -276 -47 -319q0 -47 33.5 -61.5t127.5 -14.5h46l-12 -70l-440 8q-59 0 -220 -8z" />
<glyph unicode="&#x414;" horiz-adv-x="1538" d="M-145 -378q11 40 112 451q104 9 163.5 45.5t121.5 141.5t109.5 289t84.5 432.5t37 295.5q0 31 -22.5 43t-90.5 17q-20 1 -60 5l10 54q315 -10 494 -10h141q492 0 630 10l-12 -69h-27q-108 0 -125 -18t-41 -126.5t-56 -304.5l-58 -350q-60 -365 -60 -404q0 -38 25.5 -47 t137.5 -18h60q-34 -91 -82 -437h-104q1 21 4 139l7 191q-127 45 -319 45q-149 0 -173 2q-9 1 -23 1h-284q-208 0 -369 -48l-146 -330h-85zM230 111q181 -11 400 -11q130 0 301 13q11 84 60 363l67 379q44 251 47 270q21 140 25 153q-237 9 -305 9q-53 0 -193 -3 q-20 -79 -49 -250q-77 -454 -153 -649.5t-200 -273.5z" />
<glyph unicode="&#x415;" horiz-adv-x="1251" d="M-7 -10l11 69q105 14 123 31t43 139q10 50 80 469l69 414q20 119 20 159q0 27 -20 38q-32 18 -103 18h-74l11 68l118 -3l111 -4l368 4l330 1q78 0 126 -8l10 -8q-32 -157 -52 -314h-70l3 66l1 80q0 46 -29 56q-84 31 -293 31q-88 0 -168 -12q-54 -322 -85 -510l293 -8 q38 0 178 8l6 -13l-24 -97q-198 10 -389 10q-43 0 -81 -2l-94 -564q107 -14 215 -14q162 0 271 19q58 10 71 22q18 19 50 128l26 83h72l-32 -182q-17 -90 -24 -154l-15 -17q-46 -3 -95 -3l-783 14q-84 0 -175 -14z" />
<glyph unicode="&#x416;" horiz-adv-x="2279" d="M-54 -7l23 66h43q47 0 83.5 22.5t152.5 136.5l554 551l-177 238q-88 116 -157 197t-95 95t-75 21l-50 7l10 69q95 -8 121 -8l218 8l-6 -36q-8 -24 -8 -35q0 -53 175 -300l68 -97q163 -231 199 -240l33 216q49 322 49 359q0 36 -19.5 50t-101.5 14h-68l11 69 q119 -7 276 -7q39 0 371 7l-11 -69h-42q-111 0 -128 -29.5t-61 -286.5l-55 -323q81 48 279 240l100 97q70 67 161 160.5t103.5 118t12.5 56.5l6 36l26 -1q181 -7 197 -7q35 0 103 8v-69l-52 -7q-68 -9 -132.5 -52.5t-296.5 -260.5l-254 -238l399 -551q73 -100 98.5 -129.5 t83.5 -29.5h44l-12 -66q-31 0 -164 5q-41 2 -73 2q-66 0 -135 -7q-1 0 -46 69q-78 119 -123 181l-81 111q-182 249 -244 321l-27 -160q-58 -332 -58 -382q0 -40 19 -50t99 -18l64 -6l-11 -66l-377 7q-137 0 -260 -7l11 66h63q96 0 109 34.5t42 195.5l21 103q20 94 51 283 q-64 -52 -175 -164l-119 -119q-23 -21 -46 -44l-340 -341q-7 -4 -27 -14q-67 7 -121 7q-32 0 -73 -2q-135 -5 -178 -5z" />
<glyph unicode="&#x417;" horiz-adv-x="1200" d="M44 177l23 21q153 -131 372 -131q183 0 274 108t91 268q0 116 -66.5 179t-258.5 63q-109 0 -181 -9l23 112q82 -9 180 -9q196 0 281 90t85 233q0 227 -266 227q-80 0 -160.5 -28.5t-121 -77t-57.5 -182.5h-82q22 150 22 205q0 28 -4 78q263 92 488 92q177 0 309.5 -66 t132.5 -230q0 -288 -404 -376q353 -36 353 -302q0 -213 -174 -341t-431 -128q-224 0 -405 112q-8 46 -23 92z" />
<glyph unicode="&#x418;" horiz-adv-x="1581" d="M120 -29l165 995q40 240 40 301q0 60 -90 60h-97l12 69l397 -8q43 0 244 8l-12 -69h-73q-60 0 -81 -20t-34 -93l-20 -103q-11 -57 -21 -117l-111 -675l367 454l485 623l229 -5q36 0 123 5l-12 -69h-27q-89 0 -120.5 -16t-90.5 -370l-80 -482q-46 -278 -46 -335 q0 -38 25 -47t137 -18h28l-11 -66q-157 7 -322 7q-195 0 -327 -7l9 66h33q93 0 122.5 17t83.5 335l105 633l-353 -434q-220 -269 -370 -477l-120 -162h-187z" />
<glyph unicode="&#x419;" horiz-adv-x="1581" d="M120 -29l165 995q40 240 40 301q0 60 -90 60h-97l12 69l397 -8q43 0 244 8l-12 -69h-73q-60 0 -81 -20t-34 -93l-20 -103q-11 -57 -21 -117l-111 -675l367 454l485 623l229 -5q36 0 123 5l-12 -69h-27q-89 0 -120.5 -16t-90.5 -370l-80 -482q-46 -278 -46 -335 q0 -38 25 -47t137 -18h28l-11 -66q-157 7 -322 7q-195 0 -327 -7l9 66h33q93 0 122.5 17t83.5 335l105 633l-353 -434q-220 -269 -370 -477l-120 -162h-187zM624 1663v49q75 34 203 107q183 -99 464 -120v-51l-94 -40q-323 0 -573 55z" />
<glyph unicode="&#x41a;" horiz-adv-x="1479" d="M-9 -10l11 69h65q86 0 103.5 29t62.5 296l90 541q47 283 47 337q0 38 -20.5 51.5t-100.5 13.5h-68l11 68q131 -6 266 -6q72 0 381 6l-11 -68h-42q-106 0 -126.5 -28.5t-62.5 -287.5l-54 -323q86 53 278 240l101 97q177 171 249 259q28 35 27 76l6 35l216 -6q45 0 112 6 l-3 -68l-51 -7q-52 -7 -83.5 -22t-91.5 -66q-152 -130 -254 -225l-254 -238l399 -551q90 -125 112.5 -142t70.5 -17h43l-12 -69q-31 0 -164 8l-73 2q-62 0 -135 -10l-82 126q-87 127 -168 238q-166 227 -245 321l-26 -160q-58 -344 -58 -383q0 -36 16.5 -47.5t102.5 -19.5 l63 -6l-11 -69l-375 10q-133 0 -262 -10z" />
<glyph unicode="&#x41b;" horiz-adv-x="1546" d="M-36 -3l19 188l23 14q70 -78 130 -78q65 0 118.5 61.5t110 228.5t111.5 466t55 367q0 83 -113 83h-87l11 69l403 -7q70 -3 146 -3h168q406 0 542 10l-12 -69h-27q-97 0 -117 -14t-42 -100t-60 -317l-66 -404q-52 -321 -52 -367q0 -39 25 -48t137 -18h28l-11 -66 q-157 7 -322 7q-194 0 -328 -7l12 66h31q96 0 125 18.5t88 385.5l75 440q56 333 57 380q-194 10 -266 10q-82 0 -199 -10q-139 -845 -266.5 -1077.5t-318.5 -232.5q-69 0 -128 24z" />
<glyph unicode="&#x41c;" horiz-adv-x="1933" d="M-70 -9l11 68h37q71 0 94 40.5t117 404.5l139 540q44 170 44 207t-28.5 56.5t-93.5 19.5h-81l11 68q63 -4 275 -4q130 0 177 4q22 -93 92 -357l180 -678l284 465q113 187 337 570q200 -4 252 -4q85 0 216 4l-12 -68h-46q-79 0 -102.5 -30.5t-53.5 -211.5l-126 -761 q-26 -151 -26 -200q0 -37 21.5 -51t97.5 -14h61l-11 -68l-334 9q-59 0 -295 -9l11 68h53q87 0 109 33.5t62 285.5l126 812l-326 -527q-180 -291 -305 -521l-97 -177h-54q-66 261 -145 553l-158 600q-119 -496 -199 -826q-28 -128 -28 -175q0 -29 21.5 -43.5t79.5 -14.5h75 l-11 -68q-206 9 -241 9q-68 0 -210 -9z" />
<glyph unicode="&#x41d;" horiz-adv-x="1593" d="M-42 -10l11 69h61q83 0 104 29.5t57 242.5l106 635q39 238 39 301q0 32 -19 46t-70 14h-97l11 68l385 -7q55 0 256 7l-11 -68h-74q-70 0 -88 -28.5t-68 -304.5l-35 -209l75 1l325 -3l192 2l32 192q34 201 34 289q0 37 -30.5 49t-149.5 12l11 68q315 -9 383 -9 q129 0 256 9l-11 -68h-27q-97 0 -119 -15q-16 -11 -31 -63q-24 -83 -61 -308l-81 -482q-46 -277 -46 -335q0 -38 25.5 -47t137.5 -18h28l-12 -69q-170 10 -338 10q-165 0 -311 -10l11 69h32q112 0 132 28q25 36 73 324l46 276l-44 1h-255l-256 -2l-37 1l-28 -169 q-56 -341 -56 -395q0 -34 22 -46q33 -18 132 -18h26l-11 -69q-217 10 -281 10z" />
<glyph unicode="&#x41e;" horiz-adv-x="1706" d="M128 536q0 266 107 466t291.5 306.5t436.5 106.5q302 0 468 -155t166 -423q0 -234 -116 -439.5t-304 -315t-434 -109.5q-294 0 -454.5 150.5t-160.5 412.5zM411 475q0 -140 44 -228t133.5 -137t208.5 -49q147 0 250.5 80t185 295.5t81.5 468.5q0 212 -98.5 317 t-280.5 105q-158 0 -263.5 -79.5t-183 -288.5t-77.5 -484z" />
<glyph unicode="&#x41f;" horiz-adv-x="1552" d="M-42 -7l11 66h61q72 0 97 20.5t64 251.5l106 635q39 238 39 301q0 60 -89 60h-97l11 69l586 -10h297q433 0 569 10l-11 -69h-27q-90 0 -121.5 -16t-89.5 -370l-81 -482q-46 -279 -46 -336q0 -37 25.5 -46t137.5 -18h28l-12 -66q-157 7 -322 7q-194 0 -327 -7l11 66h32 q87 0 119.5 15.5t85.5 336.5l144 867q-72 14 -274 14q-201 0 -277 -14q-10 -77 -51 -316l-75 -444q-56 -334 -56 -396q0 -39 36 -51t118 -12h28l-13 -66h-13q-197 8 -235 8z" />
<glyph unicode="&#x420;" horiz-adv-x="1366" d="M-17 -10l11 69h69q88 0 105 33q23 41 83 400l88 530q29 172 29 232q0 42 -23 57.5t-104 15.5h-78l11 68l291 -6l465 10q224 0 315.5 -93.5t91.5 -248.5q0 -200 -149 -342t-369 -142q-77 0 -191 39l-7 71q93 -33 155 -33q72 0 137.5 45.5t108 139t42.5 207.5 q0 133 -66.5 200t-195.5 67q-91 0 -157 -15l-69 -412l-81 -484q-36 -218 -36 -273q0 -34 22 -46q38 -20 131 -20h58l-11 -69q-280 11 -338 11z" />
<glyph unicode="&#x421;" horiz-adv-x="1403" d="M126 518q0 262 109 454.5t326 317.5t453 125q115 0 218 -26.5t168 -66.5q-61 -198 -74 -335h-71q5 39 5 73q0 40 -8 126q-67 52 -144.5 76t-184.5 24q-171 0 -272.5 -69.5t-163.5 -230.5q-79 -202 -79 -446q0 -221 103 -329.5t296 -108.5q106 0 207.5 34t242.5 126 l22 -18l-24 -79q-165 -97 -237.5 -128t-155 -47.5t-172.5 -16.5q-272 0 -418 141.5t-146 403.5z" />
<glyph unicode="&#x422;" horiz-adv-x="1251" d="M86 1038q32 176 50 355l11 9l421 -9h284q333 0 478 9l15 -9l-20 -104q-29 -154 -39 -251h-76q8 104 8 162q0 57 -26.5 71.5t-167.5 14.5h-170q-48 -290 -164 -986q-22 -133 -22 -179q0 -33 21.5 -47.5t91.5 -14.5h84l-11 -69q-224 10 -361 10q-149 0 -305 -10l11 69h83 q65 0 83.5 13t28 48t46.5 242q71 423 154 924h-102q-190 0 -250 -24q-44 -18 -65 -144l-13 -80h-78z" />
<glyph unicode="&#x423;" horiz-adv-x="1366" d="M128 1327v69q128 -8 280 -8q167 0 327 8v-69h-72q-55 0 -72 -15t-17 -48q0 -56 29 -212l60 -326q7 -36 42 -194l42 -192l223 404q97 176 181.5 349.5t84.5 190.5q0 43 -90 43h-78v69q127 -7 246 -7q80 0 204 7v-69h-41q-42 0 -62 -17.5t-81 -128.5l-476 -864 q-148 -270 -222.5 -419t-150.5 -227t-198 -78q-68 0 -132 23l20 192l22 14q69 -78 136 -78q63 0 111 49.5t103 184.5q0 40 -22 145l-211 1044q-22 115 -31 129t-27.5 22.5t-58.5 8.5h-69z" />
<glyph unicode="&#x424;" horiz-adv-x="1899" d="M79 578q0 136 71.5 267.5t206 223t261.5 117.5t285 26q5 34 5 57q0 39 -38.5 48.5t-102.5 9.5h-53l11 69l19 -1q269 -7 292 -7l346 8l-11 -69h-49q-84 0 -109.5 -19t-37.5 -96q199 0 342 -27t232 -120t89 -221q0 -251 -212.5 -449.5t-596.5 -198.5h-24l-2 -25 q-3 -35 -3 -48q0 -40 34.5 -52t101.5 -12h61l-12 -66q-226 7 -345 7q-147 0 -316 -7l11 66h62q63 0 92.5 14t50.5 123l-42 -1q-348 0 -483.5 105.5t-135.5 277.5zM390 590q0 -156 96.5 -234.5t235.5 -78.5l30 1q49 271 54 303l42 253l43 294q-159 3 -260 -56.5t-171 -194 t-70 -287.5zM1017 278q25 -2 33 -2q185 0 330 154.5t145 386.5q0 313 -366 313l-130 -775q-3 -12 -5 -32z" />
<glyph unicode="&#x425;" horiz-adv-x="1479" d="M-59 -10l11 69h51q77 0 114 34l234 258l189 204l99 106l-207 395q-113 215 -142.5 243t-103.5 28h-74l12 68q134 -6 342 -6q193 0 313 6v-68h-46q-71 0 -93.5 -10.5t-22.5 -29.5t10 -44q19 -46 75 -154l123 -236l159 182q190 218 190 251q0 17 -20 29t-74 12h-79l4 68 q133 -7 266 -7q135 0 272 7l-11 -68h-35q-77 0 -117 -31q-64 -48 -308 -312l-199 -215l193 -374q150 -291 171 -313.5t106 -22.5h41l-11 -69q-160 10 -305 10t-324 -10l3 69h83q50 0 66.5 12t16.5 35q0 31 -51 129l-175 339l-134 -153q-44 -45 -156 -182q-64 -78 -74 -98.5 t-10 -30.5q0 -25 21 -38t88 -13h71l-3 -69q-155 10 -284 10q-131 0 -265 -10z" />
<glyph unicode="&#x426;" horiz-adv-x="1552" d="M-42 -7l11 66h61q72 0 97 20.5t64 251.5l106 635q39 238 39 301q0 60 -89 60h-97l11 69l349 -8l292 8l-11 -69h-74q-59 0 -80.5 -20t-33.5 -93l-42 -220l-74 -445q-47 -277 -60 -442q172 -10 279 -10q108 0 257 10q2 18 68 408l79 462q33 197 33 289q0 38 -29.5 49.5 t-123.5 11.5h-27l11 69l381 -8q118 0 258 8l-11 -69h-27q-109 0 -126 -19.5t-40 -125t-45 -241.5l-70 -426q-57 -352 -57 -392q0 -37 25.5 -46t137.5 -18h60q-34 -91 -82 -437h-105q0 46 4 116q6 125 6 222q-85 16 -151 24.5t-142 10.5l-166 5h-297q-147 0 -569 -7z" />
<glyph unicode="&#x427;" horiz-adv-x="1522" d="M85 1327l11 69l399 -8q44 0 245 8l-12 -69h-76q-63 0 -82 -21t-57 -217t-38 -273q0 -87 61 -138t149 -51q75 0 147.5 17.5t128.5 60t66.5 68.5t44 222.5t33.5 270.5q0 38 -29 49.5t-124 11.5h-27l12 69l382 -8q135 0 257 8l-12 -69h-27q-89 0 -120.5 -16t-90.5 -370 l-80 -482q-47 -278 -47 -335q0 -38 25.5 -47t137.5 -18h28l-11 -66q-158 7 -323 7q-195 0 -328 -7l12 66h32q93 0 122.5 17t83.5 335l39 234q-75 -67 -204.5 -120t-242.5 -53q-167 0 -260.5 95.5t-93.5 219.5q0 83 34 293q21 129 21 187q0 60 -89 60h-97z" />
<glyph unicode="&#x428;" horiz-adv-x="2370" d="M-42 -7l11 66h61q72 0 97 20.5t64 251.5l106 635q39 238 39 301q0 60 -89 60h-97l11 69l347 -8l287 8l-11 -69h-73q-71 0 -90.5 -30.5t-65.5 -302.5l-124 -733q-20 -129 -25 -154q71 -13 295 -13q156 0 241 13q12 89 51 317l96 553q34 194 34 289q0 38 -29 49.5 t-125 11.5h-27l12 69l320 -8q26 0 311 8l-11 -69h-74q-70 0 -90 -29.5t-66 -303.5l-149 -887q71 -13 295 -13q156 0 242 13q9 77 51 317l95 553q34 193 34 289q0 38 -29.5 49.5t-123.5 11.5h-27l11 69l376 -8q118 0 258 8l-12 -69h-27q-91 0 -121.5 -16.5t-89.5 -369.5 l-80 -482q-47 -277 -47 -335q0 -38 25.5 -47t137.5 -18h28l-12 -66q-159 7 -589 7h-1063q-156 0 -569 -7z" />
<glyph unicode="&#x429;" horiz-adv-x="2316" d="M-41 -7l11 66h61q72 0 97 20.5t64 251.5l106 635q39 238 39 301q0 60 -89 60h-97l11 69l347 -8l287 8l-11 -69h-73q-71 0 -90.5 -30.5t-65.5 -302.5l-124 -733q-20 -129 -25 -154q71 -13 295 -13q156 0 241 13q12 89 51 317l96 553q34 194 34 289q0 38 -29 49.5 t-125 11.5h-27l12 69l320 -8q26 0 311 8l-11 -69h-74q-70 0 -90 -29.5t-66 -303.5l-149 -887q71 -13 295 -13q156 0 242 13q9 77 51 317l95 553q34 193 34 289q0 38 -29.5 49.5t-123.5 11.5h-27l11 69l376 -8q118 0 258 8l-12 -69h-27q-87 0 -120 -15.5t-91 -370.5l-79 -482 q-48 -288 -48 -336q0 -37 25.5 -46t137.5 -18h60q-34 -94 -82 -437h-104q0 70 6 165q5 66 5 105v60q-188 48 -512 48h-1009q-156 0 -569 -7z" />
<glyph unicode="&#x42a;" horiz-adv-x="1563" d="M86 1038q36 186 55 361q73 0 225 -5q186 -6 307 -6q162 0 349 11v-72h-80q-61 0 -84.5 -23.5t-71.5 -309.5l-34 -206h144q289 0 419 -79t130 -262q0 -207 -170.5 -333t-389.5 -126q-72 0 -180 5q-137 7 -229 7q-50 0 -251 -7v66h30q104 0 120.5 65t46.5 245l88 525 q46 275 51 392h-69q-190 0 -242 -21t-73 -147l-13 -80h-78zM638 103q168 -28 231 -28q167 0 234.5 113.5t67.5 253.5q0 246 -271 246h-165l-47 -284q-48 -287 -50 -301z" />
<glyph unicode="&#x42b;" horiz-adv-x="2021" d="M22 -7l11 66h24q103 0 120 65.5t47 244.5l88 525q49 297 49 377q0 30 -23.5 43t-92.5 13h-72l11 69q110 -7 361 -7q96 0 285 7l-12 -69h-73q-66 0 -88 -26.5t-68 -306.5l-34 -205l143 -2q311 -3 430 -85.5t119 -254.5q0 -208 -171.5 -333.5t-391.5 -125.5q-72 0 -180 5 q-138 7 -230 7q-51 0 -252 -7zM440 103q168 -28 231 -28q167 0 234.5 113.5t67.5 253.5q0 247 -270 247l-166 -2l-47 -283q-49 -293 -50 -301zM1223 -10l11 69h62q57 0 78 8t31 19.5t19 43.5t40 213q43 247 86 501q58 348 58 422q0 32 -26 46.5t-116 14.5h-53l11 68 q276 -7 327 -7l331 7l-12 -68h-25q-101 0 -123 -12.5t-33 -44.5q-16 -45 -46 -225l-113 -680q-31 -184 -31 -238q0 -36 26 -52t111 -16h60l-12 -69q-233 10 -348 10q-139 0 -313 -10z" />
<glyph unicode="&#x42c;" horiz-adv-x="1364" d="M22 -7l11 66h24q103 0 120 65.5t47 244.5l88 525q49 297 49 377q0 30 -23.5 43t-92.5 13h-72l11 69q110 -7 361 -7q96 0 285 7l-12 -69h-73q-66 0 -88 -26.5t-68 -306.5l-34 -205l143 -2q311 -3 430 -85.5t119 -254.5q0 -208 -171.5 -333.5t-391.5 -125.5q-72 0 -180 5 q-138 7 -230 7q-51 0 -252 -7zM440 103q168 -28 231 -28q167 0 234.5 113.5t67.5 253.5q0 247 -270 247l-166 -2l-47 -283q-49 -293 -50 -301z" />
<glyph unicode="&#x42d;" horiz-adv-x="1387" d="M42 177l23 21q153 -134 357 -134q295 0 417.5 173.5t162.5 454.5q-109 5 -360 5q-127 0 -198 -11l-48 -98l-65 20q46 142 53 182q92 3 108 3q2 0 234 -7l242 6q9 0 49 -2q5 79 5 129q0 207 -105 307.5t-257 100.5q-91 0 -206.5 -46.5t-176.5 -95.5q-26 -118 -36 -186h-71 l3 181q0 67 -10 135l7 21q73 16 139 33q192 50 351 50q284 0 464.5 -146.5t180.5 -429.5q0 -349 -235.5 -609.5t-608.5 -260.5q-215 0 -396 112q-8 46 -23 92z" />
<glyph unicode="&#x42e;" horiz-adv-x="2363" d="M-42 -7l11 66h61q72 0 97 20.5t64 251.5l106 635q39 238 39 301q0 60 -89 60h-97l11 69l397 -8q44 0 244 8l-11 -69h-74q-59 0 -80.5 -20t-33.5 -93l-42 -220l-34 -209q116 -3 192 -3q51 0 95 3q65 294 281 462t519 168q305 0 473 -153.5t168 -418.5 q0 -347 -234.5 -608.5t-619.5 -261.5q-285 0 -450.5 146t-165.5 417q0 62 11 152l-42 1l-70 1l-174 -2l-28 -170q-56 -342 -56 -396q0 -39 36 -51t118 -12h26l-11 -66h-13q-197 8 -235 8zM1068 500q0 -250 112 -344.5t275 -94.5q273 0 395 277t122 567q0 219 -102 320.5 t-278 101.5q-202 0 -308.5 -122.5t-161 -321t-54.5 -383.5z" />
<glyph unicode="&#x42f;" horiz-adv-x="1444" d="M-121 -7l11 66h35q60 0 115.5 45.5t158.5 168.5l186 220q147 175 197 223q-306 50 -306 281q0 120 82 227.5t183 140t269 32.5q58 0 164 -3q237 -7 302 -7q116 0 229 9l-11 -69h-27q-90 0 -121 -16t-90 -370l-81 -482q-46 -279 -46 -336q0 -37 25.5 -46t137.5 -18h28 l-12 -66q-156 7 -322 7q-194 0 -327 -7l12 66h31q87 0 119.5 15.5t85.5 336.5l92 551q9 58 32 255q5 41 10 74q-87 16 -157 16q-191 0 -269 -100.5t-78 -232.5q0 -220 284 -220q21 0 66 2l-5 -33q-146 -148 -256 -280l-188 -227q-104 -126 -190 -223q-76 7 -160 7 q-93 0 -209 -7z" />
<glyph unicode="&#x430;" d="M79 151q0 115 43.5 276t92.5 249q26 46 110 112q160 126 225.5 155t142.5 29q55 0 109 -12.5t106 -37.5l93 51l33 -21q-8 -19 -21 -62l-38 -134l-113 -481q-15 -63 -15 -97q0 -35 24 -35q43 0 161 96l21 -65q-249 -201 -349 -201q-33 0 -49 21q-23 29 -23 72q0 60 70 338 l18 71q-122 -192 -169 -249q-78 -96 -147.5 -152t-138.5 -84q-41 -17 -70 -17q-54 0 -85 41t-31 137zM304 211q0 -35 12 -52.5t28 -17.5q15 0 41 17q67 45 156 158.5t147 236t73 217.5l9 50q-45 22 -86.5 33t-80.5 11q-69 0 -117.5 -46.5t-105.5 -234.5q-76 -249 -76 -372z " />
<glyph unicode="&#x431;" d="M94 303q0 166 62.5 446.5t116.5 395.5t119.5 166.5t140.5 66.5t255 19l134 8q19 2 41.5 18.5t39.5 53.5l46 -15q-16 -96 -52.5 -153.5t-97 -79t-212.5 -25.5q-185 -6 -251 -41.5t-118 -138t-97 -342.5q177 290 479 290q341 0 341 -305q0 -153 -50 -290t-133 -213.5 t-203 -133.5t-245 -57q-161 0 -238.5 79.5t-77.5 250.5zM336 292q0 -222 186 -222q137 0 208.5 200.5t71.5 390.5q0 224 -177 224q-71 0 -128 -50.5t-109 -219.5t-52 -323z" />
<glyph unicode="&#x432;" horiz-adv-x="1090" d="M95 213q0 188 87.5 478.5t201 467t281 253.5t300.5 77q124 0 124 -127q0 -141 -88.5 -288.5t-345.5 -351.5q133 52 188 52q138 0 138 -182q0 -143 -69 -284t-248.5 -238t-322.5 -97q-246 0 -246 240zM304 222q0 -80 39.5 -120t96.5 -40q116 0 207 159t91 343 q0 101 -68 101q-60 0 -180 -90.5t-155 -133.5q-31 -139 -31 -219zM359 557q297 201 408.5 392t111.5 347q0 89 -59 89q-101 0 -219.5 -133.5t-241.5 -694.5z" />
<glyph unicode="&#x433;" horiz-adv-x="883" d="M68 225q0 69 33 124.5t82 87t170 82.5q169 72 213.5 116.5t44.5 108.5q0 45 -30.5 72t-74.5 27q-100 0 -291 -122l-25 51q268 200 415 200q96 0 156 -55t60 -143q0 -64 -33.5 -118t-79.5 -82.5t-194 -94.5q-162 -72 -202 -127.5t-40 -117.5t36 -103.5t104 -41.5 q110 0 289 141l32 -52q-119 -95 -215 -150t-190 -55q-131 0 -195.5 77.5t-64.5 174.5z" />
<glyph unicode="&#x434;" horiz-adv-x="1137" d="M97 285q0 110 34.5 232.5t74.5 183t134.5 133t185 104.5t182.5 32q59 0 116 -17q-1 184 -40.5 282t-117.5 139.5t-189 41.5q-23 0 -67 -1l13 67q57 3 83 3q265 0 401 -190t136 -540q0 -161 -34.5 -303.5t-83.5 -213.5t-145.5 -136.5t-182 -97.5t-189.5 -32 q-311 0 -311 313zM336 290q0 -222 186 -222q137 0 208.5 200.5t71.5 390.5q0 224 -177 224q-71 0 -128 -50.5t-109 -219.5t-52 -323z" />
<glyph unicode="&#x435;" horiz-adv-x="909" d="M79 221q0 140 59 326q42 132 113.5 209t243.5 166q97 50 196 50q91 0 143 -45.5t52 -119.5q0 -90 -51.5 -166.5t-183.5 -140t-326 -94.5q-21 -72 -21 -136q0 -80 40.5 -119.5t115.5 -39.5q57 0 146.5 33t188.5 98l22 -55l-170 -108q-106 -59 -179.5 -82.5t-133.5 -23.5 q-122 0 -188.5 64t-66.5 184zM333 461q155 42 216 81t101.5 110.5t40.5 127.5q0 43 -26.5 69t-71.5 26q-49 0 -94 -32t-83 -112.5t-83 -269.5z" />
<glyph unicode="&#x436;" horiz-adv-x="1651" d="M-48 148l40 59q81 -76 127 -76q50 0 132.5 109t282.5 417q-59 104 -109 138.5t-115 34.5q-46 0 -111 -28l-13 8q10 51 13 151v11q31 4 59 4q81 0 139.5 -32t138.5 -145.5t197 -339.5q40 152 53 223q13 69 22 108q17 73 22 156q97 1 224 36l16 -25q-58 -186 -93 -343 l-36 -155l21 21q158 193 280.5 311.5t191.5 149.5t148 31q28 0 57 -4v-11q-35 -121 -38 -151l-11 -8q-58 28 -101 28q-55 0 -138.5 -48t-143.5 -121q53 -159 110.5 -306t84 -183.5t55.5 -36.5q45 0 151 76l21 -59l-80 -51q-188 -124 -243 -124q-47 0 -87.5 69.5 t-110.5 266.5l-60 171l-58 -52q-98 -88 -125 -416q-92 -1 -230 -39l-16 27q88 306 88 338q0 34 -33 90l-31 52l-208 -306q-72 -110 -118.5 -155.5t-84.5 -45.5q-66 0 -217 125z" />
<glyph unicode="&#x437;" horiz-adv-x="827" d="M-20 44q37 71 54 178h59v-111q87 -56 200 -56q238 0 238 238q0 175 -197 175q-60 0 -113 -13l-14 8l27 84q72 -9 126 -9q100 0 157.5 55.5t57.5 154.5q0 64 -41.5 98t-109.5 34q-57 0 -100 -22.5t-103 -98.5l-54 21q52 77 89 147q112 51 232 51q273 0 273 -192 q0 -190 -267 -267q88 0 162 -43t74 -142q0 -155 -132 -258t-344 -103q-153 0 -274 71z" />
<glyph unicode="&#x438;" d="M60 767q135 97 236 151t154 54q34 0 51 -18t17 -61q0 -52 -36 -183l-59 -218q-33 -123 -55 -235q-10 -49 -10 -72q0 -22 9.5 -33t25.5 -11q21 0 54 21q52 34 132 133.5t138.5 222t86 236t32.5 178.5q103 4 221 41l17 -20q-51 -155 -117 -398q-79 -294 -79 -371 q0 -35 30 -35q12 0 38 14q61 34 111 75l20 -57l-182 -131q-75 -49 -113.5 -63t-65.5 -14q-30 0 -47.5 21.5t-17.5 62.5q0 50 35 181l58 219q-122 -220 -310 -374q-135 -110 -221 -110q-44 0 -69 29.5t-25 94.5q0 35 7 69q8 45 43 170l29 107q67 245 67 305q0 20 -8 30.5 t-21 10.5q-30 0 -152 -79z" />
<glyph unicode="&#x439;" d="M60 767q135 97 236 151t154 54q34 0 51 -18t17 -61q0 -52 -36 -183l-59 -218q-33 -123 -55 -235q-10 -49 -10 -72q0 -22 9.5 -33t25.5 -11q21 0 54 21q52 34 132 133.5t138.5 222t86 236t32.5 178.5q103 4 221 41l17 -20q-51 -155 -117 -398q-79 -294 -79 -371 q0 -35 30 -35q12 0 38 14q61 34 111 75l20 -57l-182 -131q-75 -49 -113.5 -63t-65.5 -14q-30 0 -47.5 21.5t-17.5 62.5q0 50 35 181l58 219q-122 -220 -310 -374q-135 -110 -221 -110q-44 0 -69 29.5t-25 94.5q0 35 7 69q8 45 43 170l29 107q67 245 67 305q0 20 -8 30.5 t-21 10.5q-30 0 -152 -79zM477 1180v44q22 16 67 46q40 26 60 47q183 -92 336 -92q12 0 34 3v-34l-23 -17q-21 -15 -27 -20q-65 -10 -164 -10q-100 0 -283 33z" />
<glyph unicode="&#x43a;" horiz-adv-x="1155" d="M60 767q285 205 390 205q68 0 68 -79q0 -48 -35 -183l-64 -250q4 4 78 91q179 213 308 317t261 104q29 0 58 -4v-11q-35 -121 -38 -151l-11 -8q-59 27 -98 27q-65 0 -147.5 -44t-148.5 -124q6 -22 65.5 -187t96 -238.5t54 -87t31.5 -13.5q47 0 154 76l20 -59 q-269 -175 -337 -175q-45 0 -87.5 75.5t-105.5 256.5l-61 174l-48 -52q-44 -47 -59 -82.5t-37.5 -142t-27.5 -190.5q-94 -1 -230 -39l-17 27q65 214 119 464.5t54 283.5q0 41 -28 41q-32 0 -153 -79z" />
<glyph unicode="&#x43b;" horiz-adv-x="1065" d="M-60 -7q2 24 7 57q9 58 14 126l31 11q29 -47 63 -47q55 0 105.5 54t189.5 272q195 306 320.5 406t210.5 100q73 0 73 -79q0 -74 -62 -296l-52 -183q-41 -148 -41 -231q0 -38 23 -38t77 34.5t72 55.5l25 -59q-188 -137 -258.5 -170t-116.5 -33q-73 0 -73 108q0 65 40 203 l32 111q87 301 87 368q0 24 -17 24q-29 0 -96 -86.5t-255 -398.5q-129 -214 -208 -268t-136 -54q-15 0 -55 13z" />
<glyph unicode="&#x43c;" horiz-adv-x="1448" d="M-36 -15q13 95 23 187l22 10q39 -46 77 -46q70 0 122 125.5t155 558.5q1 11 1 16q0 29 -17 51.5t-125 23.5l10 58q4 0 57 -5q135 -12 207 -12q61 0 115 8l74 -746q269 393 451 722q143 11 218 36l25 -23q-46 -115 -102 -326l-52 -192q-45 -169 -45 -249q0 -37 23 -37 t77.5 34.5t73.5 55.5l25 -59q-190 -138 -260.5 -170.5t-115.5 -32.5q-74 0 -74 104q0 93 103 419q14 45 71 241l-302 -471q-115 -177 -175 -287h-128l-78 758q-142 -568 -205 -666t-168 -98q-34 0 -83 12z" />
<glyph unicode="&#x43d;" horiz-adv-x="1171" d="M60 744q9 6 80 61q216 167 302 167q58 0 58 -58q0 -53 -48 -284l-16 -74q125 -7 169 -7l168 2q75 247 92 385q145 12 219 36l26 -23q-22 -53 -48 -141l-31 -100q-19 -55 -27 -85l-55 -192q-45 -158 -45 -248q0 -38 22 -38q23 0 77.5 35t72.5 56l25 -60 q-188 -137 -258.5 -170t-116.5 -33q-73 0 -73 108q0 65 40 203l32 111q15 50 24 78q-70 11 -176 11q-88 0 -155 -11q-17 -66 -32 -145q-11 -60 -36 -169q-17 -77 -27 -147q-128 -9 -219 -39l-25 26q43 107 77 237l25 91q79 298 79 419q0 30 -23 30q-18 0 -70 -30.5 t-81 -55.5z" />
<glyph unicode="&#x43e;" d="M97 279q0 200 89 387q52 110 209.5 208t307.5 98q114 0 190 -36.5t112 -103t36 -175.5q0 -137 -50.5 -274.5t-116.5 -204.5q-86 -86 -237 -156q-106 -49 -223 -49q-162 0 -239.5 76.5t-77.5 229.5zM337 301q0 -125 46 -178t139 -53q65 0 115 45q66 60 115.5 220.5 t49.5 325.5q0 114 -48 169t-129 55q-71 0 -128 -50t-100 -190q-60 -198 -60 -344z" />
<glyph unicode="&#x43f;" d="M47 744l151 114q100 71 164 99q36 15 68 15q28 0 42.5 -14.5t14.5 -46.5q0 -28 -8 -71q-22 -114 -48 -210l-41 -150q79 129 106 162q82 101 177.5 182.5t180.5 120.5q59 27 104 27q42 0 64 -24t22 -69q0 -66 -61 -282l-51 -183q-41 -148 -41 -231q0 -38 23 -38 q17 0 50 19q64 37 99 71l25 -59q-177 -127 -239 -159q-83 -44 -136 -44q-37 0 -55 24t-18 84q0 65 40 203l32 111q43 148 53 196q27 116 27 149q0 18 -10.5 28t-28.5 10q-50 0 -136 -86q-119 -119 -196.5 -288t-110.5 -392q-127 -10 -219 -39l-25 26q21 54 35 99 q48 163 67 229q34 121 56.5 250.5t22.5 168.5q0 30 -23 30q-13 0 -43 -16q-61 -32 -108 -70z" />
<glyph unicode="&#x440;" d="M-39 -543q53 184 88 323q32 120 109 448q94 402 94 517q0 33 -26 33q-32 0 -152 -84l-27 51q203 151 280.5 189t123.5 38q24 0 38 -16.5t14 -45.5q0 -21 -6 -53l-47 -201l-28 -108q138 206 270 304q163 120 273 120q50 0 74 -41q44 -73 44 -183q0 -126 -47 -275 t-102.5 -224t-151 -137.5t-190.5 -107.5q-63 -31 -161 -31q-52 0 -109 14l-27 -94q-18 -62 -54 -221q-11 -50 -16.5 -91t-6.5 -97q-133 -9 -236 -43zM343 128q117 -56 195 -56q69 0 115 43q62 59 126 247t64 347q0 62 -13 83t-37 21q-49 0 -121 -54q-108 -81 -189 -224 t-125 -337z" />
<glyph unicode="&#x441;" horiz-adv-x="909" d="M81 250q0 119 37.5 251t85 200t146.5 128l176 105q79 38 173 38q47 0 101.5 -12.5t116.5 -38.5q-42 -104 -73 -288h-69q11 76 11 105l-2 32q-42 37 -89 55.5t-99 18.5q-77 0 -122 -39q-62 -55 -96 -173q-57 -199 -57 -336q0 -92 42.5 -143t111.5 -51q67 0 162.5 41 t179.5 112l23 -65q-203 -136 -305.5 -176.5t-185.5 -40.5q-126 0 -197 72.5t-71 204.5z" />
<glyph unicode="&#x442;" horiz-adv-x="1706" d="M42 734q171 131 217 162q69 47 117 64q34 13 55 13q27 0 44 -17t17 -45t-12 -85q-31 -148 -45 -192l-41 -178q130 225 274 352q186 164 296 164q33 0 53 -21t20 -60q0 -40 -19 -125q-54 -195 -85 -310q96 179 206 292.5t215.5 168.5t171.5 55q35 0 54.5 -24.5t19.5 -78.5 q0 -52 -47 -225l-42 -151q-21 -74 -48 -221q-15 -83 -15 -99q0 -36 23 -36q13 0 33 13q75 45 122 84l27 -50l-171 -122q-79 -51 -130.5 -70t-78.5 -19q-33 0 -54.5 23.5t-21.5 67.5q0 38 19 120l114 436q19 82 19 110q0 23 -9 34.5t-24 11.5q-22 0 -50 -15 q-57 -30 -132 -110.5t-130 -178.5t-98.5 -244t-49.5 -228q-68 0 -213 -27l-24 27q23 58 94 289q34 104 72 293q27 135 27 177q0 23 -10 35t-27 12q-35 0 -93 -46q-90 -72 -196 -245q-78 -127 -118 -276.5t-46 -229.5q-92 0 -222 -36l-20 27l24 77q22 67 56 195 q48 177 77 338q16 90 16 119q0 30 -8 46q-6 9 -17 9q-38 0 -156 -101z" />
<glyph unicode="&#x443;" d="M25 747q12 8 115.5 88t174.5 113q52 24 86 24q38 0 59.5 -29.5t21.5 -97.5q0 -34 -5 -77l-43 -357q-12 -97 -12 -188q0 -48 10 -64.5t26 -16.5q42 0 120 94q132 158 202 376t74 307q59 8 232 49l23 -18q-40 -103 -79 -245l-96 -340q-90 -322 -155 -463 q-108 -231 -259 -348t-281 -117q-66 0 -114 23.5t-70 59.5t-22 98v18l127 80l30 -13q-3 -20 -3 -33q0 -65 37 -105t96 -40q51 0 100 32t90 107.5t92 235.5q59 211 117 437q-109 -151 -191.5 -232t-151.5 -116q-51 -26 -80 -26q-40 0 -69.5 44.5t-29.5 139.5q0 57 11 148 l20 158q28 229 28 265q0 55 -9.5 71.5t-27.5 16.5q-17 0 -49 -22q-79 -51 -119 -94z" />
<glyph unicode="&#x444;" horiz-adv-x="1690" d="M97 201q0 179 78 372t218 296.5t250 103.5q116 0 164 -138l35 192q40 220 40 271q0 43 -89 43h-73l13 60q303 44 406 93l23 -20q-9 -24 -126 -613l-28 -129q75 101 197.5 171t208.5 70q178 0 178 -227q0 -181 -77 -369.5t-213 -296t-249 -107.5q-59 0 -96.5 31.5 t-76.5 123.5l-49 -235q-48 -230 -73 -411q-135 -9 -236 -41l-21 14l76 260q12 40 67 305l43 203q-93 -126 -209 -188t-210 -62q-171 0 -171 228zM341 261q0 -155 92 -155q50 0 119.5 54t123.5 147.5t93 344.5q-31 233 -147 233q-125 0 -203 -231t-78 -393zM919 294 q5 -74 42 -153.5t106 -79.5q121 0 200.5 227t79.5 397q0 155 -92 155q-55 0 -130.5 -64t-122 -156t-83.5 -326z" />
<glyph unicode="&#x445;" horiz-adv-x="1024" d="M-18 0q34 88 37 211l50 4q16 -85 68 -85q49 0 121.5 71.5t168.5 214.5q-43 282 -71.5 329.5t-84.5 47.5q-37 0 -77 -25t-67 -70l-47 26l59 93q42 65 64 116q44 20 84 29.5t75 9.5q88 0 142.5 -59.5t84.5 -235.5l9 -51q157 229 227.5 287t141.5 58q29 0 67 -16 q-27 -62 -48 -220l-44 -8q-12 66 -61 66q-91 0 -222 -183l-46 -64q34 -234 74 -345q25 -70 74 -70q50 0 162 105l32 -49l-167 -137q-63 -47 -107 -65q-29 -12 -57 -12q-117 0 -153 206l-27 160l-45 -64q-139 -197 -216 -259q-53 -43 -112 -43q-33 0 -89 27z" />
<glyph unicode="&#x446;" d="M60 767q296 205 386 205q67 0 67 -81q0 -48 -34 -175l-107 -395q-26 -95 -26 -137q0 -43 34 -43q76 0 230 211.5t219 579.5q104 1 227 40l19 -19q-61 -174 -95 -312l-68 -278q-34 -141 -34 -178q0 -36 30 -36q41 0 146 86l21 -54q-72 -82 -83 -137t-20 -144 q-11 -108 -46.5 -165t-112.5 -107t-189 -98l10 79q83 32 120.5 65.5t57.5 140.5q16 90 32.5 123.5t68.5 99.5q32 39 45 57q-164 -122 -238 -122q-69 0 -69 84q0 48 35 180l58 220q-114 -209 -269 -346.5t-254 -137.5q-104 0 -104 120q0 74 41 220l57 200q50 181 50 237 q0 39 -27 39q-34 0 -154 -79z" />
<glyph unicode="&#x447;" horiz-adv-x="1098" d="M20 767q285 205 390 205q68 0 68 -80q0 -44 -30 -155l-34 -127q-25 -93 -25 -133q0 -58 68 -58q67 0 146 41t97.5 73t55.5 183t39 216q124 5 239 40l17 -19q-32 -96 -49 -158l-26 -89q-12 -33 -18 -60l-56 -221q-42 -167 -42 -245q0 -37 23 -37t77.5 34.5t73.5 55.5 l23 -59q-185 -133 -256 -167t-113 -34q-79 0 -79 90q0 59 52 271l28 109l-46 -29q-206 -138 -371 -138q-121 0 -121 114q0 52 38 182l21 74q15 55 15 97q0 46 -28 46q-32 0 -153 -79z" />
<glyph unicode="&#x448;" horiz-adv-x="1655" d="M60 767q285 205 390 205q68 0 68 -79q0 -51 -36 -183l-59 -218q-65 -239 -65 -307q0 -44 34 -44q53 0 176.5 140t193.5 339t73 312q104 4 222 40l17 -19q-57 -173 -95 -312l-40 -149q-65 -240 -65 -308q0 -43 34 -43q53 0 176 139t193.5 338t73.5 314q104 4 222 40 l18 -19q-71 -213 -134 -460.5t-63 -308.5q0 -35 30 -35q40 0 149 89l18 -57q-10 -7 -59 -44q-125 -93 -189 -128.5t-112 -35.5q-64 0 -64 84q0 50 35 181l58 219q-93 -175 -260 -329.5t-277 -154.5q-72 0 -72 84q0 50 35 181l58 219q-99 -185 -265 -334.5t-266 -149.5 q-94 0 -94 127q0 44 11.5 91.5t66.5 249.5q68 253 68 307q0 41 -28 41q-32 0 -153 -79z" />
<glyph unicode="&#x449;" horiz-adv-x="1655" d="M60 767q285 205 390 205q68 0 68 -79q0 -51 -36 -183l-59 -218q-65 -239 -65 -307q0 -44 34 -44q53 0 176.5 140t193.5 339t73 312q104 4 222 40l17 -19q-57 -173 -95 -312l-40 -149q-65 -240 -65 -308q0 -43 34 -43q53 0 176.5 140t193.5 339t73 312q104 4 222 40 l15 -19q-39 -114 -116.5 -404t-77.5 -366q0 -35 37 -35q42 0 157 90l18 -57q-61 -74 -76 -113.5t-27 -167.5q-10 -106 -44.5 -162.5t-112 -107.5t-191.5 -100l10 79q97 37 130 76t48 130q13 77 34 122t70 111q27 37 48 68q-172 -143 -262 -143q-66 0 -66 84q0 50 35 181 l58 219q-93 -175 -260 -329.5t-277 -154.5q-72 0 -72 84q0 50 35 181l58 219q-99 -185 -265 -334.5t-266 -149.5q-94 0 -94 127q0 44 11.5 91.5t66.5 249.5q68 253 68 307q0 41 -28 41q-32 0 -153 -79z" />
<glyph unicode="&#x44a;" horiz-adv-x="999" d="M63 706q39 100 82 249q48 18 107 18q39 0 151 -17q60 -9 113 -9q76 0 154 25l16 -45q-121 -153 -222 -399q114 62 227 62q100 0 161.5 -52.5t61.5 -152.5q0 -163 -143.5 -287.5t-348.5 -124.5q-131 0 -198 66t-67 182q0 99 70 232t264 392q-77 -30 -116 -30q-16 0 -47 5 q-48 7 -80 7q-38 0 -64.5 -27.5t-71.5 -108.5zM377 204q0 -143 122 -143q83 0 155 73t72 182q0 81 -39 132t-116 51q-49 0 -127 -36q-67 -167 -67 -259z" />
<glyph unicode="&#x44b;" horiz-adv-x="1534" d="M39 724q210 156 290 202t139 46q67 0 67 -76q0 -58 -30 -165l-58 -211q116 70 238 70q100 0 161 -53t61 -152q0 -164 -143.5 -288t-347.5 -124q-136 0 -200.5 68.5t-64.5 155.5q0 58 45 215q77 273 77 334q0 26 -23 26q-48 0 -187 -102zM370 204q0 -143 123 -143 q83 0 154.5 73t71.5 182q0 80 -38.5 131.5t-117.5 51.5q-44 0 -131 -37q-62 -186 -62 -258zM1007 89q0 50 39 187l66 238q75 269 98 426q192 17 228 32l26 -19q-22 -53 -48 -141l-31 -100q-19 -55 -27 -85l-37 -126q-74 -256 -74 -316q0 -35 26 -35q29 0 172 97l27 -53 l-72 -50q-238 -165 -315 -165q-78 0 -78 110z" />
<glyph unicode="&#x44c;" horiz-adv-x="993" d="M40 724q210 156 290 202t139 46q67 0 67 -76q0 -58 -30 -165l-58 -211q116 70 238 70q100 0 161 -53t61 -152q0 -164 -143.5 -288t-347.5 -124q-136 0 -200.5 68.5t-64.5 155.5q0 58 45 215q77 273 77 334q0 26 -23 26q-48 0 -187 -102zM371 204q0 -143 123 -143 q83 0 154.5 73t71.5 182q0 80 -38.5 131.5t-117.5 51.5q-44 0 -131 -37q-62 -186 -62 -258z" />
<glyph unicode="&#x44d;" horiz-adv-x="967" d="M-20 44q32 52 54 178h59v-111q83 -53 180 -53q106 0 207 73.5t136 344.5q-120 3 -156 3q-52 0 -85 -3q-22 -18 -64 -72l-45 31l70 112l48 1q89 3 95 3q50 0 146 -4q5 78 5 116q0 222 -188 222q-91 0 -165 -66q-16 -23 -38 -86l-17 -45h-72q35 137 42 230q170 54 306 54 q203 0 287 -78.5t84 -222.5q0 -336 -200 -517t-414 -181q-157 0 -275 71z" />
<glyph unicode="&#x44e;" horiz-adv-x="1597" d="M47 744q9 6 80 61q216 167 302 167q58 0 58 -58q0 -53 -48 -284l-16 -74q61 -4 127 -6l84 -3q47 183 221.5 306t343.5 123q339 0 339 -311q0 -145 -58 -298.5t-155 -224.5t-194.5 -118t-225.5 -47q-311 0 -311 317q0 89 24 190q-68 5 -87 5q-43 0 -124 -12 q-88 -386 -97 -465q-130 -9 -219 -39l-25 26q65 167 123 410t58 337q0 30 -23 30q-18 0 -70 -30.5t-81 -55.5zM833 296q0 -223 186 -223q136 0 207.5 200t71.5 392q0 224 -176 224q-153 0 -221 -215t-68 -378z" />
<glyph unicode="&#x44f;" horiz-adv-x="1122" d="M-37 -7l11 57h30q48 0 92 64l151 220q40 59 90 95t169 61q-145 19 -205.5 66.5t-60.5 132.5q0 123 102.5 203t271.5 80q59 0 127 -5q136 -12 203 -12q52 0 112 17l26 -23q-22 -52 -49 -141l-30 -100q-18 -53 -27 -85l-55 -192q-46 -158 -46 -249q0 -37 23 -37t76.5 34 t73.5 56l25 -59q-192 -139 -261.5 -171t-113.5 -32q-73 0 -73 108q0 65 40 203l54 183h-72q-113 0 -191 -126l-216 -348q-93 7 -126 7zM443 686q0 -86 49 -117t158 -31h91q72 277 86 355q-82 13 -131 13q-130 0 -191.5 -62t-61.5 -158z" />
<glyph unicode="&#x450;" horiz-adv-x="909" d="M336 1377q0 34 23.5 56.5t60.5 22.5q33 0 58 -16.5t75 -82.5l199 -263h-81l-247 175q-60 42 -74 62t-14 46zM79 221q0 140 59 326q42 132 113.5 209t243.5 166q97 50 196 50q91 0 143 -45.5t52 -119.5q0 -90 -51.5 -166.5t-183.5 -140t-326 -94.5q-21 -72 -21 -136 q0 -80 40.5 -119.5t115.5 -39.5q57 0 146.5 33t188.5 98l22 -55l-170 -108q-106 -59 -179.5 -82.5t-133.5 -23.5q-122 0 -188.5 64t-66.5 184zM333 461q155 42 216 81t101.5 110.5t40.5 127.5q0 43 -26.5 69t-71.5 26q-49 0 -94 -32t-83 -112.5t-83 -269.5z" />
<glyph unicode="&#x451;" horiz-adv-x="909" d="M79 221q0 140 59 326q42 132 113.5 209t243.5 166q97 50 196 50q91 0 143 -45.5t52 -119.5q0 -90 -51.5 -166.5t-183.5 -140t-326 -94.5q-21 -72 -21 -136q0 -80 40.5 -119.5t115.5 -39.5q57 0 146.5 33t188.5 98l22 -55l-170 -108q-106 -59 -179.5 -82.5t-133.5 -23.5 q-122 0 -188.5 64t-66.5 184zM333 461q155 42 216 81t101.5 110.5t40.5 127.5q0 43 -26.5 69t-71.5 26q-49 0 -94 -32t-83 -112.5t-83 -269.5zM308 1191q0 50 35 85t85 35t86 -35.5t36 -86.5t-35.5 -86t-84.5 -35q-50 0 -86 36t-36 87zM730 1191q0 50 35 85t85 35t86 -35.5 t36 -86.5t-35.5 -86t-84.5 -35q-50 0 -86 36t-36 87z" />
<glyph unicode="&#x452;" horiz-adv-x="1114" d="M61 -7q94 288 243 1101h-209l5 31q117 34 161 69h62q14 59 14 91q0 33 -23 44.5t-93 11.5h-52l9 60q201 13 411 93l21 -19l-72 -292h121l253 -2q52 0 94 13l9 -11q-15 -47 -24 -99q-109 10 -473 10q-23 -93 -69 -295l157 121q52 41 142 41q128 0 210 -83t82 -238 q0 -244 -158.5 -492t-405.5 -298q-17 34 -57 56l6 25q194 23 295 215t101 421q0 256 -183 256q-67 0 -126 -41t-80 -92.5t-72 -302.5t-67 -376q-97 -6 -212 -38z" />
<glyph unicode="&#x453;" horiz-adv-x="999" d="M-65 -6l23 83q114 5 133 13t42 60.5t103 345.5t80 332q0 20 -13.5 29.5t-122.5 11.5l22 82q121 -5 273 -5l323 4q104 0 224 6l13 -6q-33 -113 -71 -282h-77q31 125 31 153q0 16 -10.5 22t-138 10.5t-174.5 4.5q-28 0 -36 -7.5t-17 -42.5q-3 -11 -11 -36 q-80 -256 -126 -436.5t-46 -204.5t17.5 -35t140.5 -19l-23 -83q-180 6 -301 6q-25 0 -258 -6zM501 1061l243 255q69 73 91 89t51 16q36 0 63.5 -24t27.5 -61q0 -33 -16 -48.5t-106 -68.5l-267 -158h-87z" />
<glyph unicode="&#x454;" horiz-adv-x="909" d="M81 250q0 134 45.5 277.5t99 201t206.5 148.5l34 22q117 73 230 73q101 0 221 -51q-44 -104 -75 -288h-67l9 77q2 14 2 28q0 11 -2 32q-85 74 -188 74q-102 0 -155 -73t-85 -224q88 4 150 4l149 -4l44 -106l-56 -28q-26 50 -49 64q-35 6 -84 6q-82 0 -169 -6 q-20 -119 -20 -171q0 -97 40.5 -150.5t113.5 -53.5q156 0 342 153l25 -65q-314 -217 -494 -217q-117 0 -192 69t-75 208z" />
<glyph unicode="&#x455;" horiz-adv-x="909" d="M36 29q36 138 45 268h62l3 -97q43 -52 114 -85.5t144 -33.5q92 0 139.5 42t47.5 111q0 53 -32 88t-109 51l-86 18q-121 25 -165 66q-67 62 -67 162q0 119 82 188q194 165 378 165q58 0 117 -14.5t119 -44.5q-25 -106 -40 -241h-60l-11 99q-60 52 -115 72.5t-113 20.5 q-74 0 -118.5 -40.5t-44.5 -102.5q0 -61 43 -97q42 -37 161 -57l56 -9q105 -18 158 -76q52 -58 52 -146q0 -90 -62 -161t-172.5 -136.5t-250.5 -65.5q-66 0 -117.5 10t-157.5 46z" />
<glyph unicode="&#x456;" horiz-adv-x="682" d="M62 722q242 176 307 209q84 42 126 42q27 0 45 -20.5t18 -57.5q0 -71 -65 -292l-32 -108q-75 -250 -75 -316q0 -34 28 -34q26 0 171 96l27 -53l-207 -138q-83 -52 -125 -66q-29 -11 -54 -11q-38 0 -58.5 25.5t-20.5 82.5q0 75 32 192l67 238q50 179 50 233q0 26 -23 26 q-16 0 -48 -16q-78 -40 -139 -86zM405 1270q0 76 40 120t102 44q49 0 79.5 -30.5t30.5 -80.5q0 -70 -39.5 -115t-101.5 -45q-50 0 -80.5 30.5t-30.5 76.5z" />
<glyph unicode="&#x457;" horiz-adv-x="682" d="M62 722q242 176 307 209q84 42 126 42q27 0 45 -20.5t18 -57.5q0 -71 -65 -292l-32 -108q-75 -250 -75 -316q0 -34 28 -34q26 0 171 96l27 -53l-207 -138q-83 -52 -125 -66q-29 -11 -54 -11q-38 0 -58.5 25.5t-20.5 82.5q0 75 32 192l67 238q50 179 50 233q0 26 -23 26 q-16 0 -48 -16q-78 -40 -139 -86zM140 1191q0 50 35 85t85 35t86 -35.5t36 -86.5t-35.5 -86t-84.5 -35q-50 0 -86 36t-36 87zM562 1191q0 50 35 85t85 35t86 -35.5t36 -86.5t-35.5 -86t-84.5 -35q-50 0 -86 36t-36 87z" />
<glyph unicode="&#x458;" horiz-adv-x="682" d="M-155 -562q24 81 33 162l29 6l8 -12q42 -61 86 -61q41 0 62 46q32 71 125 520l86 414q36 178 36 224q0 36 -23 36q-14 0 -50 -19q-67 -35 -143 -92l-26 55q253 182 329 219t121 37q25 0 39.5 -19t14.5 -57q0 -50 -28 -167l-79 -335l-69 -270q-61 -236 -107.5 -345 t-131 -207t-132 -123t-96.5 -25q-31 0 -84 13zM421 1270q0 77 39.5 120.5t100.5 43.5q50 0 80 -30.5t30 -81.5q0 -71 -39.5 -116t-100.5 -45q-50 0 -80 31t-30 78z" />
<glyph unicode="&#x459;" horiz-adv-x="1421" d="M-60 -7q2 24 7 57q9 58 14 126l31 11q29 -47 63 -47q55 0 105.5 54t189.5 272q195 306 320.5 406t210.5 100q73 0 73 -79q0 -70 -50 -255l-32 -121q137 73 241 73q106 0 164.5 -55t58.5 -150q0 -164 -143.5 -288t-347.5 -124q-137 0 -200.5 69t-63.5 158q0 71 49 237 q77 261 77 325q0 25 -17 25q-29 0 -96 -86.5t-255 -398.5q-129 -214 -208 -268t-136 -54q-15 0 -55 13zM799 201q0 -140 123 -140q83 0 154.5 73t71.5 182q0 81 -38.5 132t-116.5 51q-47 0 -134 -38q-60 -192 -60 -260z" />
<glyph unicode="&#x45a;" horiz-adv-x="1520" d="M61 744q9 6 80 61q216 167 302 167q58 0 58 -58q0 -53 -48 -284l-16 -74q125 -7 169 -7l156 2q75 247 92 385q168 14 231 36l26 -23q-26 -56 -136 -429q115 70 238 70q100 0 161 -53t61 -152q0 -164 -144 -288t-348 -124q-136 0 -200 68.5t-64 155.5q0 57 17 118l44 159 q-64 10 -147 10q-109 0 -171 -10q-14 -67 -32 -146q-56 -233 -66 -316q-128 -9 -219 -39l-25 26q42 106 77 237l25 91q79 296 79 419q0 30 -23 30q-18 0 -70 -30.5t-81 -55.5zM897 204q0 -143 123 -143q83 0 155 73t72 182q0 89 -42.5 136.5t-105.5 47.5q-53 0 -139 -38 q-63 -186 -63 -258z" />
<glyph unicode="&#x45b;" d="M61 -7q48 151 108 420l31 142q27 125 104 538l-84 1q-53 0 -125 -1l5 32q117 34 161 69h62q14 59 14 91q0 33 -23 44.5t-93 11.5h-52l9 60q201 13 411 93l21 -19l-72 -292h122l251 -2q53 0 95 13l9 -11q-15 -47 -24 -99q-109 9 -473 9q-49 -202 -130 -578 q140 216 307 336.5t269 120.5q83 0 83 -87q0 -42 -8.5 -80t-57.5 -213l-39 -140q-63 -227 -63 -260q0 -44 38 -44q14 0 64.5 29t83.5 58l23 -55q-278 -207 -365 -207q-81 0 -81 101q0 62 23 146l87 314q10 40 27 123.5t17 90.5q0 38 -38 38q-99 0 -258.5 -212t-206.5 -563 q-97 -6 -212 -38z" />
<glyph unicode="&#x45c;" horiz-adv-x="1155" d="M60 767q285 205 390 205q68 0 68 -79q0 -48 -35 -183l-64 -250q4 4 78 91q179 213 308 317t261 104q29 0 58 -4v-11q-35 -121 -38 -151l-11 -8q-59 27 -98 27q-65 0 -147.5 -44t-148.5 -124q6 -22 65.5 -187t96 -238.5t54 -87t31.5 -13.5q47 0 154 76l20 -59 q-269 -175 -337 -175q-45 0 -87.5 75.5t-105.5 256.5l-61 174l-48 -52q-44 -47 -59 -82.5t-37.5 -142t-27.5 -190.5q-94 -1 -230 -39l-17 27q65 214 119 464.5t54 283.5q0 41 -28 41q-32 0 -153 -79zM482 1061l242 255q74 76 96 90.5t47 14.5q39 0 65 -24.5t26 -60.5 q0 -27 -16 -47.5t-67 -48.5l-306 -179h-87z" />
<glyph unicode="&#x45d;" d="M702 1378q0 34 23.5 56.5t60.5 22.5q33 0 58 -16.5t75 -82.5l199 -263h-81l-247 175q-60 42 -74 62t-14 46zM60 767q135 97 236 151t154 54q34 0 51 -18t17 -61q0 -52 -36 -183l-59 -218q-33 -123 -55 -235q-10 -49 -10 -72q0 -22 9.5 -33t25.5 -11q21 0 54 21 q52 34 132 133.5t138.5 222t86 236t32.5 178.5q103 4 221 41l17 -20q-51 -155 -117 -398q-79 -294 -79 -371q0 -35 30 -35q12 0 38 14q61 34 111 75l20 -57l-182 -131q-75 -49 -113.5 -63t-65.5 -14q-30 0 -47.5 21.5t-17.5 62.5q0 50 35 181l58 219q-122 -220 -310 -374 q-135 -110 -221 -110q-44 0 -69 29.5t-25 94.5q0 35 7 69q8 45 43 170l29 107q67 245 67 305q0 20 -8 30.5t-21 10.5q-30 0 -152 -79z" />
<glyph unicode="&#x45e;" d="M25 747q12 8 115.5 88t174.5 113q52 24 86 24q38 0 59.5 -29.5t21.5 -97.5q0 -34 -5 -77l-43 -357q-12 -97 -12 -188q0 -48 10 -64.5t26 -16.5q42 0 120 94q132 158 202 376t74 307q59 8 232 49l23 -18q-40 -103 -79 -245l-96 -340q-90 -322 -155 -463 q-108 -231 -259 -348t-281 -117q-66 0 -114 23.5t-70 59.5t-22 98v18l127 80l30 -13q-3 -20 -3 -33q0 -65 37 -105t96 -40q51 0 100 32t90 107.5t92 235.5q59 211 117 437q-109 -151 -191.5 -232t-151.5 -116q-51 -26 -80 -26q-40 0 -69.5 44.5t-29.5 139.5q0 57 11 148 l20 158q28 229 28 265q0 55 -9.5 71.5t-27.5 16.5q-17 0 -49 -22q-79 -51 -119 -94zM442 1180v44q22 16 67 46q40 26 60 47q183 -92 336 -92q12 0 34 3v-34l-23 -17q-21 -15 -27 -20q-65 -10 -164 -10q-100 0 -283 33z" />
<glyph unicode="&#x45f;" d="M60 767q296 205 386 205q67 0 67 -81q0 -48 -34 -175l-107 -395q-26 -95 -26 -137q0 -43 34 -43q76 0 230 211.5t219 579.5q104 1 227 40l19 -19q-61 -174 -95 -312l-68 -278q-34 -141 -34 -178q0 -36 30 -36q32 0 148 88l19 -56q-11 -7 -59 -44q-125 -93 -188 -128.5 t-109 -35.5q-68 0 -68 84q0 48 35 180l58 220q-18 -34 -51 -86q-67 -107 -111.5 -215.5t-62.5 -255.5q-14 -116 -49 -170t-112.5 -103.5t-187.5 -96.5l12 79q95 36 128.5 75.5t48.5 130.5q13 75 26.5 109.5t102.5 163.5q33 48 71 108q-212 -223 -336 -223q-106 0 -106 120 q0 74 41 220l57 200q50 181 50 237q0 39 -27 39q-34 0 -154 -79z" />
<glyph unicode="&#x470;" horiz-adv-x="1792" d="M133 1257v50q86 31 160 70l74 38q84 -13 128 -57t55 -123t11 -298q0 -206 12.5 -266.5t60 -90t147.5 -30.5l71 477q32 219 32 245q0 57 -103 57h-30l10 67q124 -8 284 -8q169 0 256 8l-10 -67h-22q-83 0 -109.5 -28t-42.5 -159q-1 -10 -27 -182l-61 -410 q157 3 228.5 77.5t102.5 257.5q45 264 74 346t99 165q125 -8 170 -8l161 8l-7 -67q-103 -22 -145 -86.5t-76 -277.5q-32 -192 -58.5 -267t-88.5 -129t-172.5 -81t-298.5 -36l-19 -137q-24 -172 -24 -206q0 -50 102 -50h85l-10 -66q-145 7 -317 7q-193 0 -356 -7l10 66h78 q59 0 102 21.5t57 147.5q5 41 15 104l20 120q-173 0 -322 64.5t-149 281.5q0 58 5 198q1 41 1 83q0 138 -25 168t-66 30q-30 0 -72 -20z" />
<glyph unicode="&#x471;" horiz-adv-x="1468" d="M-1 722q226 169 308.5 209.5t129.5 40.5q54 0 54 -53q0 -29 -19 -138q-63 -357 -63 -503q0 -202 190 -216l99 458q40 187 77 433q5 0 43 -3q59 -4 77 -4q29 0 124 7q-41 -153 -96 -406l-107 -485q219 50 328.5 247t109.5 383q0 123 -81 123q-37 0 -75 -30l-20 43 q90 70 130 138q20 6 45 6q80 0 114.5 -54.5t34.5 -125.5q0 -231 -155.5 -500.5t-449.5 -318.5l-65 -304q-29 -122 -32 -185q-132 -9 -235 -43l-21 16q52 129 135 516q-178 0 -287.5 80.5t-109.5 238.5q0 106 47 417q4 23 4 36q0 25 -22 25q-48 0 -188 -102z" />
<glyph unicode="&#x490;" horiz-adv-x="1059" d="M-39 -7l11 66h76q57 0 80.5 19t40.5 120l114 681q53 319 53 396q0 28 -25 40t-127 12h-47l11 69q279 -12 551 -12q176 0 238 11t75.5 26t47.5 129l20 60h72l-27 -159q-19 -110 -23 -155l-15 -16q-45 -4 -118 -4q-106 0 -358 8l-138 -826q-47 -276 -47 -319 q0 -47 33.5 -61.5t127.5 -14.5h46l-12 -70l-440 8q-59 0 -220 -8z" />
<glyph unicode="&#x491;" horiz-adv-x="752" d="M97 87q0 56 38 189l67 238q60 215 60 297q0 32 -14.5 44.5t-127.5 13.5l15 82l280 -5q344 0 359.5 22t29.5 101l16 68h77q-29 -174 -37 -281l-15 -7q-174 8 -253 8q-68 0 -76 -11t-68 -219l-37 -126q-74 -256 -74 -316q0 -35 26 -35q31 0 172 97l27 -53l-72 -50 q-238 -165 -316 -165q-77 0 -77 108z" />
<glyph unicode="&#x4ae;" horiz-adv-x="1251" d="M52 1203v67q54 37 92 69l90 75q28 5 55 5q81 0 145 -47t114 -167q71 -170 126 -427l36 -162q117 281 252.5 477.5t231.5 261.5q65 45 133 46l-10 -186q-77 -14 -148 -70q-105 -84 -208.5 -247t-160.5 -306q-38 -92 -70 -287l-15 -86q-10 -62 -10 -91q0 -36 25 -51.5 t105 -15.5h79l-12 -71q-141 11 -258 11q-160 0 -418 -11l12 71h80q60 0 84 13.5t33 41.5q17 85 26 140q35 212 35 248q0 81 -101 392q-73 227 -141 300q-38 41 -88 41q-38 0 -114 -34z" />
<glyph unicode="&#x4c0;" horiz-adv-x="797" d="M-21 -10l11 69h62q57 0 78 8t31 19.5t19 43.5t40 213q43 247 86 501q58 348 58 422q0 32 -26 46.5t-116 14.5h-53l11 68q276 -7 327 -7l331 7l-12 -68h-25q-101 0 -123 -12.5t-33 -44.5q-16 -45 -46 -225l-113 -680q-31 -184 -31 -238q0 -36 26 -52t111 -16h60l-12 -69 q-233 10 -348 10q-139 0 -313 -10z" />
<glyph unicode="&#x4c1;" horiz-adv-x="2279" d="M1023 1822l2 47h74q10 -101 65.5 -152t157.5 -51q93 0 162 53.5t101 149.5h74q-39 -172 -130.5 -252t-226.5 -80q-131 0 -205 73.5t-74 211.5zM-54 -7l23 66h43q47 0 83.5 22.5t152.5 136.5l554 551l-177 238q-88 116 -157 197t-95 95t-75 21l-50 7l10 69q95 -8 121 -8 l218 8l-6 -36q-8 -24 -8 -35q0 -53 175 -300l68 -97q163 -231 199 -240l33 216q49 322 49 359q0 36 -19.5 50t-101.5 14h-68l11 69q119 -7 276 -7q39 0 371 7l-11 -69h-42q-111 0 -128 -29.5t-61 -286.5l-55 -323q81 48 279 240l100 97q70 67 161 160.5t103.5 118t12.5 56.5 l6 36l26 -1q181 -7 197 -7q35 0 103 8v-69l-52 -7q-68 -9 -132.5 -52.5t-296.5 -260.5l-254 -238l399 -551q73 -100 98.5 -129.5t83.5 -29.5h44l-12 -66q-31 0 -164 5q-41 2 -73 2q-66 0 -135 -7q-1 0 -46 69q-78 119 -123 181l-81 111q-182 249 -244 321l-27 -160 q-58 -332 -58 -382q0 -40 19 -50t99 -18l64 -6l-11 -66l-377 7q-137 0 -260 -7l11 66h63q96 0 109 34.5t42 195.5l21 103q20 94 51 283q-64 -52 -175 -164l-119 -119q-23 -21 -46 -44l-340 -341q-7 -4 -27 -14q-67 7 -121 7q-32 0 -73 -2q-135 -5 -178 -5z" />
<glyph unicode="&#x4c2;" horiz-adv-x="1651" d="M811 1389l2 47h74q10 -101 65.5 -152t157.5 -51q93 0 162 53.5t101 149.5h74q-39 -172 -130.5 -252t-226.5 -80q-131 0 -205 73.5t-74 211.5zM-48 148l40 59q81 -76 127 -76q50 0 132.5 109t282.5 417q-59 104 -109 138.5t-115 34.5q-46 0 -111 -28l-13 8q10 51 13 151 v11q31 4 59 4q81 0 139.5 -32t138.5 -145.5t197 -339.5q40 152 53 223q13 69 22 108q17 73 22 156q97 1 224 36l16 -25q-58 -186 -93 -343l-36 -155l21 21q158 193 280.5 311.5t191.5 149.5t148 31q28 0 57 -4v-11q-35 -121 -38 -151l-11 -8q-58 28 -101 28 q-55 0 -138.5 -48t-143.5 -121q53 -159 110.5 -306t84 -183.5t55.5 -36.5q45 0 151 76l21 -59l-80 -51q-188 -124 -243 -124q-47 0 -87.5 69.5t-110.5 266.5l-60 171l-58 -52q-98 -88 -125 -416q-92 -1 -230 -39l-16 27q88 306 88 338q0 34 -33 90l-31 52l-208 -306 q-72 -110 -118.5 -155.5t-84.5 -45.5q-66 0 -217 125z" />
<glyph unicode="&#x4d0;" horiz-adv-x="1479" d="M671 1822l2 47h74q10 -101 65.5 -152t157.5 -51q93 0 162 53.5t101 149.5h74q-39 -172 -130.5 -252t-226.5 -80q-131 0 -205 73.5t-74 211.5zM-97 -10l3 69h39q40 0 67 10t44 33l80 136l529 904q112 191 149 263h197q13 -99 29 -206l138 -880q22 -143 32.5 -184.5 t24.5 -53.5t56 -16l45 -5q23 -1 48 -1l1 -69q-122 10 -282 10q-205 0 -337 -10l1 69h39q69 0 99 12t30 49q0 62 -16 170l-34 252l-159 1l-297 -1l-84 -150q-131 -237 -131 -284q0 -23 24 -33q38 -16 158 -16l-12 -69q-123 10 -242 10q-120 0 -239 -10zM478 641l197 -2l195 2 l-82 531z" />
<glyph unicode="&#x4d1;" d="M758 1380l2 47h74q10 -101 65.5 -152t157.5 -51q93 0 162 53.5t101 149.5h74q-39 -172 -130.5 -252t-226.5 -80q-131 0 -205 73.5t-74 211.5zM79 151q0 115 43.5 276t92.5 249q26 46 110 112q160 126 225.5 155t142.5 29q55 0 109 -12.5t106 -37.5l93 51l33 -21 q-8 -19 -21 -62l-38 -134l-113 -481q-15 -63 -15 -97q0 -35 24 -35q43 0 161 96l21 -65q-249 -201 -349 -201q-33 0 -49 21q-23 29 -23 72q0 60 70 338l18 71q-122 -192 -169 -249q-78 -96 -147.5 -152t-138.5 -84q-41 -17 -70 -17q-54 0 -85 41t-31 137zM304 211 q0 -35 12 -52.5t28 -17.5q15 0 41 17q67 45 156 158.5t147 236t73 217.5l9 50q-45 22 -86.5 33t-80.5 11q-69 0 -117.5 -46.5t-105.5 -234.5q-76 -249 -76 -372z" />
<glyph unicode="&#x4d2;" horiz-adv-x="1479" d="M623 1660q0 50 35 85t85 35t86 -35.5t36 -86.5t-35.5 -86t-84.5 -35q-50 0 -86 36t-36 87zM1045 1660q0 50 35 85t85 35t86 -35.5t36 -86.5t-35.5 -86t-84.5 -35q-50 0 -86 36t-36 87zM-97 -10l3 69h39q40 0 67 10t44 33l80 136l529 904q112 191 149 263h197 q13 -99 29 -206l138 -880q22 -143 32.5 -184.5t24.5 -53.5t56 -16l45 -5q23 -1 48 -1l1 -69q-122 10 -282 10q-205 0 -337 -10l1 69h39q69 0 99 12t30 49q0 62 -16 170l-34 252l-159 1l-297 -1l-84 -150q-131 -237 -131 -284q0 -23 24 -33q38 -16 158 -16l-12 -69 q-123 10 -242 10q-120 0 -239 -10zM478 641l197 -2l195 2l-82 531z" />
<glyph unicode="&#x4d3;" d="M710 1218q0 50 35 85t85 35t86 -35.5t36 -86.5t-35.5 -86t-84.5 -35q-50 0 -86 36t-36 87zM1132 1218q0 50 35 85t85 35t86 -35.5t36 -86.5t-35.5 -86t-84.5 -35q-50 0 -86 36t-36 87zM79 151q0 115 43.5 276t92.5 249q26 46 110 112q160 126 225.5 155t142.5 29 q55 0 109 -12.5t106 -37.5l93 51l33 -21q-8 -19 -21 -62l-38 -134l-113 -481q-15 -63 -15 -97q0 -35 24 -35q43 0 161 96l21 -65q-249 -201 -349 -201q-33 0 -49 21q-23 29 -23 72q0 60 70 338l18 71q-122 -192 -169 -249q-78 -96 -147.5 -152t-138.5 -84q-41 -17 -70 -17 q-54 0 -85 41t-31 137zM304 211q0 -35 12 -52.5t28 -17.5q15 0 41 17q67 45 156 158.5t147 236t73 217.5l9 50q-45 22 -86.5 33t-80.5 11q-69 0 -117.5 -46.5t-105.5 -234.5q-76 -249 -76 -372z" />
<glyph unicode="&#x4d4;" horiz-adv-x="1933" d="M-66 -9l11 68l36 2q60 3 76 14t80 105l644 1002q51 80 51 95q0 20 -23.5 31t-122.5 11h-68l13 76h255l372 -1l595 9l42 -1l10 -9q-16 -64 -26 -122l-28 -200h-72q8 60 8 96q0 73 -13 89.5t-70 25.5q-87 14 -240 14q-65 0 -144 -4l-86 -528l171 -2q207 0 286 12l9 -10 l-28 -97l-80 4q-108 7 -307 7h-67l-74 -419q-15 -88 -22 -154q159 -9 210 -9q157 0 256 18q55 10 72.5 29t44.5 114l26 95h71l-37 -206q-15 -79 -19 -131l-18 -22q-201 5 -341 5h-174l-196 2q-162 0 -305 -9l12 68q86 9 107.5 24t31.5 53q33 170 72 407q-80 2 -141 2 l-305 -2q-140 -216 -208 -361q-28 -61 -28 -76q0 -19 22 -31q30 -16 96 -16h58l-12 -68q-138 9 -235 9q-88 0 -248 -9zM542 632l143 3h266l79 478q18 139 18 166q0 30 -31 30q-24 0 -47.5 -22t-84.5 -118z" />
<glyph unicode="&#x4d5;" horiz-adv-x="1511" d="M79 173q0 105 58 189.5t169 125t317 40.5h64q6 64 6 96q0 109 -61 169.5t-178 60.5q-29 0 -58.5 -3t-59.5 -9l-53 -137l-38 7l-13 155l71 53q102 52 239 52q116 0 189 -48t102 -144q114 96 224 144t197 48q99 0 150 -44.5t51 -121.5q0 -94 -59.5 -166t-218 -120.5 t-282.5 -57.5q-19 -122 -19 -175q0 -98 39 -141.5t111 -43.5q62 0 160.5 41t172.5 101l24 -57q-314 -214 -499 -214q-88 0 -147 45t-89 134q-121 -105 -202 -142t-160 -37q-98 0 -152.5 54.5t-54.5 145.5zM294 241q0 -58 29.5 -89t87.5 -31q119 0 194 98q58 76 72 246l-50 1 q-167 0 -250 -64.5t-83 -160.5zM908 518q118 16 196.5 55.5t117.5 98.5t39 116q0 39 -26 63t-74 24q-68 0 -120.5 -52.5t-103.5 -214.5z" />
<glyph unicode="&#x4d6;" horiz-adv-x="1251" d="M-87 1822l2 47h74q10 -101 65.5 -152t157.5 -51q93 0 162 53.5t101 149.5h74q-39 -172 -130.5 -252t-226.5 -80q-131 0 -205 73.5t-74 211.5zM-7 -10l11 69q105 14 123 31t43 139q10 50 80 469l69 414q20 119 20 159q0 27 -20 38q-32 18 -103 18h-74l11 68l118 -3l111 -4 l368 4l330 1q78 0 126 -8l10 -8q-32 -157 -52 -314h-70l3 66l1 80q0 46 -29 56q-84 31 -293 31q-88 0 -168 -12q-54 -322 -85 -510l293 -8q38 0 178 8l6 -13l-24 -97q-198 10 -389 10q-43 0 -81 -2l-94 -564q107 -14 215 -14q162 0 271 19q58 10 71 22q18 19 50 128l26 83 h72l-32 -182q-17 -90 -24 -154l-15 -17q-46 -3 -95 -3l-783 14q-84 0 -175 -14z" />
<glyph unicode="&#x4d7;" horiz-adv-x="909" d="M448 1379l2 47h74q10 -101 65.5 -152t157.5 -51q93 0 162 53.5t101 149.5h74q-39 -172 -130.5 -252t-226.5 -80q-131 0 -205 73.5t-74 211.5zM79 221q0 140 59 326q42 132 113.5 209t243.5 166q97 50 196 50q91 0 143 -45.5t52 -119.5q0 -90 -51.5 -166.5t-183.5 -140 t-326 -94.5q-21 -72 -21 -136q0 -80 40.5 -119.5t115.5 -39.5q57 0 146.5 33t188.5 98l22 -55l-170 -108q-106 -59 -179.5 -82.5t-133.5 -23.5q-122 0 -188.5 64t-66.5 184zM333 461q155 42 216 81t101.5 110.5t40.5 127.5q0 43 -26.5 69t-71.5 26q-49 0 -94 -32t-83 -112.5 t-83 -269.5z" />
<glyph unicode="&#x4dc;" horiz-adv-x="2279" d="M975 1660q0 50 35 85t85 35t86 -35.5t36 -86.5t-35.5 -86t-84.5 -35q-50 0 -86 36t-36 87zM1397 1660q0 50 35 85t85 35t86 -35.5t36 -86.5t-35.5 -86t-84.5 -35q-50 0 -86 36t-36 87zM-54 -7l23 66h43q47 0 83.5 22.5t152.5 136.5l554 551l-177 238q-88 116 -157 197 t-95 95t-75 21l-50 7l10 69q95 -8 121 -8l218 8l-6 -36q-8 -24 -8 -35q0 -53 175 -300l68 -97q163 -231 199 -240l33 216q49 322 49 359q0 36 -19.5 50t-101.5 14h-68l11 69q119 -7 276 -7q39 0 371 7l-11 -69h-42q-111 0 -128 -29.5t-61 -286.5l-55 -323q81 48 279 240 l100 97q70 67 161 160.5t103.5 118t12.5 56.5l6 36l26 -1q181 -7 197 -7q35 0 103 8v-69l-52 -7q-68 -9 -132.5 -52.5t-296.5 -260.5l-254 -238l399 -551q73 -100 98.5 -129.5t83.5 -29.5h44l-12 -66q-31 0 -164 5q-41 2 -73 2q-66 0 -135 -7q-1 0 -46 69q-78 119 -123 181 l-81 111q-182 249 -244 321l-27 -160q-58 -332 -58 -382q0 -40 19 -50t99 -18l64 -6l-11 -66l-377 7q-137 0 -260 -7l11 66h63q96 0 109 34.5t42 195.5l21 103q20 94 51 283q-64 -52 -175 -164l-119 -119q-23 -21 -46 -44l-340 -341q-7 -4 -27 -14q-67 7 -121 7 q-32 0 -73 -2q-135 -5 -178 -5z" />
<glyph unicode="&#x4dd;" horiz-adv-x="1651" d="M763 1227q0 50 35 85t85 35t86 -35.5t36 -86.5t-35.5 -86t-84.5 -35q-50 0 -86 36t-36 87zM1185 1227q0 50 35 85t85 35t86 -35.5t36 -86.5t-35.5 -86t-84.5 -35q-50 0 -86 36t-36 87zM-48 148l40 59q81 -76 127 -76q50 0 132.5 109t282.5 417q-59 104 -109 138.5 t-115 34.5q-46 0 -111 -28l-13 8q10 51 13 151v11q31 4 59 4q81 0 139.5 -32t138.5 -145.5t197 -339.5q40 152 53 223q13 69 22 108q17 73 22 156q97 1 224 36l16 -25q-58 -186 -93 -343l-36 -155l21 21q158 193 280.5 311.5t191.5 149.5t148 31q28 0 57 -4v-11 q-35 -121 -38 -151l-11 -8q-58 28 -101 28q-55 0 -138.5 -48t-143.5 -121q53 -159 110.5 -306t84 -183.5t55.5 -36.5q45 0 151 76l21 -59l-80 -51q-188 -124 -243 -124q-47 0 -87.5 69.5t-110.5 266.5l-60 171l-58 -52q-98 -88 -125 -416q-92 -1 -230 -39l-16 27 q88 306 88 338q0 34 -33 90l-31 52l-208 -306q-72 -110 -118.5 -155.5t-84.5 -45.5q-66 0 -217 125z" />
<glyph unicode="&#x4de;" horiz-adv-x="1200" d="M395 1661q0 50 35 85t85 35t86 -35.5t36 -86.5t-35.5 -86t-84.5 -35q-50 0 -86 36t-36 87zM817 1661q0 50 35 85t85 35t86 -35.5t36 -86.5t-35.5 -86t-84.5 -35q-50 0 -86 36t-36 87zM44 177l23 21q153 -131 372 -131q183 0 274 108t91 268q0 116 -66.5 179t-258.5 63 q-109 0 -181 -9l23 112q82 -9 180 -9q196 0 281 90t85 233q0 227 -266 227q-80 0 -160.5 -28.5t-121 -77t-57.5 -182.5h-82q22 150 22 205q0 28 -4 78q263 92 488 92q177 0 309.5 -66t132.5 -230q0 -288 -404 -376q353 -36 353 -302q0 -213 -174 -341t-431 -128 q-224 0 -405 112q-8 46 -23 92z" />
<glyph unicode="&#x4df;" horiz-adv-x="827" d="M197 1223q0 50 35 85t85 35t86 -35.5t36 -86.5t-35.5 -86t-84.5 -35q-50 0 -86 36t-36 87zM619 1223q0 50 35 85t85 35t86 -35.5t36 -86.5t-35.5 -86t-84.5 -35q-50 0 -86 36t-36 87zM-20 44q37 71 54 178h59v-111q87 -56 200 -56q238 0 238 238q0 175 -197 175 q-60 0 -113 -13l-14 8l27 84q72 -9 126 -9q100 0 157.5 55.5t57.5 154.5q0 64 -41.5 98t-109.5 34q-57 0 -100 -22.5t-103 -98.5l-54 21q52 77 89 147q112 51 232 51q273 0 273 -192q0 -190 -267 -267q88 0 162 -43t74 -142q0 -155 -132 -258t-344 -103q-153 0 -274 71z" />
<glyph unicode="&#x4e2;" horiz-adv-x="1581" d="M590 1537l31 127h650l-30 -127h-651zM120 -29l165 995q40 240 40 301q0 60 -90 60h-97l12 69l397 -8q43 0 244 8l-12 -69h-73q-60 0 -81 -20t-34 -93l-20 -103q-11 -57 -21 -117l-111 -675l367 454l485 623l229 -5q36 0 123 5l-12 -69h-27q-89 0 -120.5 -16t-90.5 -370 l-80 -482q-46 -278 -46 -335q0 -38 25 -47t137 -18h28l-11 -66q-157 7 -322 7q-195 0 -327 -7l9 66h33q93 0 122.5 17t83.5 335l105 633l-353 -434q-220 -269 -370 -477l-120 -162h-187z" />
<glyph unicode="&#x4e3;" d="M748 1095l31 127h650l-30 -127h-651zM60 767q135 97 236 151t154 54q34 0 51 -18t17 -61q0 -52 -36 -183l-59 -218q-33 -123 -55 -235q-10 -49 -10 -72q0 -22 9.5 -33t25.5 -11q21 0 54 21q52 34 132 133.5t138.5 222t86 236t32.5 178.5q103 4 221 41l17 -20 q-51 -155 -117 -398q-79 -294 -79 -371q0 -35 30 -35q12 0 38 14q61 34 111 75l20 -57l-182 -131q-75 -49 -113.5 -63t-65.5 -14q-30 0 -47.5 21.5t-17.5 62.5q0 50 35 181l58 219q-122 -220 -310 -374q-135 -110 -221 -110q-44 0 -69 29.5t-25 94.5q0 35 7 69q8 45 43 170 l29 107q67 245 67 305q0 20 -8 30.5t-21 10.5q-30 0 -152 -79z" />
<glyph unicode="&#x4e4;" horiz-adv-x="1581" d="M609 1660q0 50 35 85t85 35t86 -35.5t36 -86.5t-35.5 -86t-84.5 -35q-50 0 -86 36t-36 87zM1031 1660q0 50 35 85t85 35t86 -35.5t36 -86.5t-35.5 -86t-84.5 -35q-50 0 -86 36t-36 87zM120 -29l165 995q40 240 40 301q0 60 -90 60h-97l12 69l397 -8q43 0 244 8l-12 -69 h-73q-60 0 -81 -20t-34 -93l-20 -103q-11 -57 -21 -117l-111 -675l367 454l485 623l229 -5q36 0 123 5l-12 -69h-27q-89 0 -120.5 -16t-90.5 -370l-80 -482q-46 -278 -46 -335q0 -38 25 -47t137 -18h28l-11 -66q-157 7 -322 7q-195 0 -327 -7l9 66h33q93 0 122.5 17 t83.5 335l105 633l-353 -434q-220 -269 -370 -477l-120 -162h-187z" />
<glyph unicode="&#x4e5;" d="M766 1218q0 50 35 85t85 35t86 -35.5t36 -86.5t-35.5 -86t-84.5 -35q-50 0 -86 36t-36 87zM1188 1218q0 50 35 85t85 35t86 -35.5t36 -86.5t-35.5 -86t-84.5 -35q-50 0 -86 36t-36 87zM60 767q135 97 236 151t154 54q34 0 51 -18t17 -61q0 -52 -36 -183l-59 -218 q-33 -123 -55 -235q-10 -49 -10 -72q0 -22 9.5 -33t25.5 -11q21 0 54 21q52 34 132 133.5t138.5 222t86 236t32.5 178.5q103 4 221 41l17 -20q-51 -155 -117 -398q-79 -294 -79 -371q0 -35 30 -35q12 0 38 14q61 34 111 75l20 -57l-182 -131q-75 -49 -113.5 -63t-65.5 -14 q-30 0 -47.5 21.5t-17.5 62.5q0 50 35 181l58 219q-122 -220 -310 -374q-135 -110 -221 -110q-44 0 -69 29.5t-25 94.5q0 35 7 69q8 45 43 170l29 107q67 245 67 305q0 20 -8 30.5t-21 10.5q-30 0 -152 -79z" />
<glyph unicode="&#x4e6;" horiz-adv-x="1706" d="M672 1660q0 50 35 85t85 35t86 -35.5t36 -86.5t-35.5 -86t-84.5 -35q-50 0 -86 36t-36 87zM1094 1660q0 50 35 85t85 35t86 -35.5t36 -86.5t-35.5 -86t-84.5 -35q-50 0 -86 36t-36 87zM128 536q0 266 107 466t291.5 306.5t436.5 106.5q302 0 468 -155t166 -423 q0 -234 -116 -439.5t-304 -315t-434 -109.5q-294 0 -454.5 150.5t-160.5 412.5zM411 475q0 -140 44 -228t133.5 -137t208.5 -49q147 0 250.5 80t185 295.5t81.5 468.5q0 212 -98.5 317t-280.5 105q-158 0 -263.5 -79.5t-183 -288.5t-77.5 -484z" />
<glyph unicode="&#x4e7;" d="M412 1217q0 50 35 85t85 35t86 -35.5t36 -86.5t-35.5 -86t-84.5 -35q-50 0 -86 36t-36 87zM834 1217q0 50 35 85t85 35t86 -35.5t36 -86.5t-35.5 -86t-84.5 -35q-50 0 -86 36t-36 87zM97 279q0 200 89 387q52 110 209.5 208t307.5 98q114 0 190 -36.5t112 -103t36 -175.5 q0 -137 -50.5 -274.5t-116.5 -204.5q-86 -86 -237 -156q-106 -49 -223 -49q-162 0 -239.5 76.5t-77.5 229.5zM337 301q0 -125 46 -178t139 -53q65 0 115 45q66 60 115.5 220.5t49.5 325.5q0 114 -48 169t-129 55q-71 0 -128 -50t-100 -190q-60 -198 -60 -344z" />
<glyph unicode="&#x4e8;" horiz-adv-x="1706" d="M128 550q0 251 108.5 452.5t292 307t434.5 105.5q293 0 463.5 -151t170.5 -426q0 -340 -233 -602.5t-621 -262.5q-279 0 -447 143.5t-168 433.5zM411 500q0 -251 112 -345t274 -94q274 0 395.5 277t121.5 569q0 216 -102 318t-277 102q-203 0 -310 -123.5t-160.5 -322 t-53.5 -381.5zM528 491q52 253 79 445h85q-5 -42 -5 -62q0 -32 22.5 -42.5t149.5 -10.5q170 0 196.5 16t57.5 99h85q-31 -131 -78 -445h-85q8 53 8 76q0 34 -21.5 42t-196.5 8q-140 0 -160 -13t-52 -113h-85z" />
<glyph unicode="&#x4e9;" horiz-adv-x="1188" d="M142 287q0 256 63 543t142.5 394.5t211 188.5t254.5 81q134 0 224 -68.5t90 -267.5q0 -182 -38.5 -399.5t-101 -377t-146.5 -229t-187.5 -124.5t-226.5 -55q-156 0 -220.5 81.5t-64.5 232.5zM370 293q0 -114 45 -169t110 -55q55 0 111.5 36.5t101 120t71.5 221.5l52 278 l-219 2l-231 -3q-41 -216 -41 -431zM428 820l228 -3l220 3q31 212 31 362q0 224 -169 224q-101 0 -169 -104t-141 -482z" />
<glyph unicode="&#x4ea;" horiz-adv-x="1706" d="M672 1660q0 50 35 85t85 35t86 -35.5t36 -86.5t-35.5 -86t-84.5 -35q-50 0 -86 36t-36 87zM1094 1660q0 50 35 85t85 35t86 -35.5t36 -86.5t-35.5 -86t-84.5 -35q-50 0 -86 36t-36 87zM128 550q0 251 108.5 452.5t292 307t434.5 105.5q293 0 463.5 -151t170.5 -426 q0 -340 -233 -602.5t-621 -262.5q-279 0 -447 143.5t-168 433.5zM411 500q0 -251 112 -345t274 -94q274 0 395.5 277t121.5 569q0 216 -102 318t-277 102q-203 0 -310 -123.5t-160.5 -322t-53.5 -381.5zM528 491q52 253 79 445h85q-5 -42 -5 -62q0 -32 22.5 -42.5 t149.5 -10.5q170 0 196.5 16t57.5 99h85q-31 -131 -78 -445h-85q8 53 8 76q0 34 -21.5 42t-196.5 8q-140 0 -160 -13t-52 -113h-85z" />
<glyph unicode="&#x4eb;" horiz-adv-x="1188" d="M522 1739q0 50 35 85t85 35t86 -35.5t36 -86.5t-35.5 -86t-84.5 -35q-50 0 -86 36t-36 87zM944 1739q0 50 35 85t85 35t86 -35.5t36 -86.5t-35.5 -86t-84.5 -35q-50 0 -86 36t-36 87zM142 287q0 256 63 543t142.5 394.5t211 188.5t254.5 81q134 0 224 -68.5t90 -267.5 q0 -182 -38.5 -399.5t-101 -377t-146.5 -229t-187.5 -124.5t-226.5 -55q-156 0 -220.5 81.5t-64.5 232.5zM370 293q0 -114 45 -169t110 -55q55 0 111.5 36.5t101 120t71.5 221.5l52 278l-219 2l-231 -3q-41 -216 -41 -431zM428 820l228 -3l220 3q31 212 31 362 q0 224 -169 224q-101 0 -169 -104t-141 -482z" />
<glyph unicode="&#x4ec;" horiz-adv-x="1387" d="M369 1664q0 50 35 85t85 35t86 -35.5t36 -86.5t-35.5 -86t-84.5 -35q-50 0 -86 36t-36 87zM791 1664q0 50 35 85t85 35t86 -35.5t36 -86.5t-35.5 -86t-84.5 -35q-50 0 -86 36t-36 87zM42 177l23 21q153 -134 357 -134q295 0 417.5 173.5t162.5 454.5q-109 5 -360 5 q-127 0 -198 -11l-48 -98l-65 20q46 142 53 182q92 3 108 3q2 0 234 -7l242 6q9 0 49 -2q5 79 5 129q0 207 -105 307.5t-257 100.5q-91 0 -206.5 -46.5t-176.5 -95.5q-26 -118 -36 -186h-71l3 181q0 67 -10 135l7 21q73 16 139 33q192 50 351 50q284 0 464.5 -146.5 t180.5 -429.5q0 -349 -235.5 -609.5t-608.5 -260.5q-215 0 -396 112q-8 46 -23 92z" />
<glyph unicode="&#x4ed;" horiz-adv-x="967" d="M207 1217q0 50 35 85t85 35t86 -35.5t36 -86.5t-35.5 -86t-84.5 -35q-50 0 -86 36t-36 87zM629 1217q0 50 35 85t85 35t86 -35.5t36 -86.5t-35.5 -86t-84.5 -35q-50 0 -86 36t-36 87zM-20 44q32 52 54 178h59v-111q83 -53 180 -53q106 0 207 73.5t136 344.5 q-120 3 -156 3q-52 0 -85 -3q-22 -18 -64 -72l-45 31l70 112l48 1q89 3 95 3q50 0 146 -4q5 78 5 116q0 222 -188 222q-91 0 -165 -66q-16 -23 -38 -86l-17 -45h-72q35 137 42 230q170 54 306 54q203 0 287 -78.5t84 -222.5q0 -336 -200 -517t-414 -181q-157 0 -275 71z" />
<glyph unicode="&#x4ee;" horiz-adv-x="1366" d="M517 1537l31 127h650l-30 -127h-651zM128 1327v69q128 -8 280 -8q167 0 327 8v-69h-72q-55 0 -72 -15t-17 -48q0 -56 29 -212l60 -326q7 -36 42 -194l42 -192l223 404q97 176 181.5 349.5t84.5 190.5q0 43 -90 43h-78v69q127 -7 246 -7q80 0 204 7v-69h-41 q-42 0 -62 -17.5t-81 -128.5l-476 -864q-148 -270 -222.5 -419t-150.5 -227t-198 -78q-68 0 -132 23l20 192l22 14q69 -78 136 -78q63 0 111 49.5t103 184.5q0 40 -22 145l-211 1044q-22 115 -31 129t-27.5 22.5t-58.5 8.5h-69z" />
<glyph unicode="&#x4ef;" d="M92 1094l31 127h650l-30 -127h-651zM25 747q12 8 115.5 88t174.5 113q52 24 86 24q38 0 59.5 -29.5t21.5 -97.5q0 -34 -5 -77l-43 -357q-12 -97 -12 -188q0 -48 10 -64.5t26 -16.5q42 0 120 94q132 158 202 376t74 307q59 8 232 49l23 -18q-40 -103 -79 -245l-96 -340 q-90 -322 -155 -463q-108 -231 -259 -348t-281 -117q-66 0 -114 23.5t-70 59.5t-22 98v18l127 80l30 -13q-3 -20 -3 -33q0 -65 37 -105t96 -40q51 0 100 32t90 107.5t92 235.5q59 211 117 437q-109 -151 -191.5 -232t-151.5 -116q-51 -26 -80 -26q-40 0 -69.5 44.5 t-29.5 139.5q0 57 11 148l20 158q28 229 28 265q0 55 -9.5 71.5t-27.5 16.5q-17 0 -49 -22q-79 -51 -119 -94z" />
<glyph unicode="&#x4f0;" horiz-adv-x="1366" d="M535 1660q0 50 35 85t85 35t86 -35.5t36 -86.5t-35.5 -86t-84.5 -35q-50 0 -86 36t-36 87zM957 1660q0 50 35 85t85 35t86 -35.5t36 -86.5t-35.5 -86t-84.5 -35q-50 0 -86 36t-36 87zM128 1327v69q128 -8 280 -8q167 0 327 8v-69h-72q-55 0 -72 -15t-17 -48 q0 -56 29 -212l60 -326q7 -36 42 -194l42 -192l223 404q97 176 181.5 349.5t84.5 190.5q0 43 -90 43h-78v69q127 -7 246 -7q80 0 204 7v-69h-41q-42 0 -62 -17.5t-81 -128.5l-476 -864q-148 -270 -222.5 -419t-150.5 -227t-198 -78q-68 0 -132 23l20 192l22 14 q69 -78 136 -78q63 0 111 49.5t103 184.5q0 40 -22 145l-211 1044q-22 115 -31 129t-27.5 22.5t-58.5 8.5h-69z" />
<glyph unicode="&#x4f1;" d="M110 1217q0 50 35 85t85 35t86 -35.5t36 -86.5t-35.5 -86t-84.5 -35q-50 0 -86 36t-36 87zM532 1217q0 50 35 85t85 35t86 -35.5t36 -86.5t-35.5 -86t-84.5 -35q-50 0 -86 36t-36 87zM25 747q12 8 115.5 88t174.5 113q52 24 86 24q38 0 59.5 -29.5t21.5 -97.5 q0 -34 -5 -77l-43 -357q-12 -97 -12 -188q0 -48 10 -64.5t26 -16.5q42 0 120 94q132 158 202 376t74 307q59 8 232 49l23 -18q-40 -103 -79 -245l-96 -340q-90 -322 -155 -463q-108 -231 -259 -348t-281 -117q-66 0 -114 23.5t-70 59.5t-22 98v18l127 80l30 -13 q-3 -20 -3 -33q0 -65 37 -105t96 -40q51 0 100 32t90 107.5t92 235.5q59 211 117 437q-109 -151 -191.5 -232t-151.5 -116q-51 -26 -80 -26q-40 0 -69.5 44.5t-29.5 139.5q0 57 11 148l20 158q28 229 28 265q0 55 -9.5 71.5t-27.5 16.5q-17 0 -49 -22q-79 -51 -119 -94z" />
<glyph unicode="&#x4f2;" horiz-adv-x="1366" d="M636 1537l242 254q73 77 95.5 91.5t46.5 14.5q39 0 65 -24.5t26 -60.5q0 -34 -26 -58q-10 -10 -95 -60l-267 -157h-87zM971 1537l242 254q67 71 90 88.5t51 17.5q39 0 65 -24.5t26 -60.5q0 -34 -26 -58q-11 -10 -95 -60l-266 -157h-87zM128 1327v69q128 -8 280 -8 q167 0 327 8v-69h-72q-55 0 -72 -15t-17 -48q0 -56 29 -212l60 -326q7 -36 42 -194l42 -192l223 404q97 176 181.5 349.5t84.5 190.5q0 43 -90 43h-78v69q127 -7 246 -7q80 0 204 7v-69h-41q-42 0 -62 -17.5t-81 -128.5l-476 -864q-148 -270 -222.5 -419t-150.5 -227 t-198 -78q-68 0 -132 23l20 192l22 14q69 -78 136 -78q63 0 111 49.5t103 184.5q0 40 -22 145l-211 1044q-22 115 -31 129t-27.5 22.5t-58.5 8.5h-69z" />
<glyph unicode="&#x4f3;" d="M211 1094l242 254q73 77 95.5 91.5t46.5 14.5q39 0 65 -24.5t26 -60.5q0 -34 -26 -58q-10 -10 -95 -60l-267 -157h-87zM546 1094l242 254q67 71 90 88.5t51 17.5q39 0 65 -24.5t26 -60.5q0 -34 -26 -58q-11 -10 -95 -60l-266 -157h-87zM25 747q12 8 115.5 88t174.5 113 q52 24 86 24q38 0 59.5 -29.5t21.5 -97.5q0 -34 -5 -77l-43 -357q-12 -97 -12 -188q0 -48 10 -64.5t26 -16.5q42 0 120 94q132 158 202 376t74 307q59 8 232 49l23 -18q-40 -103 -79 -245l-96 -340q-90 -322 -155 -463q-108 -231 -259 -348t-281 -117q-66 0 -114 23.5 t-70 59.5t-22 98v18l127 80l30 -13q-3 -20 -3 -33q0 -65 37 -105t96 -40q51 0 100 32t90 107.5t92 235.5q59 211 117 437q-109 -151 -191.5 -232t-151.5 -116q-51 -26 -80 -26q-40 0 -69.5 44.5t-29.5 139.5q0 57 11 148l20 158q28 229 28 265q0 55 -9.5 71.5t-27.5 16.5 q-17 0 -49 -22q-79 -51 -119 -94z" />
<glyph unicode="&#x4f4;" horiz-adv-x="1522" d="M548 1660q0 50 35 85t85 35t86 -35.5t36 -86.5t-35.5 -86t-84.5 -35q-50 0 -86 36t-36 87zM970 1660q0 50 35 85t85 35t86 -35.5t36 -86.5t-35.5 -86t-84.5 -35q-50 0 -86 36t-36 87zM85 1327l11 69l399 -8q44 0 245 8l-12 -69h-76q-63 0 -82 -21t-57 -217t-38 -273 q0 -87 61 -138t149 -51q75 0 147.5 17.5t128.5 60t66.5 68.5t44 222.5t33.5 270.5q0 38 -29 49.5t-124 11.5h-27l12 69l382 -8q135 0 257 8l-12 -69h-27q-89 0 -120.5 -16t-90.5 -370l-80 -482q-47 -278 -47 -335q0 -38 25.5 -47t137.5 -18h28l-11 -66q-158 7 -323 7 q-195 0 -328 -7l12 66h32q93 0 122.5 17t83.5 335l39 234q-75 -67 -204.5 -120t-242.5 -53q-167 0 -260.5 95.5t-93.5 219.5q0 83 34 293q21 129 21 187q0 60 -89 60h-97z" />
<glyph unicode="&#x4f5;" horiz-adv-x="1098" d="M431 1217q0 50 35 85t85 35t86 -35.5t36 -86.5t-35.5 -86t-84.5 -35q-50 0 -86 36t-36 87zM853 1217q0 50 35 85t85 35t86 -35.5t36 -86.5t-35.5 -86t-84.5 -35q-50 0 -86 36t-36 87zM20 767q285 205 390 205q68 0 68 -80q0 -44 -30 -155l-34 -127q-25 -93 -25 -133 q0 -58 68 -58q67 0 146 41t97.5 73t55.5 183t39 216q124 5 239 40l17 -19q-32 -96 -49 -158l-26 -89q-12 -33 -18 -60l-56 -221q-42 -167 -42 -245q0 -37 23 -37t77.5 34.5t73.5 55.5l23 -59q-185 -133 -256 -167t-113 -34q-79 0 -79 90q0 59 52 271l28 109l-46 -29 q-206 -138 -371 -138q-121 0 -121 114q0 52 38 182l21 74q15 55 15 97q0 46 -28 46q-32 0 -153 -79z" />
<glyph unicode="&#x4f8;" horiz-adv-x="2021" d="M219 1660q0 50 35 85t85 35t86 -35.5t36 -86.5t-35.5 -86t-84.5 -35q-50 0 -86 36t-36 87zM641 1660q0 50 35 85t85 35t86 -35.5t36 -86.5t-35.5 -86t-84.5 -35q-50 0 -86 36t-36 87zM22 -7l11 66h24q103 0 120 65.5t47 244.5l88 525q49 297 49 377q0 30 -23.5 43 t-92.5 13h-72l11 69q110 -7 361 -7q96 0 285 7l-12 -69h-73q-66 0 -88 -26.5t-68 -306.5l-34 -205l143 -2q311 -3 430 -85.5t119 -254.5q0 -208 -171.5 -333.5t-391.5 -125.5q-72 0 -180 5q-138 7 -230 7q-51 0 -252 -7zM440 103q168 -28 231 -28q167 0 234.5 113.5 t67.5 253.5q0 247 -270 247l-166 -2l-47 -283q-49 -293 -50 -301zM1223 -10l11 69h62q57 0 78 8t31 19.5t19 43.5t40 213q43 247 86 501q58 348 58 422q0 32 -26 46.5t-116 14.5h-53l11 68q276 -7 327 -7l331 7l-12 -68h-25q-101 0 -123 -12.5t-33 -44.5q-16 -45 -46 -225 l-113 -680q-31 -184 -31 -238q0 -36 26 -52t111 -16h60l-12 -69q-233 10 -348 10q-139 0 -313 -10z" />
<glyph unicode="&#x4f9;" horiz-adv-x="1534" d="M662 1217q0 50 35 85t85 35t86 -35.5t36 -86.5t-35.5 -86t-84.5 -35q-50 0 -86 36t-36 87zM1084 1217q0 50 35 85t85 35t86 -35.5t36 -86.5t-35.5 -86t-84.5 -35q-50 0 -86 36t-36 87zM39 724q210 156 290 202t139 46q67 0 67 -76q0 -58 -30 -165l-58 -211q116 70 238 70 q100 0 161 -53t61 -152q0 -164 -143.5 -288t-347.5 -124q-136 0 -200.5 68.5t-64.5 155.5q0 58 45 215q77 273 77 334q0 26 -23 26q-48 0 -187 -102zM370 204q0 -143 123 -143q83 0 154.5 73t71.5 182q0 80 -38.5 131.5t-117.5 51.5q-44 0 -131 -37q-62 -186 -62 -258z M1007 89q0 50 39 187l66 238q75 269 98 426q192 17 228 32l26 -19q-22 -53 -48 -141l-31 -100q-19 -55 -27 -85l-37 -126q-74 -256 -74 -316q0 -35 26 -35q29 0 172 97l27 -53l-72 -50q-238 -165 -315 -165q-78 0 -78 110z" />
<glyph unicode="&#x2000;" horiz-adv-x="949" />
<glyph unicode="&#x2001;" horiz-adv-x="1899" />
<glyph unicode="&#x2002;" horiz-adv-x="949" />
<glyph unicode="&#x2003;" horiz-adv-x="1899" />
<glyph unicode="&#x2004;" horiz-adv-x="633" />
<glyph unicode="&#x2005;" horiz-adv-x="474" />
<glyph unicode="&#x2006;" horiz-adv-x="316" />
<glyph unicode="&#x2007;" horiz-adv-x="316" />
<glyph unicode="&#x2008;" horiz-adv-x="237" />
<glyph unicode="&#x2009;" horiz-adv-x="379" />
<glyph unicode="&#x200a;" horiz-adv-x="105" />
<glyph unicode="&#x2010;" horiz-adv-x="797" d="M29 405q56 89 101 209q185 -6 299 -6q122 0 283 6l11 -20q-53 -93 -105 -208q-154 5 -291 5q-143 0 -288 -5z" />
<glyph unicode="&#x2011;" horiz-adv-x="797" d="M29 405q56 89 101 209q185 -6 299 -6q122 0 283 6l11 -20q-53 -93 -105 -208q-154 5 -291 5q-143 0 -288 -5z" />
<glyph unicode="&#x2012;" horiz-adv-x="797" d="M29 405q56 89 101 209q185 -6 299 -6q122 0 283 6l11 -20q-53 -93 -105 -208q-154 5 -291 5q-143 0 -288 -5z" />
<glyph unicode="&#x2013;" horiz-adv-x="1024" d="M17 405q55 87 101 209q185 -6 439 -6q236 0 396 6l10 -20q-53 -93 -105 -208q-154 5 -412 5q-274 0 -419 -5z" />
<glyph unicode="&#x2014;" horiz-adv-x="2048" d="M264 405q56 89 101 209q185 -6 686 -6q518 0 679 6l10 -20q-54 -97 -104 -208q-155 5 -678 5q-536 0 -684 -5z" />
<glyph unicode="&#x2018;" horiz-adv-x="569" d="M128 861q196 380 323 507l105 59l30 -26q-73 -123 -122.5 -268.5t-57.5 -237.5q-69 -6 -248 -63z" />
<glyph unicode="&#x2019;" horiz-adv-x="569" d="M138 866q61 92 116.5 254.5t58.5 243.5q30 3 253 63l27 -27q-126 -268 -312 -500l-112 -67z" />
<glyph unicode="&#x201a;" horiz-adv-x="512" d="M-74 -267q58 86 115 250t57 235l-1 13q32 4 73 15l183 50l26 -29q-36 -80 -87.5 -172.5t-116.5 -190.5q-23 -35 -101 -133l-116 -70z" />
<glyph unicode="&#x201c;" horiz-adv-x="1024" d="M127 866l105 193q57 96 107.5 168t101.5 132l115 68l30 -32q-56 -81 -113.5 -242t-63.5 -256q-34 -3 -252 -63zM578 860q71 146 181 319q70 108 136 179l112 66l31 -30q-68 -126 -87 -174q-41 -105 -70 -210q-16 -57 -21 -116q-48 -6 -105 -22l-147 -41z" />
<glyph unicode="&#x201d;" horiz-adv-x="1024" d="M148 861q57 87 114 251.5t60 247.5q68 10 251 67l30 -30q-24 -65 -146 -266q-89 -149 -167 -234l-111 -69zM599 862q58 86 115 250t57 235l-1 13q32 4 73 15l183 50l26 -29q-36 -80 -87.5 -172.5t-116.5 -190.5q-23 -35 -101 -133l-116 -70z" />
<glyph unicode="&#x201e;" horiz-adv-x="1024" d="M-37 -262q59 84 117 252.5t60 245.5q26 3 47 9l203 56l30 -33l-85 -158q-89 -153 -130.5 -214t-97.5 -125l-114 -67zM417 -264l35 72q51 98 68 148q39 110 58 193q11 45 11 67l-1 18q77 9 255 64l28 -29q-65 -138 -152.5 -276.5t-158.5 -221.5l-113 -68z" />
<glyph unicode="&#x2026;" horiz-adv-x="2048" d="M267 111q0 79 43 128.5t109 49.5q60 0 97 -37.5t37 -100.5q0 -78 -44 -128t-109 -50q-61 0 -97 37t-36 101zM799 111q0 79 43 128.5t109 49.5q60 0 97 -37.5t37 -100.5q0 -78 -43.5 -128t-108.5 -50q-61 0 -97.5 37t-36.5 101zM1330 109q0 81 43 130.5t110 49.5 q61 0 98 -37.5t37 -100.5q0 -79 -44 -128.5t-110 -49.5q-61 0 -97.5 37t-36.5 99z" />
<glyph unicode="&#x202f;" horiz-adv-x="379" />
<glyph unicode="&#x2039;" horiz-adv-x="682" d="M93 477v43l213 192l214 198l45 -40l-255 -375l183 -384l-51 -30q-66 81 -211 245q-89 101 -138 151z" />
<glyph unicode="&#x203a;" horiz-adv-x="682" d="M69 120l257 378l-185 382l53 31q116 -150 348 -397v-46q-124 -103 -427 -387z" />
<glyph unicode="&#x205f;" horiz-adv-x="474" />
<glyph unicode="&#x20ac;" horiz-adv-x="1024" d="M0 542l17 90l11 8h69q7 55 20 108h-110l-7 9l17 90l11 8h121q92 237 288 395q204 165 450 165q142 0 263 -81l2 -12q-47 -135 -74 -287l-8 -8h-55l-9 8l5 116q3 77 -70 116q-57 30 -143 30q-163 0 -259 -108q-99 -110 -144 -334h537l6 -9l-24 -89l-11 -9h-524 q-6 -55 -9 -108h508l6 -9l-24 -89l-11 -9h-482q0 -210 59 -301q71 -121 245 -121q163 0 308 98l22 -18l-22 -82q-184 -136 -402 -136q-262 0 -380 141q-109 122 -109 384q0 18 1 35h-82z" />
<glyph unicode="&#x2122;" horiz-adv-x="2048" d="M100 1174q10 85 10 108l2 107h780q-5 -48 -5 -79l5 -136h-72q-4 83 -34.5 111t-114.5 28h-84v-618q0 -43 17 -54t104 -10v-62h-427v62q91 1 111 14t20 56v612l-53 1q-115 0 -145 -26q-41 -36 -41 -114h-73zM956 569v62q71 0 84 12q19 17 19 72v567q0 33 -11.5 41.5 t-74.5 8.5v57h300l225 -521l218 521h300v-57q-71 0 -85.5 -9.5t-14.5 -40.5v-574q0 -44 16 -57.5t84 -19.5v-62h-377v62q68 2 85.5 16.5t17.5 58.5v558l-282 -695h-25l-301 695v-554q0 -36 8 -49.5t24.5 -20.5t66.5 -9v-62h-277z" />
<glyph unicode="&#xe000;" horiz-adv-x="970" d="M0 970h970v-970h-970v970z" />
</font>
</defs>
</svg>
