<?xml version="1.0" standalone="no"?>
<!DOCTYPE svg PUBLIC "-//W3C//DTD SVG 1.1//EN" "http://www.w3.org/Graphics/SVG/1.1/DTD/svg11.dtd" >
<svg xmlns="http://www.w3.org/2000/svg">
<metadata></metadata>
<defs>
<font id="jakobextracttregular" horiz-adv-x="995" >
<font-face units-per-em="2048" ascent="1638" descent="-410" />
<missing-glyph horiz-adv-x="507" />
<glyph horiz-adv-x="2048" />
<glyph horiz-adv-x="2048" />
<glyph unicode="&#xd;" horiz-adv-x="2048" />
<glyph unicode=" "  horiz-adv-x="507" />
<glyph unicode="&#x09;" horiz-adv-x="507" />
<glyph unicode="&#xa0;" horiz-adv-x="507" />
<glyph unicode="&#x40d;" horiz-adv-x="507" />
<glyph unicode="!" horiz-adv-x="507" d="M82 61q0 59 75.5 127t143.5 70q53 0 89 -43t36 -94q0 -70 -71.5 -134.5t-139.5 -64.5q-49 2 -91 47t-42 92zM90 627q0 66 16.5 283.5t30.5 332.5l17 143q18 170 139 140.5t123 -135.5q0 -23 -12.5 -86.5t-18.5 -235.5v-29.5v-31.5q-2 -16 -3 -57.5t-1 -63.5 q-4 -90 -6 -119t-6 -51q-2 -4 -10.5 -45t-8.5 -66q0 -16 2 -29.5t8 -29.5q27 -61 28 -72.5t3 -19.5q0 -43 -20.5 -63.5t-53.5 -20.5q-94 0 -160.5 63.5t-66.5 192.5z" />
<glyph unicode="&#x22;" horiz-adv-x="989" d="M82 1532q0 49 39 92t94 43q102 0 182 -143.5t80 -300.5q-2 -29 -9.5 -58.5t-23.5 -60.5q-20 -37 -53 -65.5t-57 -26.5q-35 0 -57.5 26.5t-22.5 67.5q0 8 2 26.5t4 28.5q0 160 -89 164t-89 207zM535 1587q0 39 32.5 75t73.5 38q92 0 178 -102.5t88 -221.5 q0 -104 -38 -196.5t-93 -92.5q-37 0 -59.5 21.5t-22.5 58.5q0 18 9.5 46t9.5 87q0 45 -28 91.5t-81 87.5q-39 27 -55.5 51t-13.5 57z" />
<glyph unicode="#" horiz-adv-x="1482" d="M53.5 275q-16.5 75 67.5 128q55 33 109.5 62t136.5 70l98 47q4 47 10 98t14 106q-35 -37 -116.5 -74.5t-139.5 -49.5q-94 -10 -106 62.5t68 119.5q10 4 9 3t257 140l76 41q18 80 30.5 152.5t20.5 138.5q35 125 146.5 121t115.5 -115q-2 -14 -3 -22.5t-22 -145.5 q8 8 26.5 12.5t57.5 28.5q12 49 24.5 99.5t27.5 99.5q8 49 39.5 76.5t68.5 27.5q55 0 98 -62.5t31 -152.5q31 18 74 28.5t82 10.5q41 0 69.5 -19.5t28.5 -41.5q0 -20 -18.5 -38t-96.5 -52l-88 -41q-14 -6 -38.5 -18.5t-57.5 -27.5l-18 -90q-14 -63 -17.5 -83.5t-7.5 -45.5 q25 10 50.5 19.5t53.5 19.5q43 16 73 10t50 -34q20 -27 8 -51.5t-69 -49.5q-20 -8 -74.5 -38.5t-122.5 -69.5q-27 -70 -63.5 -225.5t-65.5 -309.5q2 -53 -20.5 -106t-52.5 -53q-53 0 -82 48t-29 130q0 109 11 204t36 201q-29 -20 -55.5 -39.5t-48.5 -38.5 q-14 -74 -13.5 -147.5t17.5 -165.5q14 -82 -42.5 -122t-119.5 32q-45 47 -64.5 113.5t-25.5 181.5q-281 -129 -288 -137l-7 -9q-96 -31 -112.5 44zM729 694q27 14 56.5 29.5t60.5 32.5q6 53 12 82.5t21 128.5q-25 -14 -48.5 -26.5t-48.5 -25.5q-25 -51 -38 -106.5 t-15 -114.5z" />
<glyph unicode="$" horiz-adv-x="1179" d="M-10 57q0 33 25.5 68t293.5 174l76 39q8 160 13 285t14 231q-147 8 -221 56t-74 137q-2 53 60.5 121.5t184.5 150.5l44 29v-9q-2 401 -1 402.5t123 1.5q45 0 71 -20.5t26 -110.5q0 -12 -4.5 -31.5t-4.5 -28.5q-2 -31 0 -56.5t0 -37.5l-4 -26q39 20 86 33.5t93 13.5 q55 0 92 -28t37 -65q-2 -45 -39 -82.5t-97 -48.5l-88 -16q-45 -8 -56 -11t-22 -7q-2 -33 -3 -64t-1 -59h29.5t18.5 2q14 0 59 5t72 5q162 0 248.5 -55.5t86.5 -159.5q0 -137 -178 -354t-379 -371q-33 -346 -54 -393t-52 -47q-61 2 -87 61t-9 287q-10 -6 -11.5 -6t-109.5 -45 q-123 -49 -135.5 -52.5t-22.5 -3.5q-47 2 -73.5 27t-26.5 59zM592 489q63 59 179 204t116 175q0 10 -7.5 15.5t-41.5 7.5q-61 0 -80 -2t-41 -6q-8 0 -27 -4.5t-76 -8.5z" />
<glyph unicode="%" horiz-adv-x="1595" d="M213 -182q0 137 530.5 1031t673.5 894q53 0 79 -9.5t28 -27.5q0 -63 -4.5 -79t-8.5 -28q-94 -211 -484 -731t-540 -782q-233 -406 -235 -405.5t-8 -2.5q-16 2 -23.5 27t-7.5 113zM346 1247q0 35 49 103.5t101 111.5q0 57 69.5 110.5t143.5 53.5q72 0 139 -61.5t67 -157.5 q0 -115 -110.5 -246t-235.5 -131q-104 0 -163.5 63.5t-59.5 153.5zM590 1212h2q0 -12 14.5 -32.5t26.5 -20.5q18 0 53 56t37 85q0 12 -23.5 22.5t-44.5 10.5q-20 0 -41.5 -40t-21.5 -79zM911 346q0 119 86 222.5t179 105.5q90 0 188 -88t98 -166q0 -119 -99 -220.5 t-220 -101.5q-109 0 -170.5 65.5t-61.5 182.5zM1141 326h2q0 -12 14 -33t27 -21q18 0 54 56.5t36 85.5q-2 12 -24.5 22t-43.5 10q-20 0 -41.5 -39.5t-21.5 -78.5z" />
<glyph unicode="&#x26;" horiz-adv-x="1472" d="M123 156q-2 27 2 45t119 110q25 20 111.5 153.5t201.5 280.5q-88 104 -145.5 200.5t-55.5 152.5q0 121 141.5 224t274.5 103q145 0 248.5 -69.5t103.5 -149.5q0 -82 -59 -180t-264 -303l12 -18q18 -29 38.5 -63t53.5 -81q76 25 123 43.5t72 26.5q53 18 101 29.5t81 21.5 q72 23 111 16.5t39 -43.5q0 -8 2 -0.5t-428 -255.5q162 -262 169 -287.5t7 -45.5q0 -27 -32 -47.5t-63 -20.5q-25 0 -41 5t-227 308q-559 -322 -552 -321.5t5 0.5q-53 0 -101 53t-48 113zM530 367l6 2l195 104l-31 39l-28 55q-37 -51 -72 -101t-70 -99zM557 1110 q0 -14 12.5 -38.5t92.5 -135.5l34 -49q82 72 152 156.5t70 125.5q0 31 -39 54.5t-95 23.5q-80 0 -153.5 -49t-73.5 -88z" />
<glyph unicode="'" horiz-adv-x="423" d="M82 1448q0 53 35 94t82 41q68 0 105.5 -69.5t37.5 -213.5q0 -104 -29.5 -181t-74.5 -77q-29 0 -52 27t-39 105q-10 35 -20 73.5t-25 91.5q-14 41 -17 63.5t-3 45.5z" />
<glyph unicode="(" horiz-adv-x="864" d="M72 731q0 188 120.5 399t276.5 340l57 48q49 41 111.5 73.5t99.5 32.5q43 0 74 -27.5t33 -60.5q0 -20 -11.5 -39.5t-93.5 -79.5l-55 -41q-141 -104 -225 -273t-84 -345q0 -131 66.5 -248t226.5 -219l41 -27q51 -35 73.5 -67.5t22.5 -71.5q0 -63 -33 -90t-90 -27 q-193 0 -401.5 223.5t-208.5 499.5z" />
<glyph unicode=")" horiz-adv-x="864" d="M20 96q0 18 10.5 36t94.5 81l55 41q139 102 224 273t85 347q0 131 -63 238.5t-229 226.5l-41 29q-59 41 -78 69.5t-19 67.5q0 63 32 90t91 29q188 -2 399.5 -228.5t211.5 -496.5q-2 -184 -125 -403.5t-273 -335.5l-57 -45q-66 -53 -120 -80t-91 -27q-45 0 -76 26.5 t-31 61.5z" />
<glyph unicode="*" horiz-adv-x="866" d="M41 1108q-2 25 70.5 58.5t150.5 47.5q-92 78 -61.5 174.5t153.5 53.5q10 47 32 68.5t58 21.5q39 0 65 -22.5t36 -59.5q25 20 60.5 38.5t64.5 18.5q23 0 34 -11t11 -38t-16.5 -67.5t-36.5 -75.5q74 10 118.5 -5.5t44.5 -45.5q0 -31 -50 -55t-173 -44q39 -31 83 -95t44 -99 q0 -43 -51 -51.5t-100 14.5q-14 -68 -21.5 -76t-19.5 -6q-39 0 -82 31.5t-60 85.5q-57 -82 -91 -114t-52 -32q-12 -2 -20.5 18.5t-8.5 49.5q0 31 6.5 76t16.5 73q-86 -6 -145.5 15.5t-59.5 52.5z" />
<glyph unicode="+" horiz-adv-x="1101" d="M82 432q0 33 19.5 59.5t56.5 45.5l96 47l8 4t53 30q14 8 32 17.5t65 34.5l8 57q39 285 73.5 335t90.5 50q43 0 79.5 -36t36.5 -93q0 -23 -2 -74t-2 -88v-37l31 11q31 10 75 27.5t95 31.5l41 10q63 14 98 -6t35 -63q0 -25 -15.5 -44.5t-58.5 -39.5l-24 -13 q-68 -35 -150 -72.5t-125 -54.5q-2 -33 -5 -53t-3 -37l-8 -119q-6 -74 -40 -110.5t-83 -36.5q-59 0 -95 53.5t-50 165.5l-33 -14q-74 -33 -131 -52.5t-78 -19.5q-39 -2 -64.5 23.5t-25.5 60.5z" />
<glyph unicode="," horiz-adv-x="342" d="M41 154q0 47 38 80.5t93 33.5q51 0 90 -51t39 -145q0 -76 -18.5 -144.5t-65.5 -163.5l-24 -47q-16 -31 -37 -48t-39 -17q-33 0 -51.5 18.5t-18.5 57.5q0 20 5.5 59t13.5 76l8 41q8 49 11 65.5t3 30.5t-4 27.5t-14 31.5q-16 27 -22.5 48.5t-6.5 46.5z" />
<glyph unicode="-" d="M76 596q0 55 54 95t257 93l64 17q76 18 141 28.5t113 12.5q86 -2 150.5 -28t64.5 -66q0 -43 -24 -71t-171 -65l-63 -16q-25 -6 -49.5 -15.5t-53.5 -21.5q-80 -37 -94 -41t-25 -6l-90 -20q-139 -33 -207.5 0.5t-66.5 103.5z" />
<glyph unicode="." horiz-adv-x="385" d="M41 129q0 53 61.5 98t120.5 45q45 0 75 -26.5t42 -63.5q18 -68 -36 -125t-120 -57q-55 0 -99 42t-44 87z" />
<glyph unicode="/" horiz-adv-x="1081" d="M31 -291q-2 61 23.5 153.5t68.5 151.5q281 637 441.5 1015t281.5 677q18 43 51 62.5t80 21.5q53 -2 83 -33t30 -69q0 -25 -11.5 -56.5t-44.5 -105.5q-39 -82 -110.5 -214t-155.5 -311q-41 -84 -89 -189t-153 -327l-231 -485l-37 -70q-27 -80 -127 -175t-100 -46z" />
<glyph unicode="0" horiz-adv-x="1323" d="M72 674q0 233 130 460.5t257 227.5q51 0 93 -33t42 -69q0 -18 -11 -36.5t-38 -45.5l-13 -13q-80 -80 -123.5 -181t-43.5 -214q0 -186 101 -329.5t224 -141.5q125 0 210 178t85 397q0 117 -47 205t-121 127q-131 66 -140 84.5t-9 40.5q0 35 35.5 56.5t78.5 21.5 q158 0 313.5 -148.5t155.5 -398.5q0 -377 -187 -613.5t-433 -234.5q-211 0 -385 187.5t-174 472.5z" />
<glyph unicode="1" horiz-adv-x="884" d="M59 842q0 20 9.5 41.5t48.5 60.5l98 100q29 29 91.5 104t70.5 93q51 123 86 145.5t78 22.5q59 0 90 -35t31 -137v-90q-2 -109 18 -311.5t63 -524.5l13 -94q14 -123 -53.5 -188.5t-170.5 -65.5q-49 0 -76.5 32.5t-27.5 106.5l-2 109q-6 324 -11 473.5t-16 310.5 q-14 -25 -14 -23.5t-96 -119.5l-49 -61q-18 -23 -45 -37.5t-48 -12.5q-39 0 -64.5 29t-23.5 72z" />
<glyph unicode="2" horiz-adv-x="950" d="M86 207l113 227q168 340 256 548t88 263q0 8 -5.5 11.5t-17.5 5.5q-8 0 -19.5 -4.5t-154.5 -143.5q-68 -68 -77 -71t-17 -1q-35 0 -65.5 22.5t-30.5 57.5q0 86 148.5 214t291.5 128q92 0 148.5 -57t58.5 -143q-2 -61 -39 -168t-229 -584l-54 -131l154 72q57 27 141 63.5 t142 65.5l114 57q33 16 44 19.5t26 3.5q41 0 63.5 -22t22.5 -58q0 -23 -9.5 -39.5t-35.5 -34.5l-33 -23q-74 -51 -227.5 -141t-274.5 -154l-350 -186q-90 -47 -160.5 19.5t-11.5 183.5z" />
<glyph unicode="3" horiz-adv-x="1155" d="M53 225q0 29 26.5 50.5t57.5 21.5q2 -2 -4 -1t150 -56q45 -18 75.5 -23.5t67.5 -5.5q182 0 296 107.5t116 252.5q0 74 -22.5 107t-65.5 33q-31 0 -103 -27t-151 -66q-137 -68 -140.5 -67.5t-5.5 0.5q-37 0 -69.5 30.5t-32.5 67.5q0 18 4 34.5t27 53.5l79 133 q10 18 39 58.5t52 87.5q27 51 26.5 51t20.5 35q-47 -33 -61.5 -42t-24.5 -16q-68 -45 -72 -47t-6 -4l-84 -57q-68 -47 -127.5 -20.5t-57.5 96.5q0 25 10.5 46t420.5 224q92 45 150 90t95 45q53 0 93 -38t40 -74q0 -33 -60 -137.5t-169 -264.5q172 121 326.5 32t154.5 -298 q0 -250 -188 -444.5t-479 -194.5q-156 0 -280 71.5t-124 155.5z" />
<glyph unicode="4" horiz-adv-x="954" d="M127 500q0 41 11.5 100t13.5 117v44.5v67.5q-2 61 -2 86t2 48q6 238 42.5 346t110.5 108q57 -2 91 -40t24 -97l-21 -106q-10 -53 -16 -110.5t-6 -102.5q0 -55 7 -122t19 -126l74 57l4 270q0 63 35 103.5t88 40.5q45 0 70.5 -24.5t50.5 -252.5q49 27 92 48.5t144 68.5 l71 33q45 20 76 0.5t31 -60.5q0 -14 -15.5 -31.5t-56.5 -47.5l-82 -60q-20 -14 -87 -64.5t-157 -115.5q31 -229 46.5 -347t15.5 -167q0 -84 -32 -127t-93 -43q-98 0 -145.5 76.5t-43.5 302.5q0 43 -1 73.5t-1 65.5q-66 -51 -155.5 -102.5t-124.5 -51.5q-33 0 -56.5 37 t-23.5 105z" />
<glyph unicode="5" horiz-adv-x="921" d="M49 1057q0 59 37 103t117 77l47 18q63 25 137 47.5t125 40.5l215 78q20 6 54 14.5t48 10.5q59 0 76 -68.5t-45 -93.5l-41 -16q-61 -25 -227 -97.5t-270 -121.5q-2 -31 -1 -62t3 -57l2 -35q102 47 165.5 65.5t120.5 20.5q123 0 202 -100.5t79 -274.5q-2 -268 -164 -438 t-401 -170q-104 0 -158.5 32.5t-54.5 80.5q0 35 20.5 59.5t57.5 24.5q14 0 46.5 -8.5t53.5 -10.5q6 -2 14 -2t21 2q135 10 217 135t82 285q0 68 -22.5 103.5t-69.5 37.5q-31 -2 -73 -17t-169 -85l-41 -23q-37 -20 -57.5 -27t-34.5 -7q-37 0 -56.5 30.5t-19.5 83.5v88 q-2 143 -18.5 160.5t-16.5 116.5z" />
<glyph unicode="6" horiz-adv-x="1032" d="M84 420q-2 291 201.5 615.5t378.5 324.5q47 0 82.5 -37t35.5 -82q0 -23 -11 -38t-54 -40l-47 -28q-78 -47 -168 -184.5t-127 -258.5q94 35 168.5 54.5t122.5 19.5q154 0 247 -77t95 -212q0 -188 -134.5 -337.5t-355.5 -149.5q-195 0 -314.5 116.5t-119.5 313.5zM354 530 q25 -184 76 -239t154 -55q102 0 157.5 63t57.5 147q-2 59 -52.5 96.5t-144.5 37.5q-18 0 -37.5 -3.5t-93.5 -23.5q-37 -12 -62.5 -16.5t-54.5 -6.5z" />
<glyph unicode="7" horiz-adv-x="1034" d="M20 956q-2 74 156 155t377 136q143 35 167.5 47.5t53.5 53.5q18 27 46 45t48 18q53 0 93 -27.5t40 -66.5q0 -25 -63.5 -152t-122.5 -284q6 2 12.5 4t73.5 2q10 -2 31.5 3t34.5 7q29 0 46 -17.5t17 -39.5q0 -20 -16.5 -38t-34.5 -24q-10 -4 -29.5 -8t-44.5 -18l-39 -23 q-14 -8 -49 -22.5t-55 -22.5q-29 -78 -67 -209t-48 -199l-22 -129q-10 -55 -84 -102t-127 -47q-51 0 -73 37t-5 98l20 86l6 29l72 241l21 70q-31 -35 -85.5 -67.5t-88.5 -30.5q-37 0 -61.5 26.5t-24.5 65.5q0 51 81.5 112.5t249.5 135.5q12 31 13.5 33t107.5 272 q-186 -76 -343 -154t-189 -75q-43 0 -69 22.5t-26 56.5z" />
<glyph unicode="8" horiz-adv-x="874" d="M41 264q0 96 55.5 196.5t202.5 252.5l-14 18q-29 35 -53.5 115t-24.5 143q0 162 97 259.5t231 97.5q113 0 180 -67t67 -173q-2 -78 -43 -161t-131 -175q115 -141 169 -245.5t57 -200.5q0 -147 -140.5 -240.5t-314.5 -93.5q-162 0 -250 81t-88 193zM250 303 q0 -35 42 -58.5t111 -23.5q55 0 106.5 25.5t51.5 58.5q0 18 -10 46t-123 188l-20 28q-35 -39 -96.5 -136t-61.5 -128zM455 1090q0 -20 16 -69t45 -106q33 55 48.5 94.5t15.5 75.5q0 35 -9.5 49.5t-40.5 18.5h-18h-10q-25 -4 -36 -20.5t-11 -42.5z" />
<glyph unicode="9" horiz-adv-x="997" d="M31 1022q0 61 35.5 123.5t166.5 177.5q39 35 78 43t78 -10l35 -19l8 -6q6 2 8 3t6 1q37 10 49.5 17.5t47.5 7.5q205 0 303 -78t98 -221q-2 -39 -11 -84t-11 -148l-2 -77q-6 -205 -110.5 -373t-313.5 -365l-31 -28q-68 -61 -101.5 -68.5t-62.5 14.5q-23 16 -26 45t22 62 l18 24q180 242 250 380t88 288l-45 -8q-98 -18 -144 -22.5t-89 -2.5q-154 0 -249 88t-95 236zM279 1038q0 -49 49 -76.5t141 -27.5q137 0 180 32.5t43 108.5q0 39 -47 65.5t-88 26.5q-27 0 -55.5 -7t-42.5 -19q-33 -31 -44.5 -33t-25.5 -2h-10t-17 2h-21h-13 q-23 -6 -36 -24.5t-13 -45.5z" />
<glyph unicode=":" horiz-adv-x="430" d="M41 780q0 72 49 146.5t123 74.5q57 0 84 -46t29 -142v-14q-2 -109 -32 -155t-93 -44q-74 0 -117 58.5t-43 121.5zM76 145q0 86 54 148.5t132 62.5q53 0 90 -40.5t37 -116.5q0 -80 -40 -139.5t-107 -59.5q-74 0 -120 39t-46 106z" />
<glyph unicode=";" horiz-adv-x="493" d="M-3 -302q-15 30 1 71l25 57q63 150 84.5 208.5t25.5 160.5l2 51q2 68 51.5 119t104.5 51q47 0 81 -46t34 -118q-2 -68 -34 -147.5t-114 -196.5l-111 -160q-27 -37 -53 -57.5t-49 -22.5q-33 0 -48 30zM131 690q0 43 54.5 97.5t127.5 54.5q45 0 81 -51.5t38 -108.5 q0 -70 -47 -116t-115 -46q-66 0 -102.5 46t-36.5 124z" />
<glyph unicode="&#x3c;" horiz-adv-x="909" d="M80 694q0 8 2 17q4 27 30.5 65.5t243.5 263.5q242 272 268.5 283.5t51.5 11.5q41 0 71.5 -36.5t32.5 -73.5q0 -47 -110.5 -190.5t-239.5 -282.5q-14 -12 -12 -35t16 -41q41 -41 79 -75t216 -159l57 -41q59 -53 49 -114.5t-53 -61.5q-111 0 -207 45t-221 136 q-115 72 -190.5 147.5t-81.5 126.5q-2 6 -2 14z" />
<glyph unicode="=" horiz-adv-x="1359" d="M78.5 372q-15.5 89 64.5 148q47 31 185.5 77t279.5 112q178 80 335 132t224 52q59 0 98.5 -15.5t39.5 -41.5q0 -41 -23 -72.5t-74 -58.5q-25 -14 -71.5 -24.5t-137.5 -51.5q-45 -20 -131 -62.5t-129 -64.5q-225 -113 -341.5 -163t-192.5 -60q-111 4 -126.5 93zM113 831 q0 47 25.5 85t76.5 57q41 20 78 36.5t172 65.5q133 47 140 50t18 10q106 47 275 87t257 42q55 -2 94 -20.5t64 -59.5q29 -53 2 -84t-121 -39l-61 -6q-8 -2 -16.5 -4.5t-151.5 -53.5l-101 -36q-76 -27 -259 -114t-302 -126q-78 -25 -134 12t-56 98z" />
<glyph unicode="&#x3e;" horiz-adv-x="886" d="M72 1081.5q-2 14.5 0 26.5q0 63 66.5 100t146.5 6q49 -10 169.5 -111.5t270.5 -199.5q37 -31 58.5 -78t21.5 -102q0 -20 -9.5 -37.5t-76.5 -89.5l-49 -51q-25 -27 -60 -64t-114 -125q-23 -25 -40.5 -44t-21.5 -23q-2 -2 -7 -7.5t-7 -7.5q-76 -76 -114 -81t-54 40 q-12 37 -3 70t40 70q49 84 97 156.5t99 142.5q18 23 9.5 49.5t-39.5 44.5l-62 37q-106 61 -197.5 134t-117.5 122q-4 8 -6 22.5z" />
<glyph unicode="?" horiz-adv-x="1110" d="M82 1092q0 92 310 233t429 141q61 0 95 -42t34 -117q0 -66 -72.5 -187t-175.5 -239l-143 -168q-8 -8 -15 -16.5t-114 -127.5q113 35 222.5 83t240.5 128l96 58q37 20 60.5 -7.5t23.5 -99.5q0 -115 -343 -266.5t-456 -151.5q-72 0 -112.5 35t-40.5 111v63l244 287l270 317 q25 29 40 62t15 72q0 20 -66.5 -9.5t-211.5 -122.5l-88 -55q-98 -61 -116 -66.5t-32 -5.5q-37 -2 -65.5 26t-28.5 65zM360 164q0 47 40 100t85 53q66 0 109 -55.5t43 -116.5q0 -33 -42 -105.5t-87 -72.5q-41 0 -94.5 62.5t-53.5 134.5z" />
<glyph unicode="@" horiz-adv-x="1316" d="M45 268q0 332 243.5 544t577.5 212q168 -2 245 -88.5t77 -276.5v-262q39 -14 64.5 -46t25.5 -64q0 -84 -235.5 -181.5t-385.5 -97.5q-131 0 -215 63.5t-84 174.5q0 182 185.5 323.5t394.5 92.5v67q-2 33 -23.5 50.5t-76.5 17.5q-203 0 -361 -155t-158 -339 q0 -166 101.5 -262t316.5 -96q119 0 225.5 56t155.5 56q70 0 116 -37.5t46 -95.5q0 -96 -155.5 -162.5t-391.5 -66.5q-328 0 -508 152.5t-180 420.5zM614 287q0 -25 19.5 -40.5t44.5 -15.5q55 0 122 17.5t126 48.5v16q0 96 -23.5 114.5t-73.5 21.5q-72 0 -143.5 -53.5 t-71.5 -108.5z" />
<glyph unicode="A" horiz-adv-x="1175" d="M-2 180q0 41 22.5 121t161.5 475l170 488q86 248 134.5 307t115.5 61q53 -2 102.5 -49t192.5 -453l49 -139q90 37 161 69t85 38l178 76q63 26 100 26q13 0 23 -4q37 -12 37 -66q0 -29 -19.5 -51t-189.5 -114l-315 -170l51 -168q135 -449 138 -464.5t3 -29.5 q0 -66 -47 -104.5t-109 -38.5q-51 0 -86.5 31.5t-171.5 490.5l-43 145q-111 -63 -185.5 -107t-119.5 -71l-104 -63q-16 -41 -26.5 -83t-16.5 -87l-8 -53q-14 -94 -60.5 -135.5t-111.5 -41.5q-49 0 -80 45t-31 119zM414 705l268 155l-66 215q-20 63 -31.5 88t-19.5 25 q-4 0 -7 -2t-66 -219z" />
<glyph unicode="B" horiz-adv-x="1185" d="M-121 1159q0 100 376 286.5t552 186.5q78 0 129 -50t51 -124q-2 -88 -63.5 -202.5t-153.5 -192.5q56 16 106 16q86 1 154 -45q110 -72 109 -231q0 -180 -307.5 -540.5t-503.5 -360.5q-68 0 -104 49t-36 162l-2 1032q-76 -47 -126 -70.5t-72 -23.5q-45 0 -77 30.5 t-32 77.5zM432 227q289 233 365.5 338t76.5 209q0 20 -13 29.5t-40 9.5q-90 0 -182 -40t-201 -124zM436 1274l4 -287q236 295 258.5 334t22.5 61l-15 6h-2q-28 0 -268 -114z" />
<glyph unicode="C" horiz-adv-x="1216" d="M84 680v6q0 358 226 622q228 266 519 267q137 0 225.5 -47t88.5 -113q0 -45 -21.5 -75.5t-60.5 -30.5q-51 0 -96 11t-105 11q-199 0 -337 -157.5t-138 -409.5q0 -213 95 -337t261 -124q78 0 152 33t199 166q61 63 68 66t18 3q31 0 55 -20.5t24 -42.5q0 -8 -2 -16.5 t-2 -14.5q-51 -203 -228 -334q-174 -129 -376 -129h-6q-254 0 -406.5 180.5t-152.5 485.5z" />
<glyph unicode="D" horiz-adv-x="1208" d="M-129 1071q2 45 29.5 89t113.5 116l66 53q168 135 317.5 200.5t296.5 65.5q215 -2 343 -134t128 -369q0 -229 -113.5 -457.5t-357.5 -466.5l-239 -234q-49 -45 -75 -57t-54 -12q-49 -1 -77 31q-26 29 -26 75v6q0 16 9.5 38t23.5 38l47 56q-14 573 -14 646.5v135.5 q-1 133 -1 198v48q1 47 3 96q-351 -257 -351 -267l11 3q-33 0 -56.5 28.5t-23.5 73.5zM534 1143q1 -90 13 -553l6 -244q188 203 271 373t85 360q-1 207 -109 271q-54 31 -119 31q-67 0 -146 -33q-1 -77 -1 -142v-63z" />
<glyph unicode="E" horiz-adv-x="1062" d="M113 72l10 329q2 117 10 331t12 292l15 338q2 53 37.5 87t83.5 34q33 0 66.5 -22.5t55.5 -57.5q137 59 201 86t199 76l115 41q46 16 81 16q25 0 45 -8q48 -19 50 -74q-2 -35 -18.5 -59.5t-76.5 -48.5l-67 -29q-221 -94 -329.5 -149.5t-209.5 -125.5q-6 -110 -8 -182 q-1 -36 -1 -67t1 -56q82 55 226.5 142.5t246.5 144.5l84 47q40 23 72 23q20 0 37 -10q43 -24 43 -78q0 -25 -14.5 -51.5t-41.5 -45.5l-39 -28q-45 -33 -112.5 -81t-497.5 -345v-252q90 63 219 146t197 118l188 98q44 22 82 22q19 1 37 -5q53 -16 53 -70q-2 -35 -12 -55.5 t-33 -34.5l-57 -37q-88 -56 -87.5 -56t-383.5 -274l-207 -147q-59 -41 -99 -58.5t-73 -17.5q-51 0 -77 36q-23 31 -24 97q0 10 1 21z" />
<glyph unicode="F" horiz-adv-x="915" d="M150 715q10 96 18 200.5t10 169.5v84v23q0 194 33 254q35 64 108 65q33 0 66 -18t57 -45q125 41 242 86t223 92l111 49q37 16 66 16q21 -1 38 -9q41 -20 41 -62q0 -33 -23.5 -59.5t-60.5 -44.5l-190 -97q-283 -143 -325 -165.5t-89 -49.5q-8 -106 -9 -153t-5 -105 q199 127 372 194.5t281 67.5q43 -2 67.5 -19.5t24.5 -35.5q0 -47 -24.5 -75.5t-71.5 -49.5l-158 -72q-131 -59 -260 -135t-246 -159q-11 -132 -11 -234v-17q1 -108 20 -272l4 -37q2 -15 2 -29q1 -74 -45 -118q-54 -53 -129 -53q-109 0 -146 150q-18 75 -18.5 189.5 t18.5 266.5q-54 38 -54 94q0 59 63 113z" />
<glyph unicode="G" horiz-adv-x="1126" d="M72 725q0 391 202.5 637t444.5 246q74 0 113.5 -40t39.5 -100q0 -49 -28.5 -78.5t-73.5 -29.5h-16.5t-26.5 6q-18 2 -27.5 4t-17.5 2q-137 -2 -240.5 -174t-103.5 -381q0 -182 99.5 -301t273.5 -125q2 43 5 102.5t17 219.5q-205 -141 -205 -141.5t-8 -0.5q-49 0 -85 41 t-36 80q0 31 28 65.5t83 73.5l39 27q139 96 321.5 168t286.5 72q41 0 65.5 -18.5t24.5 -43.5q0 -39 -27.5 -69.5t-175.5 -98.5l-49 -22q-31 -473 -29.5 -473t1.5 -45q0 -66 4 -93.5t20 -46.5q23 -25 30 -42t7 -37q0 -61 -69.5 -109.5t-135.5 -50.5q-72 0 -103 56 q-27 47 -27 114q0 13 1 26q-35 -3 -69 -3q-224 0 -377 144q-176 165 -176 439z" />
<glyph unicode="H" horiz-adv-x="1257" d="M129 1000v18q0 442 197 442q51 0 81.5 -44t30.5 -120q0 -6 -1 -8t-15 -198q-4 -37 -6 -91.5t-4 -156.5l135 59q193 84 225.5 102.5t65.5 40.5q6 338 40.5 438.5t127.5 102.5q63 0 98 -33.5t34 -101.5q0 -29 -9 -75t-9 -56q-4 -20 -6 -64.5t-4 -64.5l-4 -29 q35 -23 58.5 -46t23.5 -44q-2 -27 -20.5 -58.5t-45.5 -47.5q4 -109 4 -118t2 -18q0 -23 1 -62.5t4 -55.5q2 -45 3 -78t7 -123q4 -74 9 -155t5 -105q0 -106 -46 -159.5t-116 -53.5q-66 0 -109.5 58.5t-43.5 172.5l-4 377l4 162q-80 -41 -143.5 -76t-270.5 -151 q33 -428 33 -419t0 3q0 -86 -44 -129t-118 -43q-67 0 -101 40q-32 38 -32 113v9q0 12 1 35.5t3 35.5q0 59 -18.5 171t-18.5 382v-81q-1 0 -4 303z" />
<glyph unicode="I" horiz-adv-x="589" d="M135 281v25.5t41 871.5l4 86q4 96 49 148t107 54q61 0 105 -41t44 -106q-1 -150 -37 -533q-17 -188 -18 -329q0 -148 19 -246l6 -33q4 -25 4 -48q0 -60 -31 -104q-43 -60 -129 -61q-80 0 -122 67.5t-42 248.5z" />
<glyph unicode="J" horiz-adv-x="944" d="M47 195q-2 47 50 67q20 7 43 7q38 0 83 -19l43 -19q14 -8 54 -13t67 -5q109 0 161 56.5t52 195.5q0 49 -4 103.5t-12 144.5q-10 115 -13.5 165t-3.5 97q0 61 6.5 132t20.5 142q-49 -16 -95 -35.5t-77 -37.5l-158 -93q-33 -20 -57.5 -28t-40.5 -8q-51 0 -82 29 q-29 28 -29 71v6q0 51 29 89t336 183q131 61 254 105.5t170 46.5q59 0 91 -30.5t32 -76.5q0 -31 0 -30.5t-74 -153.5q-37 -76 -52.5 -165t-15.5 -238q0 -31 1 -81t3 -69v-38.5v-37.5q0 -23 1 -41t4 -32q7 -115 7 -124v-1l1 2q0 -207 -120 -336t-321 -129q-123 0 -238.5 56.5 t-115.5 142.5z" />
<glyph unicode="K" horiz-adv-x="1189" d="M166 217q-1 60 -1 123.5t1 131.5q2 136 10 464l8 405q0 94 36 144.5t104 50.5q74 -2 108.5 -53t34.5 -226l-2 -253q66 55 65.5 56t286.5 380l76 100q43 57 109 57q13 -1 27 -3q85 -14 85 -99q0 -111 -183 -335t-337 -339q211 -74 461 -332t252 -405q0 -59 -34 -88 t-85 -29q-49 0 -48 0t-145 168l-114 133q-88 98 -192.5 178t-209.5 123q9 -322 9 -342v-1l1 3q0 -23 1.5 -39t1.5 -30q-2 -80 -47.5 -125t-131.5 -45q-80 2 -113.5 53t-33.5 174z" />
<glyph unicode="L" horiz-adv-x="983" d="M131 156q0 47 12.5 126.5t16.5 104.5q2 27 4 61t2 136v430q0 354 46 460.5t140 108.5q57 0 89 -43t34 -162q0 -90 -10 -202.5t-10 -251.5l-1 1q-1 0 7 -149q0 -20 2 -75.5t4 -88.5q8 -166 8 -180t2 -31q264 135 388 194.5t171 84.5l142 72q47 23 62 27.5t34 4.5 q41 -2 64.5 -23.5t23.5 -51.5q0 -33 -21.5 -58.5t-93.5 -70.5l-49 -31q-477 -299 -500.5 -315.5t-46.5 -30.5l-219 -152q-90 -61 -164 -61q-23 0 -45 6q-92 24 -92 160z" />
<glyph unicode="M" horiz-adv-x="1587" d="M123 195q0 152 12 327.5t17 343.5l6 414q0 135 47 200.5t137 65.5q39 0 67.5 -15t49.5 -58l10 -25l389 -506q317 416 322.5 430t7.5 17l20 61q33 102 79 152.5t108 50.5q55 0 93 -48.5t38 -117.5q0 -197 -35 -366t-35 -400v-34q0 -177 20 -283q22 -116 21 -177 q0 -88 -48 -140q-46 -50 -117 -50h-5q-82 0 -120 87t-38 304q0 248 14.5 345t18.5 335q-129 -279 -222 -401.5t-165 -122.5h-11t-378 469q-16 -215 -20 -357.5t-3 -310.5v-31q-1 -72 7 -128q10 -68 12 -87q0 -57 -52.5 -99t-103.5 -42q-61 0 -103 49q-40 47 -40 139v9z" />
<glyph unicode="N" horiz-adv-x="1402" d="M123 324q10 76 15 139t7 143l13 682q0 80 47 128t131 48q47 0 72.5 -22.5t35.5 -83.5l5 -31q2 -18 8 -38.5t256 -424.5l104 -170q121 -199 147.5 -237.5t61.5 -79.5q-4 299 -12 555q-6 205 -6 300v40v139q0 86 42 136t113 50q61 -2 89 -47q26 -42 26 -287v-36l-10 -955 q-1 -12 -1 -24q0 -22 3 -40q4 -28 30 -89q14 -37 21.5 -66.5t7.5 -54.5q0 -47 -56 -86t-112 -39q-76 0 -226.5 167t-262.5 353l-90 148q-8 8 -14.5 19t-149.5 233q-18 -169 -18 -292q0 -133 21 -212q33 -125 39 -125q1 0 1 6q-2 -55 -55.5 -109.5t-131.5 -54.5 q-92 0 -133 78q-26 50 -26 134q0 48 8 106z" />
<glyph unicode="O" horiz-adv-x="1327" d="M72 692q0 223 147.5 533.5t300.5 310.5q20 0 46 -9.5t42 -21.5l10 -8q0 -2 50.5 13.5t103.5 15.5q197 0 340 -188.5t143 -458.5q0 -369 -207.5 -620t-482.5 -251q-238 0 -365.5 204t-127.5 480zM356 745q0 -205 75 -330.5t192 -125.5q154 0 273.5 154.5t119.5 381.5 q-2 199 -87 345.5t-227 148.5q-25 0 -34 -3t-13 -9l-16 -19q-20 -23 -48 -29q-10 -2 -21 -2q-20 0 -44 7q-76 -104 -124 -247q-46 -137 -46 -262v-10z" />
<glyph unicode="P" horiz-adv-x="985" d="M31 1214q0 29 12 54.5t43 50.5l207 156q135 102 342 185t364 83q102 0 163 -56.5t61 -160.5q0 -170 -245 -424t-542 -428q1 -58 1 -112t-1 -102.5t-1 -86t1 -62.5q0 -39 1 -64.5t7 -56.5q6 -27 9.5 -47t3.5 -39q0 -55 -37 -84.5t-92 -29.5q-86 2 -125 47t-39 139 q0 20 5 64.5t7 68.5l10 111v4v63q-2 39 -2 56.5t-4 44.5q-2 23 -3 35t-1 32q-18 16 -26.5 38t-8.5 42q0 25 9.5 48.5t29.5 41.5l4 310q-33 -8 -60 -8q-30 0 -52 11q-40 21 -41 76zM440 965q168 106 346.5 278t178.5 262q0 10 -6.5 15.5t-20.5 5.5q-94 0 -218 -58.5 t-263 -167.5q-11 -84 -15 -166q-3 -56 -3 -115q0 -27 1 -54z" />
<glyph unicode="Q" horiz-adv-x="1304" d="M72 645q0 319 167 596t291 279q14 0 30.5 -8.5t53.5 -43.5l13 -12q49 14 86 21.5t63 7.5q184 -2 320.5 -154.5t136.5 -435.5q0 -162 -43 -314.5t-127 -275.5q70 -92 107.5 -175t39.5 -146q0 -61 -22.5 -109.5t-57.5 -48.5q-31 0 -56 16.5t-44 44.5q-86 123 -105.5 145.5 t-41.5 49.5q-72 -49 -129 -66q-52 -16 -110 -16h-13h-6q-256 0 -403 173q-150 175 -150 472zM365 690q0 -240 101 -348q81 -85 207 -85q31 0 66 5l-67 78q-63 72 -94 121t-31 82q0 51 35.5 94t97.5 43q41 0 78 -22.5t80 -75.5l43 -56l26 -32q49 96 75 214.5t26 237.5 q0 154 -76 245t-193 91q-174 -2 -274 -161.5t-100 -430.5z" />
<glyph unicode="R" horiz-adv-x="1142" d="M51 1243q0 153 248 271q250 118 545 118q139 0 214 -50t75 -146q0 -119 -113 -232.5t-463 -271.5q291 -182 491.5 -440.5t200.5 -417.5q0 -72 -39 -107t-96 -35q-45 0 -72.5 21.5t-76.5 120.5l-47 94q-78 152 -184.5 274.5t-264.5 235.5q-14 -330 -15 -352.5t-8 -81.5 q-2 -6 -2 -8.5t2 -4.5q0 -8 24 -42.5t24 -79.5q0 -49 -38 -74t-118 -25q-86 0 -114 50q-25 43 -25 134v27l2 76q6 295 7 355v40q0 41 -1 84q-55 29 -71.5 52.5t-16.5 62.5q-2 33 25.5 68.5t66.5 60.5l4 94q-20 -2 -38 -2q-56 0 -86 24q-40 32 -40 107zM469 1128 q209 100 308.5 164t99.5 97q0 6 -15.5 11t-38.5 5q-68 -2 -164 -28.5t-190 -67.5v-181z" />
<glyph unicode="S" horiz-adv-x="1099" d="M-4 68q0 20 9 34t280 72q250 51 369.5 134t119.5 200q0 61 -49 133t-139 125l-195 113q-238 135 -277.5 192t-39.5 123q0 172 247.5 333t442.5 161q49 0 75.5 -33t28.5 -80q0 -55 -26.5 -86t-81.5 -41l-41 -8q-131 -27 -229.5 -91.5t-98.5 -109.5q0 -18 20.5 -36.5 t120.5 -69.5l52 -27q301 -158 389 -272.5t88 -251.5q0 -272 -302 -432t-677 -160q-41 0 -63.5 18.5t-22.5 59.5z" />
<glyph unicode="T" horiz-adv-x="917" d="M-225 1110q0 45 25.5 76.5t84.5 58.5l133 58q655 283 914.5 358.5t445.5 75.5q59 0 84 -13.5t27 -42.5q0 -33 -15.5 -52t-41.5 -25l-80 -23q-137 -39 -356.5 -120t-368.5 -146q8 -217 14 -400.5t8 -275.5q-2 -444 -42 -533.5t-115 -89.5q-55 0 -91 52q-34 50 -34 643v67 v430q-39 -16 -66 -28.5t-229 -112.5l-111 -55q-40 -21 -74 -21q-32 0 -58 18q-54 38 -54 101z" />
<glyph unicode="U" horiz-adv-x="1232" d="M96 686q0 315 73 608t196 293q53 0 78.5 -35.5t25.5 -97.5q-1 -300 -55 -368q-52 -66 -52 -348v-21v-12q0 -222 73 -337q75 -118 196 -118q125 0 197.5 139t74.5 406q0 96 -24.5 229t-57.5 240l-53 166q-23 68 -23 114q1 34 13 56q28 53 110 53q43 0 71.5 -24.5 t51.5 -100.5l41 -142q66 -231 90.5 -358t24.5 -229q0 -334 -148.5 -570.5t-412.5 -236.5q-254 0 -372 184t-118 510z" />
<glyph unicode="V" horiz-adv-x="970" d="M14 1311q0 57 43 104t97 47q47 0 78.5 -31.5t62.5 -119.5l31 -94q31 -98 120 -314.5t103 -322.5l4 -33q76 207 155.5 438t108.5 303l84 217q18 49 43 76t60 29q20 0 39.5 -27t19.5 -57q0 -16 -79 -279.5t-177 -660.5l-111 -441q-14 -51 -34.5 -70.5t-51.5 -23.5l-28 -4 q-6 -2 -15.5 -7t-23.5 -15l-17 -13q-35 -25 -68 -25q-19 1 -38 9q-51 22 -76 129l-49 201q-16 61 -34.5 148t-37.5 153q-2 10 -6 23.5t-113 322.5q-29 76 -59.5 187.5t-30.5 150.5z" />
<glyph unicode="W" horiz-adv-x="1372" d="M92 1161l2 127q0 78 32 118t85 40q47 0 73.5 -35t34.5 -94l15 -125q27 -242 57.5 -362.5t52.5 -272.5q6 33 31 92.5t25 98.5q0 25 -8.5 54t-6.5 48q0 45 47.5 99.5t96.5 54.5q33 0 60.5 -20.5t43.5 -53.5l55 -127q27 -66 98.5 -196t121.5 -204q78 455 96 636.5t24 383.5 l5 148q0 66 33.5 101.5t76.5 37.5q41 -2 63.5 -35t22.5 -127q0 -70 -11 -224.5t-67 -909.5q-12 -154 -29.5 -236t-45.5 -131q-49 -84 -126 -87h-6q-73 0 -114 69l-289 483q-90 -352 -149.5 -436t-131.5 -84t-108.5 46t-42.5 140q-4 43 -11.5 91t-41.5 245q-36 184 -52 345 q-13 130 -13 246q0 28 1 56z" />
<glyph unicode="X" horiz-adv-x="870" d="M-23 -68q0 72 109.5 343t228.5 511l-106 234q-174 377 -179 399.5t-5 42.5q0 55 37.5 92t95.5 37q51 -2 83.5 -24.5t59.5 -89.5l35 -91q55 -145 75.5 -193t47.5 -99q59 94 116.5 202.5t77.5 137.5l31 45q36 53 78 53q24 0 50 -18q50 -34 50 -77q0 -17 -8 -36l-111 -242 q-102 -223 -121.5 -262t-41.5 -80q166 -381 223 -525.5t57 -189.5q-2 -51 -37 -84.5t-82 -33.5q-29 0 -57.5 18t-198.5 383l-55 117l-22 -49q-164 -358 -243 -483.5t-130 -127.5q-25 2 -41.5 25.5t-16.5 64.5z" />
<glyph unicode="Y" horiz-adv-x="901" d="M29 1303q-2 55 40 101t107 46q41 0 69.5 -17.5t65.5 -76.5l86 -139q51 -86 73 -129.5t54 -83.5q92 323 92 326l2 3l52 160q20 63 46.5 87t63.5 24q51 0 82 -30t31 -79q0 -2 -1 -27.5t-128 -511.5l-53 -202q12 -18 19 -42t9 -44q-2 -23 -19.5 -46.5t-43.5 -39.5 q-49 -86 -99.5 -208t-97.5 -278l-78 -250q-23 -68 -50 -101.5t-68 -47.5q-18 -6 -33 -6q-35 0 -52 34q-12 24 -12 53q0 31 13 68l96 306q16 57 49 186t78 321l-92 136q-156 225 -228.5 346t-72.5 162z" />
<glyph unicode="Z" horiz-adv-x="917" d="M-16 -123q0 12 5 30.5t230 559.5l66 158q66 158 133 306t141 292q-445 -176 -445 -182v-1l17 2h-4q-77 0 -105 76q-6 17 -6 32q0 57 84 99l256 123q465 223 490.5 233.5t42.5 10.5q47 0 68.5 -16.5t21.5 -77.5q0 4 -131 -244q-33 -59 -73 -141t-103 -215l-121 -252 q-98 -205 -129 -271.5t-64 -146.5q254 133 398.5 185.5t193.5 70.5l94 35q32 12 58 11.5t48 -11.5q42 -23 42 -68q0 -31 -19.5 -56.5t-50.5 -41.5l-315 -168q-96 -51 -263 -145.5t-239 -139.5l-112 -69q-51 -31 -85 -45.5t-59 -14.5q-29 0 -47 22.5t-18 59.5z" />
<glyph unicode="[" horiz-adv-x="724" d="M141 1242v77q-2 84 33 123.5t322 62.5l86 -2q31 -18 44 -36.5t15 -39.5q-2 -59 -48 -87.5t-122 -20.5h-30h-7q-16 -6 -26.5 -26.5t-10.5 -43.5q0 -6 10.5 -120.5t10.5 -327.5q0 -45 -6 -130t-4 -124q0 -35 5 -111t7 -127q0 -12 -3 -38.5t-3 -37.5q2 -27 11 -39t64 -10 q66 2 148 -12t82 -41q0 -63 -26.5 -92t-86.5 -29q-4 0 0 -1t-119 11q-18 0 -47.5 1.5t-40.5 3.5h-65.5t-48.5 4q-63 12 -99 128.5t-41 639.5l-2 231q-2 170 -2 214z" />
<glyph unicode="\" horiz-adv-x="1015" d="M72 1636q-25 74 8 129.5t98 55.5q39 0 75 -41.5t77 -141.5q35 -94 77 -239.5t97 -296.5q4 -10 8 -22.5t51 -137.5q2 -10 -1 0t132 -362q104 -295 142 -404.5t73 -214.5q33 -88 49.5 -142.5t16.5 -92.5q-2 -29 -15.5 -57.5t-31.5 -28.5q-37 2 -86 78.5t-105 228.5 q-111 307 -294 771t-371 918z" />
<glyph unicode="]" horiz-adv-x="724" d="M6 1386q0 59 26.5 89t86.5 30q66 0 184.5 -7t136.5 -11q72 -20 102.5 -149.5t37.5 -616.5l2 -232q0 -172 1 -216t1 -74q0 -51 -10.5 -82t-342.5 -107l-88 2q-31 14 -45 34t-14 44q0 57 46 86t124 23q23 -2 28 -2t9 2q14 4 25.5 24.5t11.5 44.5q0 4 -11.5 119t-9.5 330 q0 43 5 128t5 124q0 33 -6 109.5t-6 129.5q0 10 2 37t2 37q-2 31 -12 42t-61 9q-63 -4 -146.5 12.5t-83.5 40.5z" />
<glyph unicode="^" horiz-adv-x="937" d="M113 1192q-2 14 8 31.5t33 40.5l10 10q63 63 62 62t1 1q6 4 21.5 20.5t25.5 24.5q16 16 28.5 29.5t51.5 63.5l33 41q45 57 71.5 67t65.5 12q18 0 33.5 -6t108.5 -108q137 -158 147 -181.5t12 -46.5q0 -57 -41 -96t-104 -37q-43 0 -73.5 12.5t-53.5 43.5l-39 49 q-41 51 -46 58t-11 17q-248 -201 -246 -199.5t-4 1.5q-43 0 -69.5 27.5t-24.5 62.5z" />
<glyph unicode="_" horiz-adv-x="1480" d="M6 -393q-16 51 10.5 81.5t126.5 45.5q160 10 541 13t631 -1q84 4 125 -24.5t41 -100.5q0 -29 -35 -48.5t-117 -33.5q-131 -20 -493.5 -24t-659.5 6q-72 -4 -110.5 16.5t-59.5 69.5z" />
<glyph unicode="`" horiz-adv-x="436" d="M0 1323q0 57 37 93t92 36q98 0 202.5 -72.5t104.5 -179.5q0 -59 -32.5 -93t-75.5 -34q-20 0 -32.5 37t-21.5 49q-8 8 -32.5 15.5t-32.5 13.5l-86 43q-12 0 -11 0h1q-14 -2 -17.5 -3t-13.5 -1q-43 0 -62.5 23.5t-19.5 72.5z" />
<glyph unicode="a" horiz-adv-x="1001" d="M45 246q1 182 187 324q139 105 288 105q52 0 105 -13v67q0 47 -13.5 61.5t-46.5 14.5q-35 0 -73.5 -16.5t-180.5 -118.5q-54 -39 -98 -39q-18 0 -34 6q-54 21 -54 91v5q-2 96 163 195.5t306 99.5q147 -2 213.5 -89t69.5 -280v-262q39 -14 63.5 -46t24.5 -64 q0 -33 -18 -56.5t-77 -56.5v-35q0 -94 -37.5 -140t-109.5 -46q-45 2 -83 30.5t-36 73.5q-88 -27 -147.5 -38t-110.5 -11q-131 0 -217 64q-84 62 -84 169v5zM301 287q0 -25 17.5 -40.5t48.5 -15.5q51 0 117.5 16.5t127.5 49.5v16q0 96 -23.5 116t-72.5 20q-78 0 -146.5 -57.5 t-68.5 -104.5z" />
<glyph unicode="b" horiz-adv-x="960" d="M82 1106v25q0 219 34 285q36 70 109 71q53 0 86 -35t33 -90q0 -20 -7 -84q-5 -50 -5 -98v-27q0 -7 -1 -7t17 -433q61 100 148.5 161.5t179.5 61.5q121 0 182.5 -85t61.5 -202q0 -133 -87 -264t-421 -389l-101 -78q-35 -26 -68 -26q-17 0 -33 6q-48 20 -48 79q0 14 7 37 t7 31l-36 21q-34 19 -34 88v8q-1 9 -1 21q-1 26 3 66q4 58 5 89q-1 51 -17 337q-15 255 -14 398v33zM377 240q145 117 215 213t70 190q0 29 -9.5 40t-27.5 11q-72 -2 -161 -184t-87 -270z" />
<glyph unicode="c" horiz-adv-x="825" d="M47 414q0 246 168 420t352 176q86 0 137.5 -52.5t53.5 -121.5q0 -41 -21.5 -64.5t-58.5 -23.5q-2 -2 -4 -1t-51 21q-12 4 -19.5 5t-13.5 3q-100 0 -192.5 -100.5t-92.5 -241.5q0 -111 62.5 -170t171.5 -59q31 0 55 5t92 40q35 16 55.5 25.5t32.5 9.5q39 0 62.5 -21.5 t23.5 -56.5q0 -18 -11 -37.5t-38 -44.5q-78 -72 -169 -104.5t-210 -32.5q-158 0 -271.5 122.5t-113.5 303.5z" />
<glyph unicode="d" horiz-adv-x="1017" d="M47 395q0 203 125 322t342 119q25 0 56.5 -4.5t66.5 -8.5q2 43 3 80v26q0 26 -1 56q-4 82 -5 141.5t-1 122.5q0 88 39 139.5t106 51.5q57 0 87 -43t30 -131q0 -4 0 -3t-6 -118q-2 -10 -2 -4t2 -361v-71v-48q1 -283 23 -363q24 -87 24 -294q0 -55 -40 -90t-89 -37 q-68 0 -103.5 44t-39.5 167l-2 45q-59 -68 -126 -100.5t-145 -32.5q-158 0 -251 119t-93 276zM305 416q0 -78 34 -123t95 -45q53 0 100.5 32.5t94.5 116.5q-11 47 -13 95q-1 19 0 38q0 30 2 60q-25 4 -54 7t-83 3q-90 0 -133 -51t-43 -133z" />
<glyph unicode="e" horiz-adv-x="755" d="M53 387q0 246 145.5 427t321.5 181q74 0 127 -44t53 -109q-2 -90 -91 -220t-281 -317q23 -45 46 -59.5t62 -14.5q49 0 111.5 20.5t167.5 82.5q30 17 56 17q20 0 38 -10q41 -24 41 -77q0 -16 -8.5 -32t-28.5 -39q-68 -78 -193.5 -133.5t-226.5 -55.5q-154 0 -247 98.5 t-93 284.5zM311 561q93 111 94 111l-2 -2l37 47l27 43h-8q-45 0 -95 -64q-54 -70 -53 -135z" />
<glyph unicode="f" horiz-adv-x="612" d="M-55 295q0 23 15 46.5t179 164.5q-1 70 -1 135q0 462 75 636q86 198 293 198q111 0 190.5 -82t79.5 -174q-2 -59 -32.5 -98.5t-77.5 -39.5q-89 0 -89 81v8v10q0 80 -77 80q-61 0 -92 -161q-29 -151 -29 -422v-36q90 53 152.5 83t86.5 30q35 0 58.5 -20.5t25.5 -57.5 q0 -45 -27.5 -82t-277.5 -191q6 -162 32 -442t26 -397q0 -102 -29 -144.5t-90 -44.5q-74 0 -111 87t-71 808q-59 -29 -88 -40t-41 -11q-33 -2 -56.5 20.5t-23.5 55.5z" />
<glyph unicode="g" horiz-adv-x="950" d="M-211 -532q0 88 72 114q20 8 42 8q56 0 124 -49l88 -61q37 -25 104.5 -38t147.5 -13q147 2 194 65.5t49 290.5q0 53 -8 141t-8 125q-2 10 -2 23.5v38.5q-55 -39 -129 -67t-131 -28q-137 0 -226.5 96.5t-89.5 272.5q0 201 142.5 335t322.5 134q39 0 84 -17.5t88 -45.5 q31 37 58.5 53t66.5 16q92 0 108 -66q6 -21 6 -57q0 -79 -26 -235q-10 -53 -13 -95t-3 -354q-1 -31 -1 -63.5t1 -65.5q2 -65 6 -131q6 -170 7 -173t1 -9q0 -203 -128 -314.5t-320 -111.5q-158 0 -392.5 94t-234.5 187zM274 379q0 -63 29 -95t78 -32q43 0 98 38t96 97l3 33 q1 23 1 44q0 78 -17 117q-23 50 -79 50q-78 -2 -143.5 -77t-65.5 -175z" />
<glyph unicode="h" horiz-adv-x="915" d="M81 1153q1 -31 1 -18q0 117 37 182t106 65q61 0 91 -55t36 -158l8 -194q0 -45 7.5 -123t11.5 -111q84 96 139 136.5t107 40.5q84 0 125 -80t49 -346q2 -117 4 -146t8 -61q20 -158 20 -157t0 -1q0 -72 -37.5 -109.5t-91.5 -40.5q-72 0 -107.5 50.5t-35.5 175.5v211 q0 152 -6 178t-14 26t-43 -43t-97 -129q8 -92 13.5 -165.5t5.5 -122.5q0 -92 -36 -132t-103 -40q-78 0 -109 44t-35 183q-2 49 -3 147.5t-9 239.5q-41 555 -42 555v-2z" />
<glyph unicode="i" horiz-adv-x="446" d="M66 1282q0 51 28.5 85t147.5 75l49 16q29 8 61.5 30.5t63.5 22.5q39 0 65.5 -26.5t26.5 -61.5q0 -23 -20.5 -49t-98.5 -94l-61 -53q-41 -35 -74 -49.5t-68 -14.5q-47 0 -83.5 32t-36.5 87zM94 184q0 16 0.5 31t16.5 242l20 293q6 104 45 152t103 50q51 0 76.5 -31.5 t25.5 -95.5q0 -47 -15.5 -195.5t-15.5 -269.5q0 -111 9.5 -128t9.5 -105q-2 -61 -43 -99t-86 -38q-82 0 -114 51t-32 143z" />
<glyph unicode="j" horiz-adv-x="475" d="M-584 -424q0 47 34 79q32 30 77 30h6q27 0 51.5 -5.5t87.5 -39.5q49 -23 89 -34.5t77 -11.5q143 0 215 83t72 227q0 66 -5 205t-7 292q-2 158 -3 209.5t-4 134.5q-90 0 -127.5 25t-39.5 82q2 47 28.5 74.5t100.5 50.5l71 20q16 4 57.5 19.5t63.5 17.5q53 0 88 -32.5 t35 -96.5q0 -45 -15.5 -90t-15.5 -180v-22q0 -95 14 -324q15 -258 15 -336q0 -285 -141.5 -432.5t-409.5 -147.5q-145 0 -279.5 59.5t-134.5 143.5zM27 1305q0 25 10.5 49.5t30.5 44.5q20 23 48.5 36t59.5 13q80 0 127 -49t47 -117q0 -51 -42 -86t-103 -35q-82 0 -130 43 t-48 101z" />
<glyph unicode="k" horiz-adv-x="991" d="M74 1300q0 78 25.5 116t82.5 38q84 0 117 -57t47 -688l2 -99q158 96 302.5 253t203.5 157q39 0 63.5 -24.5t24.5 -59.5q-2 -88 -122 -219t-232 -191q154 -20 268.5 -138t114.5 -257q-2 -66 -37 -99.5t-88 -33.5q-43 0 -68.5 18.5t-42.5 79.5q-29 96 -116 161t-242 91 q10 -53 19.5 -127t11.5 -104q0 -72 -45.5 -113t-106.5 -41q-55 0 -89 26.5t-52 491.5l-17 404q-6 113 -16 235q-8 102 -8 159v21z" />
<glyph unicode="l" horiz-adv-x="634" d="M104 265q0 20 2 46q0 150 11.5 504t19.5 459q6 109 47 159t109 50q41 0 68.5 -25.5t29.5 -68.5q1 -17 -17 -315q-14 -243 -15 -442q0 -46 1 -89l2 -205q0 -37 4.5 -66.5t14.5 -33.5q2 -2 4 -2t10 2q59 10 93 34.5t69 67.5q88 109 107.5 121t40.5 12q39 0 61 -23.5 t25 -62.5q0 -115 -167 -253t-333 -138q-88 0 -136.5 51t-48.5 182q-2 16 -2 36z" />
<glyph unicode="m" horiz-adv-x="1306" d="M119 176q0 29 5 151t9 265v24.5v143.5v11q0 89 32 123q34 36 97 38q68 -2 104 -46q30 -36 31 -96q0 -13 -2 -28q172 117 214 134t77 19q41 0 65.5 -32.5t28.5 -91.5q102 82 168 119.5t111 39.5q78 0 111.5 -47t33.5 -143q0 -190 -14 -264t-14 -136q0 -41 2 -67.5 t10 -42.5l10 -27q11 -30 11 -59q0 -37 -18 -74q-32 -65 -122 -65q-80 0 -117 51t-37 147q0 45 8.5 153.5t12.5 237.5v15.5v15.5q-2 25 -3 29t-3 4q-16 0 -68.5 -46t-87.5 -87v-33.5t4 -103.5q0 -61 4 -103.5t6 -75.5q-2 -106 -42.5 -159.5t-96.5 -53.5q-68 0 -98.5 43 t-30.5 136q0 141 9.5 213.5t9.5 119.5q0 18 -3.5 28.5t-7.5 10.5q-10 0 -46 -23.5t-50 -37.5l-51 -53q-4 -59 -4 -108.5t4 -135.5v-10q0 -103 -38 -155q-40 -54 -114 -54q-57 0 -83.5 36.5t-26.5 149.5z" />
<glyph unicode="n" horiz-adv-x="997" d="M82 768q0 70 42 113t109 43q66 0 103 -47.5t39 -145.5q104 113 193 165t163 52q68 -2 105.5 -46t50.5 -300l6 -143q2 -94 12 -167t10 -97q-2 -80 -41.5 -123t-107.5 -43q-70 0 -104.5 49t-34.5 190v44t2 59q0 27 3 99.5t5 113.5q0 -1 -1 -1v7q0 15 1 61q0 33 -2 38t-4 5 q-12 0 -43 -30.5t-154 -167.5l-47 -54q2 -82 4 -133t6 -76q0 -18 7.5 -64t7.5 -65q0 -70 -52.5 -110.5t-111.5 -40.5q-66 0 -98 40q-29 36 -29 213v46l2 115v26q1 140 -19 228q-22 96 -22 147z" />
<glyph unicode="o" horiz-adv-x="858" d="M61 520q0 229 98.5 363.5t270.5 134.5q184 -2 275.5 -149.5t91.5 -385.5q-2 -211 -117 -352t-272 -141q-156 0 -251.5 144.5t-95.5 385.5zM319 510q0 -113 40 -193.5t94 -80.5q43 0 77.5 74.5t34.5 178.5q0 150 -33.5 237t-80.5 87q-57 0 -94.5 -83t-37.5 -220z" />
<glyph unicode="p" horiz-adv-x="1150" d="M119 688q-2 58 -2 107q0 152 23 203q32 69 120 69q59 0 92 -35t35 -129q0 -123 -6 -157q-5 -25 -5 -55q0 -10 1 -21q219 248 288.5 287.5t147.5 39.5q123 0 202 -71.5t79 -204.5q0 -291 -210 -513t-405 -222q-41 0 -63.5 20.5t-22.5 61.5q0 35 16.5 65.5t49.5 48.5 l104 60q137 78 204 190.5t67 249.5q0 39 -4.5 56.5t-10.5 19.5q-35 0 -35 -1t-12 -9l-53 -43q-80 -66 -186.5 -216.5t-155.5 -257.5q0 -174 16.5 -441t34.5 -335l14 -55q8 -31 8 -60q0 -63 -36 -117q-54 -79 -123 -79q-66 0 -100.5 46t-34.5 120q0 23 1 66.5t3 64.5 q0 37 -2 103.5t-8 252.5z" />
<glyph unicode="q" horiz-adv-x="1050" d="M63 430v6q0 184 126 303q128 121 329 121q39 0 82 -7t86 -19l-2 43v19q0 64 24 100q29 42 97 42q45 0 81 -35.5t85 -963.5l14 -275q9 -185 9 -197v-1h1q8 -115 9.5 -119t1.5 -8q0 -80 -28 -119t-83 -39q-47 0 -73.5 26.5t-100.5 813.5q-66 -66 -138.5 -91.5t-160.5 -25.5 q-166 0 -262.5 117t-96.5 309zM322 430v-8q0 -90 42 -140q44 -51 123 -51q78 0 124 54.5t46 175.5q0 72 -42 127t-117 57q-76 0 -126 -59.5t-50 -155.5z" />
<glyph unicode="r" horiz-adv-x="710" d="M82 817q0 80 26.5 119t86.5 39q86 0 121.5 -53.5t35.5 -173.5q57 94 124 149t130 57q66 0 107 -47t43 -143q0 -68 -23.5 -100.5t-73.5 -32.5q-18 0 -31.5 2t-23.5 8q-18 8 -35.5 13t-29.5 5q-47 1 -97 -111q-48 -107 -47 -182v-6q0 -29 3 -84t3 -92q0 -98 -36.5 -151 t-110.5 -53q-57 2 -85 14t-65 489l-8 101q-6 53 -10 131t-4 102z" />
<glyph unicode="s" horiz-adv-x="714" d="M-14 -31q0 31 14 47.5t76 36.5l78 25q113 35 207 97.5t94 96.5q0 6 -7 14.5t-83 55.5l-91 55q-109 66 -163 150t-54 176q0 131 129 230.5t273 99.5q61 -2 97 -36t36 -85q0 -41 -30 -68.5t-128 -60.5q-90 -33 -108.5 -47.5t-18.5 -30.5q0 -18 22.5 -47t55.5 -47l98 -62 q141 -90 181.5 -141t40.5 -104q0 -147 -214.5 -293t-406.5 -146q-51 0 -74.5 23.5t-23.5 60.5z" />
<glyph unicode="t" horiz-adv-x="630" d="M-109 893q2 27 16.5 55.5t194.5 157.5l-8 154v13q0 57 31 103q35 50 98 54q70 -2 101.5 -39t31.5 -144v-14l88 43q135 66 141.5 66.5t12.5 0.5q39 0 62.5 -16t23.5 -47q0 -37 -26.5 -66.5t-114.5 -78.5l-178 -101l24 -184q55 -415 55 -507q0 -26 -5 -27h-1q-22 12 -16 12 q14 0 59 51t84 51q45 -2 77 -22.5t32 -53.5q0 -20 -9.5 -37.5t-54.5 -60.5l-51 -49q-23 -20 -61.5 -73.5t-65.5 -86.5q-35 -41 -80 -60.5t-92 -21.5q-47 0 -74.5 36t-27.5 91q0 31 1 93.5t1 93.5q0 53 -4 126.5t-15 245.5l-16 240q-33 -33 -71 -56.5t-60 -23.5h-8 q-42 -1 -67 19q-28 22 -28 63z" />
<glyph unicode="u" horiz-adv-x="933" d="M98 679q0 62 4 120q4 111 38 149.5t102 40.5q74 0 102 -49q25 -43 25 -171v-38v-56v-69v-27q-1 -154 21 -235q24 -88 69 -88t74.5 63.5t29.5 188.5v96q0 70 -2 116t-2 64q0 88 33 133.5t92 45.5q61 0 94 -51.5t33 -137.5v-147q0 -104 7.5 -181.5t23.5 -136.5l20 -86 q9 -39 9 -71q0 -54 -26 -90q-42 -56 -112 -56q-37 0 -70.5 24.5t-48.5 71.5q-76 -61 -127 -83.5t-98 -22.5q-135 0 -205.5 127t-81.5 414q-4 80 -4 142z" />
<glyph unicode="v" horiz-adv-x="692" d="M25 887q0 59 35.5 96t84.5 37q43 0 73 -27.5t40 -74.5l23 -113q27 -143 28.5 -152.5t5.5 -23.5q20 -86 20.5 -87t18.5 -83q29 96 46.5 154.5t33.5 103.5l72 221q14 45 36.5 68.5t53.5 23.5q46 0 62 -36q7 -16 7 -44q0 -35 -12 -90l-32 -158q-96 -459 -161 -587.5 t-147 -128.5q-47 0 -75.5 25.5t-49.5 115.5l-16 66q-59 233 -103 440t-44 254z" />
<glyph unicode="w" horiz-adv-x="1036" d="M100 559q0 219 38 302t128 83q47 0 74 -24.5t27 -81.5q-2 2 -22 -146q-9 -66 -9 -132q0 -83 14 -167q46 138 46 139t1 3l29 100q14 53 44 76.5t79 23.5q37 0 59.5 -19.5t36.5 -66.5l19 -67q8 -33 30.5 -89.5t44.5 -99.5v33.5t2 196.5q0 272 27 338.5t88 68.5 q45 0 71.5 -26.5t26.5 -79.5q-2 -6 -8 -83q-4 -58 -4 -130v-49q0 -27 1 -79.5t3 -76.5q0 -285 -46 -369t-138 -84q-66 0 -129.5 68.5t-102.5 177.5q-100 -213 -147 -265t-92 -52q-94 0 -142.5 163.5t-48.5 413.5z" />
<glyph unicode="x" horiz-adv-x="843" d="M30 -9v8q0 37 27 103l54 127q45 109 71.5 157t61.5 97q-98 133 -147.5 226.5t-49.5 148.5q0 57 46 101.5t100 44.5q39 0 78.5 -35t68.5 -88l33 -66q41 -84 47 -95l12 -22q80 86 193.5 173t169.5 87q69 -2 99 -62q10 -20 10 -40q0 -40 -40 -80l-299 -297q16 -25 31.5 -42 t65.5 -62l73 -70q29 -29 46.5 -64.5t17.5 -74.5q0 -53 -42 -88t-104 -35h-6q-59 0 -107 40q-52 42 -124 148l-25 35q-37 -55 -63.5 -96t-40.5 -68l-80 -143q-23 -39 -67 -49q-12 -3 -22 -3q-30 0 -55 21q-29 25 -33 63z" />
<glyph unicode="y" horiz-adv-x="743" d="M-41 -631q0 12 3 24.5t241 674.5l82 227q-123 213 -195 364.5t-72 194.5q0 57 44 96t98 39q39 0 71.5 -23.5t57.5 -74.5l49 -111q33 -76 45 -103.5t29 -55.5q8 20 13 30.5t9 20.5q10 27 39 95.5t45 104.5l43 97q18 40 113 40h4q72 -1 72 -60q0 -24 -11 -56l-112 -328 q-135 -393 -234.5 -644t-202.5 -478l-45 -98q-18 -39 -40.5 -56.5t-49.5 -17.5q-39 0 -67.5 27.5t-28.5 70.5z" />
<glyph unicode="z" horiz-adv-x="737" d="M18 -68q-12 25 -12 54q0 37 21 80l112 223q47 96 96.5 202.5t65.5 151.5q-27 -25 -56.5 -35t-64.5 -10q-61 0 -93 34t-32 87q0 37 18.5 65.5t84.5 61.5q121 59 124 61t7 4q14 6 49.5 26t58.5 32l109 55q38 19 69 19q39 0 68 -29q31 -31 31 -72q0 -31 -17 -68l-53 -112 q-68 -141 -95.5 -201.5t-66.5 -144.5q-43 -96 -49 -107.5t-35 -77.5q391 240 389 240t7 0q43 -2 67.5 -26.5t24.5 -61.5q0 -82 -293 -296t-420 -214q-87 1 -115 59z" />
<glyph unicode="{" horiz-adv-x="749" d="M100 854q0 31 18.5 51.5t67.5 32.5q29 6 46.5 16.5t25.5 165.5v14.5v82.5q-4 238 56.5 318.5t228.5 80.5q45 0 72.5 -25.5t27.5 -64.5q0 -86 -81 -79t-81 -83q0 -18 1 -52t3 -48q0 -6 -1 -21.5t1 -23.5q0 -18 3.5 -57.5t3.5 -57.5q0 -115 -27 -180.5t-90 -92.5 q29 0 45 -10t72 -514q14 -141 35.5 -155.5t119.5 -24.5l51 -6q113 -14 49.5 -77.5t-163.5 -63.5q-195 0 -262.5 61t-75.5 379q-6 164 -12.5 230.5t-20.5 88.5q-8 8 -60.5 44t-52.5 71z" />
<glyph unicode="|" horiz-adv-x="446" d="M133 359.5q-2 269.5 0 373.5q8 680 6 755t-6 177q0 63 34 102t93 39q49 -2 78 -29.5t37 -93.5q2 -20 2 -43.5t-2 -62.5q-31 -541 -39 -821.5t-6 -558.5q0 -479 -31 -588t-90 -109q-37 2 -55.5 50.5t-18.5 273.5q0 266 -2 535.5z" />
<glyph unicode="}" horiz-adv-x="749" d="M8 1552.5q39 63.5 158 63.5q205 0 266.5 -65.5t71.5 -374.5q4 -160 10 -228.5t23 -89.5q14 -25 63 -53.5t49 -61.5q0 -37 -20.5 -57t-65.5 -29q-35 -8 -42 -11t-11 -7q-6 -6 -9 -13.5t-9 -150.5q-2 -4 -2.5 -4t2.5 -92q0 -244 -59.5 -320.5t-225.5 -78.5q-43 0 -72 24.5 t-29 65.5q-2 31 21 46t70 19q43 2 56 24.5t15 71.5q0 12 -1 28.5t-1 72.5q-2 4 -2 10v12v10.5v14.5q-8 115 -7 111.5t1 1.5q0 129 26.5 187t90.5 73q-31 8 -47.5 26.5t-69.5 509.5q-16 137 -30.5 149.5t-125.5 30.5l-51 9q-82 12 -43 75.5z" />
<glyph unicode="~" d="M92 1276q0 104 165 146t257 -19l33 -23q41 -29 59.5 -24.5t52.5 33.5l78 63q57 47 111.5 23.5t54.5 -72.5q0 -129 -182 -227.5t-297 -30.5q-41 23 -54.5 26t-31.5 3q-43 -2 -78 -11.5t-57 -9.5q-55 0 -83 37t-28 86z" />
<glyph horiz-adv-x="1392" d="M-225 1036q0 45 25.5 76.5t84.5 58.5l133 58q655 283 914.5 358.5t445.5 75.5q59 0 85 -13.5t26 -41.5q0 -33 -15.5 -52.5t-41.5 -25.5l-80 -23q-137 -39 -356.5 -119.5t-368.5 -146.5q4 -98 7 -193.5t7 -187.5q94 39 173 61.5t140 22.5q156 0 264.5 -105.5t122.5 -283.5 q23 -270 -114 -470t-326 -202q-102 2 -164.5 47t-62.5 109q0 41 22.5 65.5t73.5 24.5q12 0 26.5 -3t41.5 -7q23 -6 32 -7t17 -1q74 0 135 111.5t61 279.5q0 84 -44 133t-121 49q-55 0 -131 -33t-138 -76q0 -455 -41 -542.5t-116 -89.5q-55 0 -91 52t-34 710v430 q-39 -16 -66 -28.5t-229 -113.5l-111 -55q-78 -41 -131 -3t-55 101z" />
<glyph horiz-adv-x="825" d="M94 1284q0 18 20.5 40t67.5 50q10 72 39 105.5t88 33.5q23 0 54.5 -14t58.5 -33q96 43 162.5 71t251.5 95l102 37q23 8 55.5 16.5t46.5 8.5q39 0 67 -27t28 -65q0 -29 -22 -51.5t-77 -45.5l-67 -28q-231 -98 -347 -159t-192 -128q-14 -184 -17 -392t9 -325l14 -160 q14 -182 -25.5 -248.5t-140.5 -66.5q-59 0 -91 43t-27 125l8 297q8 307 15 459.5t7 224.5q-33 25 -60.5 67.5t-27.5 69.5zM469 1688q0 20 14.5 53t32.5 58l49 63q166 213 210 255t75 42t58.5 -42t27.5 -77q0 -23 -14.5 -46t-143.5 -146l-90 -86q-152 -143 -151.5 -143.5 t-4.5 -0.5q-23 0 -43 22.5t-20 47.5z" />
<glyph horiz-adv-x="1189" d="M143 1323q-2 94 31 146.5t102 52.5q63 0 98.5 -31.5t43.5 -97.5l20 -410q8 10 28.5 37t33.5 43q10 14 36.5 47t38.5 49q55 72 84 121t60 92l74 103q61 86 141 57t80 -96q0 -104 -147.5 -304t-297.5 -313q250 -86 494 -323.5t244 -393.5q0 -55 -35 -86.5t-80 -31.5 q-23 0 -41 6t-158 153l-119 127q-88 92 -173 154.5t-246 157.5q10 -170 25.5 -256t15.5 -131q0 -115 -52.5 -167.5t-150.5 -54.5q-80 0 -109.5 90.5t-36.5 854.5zM485 1618q0 20 14.5 53t32.5 58l49 63q166 213 210 255t75 42t58.5 -42t27.5 -77q0 -23 -14.5 -46 t-143.5 -146l-90 -86q-152 -143 -151.5 -143.5t-4.5 -0.5q-23 0 -43 22.5t-20 47.5z" />
<glyph horiz-adv-x="1374" d="M-225 1036q0 45 25.5 76.5t84.5 58.5l133 58q655 283 914.5 358.5t445.5 75.5q59 0 85 -13.5t26 -41.5q0 -33 -15.5 -52.5t-41.5 -25.5l-80 -23q-137 -39 -356.5 -119.5t-368.5 -146.5q4 -98 7 -193.5t7 -187.5q94 39 173 61.5t140 22.5q176 0 272.5 -102.5t96.5 -276.5 q0 -385 -45 -479t-139 -94q-72 0 -97.5 58.5t-9.5 228.5l19 210q8 100 -26 147.5t-107 47.5q-53 0 -130 -33t-139 -76q0 -455 -41 -542.5t-116 -89.5q-55 0 -91 52t-34 710v430q-39 -16 -66 -28.5t-229 -113.5l-111 -55q-78 -41 -131 -3t-55 101z" />
<glyph horiz-adv-x="1251" d="M6 -197q0 23 10.5 39.5t49.5 36.5q49 29 71.5 67t18.5 122q-2 27 -1 71.5t3 63.5q0 332 -11.5 552t-33.5 347l-7 33q-20 109 18 165t120 56q98 -2 149 -138.5t51 -1067.5v-84l2 -62q102 35 208 76t214 90q-12 145 -20 315t-8 273q0 406 41 520.5t127 116.5 q53 0 86.5 -50.5t33.5 -637.5v-420l19 8q78 35 134 3t56 -99q0 -45 -28.5 -80t-81.5 -58l-68 -28q-12 -6 -25.5 -11.5t-62.5 -19.5l-35 -10l-207 -76q-2 -88 -14 -154.5t-129 -269.5l-31 -53q-47 -80 -101 -59.5t-52 69.5q0 12 5 29.5t21 46.5l21 41q25 51 38 132t3 132 q-152 -39 -269.5 -60.5t-203.5 -21.5q-68 0 -90.5 14.5t-20.5 40.5z" />
<glyph horiz-adv-x="954" d="M-127 956q-12 55 17.5 88t117.5 50l53 14q-2 135 32 204.5t110 69.5q55 0 91 -55t34 -139q74 25 151.5 39t157.5 20q59 4 130 -20.5t71 -57.5q0 -10 -1 -11t-497 -214q4 -53 9 -104.5t9 -98.5q147 147 177 162t65 15q131 0 217 -133.5t86 -391.5q0 -322 -162.5 -527.5 t-386.5 -205.5q-94 0 -160.5 45t-66.5 111q-2 47 24.5 68.5t73.5 21.5q8 0 18.5 -1t47.5 -9q29 -6 37 -6.5t14 -2.5q125 0 215 122t90 335q0 100 -36 191.5t-70 91.5q-20 0 -55 -39t-109 -142q10 -121 14 -179t4 -109q0 -90 -35.5 -131t-103.5 -41q-47 0 -74.5 15 t-101.5 882l-37 -6q-78 -12 -118 6t-52 73z" />
<glyph horiz-adv-x="987" d="M85 760.5q-1 21.5 1 48.5q0 72 24.5 113t84.5 41q66 0 94 -29t37 -90q2 -33 3 -78t5 -166q147 82 204.5 131t108.5 121l55 76q51 70 128 62.5t77 -81.5q0 -96 -107.5 -221t-197.5 -153q147 -27 255 -155t108 -276q0 -59 -35 -94t-92 -37q-41 0 -69 20.5t-42 80.5 q-41 145 -136 209.5t-231 60.5q6 -41 15.5 -121t9.5 -106q-2 -70 -43 -112t-98 -42q-74 0 -106 40t-32 200q-2 98 -6 228t-8 228q-6 80 -7 101.5zM373 1048q0 20 14.5 53t32.5 58l49 63q166 213 210 255t75 42q31 -2 58.5 -43t27.5 -76q-2 -23 -15.5 -46t-142.5 -146 l-90 -86q-152 -143 -151.5 -144.5t-4.5 1.5q-23 0 -43 22.5t-20 46.5z" />
<glyph horiz-adv-x="882" d="M-127 956q-12 55 18.5 88t118.5 50l51 14q-2 135 32 204.5t110 69.5q55 0 91 -55t34 -139q135 41 215 57.5t164 22.5q57 4 127.5 -20.5t70.5 -57.5q0 -10 2 -3t-565 -243q4 -53 8 -104.5t8 -98.5q143 143 176 158.5t68 18.5q84 -2 124 -80t52 -346q6 -182 7 -190.5 t3 -16.5q20 -150 20.5 -150t0.5 -8q0 -74 -37 -110.5t-92 -39.5q-76 2 -118.5 68t-24.5 158v211q0 150 -6.5 176t-14.5 28q-10 0 -60 -65.5t-77 -106.5q16 -252 16 -264t2 -24q0 -82 -34.5 -127t-106.5 -45q-33 2 -59.5 9t-116.5 888l-37 -6q-78 -12 -118 6t-52 73z" />
<glyph unicode="&#xa1;" horiz-adv-x="915" d="M29 1303q-2 55 40 101t107 46q41 0 69.5 -17.5t65.5 -76.5l86 -139q51 -86 73 -129.5t54 -83.5q94 330 92 325.5t2 3.5l52 160q20 63 46.5 87t63.5 24q51 0 82 -30t31 -79q0 -2 -1 -27.5t-128 -511.5l-53 -202q12 -18 19 -42t9 -44q-2 -23 -19.5 -46.5t-43.5 -39.5 q-49 -86 -99.5 -208t-97.5 -278l-78 -250q-23 -68 -50 -101.5t-68 -47.5q-61 -20 -85 28t1 121l96 306q16 57 49 186t78 321l-92 136q-156 225 -228.5 346t-72.5 162zM145 1890q0 43 27.5 73t60.5 30q18 -2 47 -30t55 -42q23 -10 47.5 -16.5t51.5 -6.5q41 0 83 15.5t89 50.5 q45 35 66.5 45t39.5 10q23 -2 44.5 -26.5t21.5 -53.5q0 -70 -123 -165t-231 -95q-115 0 -197 62.5t-82 148.5z" />
<glyph unicode="&#xa2;" horiz-adv-x="825" d="M47 414q0 170 92 320.5t260 234.5l4 223q2 59 35 93t90 34q45 0 73 -32t28 -87q-2 -57 -5 -99t-12 -95q72 -16 109 -63.5t37 -106.5q0 -41 -22.5 -64.5t-57.5 -23.5q-12 0 -31.5 10t-68.5 22q-8 -141 -20.5 -285.5t-29.5 -291.5q98 16 98.5 15t59.5 32q33 16 54.5 25.5 t33.5 9.5q39 0 62.5 -21.5t23.5 -56.5q0 -66 -113.5 -135.5t-234.5 -81.5q-27 -242 -54.5 -298.5t-68.5 -56.5q-35 0 -49 66t4 295q-139 47 -218 156.5t-79 261.5zM295 434q-2 -51 11 -90t46 -72q4 98 10.5 198.5t16.5 203.5q-45 -55 -64.5 -115.5t-19.5 -124.5z" />
<glyph unicode="&#xa3;" horiz-adv-x="1159" d="M61 655q0 43 32 82t157 119l88 55v62q0 287 98.5 442.5t222.5 155.5q37 0 74 -37t37 -68t-39 -77t-51 -70q-12 -23 -24.5 -93.5t-14.5 -119.5q84 55 175 93t165 46h15.5h13.5q25 -4 47 -20.5t22 -36.5q0 -31 -22.5 -60.5t-134.5 -103.5l-70 -45q-6 -4 3 2t-232 -170 q-8 -256 -12.5 -316.5t-10.5 -127.5q184 115 375.5 226.5t198.5 115.5l133 79q49 29 65.5 35t30.5 6q35 0 63.5 -21.5t28.5 -49.5q0 -35 -25.5 -68t-78.5 -69l-48 -33q-23 -14 -46 -31.5t-89 -64.5q-104 -74 -165.5 -116t-208.5 -145l-226 -157q-12 -10 -11 -8t-155 -136 q-115 -98 -198.5 9.5t2.5 222.5q37 49 44 68.5t11 43.5q6 35 8 123.5t6 147.5l4 71q-70 -37 -92 -45t-39 -8q-55 0 -91 27.5t-36 64.5z" />
<glyph unicode="&#xa5;" horiz-adv-x="1071" d="M53 1289v14q0 55 41 101t107 46q41 0 69.5 -18.5t65.5 -75.5l84 -139q127 -211 125 -210t4 -3q25 90 50.5 185t41.5 144l53 160q20 63 45 86t66 25q49 0 81 -30t32 -79q-2 -33 -45.5 -209t-84.5 -330l-55 -200q37 12 80 26.5t74 24.5l43 12q55 14 94 -7t39 -64 q0 -25 -18.5 -45.5t-55.5 -36.5l-26 -13q-217 -100 -228.5 -106t-21.5 -15l-6 -73q84 29 113.5 38t47.5 15l43 12q55 14 94 -7t39 -64q0 -25 -18 -45.5t-55 -36.5l-27 -13q-47 -23 -74.5 -37t-97.5 -45q-31 -14 -49 -22t-41 -21l-14 -133l-33 -239q-14 -90 -49 -126t-92 -11 q-35 12 -51.5 39.5t-14.5 78.5l8 271l-53 -25q-49 -25 -117.5 -48.5t-91.5 -23.5q-39 0 -64.5 25t-25.5 59q0 31 17.5 56.5t56.5 48.5l129 69l155 78l2 51l-43 -20q-45 -23 -115.5 -48.5t-92.5 -23.5q-39 0 -65 24.5t-26 59.5q-2 31 16.5 56.5t57.5 48.5l129 69l144 72 l-95 154q-301 487 -301 494z" />
<glyph unicode="&#xa6;" horiz-adv-x="450" d="M133 438q0 66 34 105t93 39q53 0 82 -33t35 -92q0 -18 1 -38t-1 -67q-31 -635 -63.5 -742.5t-84.5 -109.5q-43 0 -61 66.5t-12 257.5q-6 150 -11.5 302.5t-11.5 311.5zM137 1665q0 63 34 102t93 39q49 0 78 -28.5t37 -94.5v-22v-84q-2 -31 0 -106.5t0 -116.5 q-20 -367 -50 -448t-79 -81q-18 0 -35.5 19.5t-77.5 820.5z" />
<glyph unicode="&#xa7;" horiz-adv-x="864" d="M41 571q0 61 22.5 113.5t180.5 210.5l-11 14q-82 113 -100 171.5t-18 119.5q0 158 96 256t217 100q125 0 216 -87t91 -187q-2 -61 -26.5 -97t-61.5 -36q-41 0 -69.5 19.5t-55.5 80.5l-24 56q-12 27 -36 43t-48 16q-31 0 -49.5 -16.5t-16.5 -47.5q0 -41 31 -95t88 -113 l164 -177q123 -133 157.5 -203.5t34.5 -148.5q0 -102 -63.5 -188t-173.5 -135q68 -72 104.5 -156t36.5 -164q0 -141 -93 -241.5t-235 -100.5q-129 2 -228 94t-99 189q0 55 28.5 89t65.5 34q27 0 48.5 -12.5t64.5 -77.5l43 -68q18 -29 37.5 -43t48.5 -14q41 0 62.5 18 t23.5 49q0 33 -37 92.5t-84 114.5l-135 154q-123 137 -160 216t-37 158zM299 610q0 -41 39.5 -100.5t107.5 -122.5q59 84 70.5 109.5t11.5 48.5q-2 37 -43 96t-102 119q-39 -35 -61.5 -77t-22.5 -73z" />
<glyph unicode="&#xa8;" horiz-adv-x="1093" d="M121 113l14 399q0 51 3 318.5t18 410.5l6 68q6 84 63.5 122.5t151.5 26.5q80 39 156.5 71t328.5 122l117 41q33 10 62.5 15t29.5 7q0 -188 2 -187t-10 -3l-68 -29q-291 -123 -382 -176t-212 -129q-6 -55 -8 -108.5t-4 -186.5q152 106 153 106t330 160l56 27 q82 39 139 -22.5t-45 -141.5l-39 -31q-70 -55 -178.5 -113.5t-210.5 -127.5l-199 -138l-2 -264q102 74 215 135.5t205 96.5l129 47q57 20 71.5 23t30.5 3q39 0 69 -20.5t30 -42.5q0 -33 -19.5 -61.5t-58.5 -49.5l-59 -32q-272 -150 -497.5 -303.5t-270.5 -153.5 q-53 0 -86 34.5t-31 86.5zM270 1929q0 80 42 131t98 51q51 0 81.5 -30.5t30.5 -100.5q0 -119 -34.5 -180t-100.5 -61q-57 0 -87 48t-30 142zM618 1855q-2 139 29 202t103 63q39 0 75.5 -30t38.5 -67q0 -102 -40 -214.5t-87 -112.5q-70 0 -95.5 40t-23.5 119z" />
<glyph unicode="&#xa9;" horiz-adv-x="1626" d="M156 711q0 117 81.5 321.5t165.5 241.5q76 31 200 60.5t220 29.5q260 0 451.5 -155.5t191.5 -352.5q0 -225 -242.5 -450.5t-512.5 -225.5q-240 0 -397.5 168t-157.5 363zM383 729q0 -168 109.5 -247t291.5 -76q188 -2 335 144t147 290q0 119 -147.5 223t-370.5 104 q-162 0 -263.5 -110.5t-101.5 -327.5zM455 717q0 160 132 295t230 135q68 0 108 -47t42 -103q0 -31 -11.5 -45t-40.5 -12q-14 0 -32.5 3t-40.5 3q-78 0 -125 -69.5t-47 -141.5q0 -59 28.5 -86.5t128.5 -27.5q0 -2 6.5 -1t10.5 1q12 -2 25.5 -4.5t17.5 -2.5q8 0 16 8.5 t31 8.5q31 -2 55.5 -26.5t24.5 -51.5q-2 -53 -104.5 -93t-198.5 -40q-94 0 -176 94t-80 203z" />
<glyph unicode="&#xaa;" horiz-adv-x="1216" d="M84 606q-2 362 226.5 628.5t518.5 266.5q137 0 225.5 -47t88.5 -113q0 -45 -21.5 -75.5t-60.5 -30.5q-49 0 -95 10t-106 12q-166 0 -293 -112.5t-170 -296.5l52 26q41 20 160.5 68.5t191.5 75.5l86 31q49 16 94 0.5t45 -58.5q0 -41 -14.5 -67.5t-55.5 -46.5l-65 -35 q-154 -82 -243 -123t-97 -45l-162 -84q12 -160 114.5 -260.5t237.5 -100.5q78 0 152 33t199 166q61 63 68 66.5t18 3.5q31 0 55 -20.5t24 -43.5q0 -143 -183 -318t-431 -175q-254 0 -406.5 180t-152.5 485z" />
<glyph unicode="&#xab;" horiz-adv-x="1372" d="M100 671.5q0 8.5 2 16.5q4 31 4 32t269 298q242 272 268.5 283.5t52.5 11.5q43 0 73 -35t30 -76q0 -37 -124 -199.5t-226 -273.5q-12 -12 -11.5 -33.5t17.5 -42.5q37 -39 72 -69.5t223 -163.5l57 -41q57 -53 47 -114.5t-53 -61.5q-72 -2 -206 57t-222 123 q-135 90 -199.5 155.5t-71.5 118.5q-2 6 -2 14.5zM621 692q-2 63 34.5 129t132.5 144l46 36q16 12 35.5 37t99.5 131l41 56q12 18 48 34.5t64 16.5q27 0 48.5 -26.5t21.5 -63.5q0 -8 1 3t-261 -390q207 -145 272.5 -237.5t65.5 -199.5q0 -33 -8.5 -46t-24.5 -13 q-29 0 -59.5 18.5t-67.5 63.5l-27 31q-8 6 -31.5 19.5t-64.5 33.5l-53 25q-10 2 -40 17l-48 24h-4l-90 34l-39 15q-45 14 -68.5 42.5t-23.5 65.5z" />
<glyph unicode="&#xac;" horiz-adv-x="1431" d="M76 625q0 72 383 156.5t680 95.5q233 -20 220 -165t-163 -182q-39 -6 -59.5 7.5t-24.5 44.5q-2 0 -1 -1t1 40l-2 14l2 2v10q-35 0 -54.5 -3t-31.5 -7q-68 -18 -131.5 -32.5t-648.5 -110.5q-82 -12 -126 15.5t-44 115.5z" />
<glyph unicode="&#xad;" d="M76 596q0 55 54 95t257 93l64 17q76 18 141 28.5t113 12.5q86 -2 150.5 -28t64.5 -66q0 -43 -24 -71t-171 -65l-63 -16q-25 -6 -49.5 -15.5t-53.5 -21.5q-80 -37 -94 -41t-25 -6l-90 -20q-139 -33 -207.5 0.5t-66.5 103.5z" />
<glyph unicode="&#xae;" horiz-adv-x="1810" d="M254 1087q0 340 165 496t503 158q242 0 442.5 -159t200.5 -351q-2 -229 -242 -453.5t-514 -222.5q-242 0 -398.5 169.5t-156.5 362.5zM485 1169q-47 -166 80 -276.5t318 -110.5q188 -2 334.5 146.5t146.5 288.5q0 123 -143.5 230t-362.5 107q-111 -2 -184.5 -48 t-122.5 -148q137 37 198.5 83t208.5 46q84 0 119 -24.5t35 -76.5q0 -33 -1 -33.5t-189 -222.5q63 25 179 -27t116 -110q-2 -37 -38 -74.5t-69 -37.5q-43 0 -146.5 49t-146.5 55q4 -92 -14.5 -129t-63.5 -37q-70 0 -114.5 48t-32.5 126q2 23 3 28t1 11q-2 2 -1 -2t-5 129 q-57 -2 -56 -2t1 2q-6 0 -21.5 3t-28.5 7z" />
<glyph unicode="&#xaf;" horiz-adv-x="946" d="M80 1811q0 59 28.5 105t82.5 50h4h6q33 -4 64.5 -35.5t31.5 -72.5q0 -109 -31.5 -158t-85.5 -49q-47 0 -73.5 42t-26.5 118zM135 207v25.5t41 871.5l4 86q4 96 49 149.5t107 53.5q61 0 105 -41t44 -107q0 -150 -36.5 -532.5t0.5 -575.5l6 -33q16 -92 -27 -152.5 t-129 -60.5q-80 0 -122 68t-42 248zM420 1778q0 117 26.5 168t84.5 53q55 0 84.5 -40t29.5 -107q0 -76 -44 -144.5t-93 -66.5q-45 -2 -67.5 32.5t-20.5 104.5z" />
<glyph unicode="&#xb0;" horiz-adv-x="708" d="M98 1313q0 119 79 234.5t183 117.5q106 0 197.5 -81t91.5 -212q0 -145 -96 -243.5t-207 -98.5q-109 0 -178.5 91t-69.5 192zM358 1374q0 -35 19.5 -63.5t36.5 -26.5q14 -2 28.5 20.5t14.5 55.5q0 49 -19.5 84t-42.5 35q-12 -2 -24.5 -39t-12.5 -66z" />
<glyph unicode="&#xb1;" horiz-adv-x="1107" d="M82 215q0 31 17.5 56.5t56.5 47.5l129 70q84 45 168 83t178 71l98 39q14 6 43 14t41 12q8 2 37 12.5t47 16.5l41 10q63 14 98 -6t35 -63q0 -25 -15.5 -44.5t-58.5 -39.5l-24 -13q-6 -4 -11.5 -6t-95.5 -43q-16 -8 -34.5 -16t-98.5 -47q-66 -33 -186.5 -89.5t-165.5 -76.5 q-66 -31 -127 -51.5t-82 -20.5q-39 0 -64.5 24.5t-25.5 59.5zM88 758q0 33 19.5 58.5t56.5 45.5l96 49l-8 -4t166 88l8 58q41 295 77 340t87 45q45 0 81 -35t36 -94q0 -20 -3.5 -71.5t-1.5 -88.5v-39l31 10q31 10 75 27.5t95 32.5l41 10q63 14 98 -6.5t35 -63.5 q0 -23 -12 -38t-61 -44l-25 -14q-29 -16 -113 -53t-161 -74q-2 -33 -5.5 -55.5t-3.5 -34.5l-8 -117q-6 -72 -35.5 -109.5t-87.5 -37.5q-61 -2 -97 54t-48 165l-33 -14q-127 -55 -158.5 -65.5t-50.5 -8.5q-35 -2 -62.5 22.5t-27.5 61.5z" />
<glyph unicode="&#xb2;" horiz-adv-x="589" d="M135 207v25.5t41 871.5l4 86q4 96 49 149.5t107 53.5q61 0 105 -41t44 -107q0 -150 -36.5 -532.5t0.5 -575.5l6 -33q16 -92 -27 -152.5t-129 -60.5q-80 0 -122 68t-42 248z" />
<glyph unicode="&#xb3;" horiz-adv-x="446" d="M66 1282q0 51 28.5 85t147.5 75l49 16q29 8 61.5 30.5t63.5 22.5q39 0 65.5 -26.5t26.5 -61.5q0 -23 -20.5 -49t-98.5 -94l-61 -53q-41 -35 -74 -49.5t-68 -14.5q-47 0 -83.5 32t-36.5 87zM94 184q0 16 0.5 31t16.5 242l20 293q6 104 45 152t103 50q51 0 76.5 -31.5 t25.5 -95.5q0 -47 -15.5 -195.5t-15.5 -269.5q0 -111 9.5 -128t9.5 -105q-2 -61 -43 -99t-86 -38q-82 0 -114 51t-32 143z" />
<glyph unicode="&#xb4;" horiz-adv-x="602" d="M2 778q0 49 22.5 82t90.5 62l82 34q82 35 197.5 72t234.5 66q10 45 38.5 77.5t61.5 32.5q53 0 77.5 -22.5t27.5 -65.5q0 -59 -33 -110.5t-443 -221.5q18 -199 26.5 -299t8.5 -262q0 -215 -26.5 -264t-77.5 -49q-59 0 -96 41t-60 600l-6 143q-49 -10 -87 12.5t-38 71.5z " />
<glyph unicode="&#xb6;" horiz-adv-x="1251" d="M184 1491q0 96 90.5 164.5t223.5 68.5q121 -2 165.5 -39t28.5 -176l-18 -149q-25 -199 -45.5 -387.5t-69.5 -804.5q-43 -498 -82 -589t-94 -91q-23 0 -33 88t-10 301q0 102 3 215t91 1100q-121 51 -186.5 125t-63.5 174zM707 -326q0 264 23.5 664.5t76.5 1054.5l12 151 q4 55 39 92t86 37q72 0 102.5 -50.5t10.5 -195.5l-21 -145q2 16 -15 -100.5t-95 -1013.5q-45 -502 -83 -592t-85 -90q-23 0 -37 58.5t-14 129.5z" />
<glyph unicode="&#xb8;" horiz-adv-x="757" d="M55 387q0 246 145.5 427t321.5 181q74 0 127 -44t53 -109q0 -90 -90 -220t-282 -317q23 -45 46 -60.5t62 -13.5q49 0 111.5 20.5t167.5 82.5q53 31 94 7t41 -77q-2 -16 -9.5 -32t-27.5 -39q-68 -78 -193.5 -133.5t-226.5 -55.5q-154 0 -248 98.5t-92 284.5zM231 1184 q0 57 29 103t82 50h4h6q35 -4 65 -37.5t32 -70.5q0 -104 -32 -155.5t-87 -51.5q-49 0 -75 35t-24 127zM313 561q98 117 94.5 111t-1.5 -2l36 47l27 43q-49 6 -102.5 -63.5t-53.5 -135.5zM516 1141q-2 119 25.5 170t85.5 51q43 0 73.5 -28.5t30.5 -69.5q0 -68 -40 -165.5 t-85 -94.5q-47 0 -68.5 35.5t-21.5 101.5z" />
<glyph unicode="&#xb9;" horiz-adv-x="2000" d="M125 324q4 39 12 135t10 147l11 682q0 84 48 130t130 46q47 0 72.5 -21.5t35.5 -84.5l5 -31q0 -8 3 -21.5t263 -441.5l102 -170q76 -127 122 -196.5t89 -120.5l-20 883l2 12v139q-2 84 41 134t112 52q61 0 89 -45t26 -325l-8 -955q-2 -109 28.5 -172t30.5 -102 q0 -51 -55 -88t-111 -37q-76 2 -227.5 168t-263.5 352l-90 148q-8 8 -14.5 19t-149.5 233q-41 -365 1 -506.5t44 -116.5q0 -55 -56.5 -109.5t-130.5 -54.5q-92 0 -134 80t-17 238zM1323 420q0 51 49 90t178 74l62 16q92 25 148.5 34t105.5 9q88 0 152.5 -26.5t64.5 -69.5 t-22.5 -68.5t-174.5 -64.5l-61 -17q-12 -4 -21.5 -7t-85.5 -32q-31 -12 -60.5 -22t-58.5 -17q-127 -35 -201.5 -5t-74.5 106zM1323 944q0 119 79 235.5t183 116.5q106 0 197.5 -80.5t91.5 -211.5q0 -143 -96.5 -242.5t-208.5 -99.5q-106 0 -176 90t-70 192zM1583 1006 q0 -33 18.5 -63t36.5 -28q14 0 27.5 21.5t13.5 54.5q0 53 -18.5 89t-34.5 36q-12 0 -27.5 -36t-15.5 -74z" />
<glyph unicode="&#xba;" horiz-adv-x="825" d="M47 340q0 246 168 421t352 175q86 0 138.5 -52.5t52.5 -121.5q0 -41 -21.5 -64.5t-58.5 -23.5h-4t-51 20q-12 4 -19.5 6t-13.5 2q-74 -2 -152 -61t-116 -145q100 23 167.5 38t204.5 35l45 6q47 6 81 -14t34 -53q0 -35 -13.5 -53.5t-66.5 -38.5l-26 -10 q-35 -14 -172.5 -53.5t-192.5 -51.5l-68 -16q20 -78 79 -116t145 -38q31 0 55 5t92 40q35 16 55.5 25.5t32.5 9.5q39 -2 62.5 -22.5t23.5 -55.5q0 -78 -133 -147.5t-295 -71.5q-158 0 -272.5 123t-112.5 303z" />
<glyph unicode="&#xbb;" horiz-adv-x="1378" d="M102 979q0 53 40 104.5t100 51.5q25 0 52 -10.5t226 -155.5l150 -111q66 -49 78 -69.5t14 -43.5q0 -16 -8.5 -34.5t-34.5 -55.5l-64 -86q-43 -59 -113.5 -151t-99.5 -127l-45 -55q-47 -57 -76.5 -79t-54.5 -22q-23 0 -43 14.5t-18 32.5q-2 23 8 53.5t31 67.5l18 33 q59 106 107.5 183t91.5 136q-199 135 -279 207t-80 117zM543 1090q0 63 66.5 100t146.5 6q6 -2 -9.5 2t447.5 -313q61 -45 78.5 -124t-35.5 -134l-96 -101q-68 -70 -117 -127t-119 -129l-7 -7l-7 -7q-80 -76 -117 -81t-51 40q-10 37 -2 70.5t39 68.5q45 76 94 151t100 148 q23 23 13 50t-41 45l-62 36q-106 61 -197.5 134t-117.5 122q-4 8 -5 22.5t-1 27.5z" />
<glyph unicode="&#xbc;" horiz-adv-x="475" d="M-584 -424q0 47 34 79t83 30q27 0 51.5 -5.5t87.5 -39.5q49 -23 89 -34.5t77 -11.5q143 0 215 83t72 227q0 66 -5 205t-7 292q-2 158 -3 209.5t-4 134.5q-90 0 -127.5 25t-39.5 82q2 47 28.5 74.5t100.5 50.5l71 20q16 4 57.5 19.5t63.5 17.5q53 0 88 -32.5t35 -96.5 q0 -45 -15.5 -90t-15.5 -180q-2 -88 13.5 -346t15.5 -336q0 -285 -141.5 -432.5t-409.5 -147.5q-145 0 -279.5 59.5t-134.5 143.5zM27 1305q0 25 10.5 49.5t30.5 44.5q20 23 48.5 36t59.5 13q80 0 127 -49t47 -117q0 -51 -42 -86t-103 -35q-82 0 -130 43t-48 101z" />
<glyph unicode="&#xbd;" horiz-adv-x="1099" d="M-4 -6q0 20 9 34.5t280 71.5q250 51 369.5 134t119.5 200q0 61 -49 133t-139 125l-195 113q-238 135 -277.5 192.5t-39.5 122.5q-2 172 246.5 333t443.5 161q49 0 76.5 -33t27.5 -80q0 -55 -26.5 -86t-81.5 -41l-41 -8q-131 -27 -229.5 -91.5t-98.5 -109.5 q0 -18 20.5 -36.5t120.5 -69.5l52 -27q301 -158 389 -272.5t88 -251.5q0 -272 -302 -432t-677 -160q-41 0 -63.5 19.5t-22.5 58.5z" />
<glyph unicode="&#xbe;" horiz-adv-x="714" d="M-14 -31q0 31 14 47.5t76 36.5l78 25q113 35 207 97.5t94 96.5q0 6 -7 14.5t-83 55.5l-91 55q-109 66 -163 150t-54 176q0 131 129 230.5t273 99.5q61 -2 97 -36t36 -85q0 -41 -30 -68.5t-128 -60.5q-90 -33 -108.5 -47.5t-18.5 -30.5q0 -18 22.5 -47t55.5 -47l98 -62 q141 -90 181.5 -141t40.5 -104q0 -147 -214.5 -293t-406.5 -146q-51 0 -74.5 23.5t-23.5 60.5z" />
<glyph unicode="&#xbf;" horiz-adv-x="501" d="M-35 1233q0 59 28.5 105t82.5 51h4h6q33 -4 64.5 -36t31.5 -73q0 -109 -31.5 -158t-85.5 -49q-47 -2 -73.5 41t-26.5 119zM66 184v74t14 199l22 293q6 102 45 151t103 51q51 -2 74.5 -29.5t25.5 -97.5q0 -45 -15.5 -208.5t-15.5 -256.5q0 -113 9.5 -128t9.5 -105 q0 -61 -42 -99t-87 -38q-74 0 -108.5 48t-34.5 146zM313 1235q0 117 26.5 169t84.5 52q55 0 84.5 -40t29.5 -107q0 -76 -44 -143.5t-93 -67.5q-45 0 -66.5 33.5t-21.5 103.5z" />
<glyph unicode="&#xf7;" horiz-adv-x="1357" d="M82 625q0 63 446.5 186t599.5 133q59 2 129 -22.5t70 -57.5q0 -47 -46 -76.5t-136 -39.5q-16 -2 -22.5 -4.5t-571.5 -184.5q-86 -29 -128 -39t-171 -26q-82 -12 -126 15.5t-44 115.5zM442 997q0 63 60.5 107.5t132.5 48.5q43 -4 72.5 -34.5t35.5 -71.5q4 -43 -18.5 -84 t-65.5 -68q-66 -31 -129 -2t-88 104zM618 389q-4 59 54.5 104.5t136.5 51.5q45 -6 77 -39t32 -68v-18v18q0 -12 -2.5 -32.5t-4.5 -30.5t-5 -16.5t-7 -12.5q-8 -10 -30.5 -31.5t-32.5 -27.5q-68 -33 -131.5 -3.5t-86.5 105.5z" />
<glyph unicode="&#x152;" horiz-adv-x="1830" d="M133 705q0 492 47 586.5t148 94.5q51 0 81.5 -45t30.5 -118q0 -27 -7 -82.5t-9 -124.5q-4 -61 -7 -124t-3 -124l135 59q174 76 209 94.5t82 49.5q6 352 42 446t126 94q61 0 97 -33.5t36 -101.5q0 -20 -3 -40.5t-16 -90.5q-8 -39 -11 -68.5t-1 -56.5l2 -63 q131 47 229.5 69.5t188.5 22.5q129 0 198.5 -78t71.5 -199q0 -172 -139 -374.5t-346 -358.5l-92 -69q-80 -61 -101.5 -69.5t-46.5 -16.5q-98 -53 -164.5 17.5t-66.5 193.5l-4 376l4 162q-100 -49 -202.5 -108.5t-213.5 -118.5q-4 -18 11.5 -107.5t21.5 -244.5v-29.5v-34.5 q-4 -84 -43 -128t-119 -44q-70 2 -101.5 43t-31.5 119q0 12 2 35.5t2 36.5q-2 70 -19.5 265t-17.5 288zM1126 815q2 -109 10.5 -269.5t14.5 -217.5q332 334 359.5 393t27.5 119q-2 31 -11 40t-52 9q-63 0 -177.5 -25.5t-171.5 -48.5z" />
<glyph unicode="&#x153;" horiz-adv-x="1374" d="M33 297q0 51 17.5 78.5t68.5 52.5q-2 39 -2 123v162q0 117 34.5 170t102.5 53q41 -2 71.5 -35t32.5 -98v-53.5v-32.5q-6 -131 -7 -151.5t1 -43.5l62 29q145 68 157.5 77t28.5 21q-2 57 0 96t8 78q-6 80 25 130.5t94 50.5q51 0 83 -32t32 -83q0 -6 -1 -11.5t-5 -46.5 q-4 -18 -5.5 -38.5t0.5 -44.5q0 -162 0 -161t0 -22q49 39 100.5 55.5t104.5 16.5q125 0 209 -72.5t84 -193.5q0 -184 -142.5 -319.5t-285.5 -135.5q-145 0 -211.5 100.5t-75.5 417.5q-51 -31 -92 -55.5t-155 -91.5q10 -53 23 -154.5t16 -136.5q0 -57 -39 -94t-97 -37 q-51 0 -84.5 33.5t-31.5 97.5v51q0 23 -5.5 68t-7.5 92q-51 0 -79.5 23.5t-28.5 66.5zM856 274q0 -12 4 -32.5t6 -28.5q6 -53 22.5 -71.5t41.5 -18.5q45 0 103.5 81t58.5 134q0 37 -30 60.5t-73 23.5q-37 0 -72.5 -40t-60.5 -108z" />
<glyph unicode="&#x160;" horiz-adv-x="1755" d="M-117 109q0 63 90 233t277 459l285 444q127 199 187 247t130 48q55 0 92 -58.5t82 -496.5l4 -41q98 57 217 94t209 37q127 0 197.5 -78.5t70.5 -197.5q0 -172 -139 -375t-346 -358l-92 -70q-92 -68 -124 -81t-60 -13q-68 0 -110 39.5t-50 107.5l-8 101l-2 77 q-6 166 -27 434.5t-31 335.5l-16 82v17l-6 43q-2 0 11 4t-140 -234q-47 -74 -167 -303t-171 -338l-74 -155q-45 -94 -74.5 -112.5t-66.5 -20.5q-70 2 -109 33.5t-39 95.5zM1053 668l18 -209l8 -201q332 332 357.5 390.5t25.5 117.5q0 31 -10 39t-51 10q-66 0 -159 -39.5 t-189 -107.5z" />
<glyph unicode="&#x161;" horiz-adv-x="1202" d="M-85 -4q-3 47 40 135l111 217q158 311 281.5 463t227.5 152q41 -2 62.5 -34t21.5 -134v-74l3 -174q27 49 73.5 68.5t126.5 21.5q141 0 218 -78t77 -188q0 -184 -142.5 -319.5t-285.5 -135.5q-135 2 -201.5 83t-93.5 566q-51 -68 -96 -137.5t-92 -157.5l-144 -260 q-18 -31 -47.5 -47t-77.5 -16q-59 2 -62 49zM684 274q0 -12 4 -32.5t6 -28.5q6 -51 22.5 -70.5t41.5 -19.5q39 0 99.5 78t60.5 137q0 37 -28 60.5t-73 23.5q-37 0 -73.5 -41t-59.5 -107z" />
<glyph unicode="&#x178;" horiz-adv-x="948" d="M76 629q-20 188 12.5 242.5t108.5 54.5q55 0 93 -52.5t42 -125.5l8 -222q2 -88 2 -194.5t-2 -212.5q215 59 214 59t64 29q0 240 -25.5 346t-25.5 287q-2 57 36 93t97 36q55 0 86 -36t33 -93v-52q-2 -180 8.5 -208.5t8.5 -300.5q47 -2 75.5 -26t28.5 -65 q0 -59 -24.5 -90.5t-102.5 -54.5l-141 -43q6 -92 -9.5 -171t-130.5 -273l-30 -52q-43 -70 -98.5 -65.5t-55.5 74.5q0 10 3 22t24 53l20 43q18 39 32.5 106.5t14.5 115.5q0 2 0 -2.5t-10 75.5q-119 -33 -153.5 -39t-57.5 -8q-57 0 -86 35t-29 80q-2 4 -1 5t10 52q2 14 3 32.5 t1 51.5q-2 145 -17.5 264t-15.5 129z" />
<glyph unicode="&#x192;" horiz-adv-x="913" d="M-14 373q0 14 7 27.5t218 144.5q96 573 218 732t314 159q90 0 156 -88t66 -211q0 -55 -35 -86t-99 -29q-39 0 -63.5 26.5t-36.5 98.5q-10 66 -16 73t-17 7q-59 0 -126.5 -171t-98.5 -419q160 51 185.5 59.5t37.5 10.5h13.5h15.5q39 -4 56.5 -26t17.5 -67q0 -41 -36 -75.5 t-314 -139.5q-14 -115 -21.5 -186.5t-17.5 -196.5q-2 -43 -6.5 -74.5t-14.5 -111.5q-2 -18 -3 -30.5t-15 -155.5q-12 -137 -47 -190.5t-115 -53.5q-51 0 -77 45t-26 123q-2 86 18.5 266t63.5 488q-27 -14 -69.5 -26.5t-69.5 -12.5q-33 0 -48 22.5t-15 67.5z" />
<glyph unicode="&#x2c6;" horiz-adv-x="647" d="M0 1155q0 29 94 112t133 140q49 70 77 82t69 14q35 -2 35 -1t137 -146l49 -53q23 -27 38 -53.5t15 -45.5q0 -55 -32.5 -95t-90.5 -40q-39 0 -77 13t-54 38l-35 45q-37 47 -41 53.5t-6 14.5q-172 -172 -185 -176t-26 -4q-47 0 -73.5 26.5t-26.5 75.5z" />
<glyph unicode="&#x2dc;" horiz-adv-x="731" d="M0 1221q0 80 133 121.5t250 -9.5l31 -24q8 -8 20 -15.5t19 -5.5q18 0 61 32t66 56q53 39 102 26t49 -50q0 -104 -157.5 -216t-280.5 -44q-16 12 -32.5 18t-43.5 6q-20 -2 -45 -7t-33 -5q-4 -2 -12 -1t-10 1q-4 -2 -14.5 -2h-14.5q-43 0 -65.5 37t-22.5 82z" />
<glyph unicode="&#x410;" horiz-adv-x="1245" d="M88 180q0 25 8 64t357 1063q74 219 122 274t117 55q68 0 123 -69.5t180 -421.5l54 -152q492 203 497.5 204t12.5 1q33 0 55 -22.5t22 -53.5q0 -23 -21.5 -45t-506.5 -274l51 -174q141 -481 141 -481.5v-2.5q0 -61 -50 -111t-109 -50q-53 0 -94 35.5t-173 490.5l-40 141 q-74 -49 -166.5 -106t-151.5 -90l-92 -52q-61 -328 -106.5 -360.5t-114.5 -32.5q-45 0 -80 47t-35 123zM516 713q37 23 62.5 38t74.5 40q41 23 63.5 36t57.5 35q-127 367 -112 363l16 -4q-4 0 -11.5 -37t-17.5 -66q-4 -12 -18.5 -47t-30.5 -82q-14 -47 -40 -128.5 t-44 -147.5z" />
<glyph unicode="&#x411;" horiz-adv-x="1169" d="M-74 1196q0 31 18.5 57.5t63.5 57.5l164 100q143 88 335.5 154.5t326.5 66.5q76 0 127 -22.5t51 -55.5q-2 -96 -41 -126.5t-119 -45.5l-170 -32q-39 -8 -106.5 -31t-159.5 -57q8 -82 11 -162t3 -156q96 51 221 91t199 42q121 0 196.5 -75.5t75.5 -198.5 q0 -180 -307 -540.5t-504 -360.5q-74 0 -106.5 50t-32.5 161l-2 1032q-55 -35 -85 -48.5t-48 -11.5q-47 0 -79 32t-32 79zM416 227q285 229 363.5 340t78.5 207q0 18 -7 28.5t-46 10.5q-100 0 -185 -38t-198 -126z" />
<glyph unicode="&#x412;" horiz-adv-x="1185" d="M-121 1159q0 100 376 286.5t552 186.5q78 0 129 -50t51 -124q-2 -88 -63.5 -202.5t-153.5 -192.5q150 43 259.5 -29.5t109.5 -230.5q0 -180 -307.5 -540.5t-503.5 -360.5q-68 0 -104 49t-36 162l-2 1032q-76 -47 -126 -70.5t-72 -23.5q-45 0 -77 30.5t-32 77.5zM432 227 q289 233 365.5 338t76.5 209q0 20 -13 29.5t-40 9.5q-90 0 -182 -40t-201 -124zM436 1274l4 -287q236 295 258.5 334t22.5 61l-15 6q-16 7 -270 -114z" />
<glyph unicode="&#x413;" horiz-adv-x="796" d="M94 1284q0 18 20.5 40t67.5 50q10 72 39 105.5t88 33.5q23 0 54.5 -14t58.5 -33q96 43 162.5 71t251.5 95l102 37q23 8 55.5 16.5t46.5 8.5q39 0 67 -27t28 -65q0 -29 -22 -51.5t-77 -45.5l-67 -28q-231 -98 -347 -159t-192 -128q-14 -184 -17 -392t9 -325l14 -160 q14 -182 -25.5 -248.5t-140.5 -66.5q-59 0 -91 43t-27 125l8 297q8 307 15 459.5t7 224.5q-33 25 -60.5 67.5t-27.5 69.5z" />
<glyph unicode="&#x414;" horiz-adv-x="1112" d="M-242 8q0 35 37 66.5t109 44.5l55 8q-2 57 21.5 156.5t222.5 746.5q156 516 205 560t104 46q76 0 142 -91t177 -392l183 -508q27 -80 47 -140.5t41 -125.5l92 8q88 6 144.5 -16.5t56.5 -65.5q0 -39 -29 -62.5t-190 -58.5q-18 -92 -59.5 -138t-98.5 -46q-51 0 -95 27.5 t-67 87.5q-299 -59 -519 -122t-298 -77l-105 -16q-80 -12 -127 20.5t-49 87.5zM260 201l535 121q-14 45 -29.5 93t-32.5 103l-104 322q-113 342 -117 345t-6 3q-20 0 -49 -100.5t-117 -469.5l-51 -210q-4 -16 -7.5 -30.5t-17.5 -141.5z" />
<glyph unicode="&#x415;" horiz-adv-x="1116" d="M134 1304.5q-1 0.5 1 12.5q-2 106 37 158.5t111 52.5q27 0 48 -9.5t40 -27.5q221 68 278.5 90.5t124.5 54.5l98 47q25 12 51.5 18.5t51.5 8.5q39 -2 67.5 -23.5t28.5 -54.5q-2 -37 -16.5 -61.5t-71.5 -52.5l-98 -52q-4 -2 -3 -2t-102 -45q-18 -8 -36.5 -17t-43.5 -22 q-137 -72 -186 -95t-123 -58l-4 -64q-4 -41 -4 -129t4 -149q139 94 253 164.5t208 124.5l59 32q16 8 38 15.5t40 7.5q31 0 52.5 -21.5t23.5 -56.5q0 -37 -14.5 -63.5t-36.5 -45.5l-39 -30q-96 -76 -185.5 -131.5t-191.5 -132.5l-193 -146q0 -2 2.5 -77.5t6.5 -145.5l2 -37 q98 84 200.5 162t180.5 121l196 110q37 20 73 35.5t56 15.5q41 -2 65.5 -27.5t24.5 -60.5q0 -23 -10 -41t-65 -57l-56 -39q-6 -4 5.5 3t-666.5 -505l-68 -51q-70 -51 -133 -23.5t-63 124.5l-7 385q-6 258 -5 252.5t1 3.5q-2 35 -1 148.5t1 180.5q-6 225 -7 225.5z" />
<glyph unicode="&#x416;" horiz-adv-x="1533" d="M-92 119q0 133 147.5 327.5t364.5 333.5q-115 100 -209 271.5t-92 283.5q0 59 41 98.5t106 39.5q45 0 80 -30t78 -155q20 -68 57 -135.5t129 -194.5l-8 365q-4 92 32 145.5t103 53.5q63 0 97.5 -34t42.5 -95l18 -406q53 63 113.5 144t160.5 225l84 119q59 84 140.5 57 t81.5 -96q-2 -94 -159 -304t-284 -315q178 -63 347 -197.5t300 -318.5l54 -76q55 -82 25.5 -161.5t-107.5 -79.5h-59.5t-141.5 163l-117 136q-94 106 -200.5 183t-221.5 124q14 -193 28.5 -288t14.5 -107q0 -115 -51 -168.5t-149 -53.5q-70 0 -96.5 57.5t-43.5 563.5 q-127 -66 -227 -174.5t-162 -235.5l-37 -75q-49 -98 -77.5 -122t-69.5 -24q-53 0 -93 41t-40 115z" />
<glyph unicode="&#x417;" horiz-adv-x="1003" d="M-39 1249q0 37 16.5 62.5t61.5 56.5l125 80q125 80 276.5 143.5t241.5 65.5q84 0 130 -49t48 -133q-2 -88 -52 -185.5t-151 -206.5q123 53 239 -7t116 -199q0 -178 -152 -400.5t-377 -406.5l-131 -107q-127 -100 -237.5 -60t-104.5 144q0 37 22.5 62.5t90.5 44.5 q127 35 372.5 260t245.5 374q0 29 -20.5 41.5t-65.5 14.5q-57 0 -125.5 -33t-130.5 -90l-43 -39q-31 -27 -60.5 -40t-62.5 -13q-70 0 -100.5 71.5t29.5 135.5l69 73q188 199 272.5 304.5t102.5 170.5v10.5v6.5q-2 0 -4 1t-6 1q-33 -2 -151.5 -61.5t-254.5 -137.5l-63 -37 q-72 -43 -119 -17t-47 99z" />
<glyph unicode="&#x418;" horiz-adv-x="1363" d="M94 1126q-27 141 6 232.5t133 91.5q78 0 129.5 -44t51.5 -126q-2 -96 -7.5 -110.5t-5.5 -75.5q-2 -76 11.5 -213.5t19.5 -251.5q25 51 44.5 75.5t80.5 133.5l84 149q117 209 275.5 381t244.5 172q41 0 72 -15.5t31 -37.5q0 -86 -10.5 -121t-28.5 -55l55 -1045 q8 -195 -20.5 -253t-90.5 -60q-70 0 -111.5 46t-49.5 134l-13 109q-8 68 -13 145.5t-15 677.5q-14 -23 -24.5 -38t-141.5 -249l-99 -174q-246 -434 -247.5 -447.5t-1.5 -19.5l-2 -35q-4 -68 -31 -88t-74 -20q-82 0 -132 44t-52 124l-35 682q-4 70 -12.5 140.5t-20.5 141.5z " />
<glyph unicode="&#x419;" horiz-adv-x="1327" d="M90 1147q-23 164 18.5 241.5t131.5 77.5q106 0 146 -193.5t22 -608.5l135 180l116 155q291 387 350.5 449.5t104.5 62.5q59 -2 88 -37.5t29 -117.5q0 -59 -4 -151.5t-4 -188.5q-2 -150 8 -404t12 -366q0 -201 -28.5 -255t-92.5 -54q-63 0 -107 46t-48 138l-6 110 q-12 199 -12.5 246t1.5 111q0 29 2 86t4 88v10t5 244q-80 -123 -107 -163t-47 -69l-129 -184q-113 -162 -187.5 -290t-76.5 -167l-2 -32q-4 -59 -30 -81t-79 -22q-78 0 -129 45t-51 127l-10 684q-2 43 -10.5 140.5t-12.5 142.5zM412 1624q0 47 35.5 76t89.5 31 q14 -2 31.5 -5.5t64.5 -19.5q23 -10 40 -13t32 -3q4 0 12 2t98 59q55 35 101.5 52.5t80.5 19.5q37 0 65 -22.5t28 -53.5q0 -49 -94.5 -141t-170.5 -131q-47 -25 -95 -37.5t-93 -12.5q-98 0 -161.5 55.5t-63.5 143.5z" />
<glyph unicode="&#x41a;" horiz-adv-x="1146" d="M143 1323q-2 94 31 146.5t102 52.5q63 0 98.5 -31.5t43.5 -97.5l20 -410q8 10 28.5 37t33.5 43q10 14 36.5 47t38.5 49q55 72 84 121t60 92l74 103q61 86 141 57t80 -96q0 -104 -147.5 -304t-297.5 -313q250 -86 494 -323.5t244 -393.5q0 -55 -35 -86.5t-80 -31.5 q-23 0 -41 6t-158 153l-119 127q-88 92 -173 154.5t-246 157.5q10 -170 25.5 -256t15.5 -131q0 -115 -52.5 -167.5t-150.5 -54.5q-80 0 -109.5 90.5t-36.5 854.5z" />
<glyph unicode="&#x41b;" horiz-adv-x="1087" d="M-35 160q0 41 41 193.5t123 408.5l160 502q86 272 128 320t103 48q70 -2 130.5 -80.5t180.5 -412.5l179 -496q111 -313 133 -384t22 -105q0 -66 -44 -107t-103 -41q-51 0 -87 26.5t-79 155.5l-53 158q-219 645 -232.5 678t-21.5 55q-57 125 -57 126l-1 1q-2 0 -4 -1 t-59 -251q-23 -90 -69 -274t-74 -334l-33 -168q-23 -109 -66 -143.5t-102 -34.5q-53 0 -84 43t-31 117z" />
<glyph unicode="&#x41c;" horiz-adv-x="1587" d="M123 195q0 152 12 327.5t17 343.5l6 414q0 135 47 200.5t137 65.5q39 0 67.5 -15t49.5 -58l10 -25l389 -506q317 416 322.5 430t7.5 17l20 61q33 102 79 152.5t108 50.5q55 0 93 -48.5t38 -117.5q0 -197 -35 -366t-35 -400q-2 -201 18.5 -317.5t22.5 -176.5 q0 -88 -48 -140t-122 -50q-82 0 -120 87t-38 304q0 147 14.5 305t18.5 375q-129 -279 -222 -401.5t-165 -122.5h-11t-378 469q-16 -215 -19.5 -357.5t-3.5 -310.5q-2 -92 7.5 -159.5t11.5 -86.5q0 -57 -52.5 -99t-103.5 -42q-61 0 -103 49t-40 148z" />
<glyph unicode="&#x41d;" horiz-adv-x="1257" d="M129 1000q-4 460 197 460q51 0 81.5 -44t30.5 -120q0 -6 -1 -8t-15 -198q-4 -37 -6 -91.5t-4 -156.5l135 59q193 84 225.5 102.5t65.5 40.5q6 338 40.5 438.5t127.5 102.5q63 0 98 -33.5t35 -101.5q0 -29 -9.5 -75t-9.5 -56q-4 -20 -6 -64.5t-4 -64.5l-4 -29 q35 -23 58.5 -46t23.5 -44q-2 -27 -20.5 -58.5t-45.5 -47.5q4 -109 4 -118t2 -18q0 -23 1 -62.5t4 -55.5q2 -45 3 -78t7 -123q4 -74 9 -155t5 -105q0 -106 -46 -159.5t-116 -53.5q-66 0 -109.5 58.5t-43.5 172.5l-4 377q-2 20 1 68.5t3 93.5q-80 -41 -143.5 -76t-270.5 -151 q33 -428 33 -419t0 3q0 -86 -44 -129t-118 -43q-68 0 -101.5 40t-31.5 122q0 12 1 35.5t3 35.5q0 59 -18.5 171t-18.5 382q0 -238 -4 222z" />
<glyph unicode="&#x41e;" horiz-adv-x="1327" d="M72 692q0 223 147.5 533.5t300.5 310.5q20 0 46 -9.5t42 -21.5l10 -8q0 -2 50.5 13.5t103.5 15.5q197 0 340 -188.5t143 -458.5q0 -369 -207.5 -620t-482.5 -251q-238 0 -365.5 204t-127.5 480zM356 745q0 -205 75 -330.5t192 -125.5q154 0 273.5 154.5t119.5 381.5 q-2 199 -87 345.5t-227 148.5q-25 0 -34 -3t-13 -9l-16 -19q-20 -23 -48 -29t-65 5q-76 -104 -124 -247t-46 -272z" />
<glyph unicode="&#x41f;" horiz-adv-x="1210" d="M-307 1061q0 49 29.5 85t80.5 52l134 57q502 215 761.5 287t450.5 74q66 -2 88.5 -15.5t22.5 -39.5q0 -35 -15.5 -52.5t-42.5 -23.5l-80 -23q-4 -2 -2 -1t-8 -167q-2 -16 -2 -34.5v-98.5q0 -551 9 -682t34 -217l8 -31q25 -96 -18 -158.5t-121 -62.5q-123 0 -162 168 t-39 1036v86l-2 60q-104 -37 -209.5 -78t-212.5 -88q12 -162 21.5 -330t9.5 -258q0 -408 -42 -522.5t-126 -114.5q-55 0 -89 50.5t-34 637.5v435q-39 -18 -72.5 -35t-74.5 -37l-111 -55q-72 -37 -129 -5.5t-57 101.5z" />
<glyph unicode="&#x420;" horiz-adv-x="985" d="M31 1214q0 29 12 54.5t43 50.5l207 156q135 102 342 185t364 83q102 0 163 -56.5t61 -160.5q0 -170 -245 -424t-542 -428q2 -117 0 -214.5t0 -148.5q0 -39 1 -64.5t7 -56.5q6 -27 9.5 -47t3.5 -39q0 -55 -37 -84.5t-92 -29.5q-86 2 -125 47t-39 139q0 20 5 64.5t7 68.5 l10 111v4v63q-2 39 -2 56.5t-4 44.5q-2 23 -3 35t-1 32q-18 16 -26.5 38t-8.5 42q0 25 9.5 48.5t29.5 41.5l4 310q-72 -18 -112.5 3t-40.5 76zM440 965q199 127 362 293.5t163 246.5q0 12 -7.5 16.5t-19.5 4.5q-104 0 -224 -58.5t-257 -167.5q-10 -84 -14.5 -165.5 t-2.5 -169.5z" />
<glyph unicode="&#x421;" horiz-adv-x="1216" d="M84 680q-2 362 226.5 628.5t518.5 266.5q137 0 225.5 -47t88.5 -113q0 -45 -21.5 -75.5t-60.5 -30.5q-51 0 -96 11t-105 11q-199 0 -337 -157.5t-138 -409.5q0 -213 95 -337t261 -124q78 0 152 33t199 166q61 63 68 66t18 3q31 0 55 -20.5t24 -42.5q0 -8 -2 -16.5 t-2 -14.5q-51 -203 -228 -334t-382 -129q-254 0 -406.5 180.5t-152.5 485.5z" />
<glyph unicode="&#x422;" horiz-adv-x="917" d="M-225 1110q0 45 25.5 76.5t84.5 58.5l133 58q655 283 914.5 358.5t445.5 75.5q59 0 84 -13.5t27 -42.5q0 -33 -15.5 -52t-41.5 -25l-80 -23q-137 -39 -356.5 -120t-368.5 -146q8 -217 14 -400.5t8 -275.5q-2 -444 -42 -533.5t-115 -89.5q-55 0 -91 52.5t-34 709.5v430 q-39 -16 -66 -28.5t-229 -112.5l-111 -55q-78 -41 -132 -3t-54 101z" />
<glyph unicode="&#x423;" horiz-adv-x="901" d="M29 1303q-2 55 40 101t107 46q41 0 69.5 -17.5t65.5 -76.5l86 -139q51 -86 73 -129.5t54 -83.5q94 330 92 325.5t2 3.5l52 160q20 63 46.5 87t63.5 24q51 0 82 -30t31 -79q0 -2 -1 -27.5t-128 -511.5l-53 -202q12 -18 19 -42t9 -44q-2 -23 -19.5 -46.5t-43.5 -39.5 q-49 -86 -99.5 -208t-97.5 -278l-78 -250q-23 -68 -50 -101.5t-68 -47.5q-61 -20 -85 28t1 121l96 306q16 57 49 186t78 321l-92 136q-156 225 -228.5 346t-72.5 162z" />
<glyph unicode="&#x424;" horiz-adv-x="1480" d="M-43 547q2 217 190.5 412.5t483.5 306.5l-2 67l-8 41q-18 88 13.5 133t108.5 45q70 0 113 -34.5t43 -87.5q0 -10 -2 -29t0 -41q90 27 187.5 45t175.5 18q150 0 223 -77.5t73 -210.5q0 -221 -205.5 -444.5t-469.5 -340.5q-2 -51 -1 -95t7 -69l8 -45q14 -90 -16.5 -134 t-106.5 -44q-86 0 -125 44t-39 140q0 16 4 50l6 51v7v13q-168 -49 -221 -57t-116 -8q-166 0 -244 89t-80 255zM217 563q0 -51 29.5 -80.5t87.5 -29.5q51 0 135 20.5t154 48.5q0 78 2 158t6 162l2 168q-201 -104 -308.5 -218t-107.5 -229zM885 629q190 109 301.5 240.5 t111.5 246.5q0 35 -21.5 51.5t-66.5 16.5q-63 0 -129.5 -17.5t-189.5 -68.5q0 -115 -1 -231.5t-5 -237.5z" />
<glyph unicode="&#x425;" horiz-adv-x="870" d="M-23 -68q0 72 109.5 343t228.5 511l-106 234q-174 377 -179 399.5t-5 42.5q0 55 37.5 92t95.5 37q51 -2 83.5 -24.5t59.5 -89.5l35 -91q55 -145 75.5 -193t47.5 -99q59 94 116.5 202.5t77.5 137.5l31 45q57 84 128 35.5t42 -113.5l-111 -242q-102 -223 -121.5 -262 t-41.5 -80q166 -381 223 -525.5t57 -189.5q-2 -51 -37 -84.5t-82 -33.5q-29 0 -57.5 18t-198.5 383l-55 117l-22 -49q-164 -358 -243 -483.5t-130 -127.5q-25 2 -41.5 25.5t-16.5 64.5z" />
<glyph unicode="&#x426;" horiz-adv-x="1331" d="M78 1219q-23 106 21 162.5t120 56.5q84 0 126 -67.5t46 -242.5q2 -115 2 -427v-388l-2 -112q176 47 253 73.5t165 65.5q-6 100 -9 274t-3 285q0 360 40 497.5t136 139.5q51 0 81.5 -39t30.5 -131q0 -233 -1 -350t-1 -172l-8 -434q33 16 55.5 26.5t40.5 20.5l58 26 q88 41 146.5 -11t58.5 -167q0 -25 -6.5 -51.5t-67.5 -200.5l-55 -155q-16 -45 -50 -73t-69 -28q-41 0 -67.5 35t-26.5 90q-2 41 15 116t44 157q-254 -104 -496.5 -173t-378.5 -71q-94 0 -132 43t-42 139q-2 18 -2 40t2 63q2 100 3 155t4 266q0 362 -6.5 414.5t-18.5 116.5z " />
<glyph unicode="&#x427;" horiz-adv-x="1177" d="M45 1124q0 125 43 199t135 74q59 0 85 -39t20 -244l-4 -115q-4 -106 25.5 -151t107.5 -45q59 -2 139 34.5t160 94.5q23 459 59.5 527.5t112.5 70.5q61 0 97 -34t36 -101q0 -6 -11.5 -64.5t-19.5 -195.5l-2 -29q45 -29 62.5 -47.5t17.5 -34.5q0 -43 -18.5 -100.5 t-42.5 -87.5q2 -113 6 -201t12 -211q4 -59 9 -133t5 -96q0 -106 -47 -159.5t-114 -53.5q-66 0 -110 58t-44 173l-6 424q-139 -61 -206 -77.5t-132 -16.5q-211 0 -293 137t-82 444z" />
<glyph unicode="&#x428;" horiz-adv-x="1751" d="M113 1085q-31 213 0.5 306.5t117.5 93.5q78 0 128.5 -60.5t58.5 -177.5l18 -323q8 -152 10.5 -317t-0.5 -328q111 23 194 44t155 46q-10 231 -19.5 382.5t-17.5 223.5l-19 141q-8 53 -21 123t-13 94q-2 59 39.5 106.5t105.5 47.5q63 -2 101.5 -31.5t56.5 -105.5l20 -93 q14 -66 20.5 -316.5t6.5 -498.5q205 70 236.5 80t64.5 21q-2 72 -1 137t3 98q0 248 -25.5 403.5t-25.5 182.5q0 70 43 114t102 44q82 0 132 -86t61 -652l6 -364q2 -145 -33 -207.5t-125 -62.5q-53 0 -78.5 22.5t-52.5 79.5q-205 -35 -257 -63.5t-370 -98.5 q-113 -27 -217 -57.5t-186 -30.5q-104 0 -142 49t-30 230l4 112q2 59 -8.5 260t-22.5 289z" />
<glyph unicode="&#x429;" horiz-adv-x="1921" d="M113 1085q-29 217 0.5 308.5t115.5 91.5q78 0 128.5 -60.5t58.5 -177.5l18 -323q8 -152 10 -317t0 -328q92 18 180.5 40.5t170.5 49.5q-31 539 -33 560t-4 46l-19 141q-8 51 -22.5 122t-14.5 95q0 59 41 106.5t107 47.5q63 0 100.5 -29.5t55.5 -107.5l20 -93 q14 -66 20.5 -316.5t6.5 -498.5q205 70 236.5 80t64.5 21q-2 68 0 136.5t2 98.5q0 289 -25.5 418t-25.5 168q0 70 44 114t101 44q96 0 140 -104.5t52 -633.5l3 -170l88 27q90 27 137 -14t49 -138q0 -43 -25.5 -119.5t-68.5 -168.5l-92 -191q-25 -47 -61 -79.5t-64 -32.5 q-39 0 -67 39.5t-25 91.5q0 49 34.5 138t55.5 173q-129 -53 -398.5 -130t-472.5 -120q-403 -90 -398 -89t-5 1q-111 0 -146.5 52t-27.5 227l4 112q2 74 -10.5 275.5t-20.5 273.5z" />
<glyph unicode="&#x42a;" horiz-adv-x="1245" d="M-203 1257q0 39 30 75t87 59l369 135q14 18 38.5 29.5t57.5 11.5q78 0 110.5 -93.5t26.5 -459.5q125 59 226.5 89t211.5 30q125 0 192.5 -80t67.5 -205q-2 -166 -154.5 -374t-357.5 -345l-94 -63q-98 -66 -127.5 -76t-58.5 -13q-74 0 -115 47.5t-41 168.5l-12 1083 q-43 -20 -88 -41t-72 -31l-112 -51q-68 -33 -126.5 2t-58.5 102zM510 299q332 266 386 353t54 173q0 29 -14 40.5t-45 11.5q-76 0 -178.5 -42t-198.5 -112z" />
<glyph unicode="&#x42b;" horiz-adv-x="1538" d="M100 1272q-12 180 15.5 230t97.5 52q61 -2 98 -60t68 -495q106 49 225 80t205 33q129 0 201.5 -88t72.5 -221q0 -154 -109.5 -314.5t-363.5 -353.5l-92 -69q-111 -82 -134.5 -89.5t-47.5 -7.5q-82 0 -120 46t-44 159zM389 715l19 -428q287 219 350 310t63 171 q0 55 -13 69.5t-50 14.5q-70 0 -182.5 -44t-186.5 -93zM1126 1288q-8 92 30 153.5t101 63.5q82 0 126 -51t42 -158q-2 -31 -2 -63.5t2 -71.5q6 -346 20.5 -557t41.5 -342l6 -31q20 -111 -16.5 -167t-118.5 -56q-72 0 -110 38t-52 136l-18 123q-20 131 -23.5 405.5 t-15.5 432.5z" />
<glyph unicode="&#x42c;" horiz-adv-x="1101" d="M96 1282q-10 180 16.5 230.5t100.5 50.5q78 -2 111.5 -81t46.5 -466q129 68 236.5 100.5t195.5 32.5q121 0 193.5 -76t74.5 -201q0 -178 -140 -378.5t-343 -354.5l-92 -69q-84 -63 -119 -79t-66 -16q-74 2 -115.5 46t-45.5 163zM377 725l12 -424q274 231 347 339t75 200 q0 29 -12.5 39t-50.5 10q-70 0 -172.5 -47t-198.5 -117z" />
<glyph unicode="&#x42d;" horiz-adv-x="1224" d="M47 240q-2 41 32 69.5t89 28.5q47 0 90 -20.5t100 -20.5q193 0 329 125t163 326q-109 -27 -240.5 -45.5t-203.5 -38.5l-91 -27q-94 -29 -148 -5.5t-54 87.5q0 61 63.5 103t210.5 67q297 47 344 60.5t100 29.5q-63 106 -150 167.5t-192 61.5q-47 0 -97 -16t-122 -55 q-61 -35 -88.5 -44.5t-50.5 -9.5q-37 0 -61.5 27t-22.5 70q0 98 191.5 191t334.5 93q182 0 339 -105.5t221 -295.5q70 -4 100.5 -27.5t30.5 -64.5q0 -33 -28 -69t-73 -66q-16 -319 -234 -569.5t-558 -248.5q-156 0 -240 63.5t-84 158.5z" />
<glyph unicode="&#x42e;" horiz-adv-x="1863" d="M133 969q-2 35 4 108.5t6 110.5q-2 78 -2 80t2 6q4 92 52.5 145.5t123.5 53.5q51 0 81 -45.5t32 -118.5q0 -27 -8 -83.5t-8 -123.5v-128t4 -134l258 112q45 211 154.5 381t197.5 170q12 0 27.5 -6t50.5 -35l12 -10q55 20 102.5 31.5t82.5 13.5q213 0 351 -168t138 -493 q-2 -373 -169 -605.5t-413 -232.5q-262 0 -421.5 206t-141.5 496q-55 -33 -107.5 -63.5t-101.5 -61.5q2 -63 16.5 -211.5t14.5 -199.5q0 -86 -44 -129t-118 -43q-68 0 -100.5 40t-32.5 122q0 12 2 35.5t2 35.5q0 57 -23.5 342t-23.5 402zM936 760q0 -172 48 -298t140 -169 q23 -12 64 -20.5t67 -8.5q119 0 195 172t76 445q0 166 -70 286.5t-205 120.5q-139 0 -227 -136t-88 -392z" />
<glyph unicode="&#x42f;" horiz-adv-x="1161" d="M-27 59q0 94 137.5 281.5t327.5 374.5q-160 -8 -258 85t-98 228q-2 246 228.5 399.5t631.5 153.5q133 0 192.5 -37t59.5 -102q0 -35 -16.5 -55.5t-133.5 -59.5l7 -309q35 -23 63.5 -58.5t28.5 -68.5q0 -35 -19.5 -60.5t-68.5 -50.5q-4 -82 -3 -199.5t7 -283.5l2 -76 q2 -131 -30 -169t-105 -38q-74 -2 -113 23.5t-39 71.5q0 14 2 28.5t31 63.5l10 18q2 4 2 9t2 16q0 12 -5 52t-5 101q-2 10 -5 87t-7 198q-111 -74 -238 -211t-215 -270l-96 -144q-84 -123 -103.5 -131t-46.5 -8q-59 0 -93 39t-34 102zM354 1051q0 -43 27 -65.5t119 -20.5 q84 -2 151.5 9t151.5 40l-6 299q-209 -18 -326 -91t-117 -171z" />
<glyph unicode="&#x430;" horiz-adv-x="1001" d="M45 246q0 168 171 297t411 108v78q0 53 -21.5 72.5t-70.5 19.5q-51 0 -108.5 -17.5t-131.5 -55.5q-80 -43 -130 -18.5t-50 93.5q-2 84 157.5 150.5t311.5 66.5q150 -2 220 -94t73 -287v-235q55 4 92 -32t37 -79t-29 -73.5t-107 -63.5v-37q-2 -86 -39.5 -130t-107.5 -44 q-51 0 -82 25.5t-41 70.5q-66 -27 -131.5 -40t-122.5 -13q-129 0 -215 63.5t-86 174.5zM301 287q0 -25 17.5 -40.5t48.5 -15.5q55 0 123.5 18.5t125.5 49.5v14q0 76 -23.5 96.5t-76.5 20.5q-78 0 -146.5 -48t-68.5 -95z" />
<glyph unicode="&#x431;" horiz-adv-x="935" d="M47 322q0 156 123 341t299 291q-158 176 -176.5 214t-18.5 71q0 84 325 272.5t427 188.5q47 0 80 -33t33 -78q0 -29 -19.5 -56.5t-247.5 -148.5q-315 -168 -321 -177t-6 -17q0 -10 15 -29.5t91 -97.5q10 2 42 18.5t52 16.5q37 0 69 -47t32 -101q-2 -12 -20.5 -27.5 t-22.5 -23.5q-2 -2 -2 -3v-1q35 -55 55.5 -120.5t20.5 -137.5q0 -70 -27 -159t-74 -175q-84 -152 -208 -226.5t-253 -74.5q-127 0 -197.5 83t-70.5 237zM315 336q0 -51 16.5 -74.5t49.5 -23.5q84 0 172 140t88 277q0 31 -7.5 59.5t-19.5 57.5q-141 -102 -220 -215t-79 -221z " />
<glyph unicode="&#x432;" horiz-adv-x="978" d="M82 1028q0 250 75.5 360.5t229.5 110.5q143 0 237.5 -89t94.5 -245q0 -76 -22.5 -136t-69.5 -111q125 39 217 -35t94 -232q0 -168 -192.5 -418.5t-387.5 -252.5q-160 0 -218 241.5t-58 806.5zM336 823q0 -39 2 -86l37 21q-59 88 17.5 203.5t76.5 189.5q-2 53 -16.5 83 t-40.5 30q-39 0 -58.5 -45t-17.5 -121v-275zM354 489q10 -129 24.5 -173t37.5 -44q45 0 154.5 132.5t109.5 238.5q0 27 -9 39t-28 12q-8 -2 -15 -4t-136 -127q-39 -39 -70 -55t-68 -19z" />
<glyph unicode="&#x433;" horiz-adv-x="593" d="M2 778q0 49 24.5 83t88.5 61l84 34q166 68 312 110t245 42q59 0 80.5 -17.5t23.5 -52.5q0 -33 -13 -56.5t-40 -31.5l-55 -18q-104 -35 -205 -73t-187 -75q18 -195 26.5 -316.5t8.5 -244.5q0 -203 -25.5 -258t-78.5 -55q-57 0 -96 42t-62 599l-6 143q-49 -10 -87 12.5 t-38 71.5z" />
<glyph unicode="&#x434;" horiz-adv-x="925" d="M-98 1270q2 68 85 114t220 46q260 0 451.5 -236t193.5 -569q-2 -276 -127 -451.5t-322 -175.5q-158 0 -262 128t-104 300q0 186 118.5 323.5t254.5 137.5q47 0 78.5 -22.5t31.5 -63.5q0 -35 -11 -53.5t-38 -30.5l-68 -35q-43 -23 -69.5 -83t-26.5 -120q0 -94 35 -154.5 t96 -60.5q78 0 129 97.5t51 256.5q-2 211 -125.5 413t-279.5 202q-23 0 -50.5 -5t-43.5 -11l-49 -19q-68 -27 -118 -5.5t-50 77.5z" />
<glyph unicode="&#x435;" horiz-adv-x="755" d="M53 387q0 246 145.5 427t321.5 181q74 0 127 -44t53 -109q-2 -90 -91 -220t-281 -317q23 -45 46 -59.5t62 -14.5q49 0 111.5 20.5t167.5 82.5q53 31 94 7t41 -77q0 -16 -8.5 -32t-28.5 -39q-68 -78 -193.5 -133.5t-226.5 -55.5q-154 0 -247 98.5t-93 284.5zM311 561 q98 117 94 111t-2 -2l37 47l27 43q-49 6 -102.5 -63.5t-53.5 -135.5z" />
<glyph unicode="&#x436;" horiz-adv-x="1312" d="M55 102q0 121 66.5 228.5t187.5 146.5q-113 35 -182.5 127t-67.5 205q0 74 89.5 102.5t121.5 -65.5l21 -60q29 -88 80 -131t135 -53l-6 74q-6 70 -7 75t-1 13q-8 39 -7.5 39t0.5 2q-8 70 22 114t87 44q66 0 95.5 -29t35.5 -90q2 -33 4 -110t6 -126q98 70 150.5 122 t87.5 112l41 71q51 90 129 65.5t78 -97.5q0 -92 -93.5 -205t-171.5 -148q139 -31 237.5 -169t98.5 -263q0 -63 -35.5 -97t-91.5 -34q-45 0 -70.5 21.5t-39.5 79.5q-37 135 -114 205.5t-189 76.5q12 -113 18 -164t6 -71q0 -70 -40 -110t-91 -40q-78 0 -110.5 43t-28.5 197 l2 135q-106 -35 -155.5 -91.5t-61.5 -160.5q-10 -70 -34 -92.5t-64 -22.5q-63 0 -101.5 32t-36.5 99z" />
<glyph unicode="&#x437;" horiz-adv-x="915" d="M-139 -293q0 23 12 38t274 85q217 59 349.5 162.5t132.5 238.5q0 82 -36 122t-99 40q-31 -2 -68 -11t-74 -28q-86 -45 -97 -47t-22 -2q-41 0 -69.5 27.5t-28.5 70.5q0 25 7.5 43.5t47.5 59.5l70 67q90 88 112.5 117t22.5 58q0 18 -7 26t-34 10q-25 0 -62.5 -15t-66.5 -34 l-57 -39q-70 -47 -130.5 -21.5t-60.5 91.5q0 39 21 68.5t74 54.5l80 37q98 45 157.5 61.5t116.5 16.5q100 0 159.5 -52.5t61.5 -146.5q-2 -55 -21.5 -105.5t-60.5 -93.5q133 41 227.5 -64.5t94.5 -252.5q0 -285 -287 -469.5t-649 -184.5q-43 0 -66.5 18.5t-23.5 53.5z" />
<glyph unicode="&#x438;" horiz-adv-x="921" d="M100 764q-2 109 34 163t102 54q70 -2 98 -45t31 -201v-241q0 -135 18 -187.5t63 -52.5q57 0 85 67.5t26 284.5l-2 146q-2 117 28.5 167t100.5 50q59 0 91 -44t32 -141v-147q-2 -111 6.5 -183.5t22.5 -131.5l20 -89q31 -135 1 -200.5t-118 -65.5q-53 0 -89 40t-36 114 q-51 -55 -113.5 -86t-125.5 -31q-145 0 -208 127t-65 412z" />
<glyph unicode="&#x439;" horiz-adv-x="978" d="M106 500l5 209q2 117 35.5 170t105.5 55q63 -2 94 -43t25 -205l-9 -186q-6 -119 24 -186.5t85 -65.5q74 0 105.5 83t23.5 287l-6 146q-6 115 22.5 171t96.5 56q59 0 86.5 -31.5t36.5 -154.5l10 -182q2 -55 14.5 -134.5t28.5 -134.5l22 -86q29 -119 -7 -181t-103 -62 q-45 0 -84 25.5t-60 80.5q-47 -70 -115.5 -104.5t-142.5 -34.5q-143 0 -221 138t-72 370zM240 1122q0 55 29.5 87t76.5 32q4 0 9 -1t73 -28q37 -16 44 -17t13 -1q123 0 151 61.5t95 61.5q29 0 50.5 -21.5t21.5 -46.5q0 -45 -85 -135t-138 -121q-39 -23 -72 -33t-62 -10 q-88 0 -147 50.5t-59 121.5z" />
<glyph unicode="&#x43a;" horiz-adv-x="985" d="M85 760.5q-1 21.5 1 48.5q0 72 24.5 113t84.5 41q66 0 94 -29t37 -90q2 -33 3 -78t5 -166q147 82 204.5 131t108.5 121l55 76q51 70 128 62.5t77 -81.5q0 -96 -107.5 -221t-197.5 -153q147 -27 255 -155t108 -276q0 -59 -35 -94t-92 -37q-41 0 -69 20.5t-42 80.5 q-41 145 -136 209.5t-231 60.5q6 -41 15.5 -121t9.5 -106q-2 -70 -43 -112t-98 -42q-74 0 -106 40t-32 200q-2 98 -6 228t-8 228q-6 80 -7 101.5z" />
<glyph unicode="&#x43b;" horiz-adv-x="774" d="M34.5 24.5q-18.5 36.5 2.5 133.5l31 147q76 365 161.5 545t171.5 180q39 0 67 -20.5t58 -116.5l23 -72q170 -545 185.5 -601t15.5 -85q0 -57 -34 -96t-85 -39q-41 0 -68 17.5t-43 80.5l-33 111q-23 72 -65.5 193.5t-61.5 179.5q-31 -84 -56 -161t-42 -142l-53 -199 q-14 -49 -40 -71.5t-65 -22.5q-51 2 -69.5 38.5z" />
<glyph unicode="&#x43c;" horiz-adv-x="1132" d="M63 123l5 61q4 88 29.5 264.5t49.5 260.5l31 112q20 80 56 118t120 38q47 0 71 -23.5t40 -74.5l20 -72q6 -25 21.5 -105.5t58.5 -214.5q2 8 0 1t86 241l33 92q37 104 63.5 125t71.5 23q39 0 65.5 -21.5t39.5 -58.5l16 -60q4 -23 10 -45t31 -133q18 -80 28.5 -107.5 t28.5 -111.5l25 -119q35 -176 10.5 -239.5t-102.5 -63.5q-66 0 -105 41t-49 119l-39 260l-10 76q-133 -360 -165 -401.5t-79 -41.5q-51 0 -79.5 28t-47.5 99q-18 59 -36.5 141.5t-30.5 160.5q-8 -57 -12.5 -102.5t-8.5 -229.5l-2 -66q-2 -55 -45 -87t-94 -32q-53 0 -82 36 t-23 112z" />
<glyph unicode="&#x43d;" horiz-adv-x="978" d="M33 371q0 51 17.5 78.5t68.5 52.5q-2 39 -3 123t1 161q0 117 34.5 169.5t102.5 54.5q45 0 75.5 -38t30.5 -95q-2 -29 -3 -59t-3 -58q-2 -49 -3 -87t1 -77l62 29q145 68 157.5 77t28.5 21q-6 209 22.5 281.5t104.5 72.5q51 -2 83 -32.5t32 -81.5q-2 -6 -2 -10.5t-4 -47.5 q-4 -18 -5.5 -37.5t0.5 -46.5q0 -16 -1 -15t36 -403l11 -118q16 -193 -13.5 -244t-105.5 -53q-53 0 -90 46t-47 132q-6 43 -7.5 136t2.5 208q-217 -131 -227 -137t-22 -13q39 -295 39 -290.5t0 0.5q-2 -59 -40 -95t-96 -36q-51 0 -83.5 32.5t-32.5 98.5v51q0 23 -5.5 67.5 t-7.5 92.5q-51 0 -79.5 23.5t-28.5 66.5z" />
<glyph unicode="&#x43e;" horiz-adv-x="925" d="M57 451q0 133 74 285.5t164 152.5q45 0 80 -38t37 -75l-4 -12t-25 -37l-25 -33q-25 -31 -39 -89t-14 -116q-2 -113 58.5 -181t132.5 -68t119 88t47 215q0 111 -43 180.5t-121 81.5l-41 6q-70 10 -50.5 95t154.5 85q125 -2 218 -126t93 -322q-2 -225 -120.5 -387 t-288.5 -162q-160 0 -283 139t-123 318z" />
<glyph unicode="&#x43f;" horiz-adv-x="948" d="M8 735q0 45 9.5 67.5t91.5 71.5q8 39 38.5 67t71.5 28q20 0 46 -10.5t52 -26.5l105 35q106 35 183 54t122 21q55 0 85 -32.5t30 -79.5q-2 -70 -8.5 -73t-4.5 -69q0 -147 15.5 -266t17.5 -127l10 -100q18 -190 -14.5 -243.5t-105.5 -53.5q-57 0 -95.5 51t-40.5 127l-8 221 q-4 86 -4 192.5t4 215.5q-217 -61 -216 -61.5t-62 -26.5q-2 -242 24.5 -347.5t26.5 -285.5q0 -59 -39 -95t-94 -36q-49 0 -84 34t-35 97v51q-2 178 -11 207t-5 303q-49 0 -77 23.5t-28 66.5z" />
<glyph unicode="&#x440;" horiz-adv-x="1150" d="M119 688q-10 242 21.5 310.5t119.5 68.5q59 0 92 -35t35 -129q0 -123 -6 -156.5t-4 -76.5q219 248 288.5 287.5t147.5 39.5q123 0 202 -71.5t79 -204.5q0 -291 -210 -513t-405 -222q-41 0 -63.5 20.5t-22.5 61.5q0 35 16.5 65.5t49.5 48.5l104 60q137 78 204 190.5 t67 249.5q0 39 -4.5 56.5t-10.5 19.5q-35 0 -35 -1t-12 -9l-53 -43q-80 -66 -186.5 -216.5t-155.5 -257.5q0 -174 16.5 -441t34.5 -335l14 -55q25 -98 -28.5 -177t-122.5 -79q-66 0 -100.5 46t-34.5 120q0 23 1 66.5t3 64.5q0 37 -2 103.5t-8 252.5z" />
<glyph unicode="&#x441;" horiz-adv-x="915" d="M57 436q0 199 160 366t338 167q84 -2 154.5 -39t70.5 -88q0 -43 -36.5 -76t-79.5 -33q-29 0 -45.5 24.5t-40.5 24.5q-94 0 -173 -99t-79 -198q0 -98 61.5 -160.5t165.5 -62.5q92 0 163.5 38t149.5 38q35 0 61.5 -25.5t26.5 -62.5q-2 -100 -140 -175t-310 -75 q-178 0 -312.5 115.5t-134.5 320.5z" />
<glyph unicode="&#x442;" horiz-adv-x="1306" d="M119 176q0 29 5 151t9 265v24.5v143.5q-2 98 32 134t97 38q68 -2 104.5 -46t28.5 -124q172 117 214 134t77 19q41 0 65.5 -32.5t28.5 -91.5q102 82 168 119.5t111 39.5q78 0 111.5 -47t33.5 -143q0 -190 -14 -264t-14 -136q0 -41 2 -67.5t10 -42.5l10 -27q25 -68 -7 -133 t-122 -65q-80 0 -117 51t-37 147q0 45 8.5 153.5t12.5 237.5v15.5v15.5q-2 25 -3 29t-3 4q-16 0 -68.5 -46t-87.5 -87v-33.5t4 -103.5q0 -61 4 -103.5t6 -75.5q-2 -106 -42.5 -159.5t-96.5 -53.5q-68 0 -98.5 43t-30.5 136q0 141 9.5 213.5t9.5 119.5q0 18 -3.5 28.5 t-7.5 10.5q-10 0 -46 -23.5t-50 -37.5l-51 -53q-4 -59 -4 -108.5t4 -135.5q2 -111 -38 -165t-114 -54q-57 0 -83.5 36.5t-26.5 149.5z" />
<glyph unicode="&#x443;" horiz-adv-x="712" d="M-63 -662q0 37 95 249t191 501l58 176q-92 109 -186.5 287t-94.5 268q0 61 42 104.5t95 43.5q43 0 79 -29t50 -74l39 -125q10 -37 30.5 -80t51.5 -92q31 84 60.5 162t52.5 131l41 98q14 37 60 48.5t85 -11.5q27 -14 35 -37.5t-2 -66.5l-84 -322q-70 -266 -188.5 -565 t-270.5 -588l-53 -100q-27 -47 -45.5 -59.5t-42.5 -14.5q-43 0 -70.5 26.5t-27.5 69.5z" />
<glyph unicode="&#x444;" horiz-adv-x="1632" d="M33 317q0 209 192.5 384t411.5 155l-16 361q-4 86 30.5 140t108.5 54q68 0 101.5 -44t29.5 -609q66 98 164 149t211 51q137 0 223 -90t86 -241q0 -244 -190.5 -442.5t-387.5 -198.5q-41 0 -63.5 22.5t-22.5 59.5q-2 37 16.5 65.5t51.5 48.5l104 60q109 61 170.5 154 t61.5 222q0 49 -31 78t-82 29q-84 0 -155.5 -98.5t-147.5 -331.5q-4 -197 12.5 -465t34.5 -336l15 -55q23 -92 -26.5 -173t-123.5 -81q-59 0 -97 43t-38 123q0 23 1 66.5t3 64.5q0 53 -6 156.5t-6 158.5l-11 301q-137 -72 -197.5 -88t-127.5 -16q-143 0 -221 87t-78 236z M287 342q0 -55 26.5 -85t69.5 -30q61 0 138 47t126 121v97q-4 61 -30.5 93.5t-67.5 32.5q-82 0 -172 -86t-90 -190z" />
<glyph unicode="&#x445;" horiz-adv-x="882" d="M20 856q0 55 40 100t100 48q37 -2 77.5 -35t73.5 -86l37 -66q31 -57 43 -77.5t29 -43.5q88 100 190.5 180t153.5 82q72 0 103.5 -62t-21.5 -120l-281 -295q23 -31 48.5 -56.5t56.5 -49.5l82 -70q33 -31 50 -64.5t19 -70.5q0 -55 -39 -91t-102 -36q-39 0 -75 16.5 t-171 171.5l-31 35q-23 -37 -43 -71.5t-47 -92.5l-69 -141q-23 -41 -67 -51t-75 18q-31 25 -38 62t20 112l43 125q23 68 51.5 129.5t65.5 124.5q-123 160 -173.5 245t-50.5 130z" />
<glyph unicode="&#x446;" horiz-adv-x="970" d="M88 741q-14 174 11.5 216t97.5 42q55 0 94 -47t43 -131l8 -221q0 -8 -1 -4t1 -403q190 51 217 61t59 27q-10 268 -24 407t-12 170q0 61 32.5 100t94.5 39q57 0 85.5 -36t30.5 -95v-49q-2 -35 5.5 -163t5.5 -302q66 -2 91 -49t27 -201q0 -162 -29.5 -201.5t-93.5 -39.5 q-43 0 -64.5 22.5t-23.5 77.5l-8 152l-207 -82q-68 -29 -168 -53.5t-137 -24.5q-66 0 -94.5 39t-11.5 133q4 37 2 117t-15 270z" />
<glyph unicode="&#x447;" horiz-adv-x="944" d="M43 858q0 78 35 121t96 45q66 0 97.5 -40t39.5 -136q16 -227 46 -291.5t87 -62.5q31 -2 63 25.5t60 80.5q-6 78 -7 92.5t-1 28.5q-10 102 -10 109.5v13.5q0 82 38 127t101 45q74 0 104.5 -42t38.5 -186q2 -78 4.5 -170t8.5 -172q2 -55 6 -99t10 -83q8 -76 8 -81t2 -9 q-2 -123 -40.5 -186.5t-102.5 -63.5q-55 0 -88 47t-39 168l-2 39q-4 51 -7 72.5t-3 68.5q-41 -37 -81 -52t-87 -15q-188 0 -282.5 148.5t-94.5 457.5z" />
<glyph unicode="&#x448;" horiz-adv-x="1267" d="M92 705q-18 178 8.5 236t98.5 58q51 0 93 -48t46 -130l8 -221q0 -8 0 -4t0 -403q205 59 204 58t5 3q0 119 -8 228.5t-25 215.5q-8 66 -14 120t-6 73q0 57 38 94t97 37q49 0 81 -32t34 -83l2 -65q14 -522 15 -505t1 -7q33 10 79 27.5t93 35.5q-2 2 -2 5t2 5q0 20 1 64.5 t1 69.5q0 68 -4 141.5t-8 120.5q-4 35 -11.5 73.5t-7.5 61.5q0 51 35 88t80 37q82 0 119 -73t33 -386l-4 -295q-2 -115 -34 -163t-91 -48q-45 -2 -71 19.5t-24 58.5q-55 -27 -83.5 -34t-98.5 -36q-8 -43 -38.5 -69.5t-71.5 -26.5q-23 0 -48.5 9.5t-48.5 27.5l-37 -12 q-119 -39 -193.5 -58.5t-109.5 -19.5q-61 0 -92 39t-22 168l4 76q2 43 -4.5 177t-10.5 191z" />
<glyph unicode="&#x449;" horiz-adv-x="1339" d="M92 668q-18 174 9.5 234.5t99.5 60.5q51 0 92 -48.5t45 -130.5l8 -221q2 -88 2 -194.5t-2 -212.5q205 59 204 58t5 3q0 119 -8 228.5t-25 216.5q-8 66 -14 120t-6 72q-2 57 38 94t97 37q51 -2 81 -32t34 -83l4 -65q12 -215 14 -312.5t2 -205.5q41 14 83 28.5t87 30.5 q-2 6 -2 11t2 10q0 20 1 64t1 69q0 68 -4 141.5t-8 120.5q-4 35 -11.5 73.5t-7.5 61.5q0 51 35 87t80 38q84 0 117 -68.5t35 -390.5v-147q63 4 90.5 -47.5t27.5 -202.5q-2 -158 -28.5 -200t-93.5 -42q-45 0 -69 25.5t-20 77.5q0 18 -1 38.5t-9 124.5q-90 -47 -147.5 -65.5 t-155.5 -58.5q-8 -43 -38.5 -70t-71.5 -27q-23 0 -47.5 10.5t-49.5 26.5l-35 -12q-92 -31 -182 -53.5t-123 -24.5q-68 0 -95.5 45t-18.5 162l4 76q2 51 -4.5 182t-10.5 186z" />
<glyph unicode="&#x44a;" horiz-adv-x="892" d="M-82 750q0 72 126 159.5t194 87.5q49 0 82.5 -34.5t35.5 -100.5v-71q0 -31 3 -55.5t6 -88.5q31 41 77.5 61.5t122.5 20.5q127 0 211 -71.5t84 -194.5q0 -168 -129 -310.5t-299 -142.5q-129 0 -201.5 89t-76.5 280l-4 158q-2 6 -2.5 12t-4.5 80q-2 12 -3 26.5t-3 81.5 q-23 -29 -58.5 -51t-62.5 -20q-41 -2 -69.5 19.5t-28.5 64.5zM387 367q0 -12 4 -33t6 -29q6 -51 22.5 -70.5t41.5 -19.5q39 0 99.5 78t60.5 137q0 37 -28 60.5t-73 23.5q-37 0 -73.5 -41t-59.5 -106z" />
<glyph unicode="&#x44b;" horiz-adv-x="1187" d="M92 817q0 72 31 108t78 36q53 0 83.5 -37.5t30.5 -98.5v-71l11 -125q25 49 75 73.5t142 24.5q119 0 195.5 -68.5t78.5 -183.5q0 -168 -138 -336t-288 -168q-129 0 -201.5 89.5t-76.5 281.5l-4 158q-4 147 -10.5 233t-6.5 84zM346 332q0 -12 4 -34t6 -30q6 -49 21.5 -69.5 t40.5 -20.5q41 0 103.5 103.5t62.5 164.5q0 33 -19.5 52.5t-56.5 19.5q-49 0 -93 -47t-69 -139zM831 799q0 59 37 100t86 41q82 -2 117 -49t35 -137t-2 -146.5t-4 -128.5l-13 -295q-6 -106 -42.5 -156.5t-98.5 -50.5q-51 0 -77.5 31t-26.5 92q0 45 6 199t8 270q0 25 -2 49.5 t-8 65.5q-14 100 -14.5 104.5t-0.5 10.5z" />
<glyph unicode="&#x44c;" horiz-adv-x="833" d="M63 836q0 72 29 107.5t80 35.5q53 0 83 -37t32 -98v-72q0 -18 3 -62t7 -83q29 43 75 63.5t124 20.5q131 0 211.5 -71t80.5 -196q0 -186 -140 -320t-286 -134q-135 0 -204.5 89t-73.5 281l-4 158q-2 63 -8 109.5t-4 83.5q0 84 0 83t0 3q-2 4 -3.5 17t-1.5 22zM317 348 q0 -14 2.5 -28.5t6.5 -32.5q8 -49 23.5 -69.5t41.5 -20.5q39 0 99.5 77.5t60.5 137.5q0 37 -27.5 60.5t-72.5 23.5q-39 0 -74 -38t-60 -110z" />
<glyph unicode="&#x44d;" horiz-adv-x="907" d="M47 791q0 16 10 35t39 46q76 70 167 104t212 34q109 0 198 -60.5t144 -165.5q51 -6 77 -25.5t26 -51.5q0 -29 -18.5 -59t-41.5 -48q2 -215 -158.5 -411.5t-386.5 -196.5q-104 0 -165.5 47t-61.5 108q0 45 25.5 68t72.5 23q8 0 19.5 -2.5t48.5 -8.5q31 -8 38 -8h13 q96 0 183 80t114 205q-279 -80 -361.5 -102.5t-97.5 -22.5q-35 0 -59.5 20.5t-24.5 51.5q0 39 35 70.5t475 172.5q-35 47 -83 73t-119 26q-33 0 -60.5 -7.5t-87.5 -37.5q-49 -27 -62.5 -31t-23.5 -4q-41 0 -63.5 20.5t-22.5 57.5z" />
<glyph unicode="&#x44e;" horiz-adv-x="1376" d="M43 371q0 51 16.5 76.5t75.5 58.5q-27 281 -25.5 280.5t1.5 20.5q0 80 35.5 119t93.5 39q47 -2 76.5 -40t35.5 -141q8 -172 8 -177t2 -11l162 76q18 84 68.5 148.5t103.5 64.5q35 0 69 -29t36 -61q-2 -12 -5 -25.5t-12 -30.5l-18 -37q-74 -147 -6.5 -299.5t194.5 -152.5 q61 -2 100.5 52t39.5 165q0 143 -62.5 241.5t-132.5 96.5l-43 -2q-35 -2 -49 14.5t-12 93.5q0 41 51 67t117 26q119 0 231.5 -153t112.5 -368t-116 -351t-265 -136q-152 0 -278 122t-150 312q-31 -16 -60.5 -33.5t-58.5 -36.5q10 -49 23.5 -158.5t13.5 -154.5q0 -63 -42 -97 t-95 -34q-47 0 -78 33t-31 98v72q0 25 -3 63.5t-9 100.5q-49 -6 -82 19.5t-33 68.5z" />
<glyph unicode="&#x44f;" horiz-adv-x="901" d="M51 571q0 197 184.5 342.5t413.5 104.5q18 8 43 14t43 8q70 0 94.5 -63.5t-6.5 -265.5q-29 -172 -3 -350.5t26 -229.5q0 -68 -31 -97.5t-90 -29.5t-98 34t-39 83v96q0 27 -2 75t-4 89q-76 -63 -129 -139t-78 -152l-27 -80q-25 -68 -60.5 -101.5t-86.5 -33.5q-47 0 -77 33 t-30 92q0 51 41 140t103 182q-82 16 -134.5 84.5t-52.5 164.5zM295 594q0 -47 24.5 -69.5t83.5 -22.5q29 35 71 65.5t101 65.5l9 182q-14 -2 -29.5 0t-17.5 2q-90 0 -166 -69.5t-76 -153.5z" />
<glyph unicode="&#x2000;" horiz-adv-x="1079" />
<glyph unicode="&#x2001;" horiz-adv-x="2159" />
<glyph unicode="&#x2002;" horiz-adv-x="1079" />
<glyph unicode="&#x2003;" horiz-adv-x="2159" />
<glyph unicode="&#x2004;" horiz-adv-x="719" />
<glyph unicode="&#x2005;" horiz-adv-x="539" />
<glyph unicode="&#x2006;" horiz-adv-x="359" />
<glyph unicode="&#x2007;" horiz-adv-x="359" />
<glyph unicode="&#x2008;" horiz-adv-x="269" />
<glyph unicode="&#x2009;" horiz-adv-x="431" />
<glyph unicode="&#x200a;" horiz-adv-x="119" />
<glyph unicode="&#x2010;" d="M76 596q0 55 54 95t257 93l64 17q76 18 141 28.5t113 12.5q86 -2 150.5 -28t64.5 -66q0 -43 -24 -71t-171 -65l-63 -16q-25 -6 -49.5 -15.5t-53.5 -21.5q-80 -37 -94 -41t-25 -6l-90 -20q-139 -33 -207.5 0.5t-66.5 103.5z" />
<glyph unicode="&#x2011;" d="M76 596q0 55 54 95t257 93l64 17q76 18 141 28.5t113 12.5q86 -2 150.5 -28t64.5 -66q0 -43 -24 -71t-171 -65l-63 -16q-25 -6 -49.5 -15.5t-53.5 -21.5q-80 -37 -94 -41t-25 -6l-90 -20q-139 -33 -207.5 0.5t-66.5 103.5z" />
<glyph unicode="&#x2012;" d="M76 596q0 55 54 95t257 93l64 17q76 18 141 28.5t113 12.5q86 -2 150.5 -28t64.5 -66q0 -43 -24 -71t-171 -65l-63 -16q-25 -6 -49.5 -15.5t-53.5 -21.5q-80 -37 -94 -41t-25 -6l-90 -20q-139 -33 -207.5 0.5t-66.5 103.5z" />
<glyph unicode="&#x2013;" horiz-adv-x="1396" d="M76 625q-2 63 445 186t601 133q59 2 129 -22.5t70 -57.5q0 -18 -6 -29.5t-481 -181.5q-260 -94 -353.5 -117.5t-234.5 -41.5q-82 -12 -127 15.5t-43 115.5z" />
<glyph unicode="&#x2014;" horiz-adv-x="1988" d="M143 649q0 68 613.5 209t890.5 166q59 4 127.5 -19.5t70.5 -58.5q-2 -27 -11 -43t-26 -26q-121 -82 -136 -78.5t-13 30.5l3 1l3 1q-2 25 -31.5 31t-1019.5 -280q-63 -23 -127.5 -36.5t-173.5 -27.5q-82 -12 -127 15.5t-43 115.5z" />
<glyph unicode="&#x2018;" horiz-adv-x="405" d="M72 1247q0 86 22.5 159t116.5 220l33 51q51 80 100 63.5t51 -71.5q-2 -14 -5 -27.5t-19 -48.5l-21 -43q-25 -51 -37 -108.5t-12 -112.5q0 -16 8 -50t10 -42v-25.5v-19.5q-10 -45 -50 -75t-81 -30q-55 0 -85.5 39t-30.5 121z" />
<glyph unicode="&#x2019;" horiz-adv-x="405" d="M72 1163q0 12 3 25.5t21 50.5l21 43q23 49 36 106.5t13 114.5q-2 12 -9 38t-10 54q-2 12 -2 22.5t2 20.5q6 41 48.5 73t85.5 32q55 -2 84.5 -40t29.5 -120q-2 -66 -14 -124t-125 -253l-31 -53q-41 -70 -98 -64.5t-55 74.5z" />
<glyph unicode="&#x201a;" horiz-adv-x="405" d="M41 -344q0 14 6.5 33.5t18.5 42.5l20 41q20 45 33.5 110.5t15.5 110.5q0 14 -9 47t-9 45q-2 12 -2 23.5t2 21.5q6 39 44 72t89 33q55 -2 85 -40t30 -120q0 -76 -18.5 -141.5t-121.5 -237.5l-30 -51q-49 -78 -101.5 -59.5t-52.5 69.5z" />
<glyph unicode="&#x201c;" horiz-adv-x="741" d="M72 1247q0 70 17 135.5t124 243.5l31 51q41 70 96 65t57 -73q0 -12 -4 -24.5t-22 -51.5l-21 -43q-20 -43 -33.5 -103.5t-13.5 -117.5q0 -27 8 -54.5t11 -37.5q0 -12 1 -23.5t-1 -21.5q-10 -43 -52.5 -74t-81.5 -31q-55 0 -85.5 39t-30.5 121zM395 1249q0 25 3 47.5 t114 268.5l25 55q29 63 55 92t57 29q35 0 58.5 -25.5t23.5 -64.5q0 -31 -41 -133.5t-43 -161.5q-2 -6 -2 -8t2 -5q0 -6 1 -12t11 -24q8 -18 10.5 -28.5t2.5 -18.5q0 -70 -41 -112t-111 -42q-59 0 -92 39t-33 104z" />
<glyph unicode="&#x201d;" horiz-adv-x="731" d="M72 1167q0 31 43 141.5t43 153.5q0 6 -4 17.5t-7 21.5q-14 33 -15 41t-1 19q0 70 43 111.5t109 41.5q57 -2 91 -42t34 -103q0 -92 -59.5 -205t-57.5 -111l-25 -55q-29 -63 -56.5 -92t-55.5 -29q-35 0 -59.5 24.5t-22.5 65.5zM397 1163q0 12 3.5 24.5t21.5 51.5l20 43 q23 49 34 103.5t13 117.5q-2 23 -9 48.5t-9 43.5q-2 10 -2 20.5t2 22.5q6 41 50 73t83 32q55 0 86 -40t31 -120q0 -78 -23.5 -152.5t-115.5 -224.5l-33 -53q-41 -68 -96.5 -64.5t-55.5 74.5z" />
<glyph unicode="&#x201e;" horiz-adv-x="784" d="M39 -333q0 -7 57 181q27 94 29 102.5t2 14.5q0 8 -3 19.5t-7 19.5q-14 33 -15.5 41t-1.5 18q-2 66 39 109t113 43q57 0 91 -40t34 -103q0 -92 -59.5 -204t-57.5 -112l-24 -55q-29 -61 -56.5 -91t-56.5 -30q-35 0 -59.5 25.5t-22.5 64.5q-2 4 -2 -3zM420 -344 q-2 14 5 33.5t19 42.5l21 41q23 47 35 107.5t12 113.5q0 25 -8 52.5t-10 39.5q-2 10 -3.5 21.5t3.5 23.5q8 43 50 74t83 31q55 0 85.5 -40t30.5 -120q0 -90 -30.5 -172t-108.5 -207l-33 -51q-51 -76 -101 -60.5t-50 70.5z" />
<glyph unicode="&#x2020;" horiz-adv-x="1110" d="M61 750q-2 33 13.5 55t62.5 47l103 51q20 10 37 19.5t126 70.5l72 41q74 354 108.5 389t98.5 35q53 0 87 -39t34 -116q0 -20 -5 -53t-14 -79q37 23 123 38.5t176 17.5q47 0 78 -22.5t31 -47.5q0 -39 -83 -88t-261 -117l-111 -43l-22 -78q-23 -78 -42.5 -240.5 t-19.5 -248.5q-2 -51 7.5 -102.5t9.5 -69.5q-2 -70 -29 -103.5t-80 -33.5q-102 0 -146 200.5t1 489.5l8 53l-21 -18l-77 -51q-33 -23 -82 -39.5t-82 -16.5q-53 0 -77 24.5t-24 74.5z" />
<glyph unicode="&#x2021;" horiz-adv-x="1118" d="M61 406q0 29 19.5 56t58.5 46l72 33q20 8 72.5 36.5t136.5 77.5l10 84l-18 -18l-78 -51q-33 -23 -82 -39.5t-82 -16.5q-51 -2 -75.5 24t-24.5 75q0 31 15 55.5t58 46.5l105 51q18 8 34.5 17.5t129.5 72.5l71 41q76 367 115 394.5t92 29.5q59 0 89 -37.5t30 -117.5 q0 -29 -4 -59.5t-12 -71.5q37 23 122.5 39t176.5 16q47 0 77.5 -22.5t30.5 -47.5q0 -39 -85 -88t-259 -117l-111 -43l-20 -69q66 18 158 31.5t143 13.5q45 0 77 -20.5t32 -47.5q0 -37 -89.5 -88t-257.5 -117l-104 -40q-6 -66 -15.5 -131.5t-9.5 -98.5q0 -43 9.5 -91t9.5 -81 q-2 -70 -28.5 -103.5t-82.5 -33.5q-70 0 -119 111.5t-42 295.5l-35 -8l-43 -26q-39 -25 -88.5 -45.5t-77.5 -18.5q-51 -2 -76 26.5t-25 74.5z" />
<glyph unicode="&#x2022;" horiz-adv-x="763" d="M115 690q0 98 85 224t179 126q33 0 70 -18.5t47 -20.5l41 -12q57 -18 93 -88t36 -153q0 -145 -102.5 -243.5t-201.5 -98.5q-72 0 -159.5 93t-87.5 191z" />
<glyph unicode="&#x2026;" horiz-adv-x="1122" d="M41 150q0 55 62.5 104t129.5 49q47 0 77 -35t30 -86q0 -63 -47 -107t-109 -44q-53 0 -99 39t-44 80zM442 123q0 59 66.5 106t126.5 47q39 0 72.5 -30.5t33.5 -87.5q0 -59 -47 -106.5t-108 -47.5q-57 0 -100.5 38t-43.5 81zM782 145q0 57 64.5 105.5t130.5 48.5 q43 0 73.5 -34t30.5 -87q0 -63 -47 -107t-108 -44q-53 0 -99.5 38.5t-44.5 79.5z" />
<glyph unicode="&#x202f;" horiz-adv-x="431" />
<glyph unicode="&#x2030;" horiz-adv-x="2144" d="M213 -182q0 137 531.5 1031t674.5 894q53 0 80 -9.5t27 -27.5q0 -63 -4.5 -79t-8.5 -28q-111 -248 -496.5 -756.5t-527.5 -758.5q-229 -403 -229 -404.5t-14 -1.5q-16 0 -24.5 27t-8.5 113zM348 1247q0 35 48 102.5t102 112.5q0 57 69.5 110.5t143.5 53.5t139 -60.5 t65 -158.5q0 -113 -110.5 -246t-233.5 -131q-98 0 -160.5 61.5t-62.5 155.5zM590 1212h2q0 -12 14.5 -32.5t26.5 -20.5q18 0 53 56t37 85q0 12 -23.5 22.5t-44.5 10.5q-20 0 -41.5 -40t-21.5 -79zM913 346q0 117 90.5 222.5t174.5 105.5q90 -2 188 -89t98 -165 q0 -119 -99 -220.5t-220 -101.5q-115 0 -174.5 66.5t-57.5 181.5zM1143 326h2q0 -12 14.5 -33t26.5 -21q16 0 53 54.5t37 87.5q0 12 -23.5 22t-44.5 10q-20 -2 -41.5 -39.5t-21.5 -78.5zM1522 346q-2 117 89 222.5t175 105.5q90 0 188.5 -88t98.5 -166q0 -119 -99.5 -220.5 t-220.5 -101.5q-115 0 -174 66.5t-57 181.5zM1751 326h2q0 -12 14.5 -33t26.5 -21q16 0 53 54.5t37 87.5q0 12 -23.5 22t-43.5 10t-42 -38.5t-22 -79.5z" />
<glyph unicode="&#x2039;" horiz-adv-x="851" d="M102 516q0 59 22.5 109.5t84.5 111.5l61 62q41 41 97.5 101.5t81.5 90.5l43 56q16 23 47.5 37t62.5 14q51 0 68.5 -48.5t-19.5 -105.5l-59 -92q-16 -25 -59.5 -75t-65.5 -79q-25 -31 -36 -46t-19 -31q147 -86 242.5 -201t95.5 -234q0 -33 -13.5 -50t-34.5 -17 q-16 0 -30.5 7t-75.5 79l-31 35q-16 16 -131 68t-158 69q-106 37 -140 62.5t-34 76.5z" />
<glyph unicode="&#x203a;" horiz-adv-x="864" d="M102 887q0 55 40 104t98 51q25 0 54 -11t226 -154l150 -111q66 -49 79 -69.5t13 -43.5q0 -16 -8.5 -34.5t-34.5 -55.5l-64 -86q-43 -59 -113.5 -151.5t-99.5 -126.5l-45 -56q-45 -55 -75.5 -77.5t-55.5 -22.5q-23 -2 -44 13.5t-19 33.5q0 25 9 53.5t32 67.5l18 33 q63 113 107.5 183.5t91.5 135.5q-199 135 -279 207t-80 117z" />
<glyph unicode="&#x205f;" horiz-adv-x="539" />
<glyph unicode="&#x2122;" horiz-adv-x="1488" d="M0 1190q0 35 17.5 59.5t56.5 40.5l65 27q406 164 500 186.5t164 22.5q39 0 63.5 -16.5t24.5 -39.5q-2 -29 -16.5 -50t-34.5 -25l-37 -11q-84 -25 -133 -41t-195 -75q12 -260 13 -274.5t1 -26.5q0 -213 -26.5 -273.5t-83.5 -60.5q-49 0 -71.5 34.5t-22.5 364.5v156 l-95 -47l-53 -27q-49 -25 -93 0t-44 76zM688 653q0 43 5 154t7 166l5 198q0 80 33.5 121t84.5 41q39 0 71 -30.5t79 -108.5l100 -127q121 154 123 158t4 10l10 31q18 57 48 86.5t71 31.5q41 0 69.5 -28.5t28.5 -83.5q0 -53 -14 -102.5t-18 -215.5q-2 -12 -2 -24t2 -27 q2 -100 3 -127.5t7 -46.5q6 -33 7 -42t1 -17q-2 -57 -31.5 -92t-85.5 -35q-55 0 -80.5 44t-23.5 177q0 8 -1 28.5t1 32.5v3t6 85v24v1q-4 0 -45 -67.5t-102 -67.5q-27 0 -80 46t-84 93q10 -76 5 -135t-3 -66q0 -14 3 -23t5 -32v-2v-16q-2 -51 -1 -50h1q-6 -39 -38 -67.5 t-71 -28.5q-51 0 -75.5 34t-24.5 97z" />
<glyph unicode="&#x2248;" horiz-adv-x="1337" d="M82 350q-2 135 180 252t387 86l103 -16q170 -29 261 35.5t136 66.5q68 0 108.5 -41t40.5 -98q0 -94 -93 -160.5t-261 -58.5l-110 4l-134 8q-164 8 -203.5 -3t-76.5 -34q-20 -14 -95 -87t-124 -73t-84 35t-35 84zM90 797q-2 135 180.5 251.5t386.5 86.5l103 -17 q170 -29 261 37t136 66q68 0 109 -41t41 -99q0 -94 -93.5 -160.5t-261.5 -58.5l-110 4l-133 8q-164 8 -204 -3t-77 -33q-20 -14 -95 -87t-124 -73t-84 35t-35 84z" />
<glyph unicode="&#x2264;" horiz-adv-x="905" d="M59 459q-2 49 50.5 70.5t121.5 -15.5l127 -70q57 -33 174 -126t179 -148l82 -78q29 -29 39 -48t10 -38q0 -47 -42 -65.5t-108 24.5l-47 31q-305 197 -350 228.5t-90 66.5q-92 66 -119 100.5t-27 67.5zM84 786.5q0 8.5 2 16.5q4 31 4 32t268 298q276 287 290 289.5t32 4.5 q39 -2 70.5 -36.5t31.5 -73.5q0 -41 -119.5 -197.5t-230.5 -275.5q-12 -14 -10 -36t16 -40q37 -39 72 -69.5t223 -163.5l58 -41q57 -53 46.5 -116t-53.5 -61q-86 0 -187 44.5t-241 136.5q-119 80 -191.5 150.5t-78.5 123.5q-2 6 -2 14.5z" />
<glyph unicode="&#x2265;" horiz-adv-x="905" d="M59 4q0 18 9.5 37.5t40.5 48.5l81 78q59 55 176 148.5t177 125.5l127 70q68 37 120 15.5t52 -70.5q0 -33 -28 -68t-118 -100q-57 -43 -126.5 -86t-114.5 -74q-25 -18 -86.5 -61t-110.5 -74l-49 -31q-70 -41 -110 -24.5t-40 65.5zM64 379q-10 62 49 115l57 41 q186 133 221 163.5t74 69.5q12 18 14 39.5t-8 36.5q-104 111 -227 273.5t-123 199.5q0 41 28.5 75.5t73.5 34.5q16 0 29.5 -5t292.5 -289q266 -297 266 -298t6 -32v-16.5v-14.5q-8 -53 -80.5 -123.5t-189.5 -150.5q-90 -63 -224.5 -122t-203.5 -59q-45 0 -55 62z" />
<glyph unicode="&#x25fc;" horiz-adv-x="1003" d="M0 0v1004h1004v-1004h-1004z" />
</font>
</defs>
</svg>
